<svg xmlns="http://www.w3.org/2000/svg" xmlns:xlink="http://www.w3.org/1999/xlink" width="601" zoomAndPan="magnify" viewBox="0 0 450.75 281.999989" height="376" preserveAspectRatio="xMidYMid meet" version="1.0"><defs><g/><clipPath id="48f5c0c14a"><path d="M 37.742188 38.042969 L 263.769531 38.042969 L 263.769531 230.621094 L 37.742188 230.621094 Z M 37.742188 38.042969 " clip-rule="nonzero"/></clipPath></defs><g clip-path="url(#48f5c0c14a)"><path fill="#216b39" d="M 263.769531 131.546875 C 263.769531 131.546875 231.140625 152.210938 207.339844 138.609375 C 183.539062 125.015625 167.6875 100.449219 160.871094 101.667969 C 156.933594 102.375 148.390625 111.640625 147.324219 112.984375 C 146.238281 114.367188 144.917969 116.054688 143.476562 118.039062 C 142.019531 120.007812 140.433594 122.277344 138.75 124.78125 C 137.925781 126.042969 137.039062 127.34375 136.1875 128.726562 C 135.753906 129.410156 135.3125 130.113281 134.863281 130.820312 C 134.433594 131.539062 133.996094 132.265625 133.550781 133.007812 C 132.644531 134.476562 131.792969 136.03125 130.886719 137.601562 C 130.011719 139.183594 129.128906 140.808594 128.261719 142.472656 C 127.421875 144.152344 126.519531 145.835938 125.71875 147.59375 C 125.304688 148.46875 124.890625 149.34375 124.472656 150.226562 C 124.082031 151.121094 123.6875 152.015625 123.292969 152.917969 C 122.480469 154.710938 121.78125 156.566406 121.035156 158.40625 C 120.652344 159.324219 120.339844 160.269531 119.996094 161.203125 L 118.984375 164.011719 L 118.078125 166.851562 C 117.78125 167.800781 117.457031 168.738281 117.210938 169.699219 C 116.699219 171.609375 116.121094 173.492188 115.71875 175.398438 C 115.5 176.347656 115.28125 177.292969 115.0625 178.234375 C 114.855469 179.175781 114.707031 180.125 114.527344 181.0625 C 114.359375 182 114.171875 182.925781 114.023438 183.855469 C 113.898438 184.785156 113.777344 185.707031 113.652344 186.625 C 113.542969 187.539062 113.378906 188.441406 113.316406 189.34375 C 113.246094 190.246094 113.171875 191.140625 113.101562 192.023438 C 112.914062 193.785156 112.90625 195.519531 112.863281 197.203125 C 112.851562 198.042969 112.789062 198.871094 112.828125 199.6875 C 112.851562 200.5 112.878906 201.304688 112.90625 202.09375 C 112.933594 202.878906 112.957031 203.65625 112.984375 204.417969 C 113.054688 205.175781 113.125 205.917969 113.195312 206.644531 C 113.265625 207.371094 113.332031 208.082031 113.398438 208.777344 C 113.433594 209.125 113.457031 209.46875 113.503906 209.804688 C 113.554688 210.144531 113.609375 210.472656 113.664062 210.800781 C 113.875 212.113281 114.074219 213.355469 114.265625 214.523438 C 114.339844 215.109375 114.507812 215.660156 114.621094 216.199219 C 114.746094 216.734375 114.863281 217.253906 114.980469 217.75 C 115.21875 218.746094 115.40625 219.664062 115.625 220.480469 C 116.617188 223.714844 117.183594 225.5625 117.183594 225.5625 L 117.257812 225.808594 C 117.859375 227.773438 116.753906 229.855469 114.78125 230.457031 C 112.8125 231.058594 110.726562 229.953125 110.125 227.988281 C 110.109375 227.9375 110.09375 227.875 110.078125 227.824219 C 110.078125 227.824219 109.550781 225.777344 108.628906 222.195312 C 108.433594 221.292969 108.269531 220.28125 108.058594 219.191406 C 107.957031 218.644531 107.851562 218.074219 107.742188 217.484375 C 107.648438 216.890625 107.496094 216.285156 107.445312 215.648438 C 107.296875 214.375 107.140625 213.015625 106.976562 211.585938 C 106.933594 211.230469 106.894531 210.867188 106.851562 210.503906 C 106.820312 210.136719 106.808594 209.761719 106.789062 209.386719 C 106.75 208.632812 106.710938 207.863281 106.671875 207.078125 C 106.636719 206.292969 106.597656 205.488281 106.558594 204.671875 C 106.566406 203.855469 106.574219 203.023438 106.585938 202.175781 C 106.597656 201.332031 106.605469 200.46875 106.617188 199.597656 C 106.617188 198.722656 106.722656 197.839844 106.773438 196.945312 C 106.902344 195.15625 107 193.316406 107.28125 191.457031 C 107.398438 190.523438 107.519531 189.582031 107.640625 188.632812 C 107.746094 187.679688 107.960938 186.738281 108.121094 185.777344 C 108.292969 184.820312 108.46875 183.855469 108.644531 182.882812 C 108.84375 181.917969 109.082031 180.949219 109.304688 179.976562 C 109.539062 179.003906 109.742188 178.019531 110 177.046875 C 110.269531 176.074219 110.542969 175.097656 110.816406 174.117188 C 111.328125 172.148438 112.015625 170.21875 112.640625 168.265625 C 112.945312 167.285156 113.316406 166.324219 113.671875 165.359375 L 114.742188 162.46875 L 115.914062 159.617188 C 116.3125 158.671875 116.679688 157.714844 117.117188 156.789062 C 117.964844 154.929688 118.773438 153.0625 119.6875 151.261719 C 120.132812 150.359375 120.578125 149.457031 121.019531 148.5625 C 121.488281 147.679688 121.953125 146.804688 122.414062 145.929688 C 123.316406 144.171875 124.3125 142.496094 125.246094 140.824219 C 126.207031 139.167969 127.183594 137.554688 128.144531 135.984375 C 129.136719 134.433594 130.074219 132.894531 131.058594 131.445312 C 131.546875 130.714844 132.023438 129.996094 132.496094 129.289062 C 132.980469 128.589844 133.460938 127.902344 133.929688 127.226562 C 134.859375 125.863281 135.8125 124.589844 136.707031 123.347656 C 138.527344 120.894531 140.234375 118.675781 141.796875 116.75 C 143.34375 114.808594 144.753906 113.167969 145.914062 111.816406 C 146.90625 110.679688 147.734375 109.761719 148.359375 109.082031 C 148.359375 109.082031 146.355469 97.671875 143.242188 93.988281 C 137.851562 87.609375 111.640625 96.316406 83.902344 89.382812 C 56.167969 82.453125 37.742188 39.1875 37.742188 39.1875 C 37.742188 39.1875 59.1875 39.195312 85.132812 38.078125 C 118.4375 36.644531 139.796875 78.550781 144.988281 90.933594 C 148.089844 98.34375 149.472656 103.800781 150.082031 106.992188 C 151.929688 104.957031 155.339844 101.707031 160.894531 98.132812 C 170.171875 92.160156 204.40625 74.546875 228.742188 98.371094 C 247.699219 116.925781 263.769531 131.546875 263.769531 131.546875 " fill-opacity="1" fill-rule="nonzero"/></g><path fill="#2d9d49" d="M 184.714844 111.34375 C 184.609375 111.128906 184.488281 110.890625 184.359375 110.625 C 184.21875 110.367188 184.117188 110.066406 183.988281 109.757812 C 183.855469 109.449219 183.746094 109.113281 183.640625 108.761719 C 183.515625 108.417969 183.425781 108.050781 183.335938 107.675781 C 183.230469 107.308594 183.167969 106.921875 183.089844 106.539062 C 182.945312 105.773438 182.851562 105 182.792969 104.269531 C 182.738281 103.542969 182.71875 102.859375 182.722656 102.277344 C 182.722656 101.105469 182.820312 100.335938 182.820312 100.335938 L 182.535156 100.308594 C 182.535156 100.308594 182.457031 101.101562 182.480469 102.277344 C 182.492188 102.867188 182.527344 103.554688 182.597656 104.289062 C 182.671875 105.019531 182.785156 105.796875 182.949219 106.566406 C 183.035156 106.949219 183.105469 107.335938 183.222656 107.707031 C 183.324219 108.078125 183.421875 108.445312 183.550781 108.789062 C 183.671875 109.140625 183.785156 109.476562 183.929688 109.78125 C 184.0625 110.089844 184.171875 110.390625 184.320312 110.644531 C 184.453125 110.90625 184.578125 111.144531 184.691406 111.359375 C 184.816406 111.558594 184.925781 111.734375 185.019531 111.882812 C 185.203125 112.171875 185.308594 112.335938 185.308594 112.335938 C 185.308594 112.335938 185.207031 112.167969 185.03125 111.871094 C 184.941406 111.726562 184.835938 111.550781 184.714844 111.34375 Z M 216.105469 133.046875 L 216.300781 132.839844 C 216.304688 132.835938 216.226562 132.882812 216.160156 132.875 C 216.132812 132.871094 216.109375 132.851562 216.089844 132.824219 C 216.113281 132.847656 216.132812 132.871094 216.140625 132.898438 C 216.144531 132.964844 216.101562 133.050781 216.105469 133.046875 Z M 216.023438 132.757812 C 216.046875 132.78125 216.070312 132.804688 216.089844 132.824219 C 216.070312 132.804688 216.046875 132.78125 216.023438 132.757812 Z M 251.257812 130.519531 C 248.460938 130.402344 244.472656 129.886719 239.871094 128.558594 C 239.554688 128.464844 239.234375 128.363281 238.914062 128.265625 C 238.980469 128.199219 239.058594 128.121094 239.160156 128.019531 C 239.292969 127.882812 239.449219 127.710938 239.671875 127.558594 C 239.886719 127.402344 240.113281 127.203125 240.394531 127.027344 C 240.679688 126.863281 240.980469 126.667969 241.316406 126.492188 C 241.660156 126.332031 242.015625 126.144531 242.398438 125.992188 C 242.789062 125.847656 243.179688 125.667969 243.597656 125.546875 C 244.015625 125.414062 244.433594 125.269531 244.867188 125.167969 C 245.292969 125.046875 245.726562 124.945312 246.152344 124.859375 C 246.582031 124.757812 247.007812 124.6875 247.414062 124.613281 C 248.238281 124.472656 249.007812 124.371094 249.671875 124.300781 C 251 124.164062 251.890625 124.140625 251.890625 124.140625 C 251.890625 124.140625 251 124.144531 249.667969 124.257812 C 249.003906 124.316406 248.226562 124.398438 247.402344 124.523438 C 246.988281 124.59375 246.558594 124.652344 246.132812 124.742188 C 245.699219 124.824219 245.265625 124.917969 244.832031 125.027344 C 244.394531 125.125 243.96875 125.261719 243.546875 125.386719 C 243.121094 125.5 242.722656 125.671875 242.328125 125.808594 C 241.933594 125.957031 241.566406 126.140625 241.214844 126.296875 C 240.871094 126.46875 240.558594 126.660156 240.265625 126.824219 C 239.972656 126.996094 239.734375 127.199219 239.511719 127.355469 C 239.277344 127.507812 239.113281 127.683594 238.96875 127.824219 C 238.804688 127.984375 238.683594 128.097656 238.609375 128.171875 C 234.328125 126.828125 229.625 124.769531 224.949219 121.976562 C 224.703125 121.828125 224.460938 121.671875 224.214844 121.519531 C 224.355469 121.328125 224.78125 120.78125 225.480469 120.113281 C 225.691406 119.898438 225.933594 119.679688 226.195312 119.457031 C 226.449219 119.226562 226.746094 119.015625 227.039062 118.78125 C 227.351562 118.574219 227.660156 118.332031 228 118.136719 C 228.339844 117.933594 228.683594 117.726562 229.050781 117.554688 C 229.226562 117.46875 229.40625 117.371094 229.585938 117.289062 C 229.773438 117.214844 229.960938 117.140625 230.140625 117.070312 C 230.503906 116.90625 230.882812 116.808594 231.242188 116.695312 C 231.601562 116.570312 231.960938 116.519531 232.300781 116.445312 C 232.46875 116.414062 232.632812 116.375 232.792969 116.351562 C 232.957031 116.335938 233.113281 116.316406 233.265625 116.304688 C 233.566406 116.277344 233.839844 116.234375 234.085938 116.230469 C 234.332031 116.234375 234.546875 116.234375 234.722656 116.234375 C 235.078125 116.238281 235.277344 116.238281 235.277344 116.238281 C 235.277344 116.238281 235.078125 116.230469 234.722656 116.222656 C 234.546875 116.21875 234.332031 116.214844 234.085938 116.207031 C 233.835938 116.203125 233.5625 116.238281 233.257812 116.261719 C 233.109375 116.269531 232.949219 116.28125 232.789062 116.296875 C 232.625 116.316406 232.460938 116.351562 232.289062 116.382812 C 231.945312 116.445312 231.582031 116.492188 231.21875 116.609375 C 230.851562 116.714844 230.472656 116.804688 230.101562 116.960938 C 229.914062 117.03125 229.726562 117.101562 229.535156 117.171875 C 229.351562 117.25 229.171875 117.34375 228.984375 117.425781 C 228.613281 117.589844 228.261719 117.792969 227.914062 117.992188 C 227.5625 118.183594 227.246094 118.417969 226.925781 118.625 C 226.625 118.855469 226.316406 119.058594 226.050781 119.289062 C 225.78125 119.511719 225.53125 119.726562 225.308594 119.9375 C 224.566406 120.621094 224.105469 121.195312 223.972656 121.371094 C 221.734375 119.988281 219.507812 118.453125 217.339844 116.777344 C 216.082031 115.828125 214.871094 114.785156 213.644531 113.746094 C 213.648438 113.730469 213.648438 113.722656 213.652344 113.703125 C 213.667969 113.609375 213.703125 113.472656 213.746094 113.296875 C 213.796875 113.121094 213.851562 112.910156 213.945312 112.671875 C 214.03125 112.433594 214.152344 112.175781 214.296875 111.894531 C 214.441406 111.621094 214.617188 111.328125 214.824219 111.039062 C 214.933594 110.894531 215.046875 110.75 215.164062 110.597656 C 215.285156 110.457031 215.421875 110.324219 215.558594 110.179688 C 215.8125 109.878906 216.160156 109.65625 216.472656 109.382812 C 216.824219 109.171875 217.160156 108.914062 217.542969 108.738281 C 217.925781 108.566406 218.296875 108.351562 218.699219 108.246094 C 219.097656 108.125 219.476562 107.964844 219.871094 107.90625 C 220.261719 107.835938 220.632812 107.734375 220.996094 107.691406 C 221.355469 107.65625 221.699219 107.621094 222.015625 107.59375 C 222.332031 107.550781 222.625 107.554688 222.882812 107.558594 C 223.140625 107.558594 223.367188 107.558594 223.550781 107.558594 C 223.921875 107.558594 224.136719 107.558594 224.136719 107.558594 C 224.136719 107.558594 223.921875 107.554688 223.550781 107.546875 C 223.367188 107.539062 223.140625 107.535156 222.882812 107.53125 C 222.625 107.523438 222.328125 107.515625 222.011719 107.550781 C 221.695312 107.574219 221.351562 107.597656 220.984375 107.625 C 220.621094 107.660156 220.246094 107.753906 219.851562 107.816406 C 219.453125 107.871094 219.066406 108.019531 218.664062 108.136719 C 218.25 108.238281 217.875 108.445312 217.480469 108.609375 C 217.085938 108.78125 216.738281 109.035156 216.371094 109.246094 C 216.050781 109.515625 215.691406 109.738281 215.421875 110.039062 C 215.277344 110.183594 215.132812 110.316406 215.003906 110.464844 C 214.882812 110.617188 214.761719 110.761719 214.648438 110.90625 C 214.425781 111.203125 214.238281 111.5 214.082031 111.78125 C 213.925781 112.066406 213.796875 112.332031 213.707031 112.578125 C 213.601562 112.820312 213.539062 113.042969 213.480469 113.222656 C 213.445312 113.351562 213.421875 113.449219 213.402344 113.539062 C 212.273438 112.582031 211.128906 111.632812 209.917969 110.757812 C 205.914062 107.808594 201.496094 105.476562 197.050781 103.722656 C 197.085938 103.605469 197.144531 103.402344 197.25 103.109375 C 197.414062 102.652344 197.671875 101.996094 198.054688 101.242188 C 198.441406 100.496094 198.9375 99.644531 199.597656 98.820312 C 199.917969 98.40625 200.292969 98.007812 200.6875 97.621094 C 201.09375 97.246094 201.515625 96.875 201.988281 96.566406 C 202.449219 96.246094 202.945312 95.976562 203.449219 95.75 C 203.960938 95.535156 204.476562 95.347656 204.992188 95.238281 C 205.246094 95.171875 205.5 95.117188 205.753906 95.089844 C 206.007812 95.046875 206.253906 95.015625 206.496094 95.007812 C 206.980469 94.960938 207.441406 94.980469 207.863281 94.988281 C 208.285156 95.039062 208.675781 95.050781 209.011719 95.121094 C 209.351562 95.179688 209.652344 95.214844 209.890625 95.285156 C 210.371094 95.402344 210.648438 95.46875 210.648438 95.46875 C 210.648438 95.46875 210.371094 95.394531 209.894531 95.269531 C 209.65625 95.203125 209.355469 95.160156 209.015625 95.09375 C 208.679688 95.015625 208.289062 95 207.863281 94.945312 C 207.441406 94.933594 206.980469 94.898438 206.492188 94.9375 C 206.246094 94.941406 205.996094 94.972656 205.742188 95.011719 C 205.488281 95.039062 205.230469 95.085938 204.96875 95.148438 C 204.445312 95.253906 203.921875 95.433594 203.402344 95.640625 C 202.886719 95.863281 202.382812 96.128906 201.90625 96.449219 C 201.425781 96.753906 200.988281 97.125 200.570312 97.496094 C 200.164062 97.882812 199.78125 98.28125 199.445312 98.699219 C 198.765625 99.523438 198.242188 100.378906 197.839844 101.132812 C 197.207031 102.34375 196.886719 103.285156 196.785156 103.625 C 195.558594 103.148438 194.328125 102.703125 193.109375 102.316406 C 188.746094 100.9375 184.480469 100.101562 180.578125 99.613281 C 180.625 99.539062 180.6875 99.4375 180.765625 99.308594 C 180.851562 99.171875 180.957031 99 181.078125 98.804688 C 181.203125 98.613281 181.328125 98.386719 181.492188 98.160156 C 181.65625 97.929688 181.832031 97.679688 182.019531 97.417969 C 182.199219 97.148438 182.410156 96.886719 182.636719 96.617188 C 182.867188 96.351562 183.078125 96.050781 183.34375 95.796875 C 183.609375 95.535156 183.847656 95.246094 184.136719 95.003906 C 184.421875 94.765625 184.6875 94.492188 184.996094 94.289062 C 185.148438 94.183594 185.292969 94.074219 185.441406 93.96875 C 185.589844 93.867188 185.75 93.785156 185.902344 93.695312 C 186.199219 93.503906 186.519531 93.386719 186.808594 93.25 C 187.117188 93.148438 187.402344 93.035156 187.679688 92.992188 C 187.953125 92.921875 188.214844 92.90625 188.441406 92.886719 C 188.671875 92.882812 188.871094 92.886719 189.035156 92.910156 C 189.363281 92.945312 189.539062 93.011719 189.539062 93.011719 C 189.539062 93.011719 189.367188 92.941406 189.039062 92.894531 C 188.875 92.871094 188.671875 92.863281 188.441406 92.859375 C 188.210938 92.875 187.949219 92.882812 187.671875 92.949219 C 187.390625 92.984375 187.097656 93.09375 186.789062 93.1875 C 186.488281 93.320312 186.160156 93.429688 185.855469 93.617188 C 185.703125 93.703125 185.539062 93.785156 185.386719 93.882812 C 185.234375 93.988281 185.082031 94.09375 184.929688 94.195312 C 184.609375 94.394531 184.335938 94.660156 184.042969 94.898438 C 183.742188 95.136719 183.496094 95.421875 183.222656 95.679688 C 182.945312 95.933594 182.726562 96.230469 182.488281 96.492188 C 182.253906 96.757812 182.03125 97.019531 181.84375 97.289062 C 181.648438 97.546875 181.464844 97.792969 181.292969 98.023438 C 181.121094 98.246094 180.992188 98.476562 180.859375 98.664062 C 180.734375 98.859375 180.625 99.027344 180.535156 99.167969 C 180.394531 99.382812 180.300781 99.523438 180.265625 99.578125 C 179.136719 99.4375 178.035156 99.328125 176.980469 99.246094 C 174.578125 99.050781 172.371094 99.007812 170.417969 99.019531 C 168.464844 99.035156 166.761719 99.117188 165.363281 99.222656 C 162.566406 99.429688 160.988281 99.710938 160.988281 99.710938 C 160.988281 99.710938 162.570312 99.460938 165.371094 99.308594 C 166.769531 99.234375 168.46875 99.183594 170.417969 99.210938 C 172.367188 99.230469 174.566406 99.339844 176.953125 99.546875 C 181.304688 99.9375 186.300781 100.765625 191.460938 102.316406 C 191.457031 102.339844 191.449219 102.363281 191.441406 102.386719 C 191.378906 102.597656 191.3125 102.90625 191.226562 103.300781 C 191.164062 103.695312 191.058594 104.171875 191.015625 104.730469 C 190.992188 105.003906 190.949219 105.300781 190.933594 105.613281 C 190.921875 105.925781 190.910156 106.253906 190.902344 106.597656 C 190.875 106.941406 190.910156 107.296875 190.917969 107.667969 C 190.941406 108.035156 190.929688 108.417969 190.992188 108.804688 C 191.039062 109.199219 191.085938 109.597656 191.136719 110.007812 C 191.183594 110.417969 191.292969 110.824219 191.371094 111.246094 C 191.507812 112.09375 191.808594 112.925781 192.058594 113.789062 C 192.175781 114.226562 192.378906 114.632812 192.539062 115.054688 C 192.714844 115.476562 192.867188 115.90625 193.066406 116.316406 C 193.277344 116.722656 193.488281 117.125 193.699219 117.527344 C 193.914062 117.929688 194.097656 118.34375 194.359375 118.710938 C 194.605469 119.085938 194.847656 119.457031 195.085938 119.828125 C 195.332031 120.191406 195.546875 120.570312 195.828125 120.894531 C 196.355469 121.5625 196.871094 122.207031 197.359375 122.820312 C 197.898438 123.386719 198.410156 123.921875 198.878906 124.417969 C 199.117188 124.664062 199.34375 124.898438 199.558594 125.125 C 199.785156 125.339844 200.011719 125.523438 200.21875 125.710938 C 200.636719 126.074219 201 126.394531 201.300781 126.652344 C 201.902344 127.179688 202.246094 127.476562 202.246094 127.476562 C 202.246094 127.476562 201.902344 127.175781 201.308594 126.644531 C 201.011719 126.378906 200.652344 126.058594 200.238281 125.691406 C 200.03125 125.503906 199.804688 125.3125 199.582031 125.097656 C 199.371094 124.871094 199.148438 124.636719 198.914062 124.386719 C 198.445312 123.886719 197.941406 123.347656 197.410156 122.777344 C 196.929688 122.164062 196.421875 121.511719 195.898438 120.84375 C 195.621094 120.515625 195.414062 120.136719 195.171875 119.769531 C 194.9375 119.402344 194.699219 119.023438 194.457031 118.648438 C 194.203125 118.28125 194.023438 117.867188 193.8125 117.46875 C 193.609375 117.0625 193.402344 116.660156 193.199219 116.257812 C 193.003906 115.847656 192.855469 115.417969 192.6875 115 C 192.53125 114.578125 192.332031 114.171875 192.21875 113.738281 C 191.980469 112.878906 191.691406 112.046875 191.5625 111.207031 C 191.488281 110.789062 191.386719 110.382812 191.339844 109.976562 C 191.296875 109.570312 191.253906 109.171875 191.210938 108.789062 C 191.15625 108.402344 191.167969 108.023438 191.152344 107.65625 C 191.144531 107.292969 191.113281 106.941406 191.140625 106.601562 C 191.15625 106.261719 191.167969 105.9375 191.183594 105.632812 C 191.203125 105.324219 191.246094 105.03125 191.273438 104.757812 C 191.320312 104.210938 191.429688 103.742188 191.496094 103.355469 C 191.582031 102.96875 191.652344 102.667969 191.710938 102.46875 C 191.71875 102.445312 191.726562 102.421875 191.734375 102.398438 C 192.140625 102.523438 192.550781 102.644531 192.960938 102.777344 C 197.222656 104.152344 201.554688 106.0625 205.617188 108.53125 C 205.722656 109.105469 206.007812 110.53125 206.476562 112.417969 C 206.640625 113.035156 206.8125 113.703125 207 114.414062 C 207.207031 115.117188 207.390625 115.867188 207.632812 116.628906 C 207.863281 117.390625 208.101562 118.179688 208.378906 118.972656 C 208.636719 119.773438 208.933594 120.570312 209.234375 121.367188 C 209.519531 122.167969 209.875 122.945312 210.191406 123.71875 C 210.515625 124.492188 210.898438 125.226562 211.234375 125.949219 C 211.597656 126.660156 211.984375 127.332031 212.335938 127.972656 C 212.714844 128.597656 213.105469 129.171875 213.445312 129.710938 C 213.808594 130.238281 214.1875 130.683594 214.5 131.097656 C 214.800781 131.523438 215.132812 131.832031 215.390625 132.101562 C 215.648438 132.371094 215.855469 132.582031 215.992188 132.722656 C 216.003906 132.738281 216.011719 132.746094 216.023438 132.757812 C 216.011719 132.746094 216.007812 132.734375 215.992188 132.722656 C 215.855469 132.578125 215.652344 132.367188 215.394531 132.097656 C 215.140625 131.824219 214.8125 131.511719 214.511719 131.085938 C 214.203125 130.671875 213.828125 130.222656 213.46875 129.691406 C 213.128906 129.152344 212.75 128.578125 212.371094 127.953125 C 212.027344 127.304688 211.644531 126.636719 211.289062 125.921875 C 210.960938 125.195312 210.582031 124.464844 210.265625 123.6875 C 209.953125 122.910156 209.601562 122.136719 209.324219 121.332031 C 209.027344 120.535156 208.738281 119.738281 208.488281 118.9375 C 208.214844 118.144531 207.984375 117.355469 207.757812 116.589844 C 207.523438 115.828125 207.339844 115.078125 207.148438 114.375 C 206.980469 113.664062 206.816406 112.992188 206.667969 112.371094 C 206.292969 110.710938 206.054688 109.417969 205.933594 108.738281 C 207.183594 109.507812 208.40625 110.328125 209.589844 111.207031 C 212.160156 113.082031 214.460938 115.3125 217.003906 117.210938 C 218.28125 118.191406 219.582031 119.121094 220.886719 120.003906 L 220.882812 120.003906 C 220.882812 120.003906 221.191406 121.140625 221.828125 122.773438 C 221.984375 123.183594 222.160156 123.621094 222.359375 124.082031 C 222.550781 124.546875 222.78125 125.027344 223.003906 125.523438 C 223.238281 126.019531 223.492188 126.527344 223.753906 127.035156 C 224.035156 127.539062 224.289062 128.0625 224.597656 128.5625 C 224.894531 129.0625 225.1875 129.570312 225.507812 130.046875 C 225.820312 130.53125 226.136719 130.996094 226.464844 131.4375 C 226.625 131.65625 226.785156 131.875 226.941406 132.085938 C 227.105469 132.292969 227.265625 132.492188 227.425781 132.6875 C 227.742188 133.074219 228.03125 133.449219 228.339844 133.765625 C 228.632812 134.085938 228.90625 134.378906 229.148438 134.640625 C 229.40625 134.886719 229.628906 135.101562 229.816406 135.273438 C 230.1875 135.625 230.398438 135.824219 230.398438 135.824219 C 230.398438 135.824219 230.1875 135.621094 229.824219 135.265625 C 229.644531 135.085938 229.421875 134.871094 229.167969 134.625 C 228.929688 134.359375 228.664062 134.058594 228.371094 133.734375 C 228.070312 133.417969 227.785156 133.039062 227.476562 132.648438 C 227.320312 132.449219 227.164062 132.246094 227 132.042969 C 226.851562 131.824219 226.695312 131.605469 226.539062 131.382812 C 226.214844 130.941406 225.910156 130.46875 225.609375 129.980469 C 225.292969 129.503906 225.011719 128.996094 224.722656 128.492188 C 224.421875 127.992188 224.175781 127.464844 223.90625 126.960938 C 223.652344 126.449219 223.40625 125.9375 223.179688 125.441406 C 222.964844 124.941406 222.742188 124.464844 222.5625 124 C 222.371094 123.539062 222.203125 123.097656 222.050781 122.6875 C 221.628906 121.550781 221.363281 120.671875 221.242188 120.234375 C 222.386719 121 223.535156 121.730469 224.691406 122.410156 C 227.285156 123.941406 229.886719 125.269531 232.433594 126.332031 C 232.546875 126.378906 232.65625 126.417969 232.765625 126.464844 L 232.664062 126.519531 C 232.664062 126.519531 232.792969 126.738281 233.019531 127.128906 C 233.078125 127.222656 233.140625 127.332031 233.210938 127.445312 C 233.289062 127.554688 233.375 127.675781 233.46875 127.800781 C 233.65625 128.050781 233.847656 128.347656 234.101562 128.632812 C 234.351562 128.917969 234.601562 129.253906 234.90625 129.566406 C 235.210938 129.882812 235.515625 130.226562 235.863281 130.554688 C 236.539062 131.226562 237.28125 131.917969 238.054688 132.574219 C 241.125 135.238281 244.519531 137.476562 244.519531 137.476562 C 244.519531 137.476562 241.164062 135.175781 238.148438 132.46875 C 237.390625 131.800781 236.660156 131.097656 236 130.417969 C 235.660156 130.085938 235.363281 129.738281 235.070312 129.417969 C 234.769531 129.105469 234.53125 128.769531 234.289062 128.484375 C 234.042969 128.195312 233.859375 127.898438 233.679688 127.652344 C 233.59375 127.527344 233.511719 127.410156 233.433594 127.300781 C 233.371094 127.1875 233.308594 127.082031 233.257812 126.988281 C 233.152344 126.808594 233.074219 126.667969 233.019531 126.566406 C 235.355469 127.523438 237.632812 128.292969 239.777344 128.882812 C 242.101562 129.519531 244.269531 129.960938 246.207031 130.21875 C 248.148438 130.480469 249.851562 130.59375 251.253906 130.625 C 254.0625 130.679688 255.652344 130.410156 255.652344 130.410156 C 255.652344 130.410156 254.054688 130.644531 251.257812 130.519531 Z M 79.167969 77.570312 C 79.140625 77.570312 79.109375 77.578125 79.085938 77.578125 C 79.109375 77.574219 79.140625 77.574219 79.167969 77.570312 Z M 78.925781 77.429688 L 78.925781 77.734375 C 78.925781 77.742188 78.949219 77.644531 79 77.597656 C 79.023438 77.582031 79.050781 77.578125 79.085938 77.578125 C 79.050781 77.578125 79.023438 77.578125 79 77.5625 C 78.949219 77.519531 78.925781 77.425781 78.925781 77.429688 Z M 140.824219 88.679688 C 142.980469 90.875 144.117188 92.21875 144.117188 92.21875 C 144.117188 92.21875 142.953125 90.894531 140.757812 88.75 C 139.65625 87.675781 138.296875 86.394531 136.695312 84.984375 C 135.089844 83.5625 133.234375 82.019531 131.160156 80.402344 C 127.640625 77.660156 123.441406 74.726562 118.679688 72.074219 C 118.667969 72.089844 118.664062 72.097656 118.652344 72.117188 C 118.585938 72.214844 118.492188 72.347656 118.363281 72.515625 C 118.238281 72.679688 118.082031 72.875 117.886719 73.089844 C 117.703125 73.308594 117.472656 73.539062 117.226562 73.789062 C 116.726562 74.28125 116.101562 74.816406 115.402344 75.34375 C 115.046875 75.601562 114.675781 75.859375 114.292969 76.113281 C 113.898438 76.347656 113.515625 76.613281 113.101562 76.828125 C 112.6875 77.046875 112.292969 77.289062 111.875 77.476562 C 111.457031 77.667969 111.0625 77.882812 110.65625 78.042969 C 110.253906 78.207031 109.863281 78.367188 109.496094 78.523438 C 109.121094 78.65625 108.765625 78.78125 108.4375 78.898438 C 107.789062 79.144531 107.21875 79.277344 106.835938 79.402344 C 106.445312 79.515625 106.222656 79.582031 106.222656 79.582031 C 106.222656 79.582031 106.445312 79.507812 106.828125 79.378906 C 107.210938 79.238281 107.769531 79.089844 108.410156 78.820312 C 108.730469 78.691406 109.082031 78.554688 109.453125 78.410156 C 109.8125 78.242188 110.191406 78.070312 110.585938 77.890625 C 110.984375 77.71875 111.371094 77.488281 111.773438 77.285156 C 112.183594 77.085938 112.566406 76.832031 112.96875 76.601562 C 113.367188 76.375 113.738281 76.097656 114.117188 75.851562 C 114.488281 75.589844 114.84375 75.328125 115.179688 75.058594 C 115.851562 74.519531 116.441406 73.976562 116.910156 73.476562 C 117.140625 73.226562 117.351562 72.996094 117.523438 72.78125 C 117.703125 72.566406 117.84375 72.375 117.960938 72.214844 C 118.070312 72.058594 118.160156 71.925781 118.207031 71.839844 C 118.21875 71.832031 118.21875 71.828125 118.226562 71.816406 C 117.519531 71.429688 116.804688 71.050781 116.078125 70.679688 C 111.308594 68.21875 105.988281 66.109375 100.410156 64.886719 C 100.019531 65.304688 99.078125 66.285156 97.75 67.523438 C 95.972656 69.164062 93.527344 71.289062 90.839844 73.085938 C 90.171875 73.535156 89.492188 73.96875 88.804688 74.367188 C 88.121094 74.773438 87.429688 75.140625 86.75 75.480469 C 86.070312 75.8125 85.402344 76.105469 84.757812 76.363281 C 84.429688 76.480469 84.113281 76.597656 83.804688 76.707031 C 83.496094 76.804688 83.191406 76.894531 82.902344 76.984375 C 82.320312 77.140625 81.78125 77.277344 81.292969 77.355469 C 80.8125 77.457031 80.382812 77.484375 80.035156 77.527344 C 79.683594 77.5625 79.402344 77.558594 79.214844 77.570312 C 79.199219 77.570312 79.183594 77.570312 79.167969 77.570312 C 79.183594 77.570312 79.199219 77.570312 79.214844 77.570312 C 79.402344 77.554688 79.683594 77.558594 80.03125 77.519531 C 80.382812 77.472656 80.808594 77.441406 81.289062 77.335938 C 81.777344 77.257812 82.3125 77.113281 82.894531 76.953125 C 83.183594 76.863281 83.484375 76.769531 83.792969 76.667969 C 84.097656 76.558594 84.414062 76.4375 84.738281 76.320312 C 85.382812 76.054688 86.046875 75.761719 86.722656 75.421875 C 87.394531 75.078125 88.082031 74.707031 88.761719 74.296875 C 89.445312 73.894531 90.121094 73.457031 90.785156 73 C 92.113281 72.089844 93.386719 71.105469 94.546875 70.136719 C 95.707031 69.171875 96.742188 68.210938 97.605469 67.367188 C 98.789062 66.214844 99.644531 65.289062 100.070312 64.8125 C 98.945312 64.578125 97.808594 64.371094 96.664062 64.207031 C 93.207031 63.65625 89.695312 63.808594 86.21875 63.4375 C 84.539062 63.277344 82.878906 63.0625 81.25 62.792969 C 81.199219 62.835938 80.375 63.554688 79.027344 64.441406 C 78.683594 64.675781 78.300781 64.917969 77.890625 65.160156 C 77.488281 65.417969 77.039062 65.648438 76.589844 65.90625 C 76.125 66.144531 75.648438 66.394531 75.15625 66.625 C 74.652344 66.84375 74.15625 67.089844 73.632812 67.277344 C 73.117188 67.484375 72.601562 67.683594 72.078125 67.839844 C 71.816406 67.921875 71.5625 68.003906 71.308594 68.085938 C 71.046875 68.152344 70.792969 68.21875 70.539062 68.285156 C 70.289062 68.347656 70.042969 68.410156 69.800781 68.472656 C 69.550781 68.515625 69.3125 68.5625 69.078125 68.601562 C 68.609375 68.691406 68.167969 68.773438 67.753906 68.804688 C 67.339844 68.847656 66.960938 68.886719 66.625 68.921875 C 66.289062 68.929688 65.996094 68.933594 65.75 68.941406 C 65.265625 68.953125 64.992188 68.957031 64.992188 68.957031 C 64.992188 68.957031 65.265625 68.945312 65.75 68.925781 C 65.992188 68.917969 66.285156 68.90625 66.621094 68.894531 C 66.957031 68.851562 67.332031 68.808594 67.746094 68.757812 C 68.160156 68.722656 68.597656 68.632812 69.0625 68.535156 C 69.296875 68.488281 69.535156 68.4375 69.777344 68.390625 C 70.019531 68.324219 70.265625 68.257812 70.515625 68.191406 C 70.765625 68.121094 71.019531 68.054688 71.273438 67.984375 C 71.527344 67.898438 71.78125 67.808594 72.039062 67.71875 C 72.554688 67.554688 73.066406 67.347656 73.578125 67.136719 C 74.09375 66.9375 74.582031 66.6875 75.078125 66.460938 C 75.5625 66.222656 76.03125 65.96875 76.488281 65.722656 C 76.929688 65.457031 77.371094 65.222656 77.769531 64.960938 C 78.171875 64.710938 78.542969 64.464844 78.882812 64.230469 C 79.859375 63.558594 80.546875 62.996094 80.863281 62.726562 C 79.261719 62.457031 77.695312 62.136719 76.160156 61.765625 C 73.132812 61.03125 70.253906 60.117188 67.574219 59.070312 L 67.628906 59.171875 C 67.628906 59.171875 67.390625 59.269531 66.972656 59.433594 C 66.769531 59.527344 66.511719 59.597656 66.210938 59.667969 C 65.910156 59.746094 65.574219 59.839844 65.199219 59.890625 C 64.824219 59.949219 64.421875 60.027344 63.992188 60.058594 C 63.5625 60.101562 63.109375 60.148438 62.636719 60.160156 C 62.167969 60.1875 61.683594 60.199219 61.1875 60.191406 C 60.695312 60.203125 60.195312 60.183594 59.695312 60.167969 C 55.683594 60.039062 51.738281 59.332031 51.738281 59.332031 C 51.738281 59.332031 55.699219 59.964844 59.699219 60.015625 C 60.195312 60.023438 60.695312 60.03125 61.1875 60.011719 C 61.679688 60.007812 62.160156 59.984375 62.628906 59.949219 C 63.09375 59.929688 63.542969 59.878906 63.964844 59.824219 C 64.390625 59.785156 64.785156 59.703125 65.152344 59.636719 C 65.523438 59.582031 65.847656 59.484375 66.136719 59.402344 C 66.425781 59.324219 66.679688 59.25 66.871094 59.160156 C 67.066406 59.078125 67.214844 59.015625 67.320312 58.972656 C 67.242188 58.941406 67.15625 58.910156 67.078125 58.878906 C 64.261719 57.757812 61.675781 56.511719 59.363281 55.230469 C 54.738281 52.664062 51.234375 49.953125 48.921875 47.929688 C 46.601562 45.902344 45.460938 44.558594 45.460938 44.558594 C 45.460938 44.558594 46.632812 45.875 48.996094 47.84375 C 51.34375 49.820312 54.917969 52.398438 59.542969 54.90625 C 60.09375 55.203125 60.664062 55.5 61.246094 55.789062 C 61.222656 55.683594 61.195312 55.566406 61.160156 55.417969 C 61.109375 55.191406 61.054688 54.914062 60.9375 54.613281 C 60.824219 54.308594 60.722656 53.957031 60.566406 53.589844 C 60.394531 53.226562 60.230469 52.828125 60.027344 52.417969 C 59.804688 52.015625 59.589844 51.582031 59.332031 51.148438 C 59.0625 50.726562 58.808594 50.273438 58.507812 49.839844 C 58.207031 49.40625 57.917969 48.957031 57.589844 48.53125 C 56.960938 47.664062 56.28125 46.832031 55.632812 46.0625 C 54.980469 45.292969 54.347656 44.601562 53.792969 44.015625 C 52.6875 42.84375 51.894531 42.113281 51.894531 42.113281 C 51.894531 42.113281 52.699219 42.832031 53.828125 43.980469 C 54.390625 44.558594 55.039062 45.242188 55.703125 46 C 56.371094 46.757812 57.066406 47.578125 57.710938 48.441406 C 58.046875 48.859375 58.351562 49.308594 58.660156 49.738281 C 58.96875 50.167969 59.234375 50.621094 59.511719 51.042969 C 59.777344 51.472656 60.003906 51.90625 60.234375 52.308594 C 60.449219 52.722656 60.625 53.125 60.804688 53.488281 C 60.972656 53.859375 61.082031 54.21875 61.199219 54.527344 C 61.328125 54.832031 61.386719 55.113281 61.445312 55.347656 C 61.519531 55.640625 61.566406 55.84375 61.597656 55.960938 C 65.824219 58.042969 70.8125 59.929688 76.289062 61.234375 C 76.707031 61.335938 77.136719 61.421875 77.558594 61.515625 C 77.523438 61.203125 77.417969 60.386719 77.144531 59.289062 C 77.0625 58.9375 76.953125 58.558594 76.835938 58.160156 C 76.722656 57.761719 76.570312 57.351562 76.429688 56.921875 C 76.257812 56.5 76.109375 56.054688 75.90625 55.625 C 75.710938 55.191406 75.519531 54.746094 75.285156 54.324219 L 74.945312 53.679688 C 74.820312 53.476562 74.699219 53.269531 74.574219 53.066406 C 74.339844 52.648438 74.066406 52.269531 73.804688 51.898438 C 73.554688 51.515625 73.269531 51.183594 73.007812 50.859375 C 72.875 50.699219 72.75 50.539062 72.625 50.390625 C 72.488281 50.246094 72.359375 50.109375 72.234375 49.980469 C 71.980469 49.71875 71.757812 49.46875 71.539062 49.265625 C 71.320312 49.070312 71.125 48.898438 70.96875 48.757812 C 70.648438 48.476562 70.464844 48.316406 70.464844 48.316406 C 70.464844 48.316406 70.652344 48.476562 70.976562 48.75 C 71.136719 48.886719 71.335938 49.054688 71.558594 49.246094 C 71.777344 49.445312 72.007812 49.6875 72.269531 49.945312 C 72.394531 50.074219 72.527344 50.210938 72.667969 50.351562 C 72.796875 50.5 72.925781 50.65625 73.0625 50.8125 C 73.332031 51.132812 73.625 51.464844 73.882812 51.839844 C 74.152344 52.210938 74.4375 52.585938 74.683594 53 C 74.808594 53.203125 74.9375 53.40625 75.066406 53.613281 L 75.417969 54.25 C 75.660156 54.675781 75.867188 55.117188 76.070312 55.550781 C 76.285156 55.980469 76.441406 56.425781 76.625 56.847656 C 76.773438 57.277344 76.9375 57.691406 77.0625 58.09375 C 77.1875 58.492188 77.304688 58.871094 77.394531 59.226562 C 77.734375 60.476562 77.851562 61.390625 77.875 61.582031 C 80.589844 62.160156 83.402344 62.589844 86.273438 62.847656 C 87.132812 62.910156 87.988281 62.992188 88.855469 63.035156 C 89.488281 63.0625 90.117188 63.085938 90.75 63.113281 C 90.757812 63.097656 90.761719 63.085938 90.765625 63.070312 C 90.804688 62.964844 90.84375 62.800781 90.902344 62.597656 C 90.941406 62.386719 91.003906 62.132812 91.03125 61.835938 C 91.082031 61.539062 91.085938 61.199219 91.105469 60.832031 C 91.089844 60.460938 91.097656 60.058594 91.03125 59.640625 C 90.996094 59.214844 90.890625 58.78125 90.792969 58.328125 C 90.671875 57.878906 90.53125 57.417969 90.359375 56.960938 C 90.15625 56.515625 89.996094 56.042969 89.738281 55.617188 C 89.503906 55.179688 89.277344 54.738281 88.984375 54.339844 C 88.710938 53.933594 88.457031 53.523438 88.144531 53.171875 C 87.847656 52.8125 87.582031 52.445312 87.289062 52.132812 C 86.988281 51.824219 86.707031 51.53125 86.449219 51.261719 C 86.195312 50.980469 85.9375 50.757812 85.710938 50.554688 C 85.480469 50.355469 85.28125 50.175781 85.121094 50.03125 C 84.792969 49.742188 84.605469 49.574219 84.605469 49.574219 C 84.605469 49.574219 84.796875 49.738281 85.128906 50.023438 C 85.292969 50.164062 85.496094 50.335938 85.726562 50.535156 C 85.960938 50.730469 86.226562 50.953125 86.480469 51.226562 C 86.746094 51.492188 87.035156 51.78125 87.339844 52.085938 C 87.636719 52.394531 87.914062 52.753906 88.222656 53.109375 C 88.539062 53.460938 88.804688 53.867188 89.089844 54.273438 C 89.390625 54.664062 89.628906 55.109375 89.875 55.546875 C 90.144531 55.972656 90.316406 56.449219 90.527344 56.894531 C 90.710938 57.355469 90.863281 57.820312 90.996094 58.273438 C 91.105469 58.734375 91.222656 59.179688 91.261719 59.609375 C 91.339844 60.039062 91.339844 60.453125 91.363281 60.832031 C 91.351562 61.210938 91.351562 61.558594 91.308594 61.867188 C 91.28125 62.175781 91.226562 62.441406 91.1875 62.660156 C 91.136719 62.859375 91.101562 63.011719 91.066406 63.128906 C 91.199219 63.132812 91.335938 63.136719 91.472656 63.144531 C 93.234375 63.203125 95 63.367188 96.746094 63.621094 C 101.488281 64.308594 106.082031 65.691406 110.367188 67.453125 C 110.398438 67.304688 110.445312 67.074219 110.496094 66.75 C 110.585938 66.183594 110.6875 65.371094 110.714844 64.386719 C 110.746094 63.402344 110.703125 62.25 110.523438 61.03125 C 110.433594 60.425781 110.308594 59.800781 110.140625 59.175781 C 109.984375 58.546875 109.761719 57.929688 109.523438 57.316406 C 109.273438 56.707031 108.992188 56.117188 108.667969 55.554688 C 108.34375 54.996094 107.992188 54.460938 107.609375 53.972656 C 107.421875 53.730469 107.238281 53.488281 107.035156 53.273438 C 106.835938 53.050781 106.648438 52.828125 106.441406 52.632812 C 106.046875 52.226562 105.636719 51.878906 105.261719 51.558594 C 104.867188 51.261719 104.515625 50.96875 104.179688 50.75 C 103.839844 50.535156 103.558594 50.324219 103.300781 50.191406 C 102.800781 49.902344 102.511719 49.738281 102.511719 49.738281 C 102.511719 49.738281 102.800781 49.898438 103.308594 50.175781 C 103.566406 50.3125 103.851562 50.519531 104.195312 50.730469 C 104.539062 50.941406 104.894531 51.226562 105.292969 51.519531 C 105.671875 51.839844 106.089844 52.179688 106.492188 52.582031 C 106.699219 52.777344 106.894531 52.996094 107.097656 53.21875 C 107.304688 53.433594 107.492188 53.671875 107.6875 53.914062 C 108.078125 54.398438 108.4375 54.933594 108.773438 55.492188 C 109.109375 56.050781 109.402344 56.648438 109.664062 57.257812 C 109.914062 57.871094 110.148438 58.496094 110.316406 59.125 C 110.496094 59.757812 110.628906 60.386719 110.730469 61 C 110.929688 62.230469 110.992188 63.394531 110.972656 64.390625 C 110.945312 66.019531 110.730469 67.191406 110.652344 67.570312 C 112.609375 68.382812 114.503906 69.277344 116.316406 70.21875 C 120.101562 72.203125 123.546875 74.394531 126.625 76.582031 C 126.691406 76.257812 126.785156 75.757812 126.867188 75.117188 C 126.933594 74.554688 127.011719 73.898438 127.042969 73.1875 C 127.085938 72.480469 127.082031 71.722656 127.058594 70.96875 C 127.023438 70.589844 127.007812 70.210938 126.960938 69.839844 C 126.90625 69.472656 126.882812 69.105469 126.800781 68.761719 C 126.726562 68.414062 126.683594 68.070312 126.582031 67.757812 C 126.488281 67.449219 126.421875 67.144531 126.320312 66.878906 C 126.21875 66.613281 126.125 66.367188 126.042969 66.152344 C 125.957031 65.9375 125.855469 65.761719 125.785156 65.613281 C 125.636719 65.3125 125.550781 65.140625 125.550781 65.140625 C 125.550781 65.140625 125.644531 65.308594 125.804688 65.601562 C 125.882812 65.75 125.992188 65.917969 126.089844 66.132812 C 126.179688 66.347656 126.285156 66.589844 126.398438 66.851562 C 126.511719 67.113281 126.589844 67.414062 126.699219 67.726562 C 126.8125 68.035156 126.871094 68.378906 126.964844 68.726562 C 127.0625 69.074219 127.101562 69.445312 127.171875 69.816406 C 127.238281 70.1875 127.269531 70.566406 127.316406 70.949219 C 127.378906 71.710938 127.417969 72.480469 127.402344 73.199219 C 127.402344 73.917969 127.355469 74.589844 127.308594 75.164062 C 127.234375 76.003906 127.136719 76.632812 127.085938 76.914062 C 128.601562 78.003906 130.035156 79.089844 131.363281 80.144531 C 133.425781 81.789062 135.246094 83.386719 136.828125 84.832031 C 138.40625 86.28125 139.746094 87.585938 140.824219 88.679688 " fill-opacity="1" fill-rule="nonzero"/><g fill="#8d5053" fill-opacity="1"><g transform="translate(124.44353, 221.858112)"><g><path d="M 23.441406 -38.871094 C 24.121094 -38.546875 25.121094 -38.835938 26.316406 -39.730469 C 26.84375 -40.144531 27.4375 -40.691406 27.964844 -41.375 C 28.488281 -42.054688 29.011719 -42.738281 29.464844 -43.550781 C 29.921875 -44.367188 30.308594 -45.113281 30.628906 -45.925781 C 30.882812 -46.738281 31.136719 -47.480469 31.257812 -48.222656 C 31.433594 -49.636719 31.148438 -50.503906 30.46875 -50.828125 C 29.726562 -51.148438 28.789062 -50.863281 27.597656 -49.964844 C 26.40625 -49.003906 25.355469 -47.707031 24.378906 -46.074219 L 24.378906 -46.144531 C 23.855469 -45.328125 23.46875 -44.511719 23.214844 -43.703125 C 22.894531 -42.890625 22.707031 -42.148438 22.652344 -41.542969 C 22.53125 -40.867188 22.542969 -40.261719 22.6875 -39.796875 C 22.828125 -39.328125 23.039062 -38.996094 23.441406 -38.871094 Z M 1 -0.355469 C 2.082031 0.0273438 3.425781 0.0703125 5.167969 -0.234375 C 6.910156 -0.535156 8.773438 -1.308594 10.835938 -2.488281 C 12.828125 -3.601562 14.949219 -5.121094 17.0625 -7.109375 C 19.175781 -9.03125 21.277344 -11.488281 23.238281 -14.347656 C 22.710938 -13.867188 22.046875 -13.316406 21.1875 -12.628906 C 20.261719 -11.941406 19.332031 -11.316406 18.335938 -10.761719 C 17.273438 -10.136719 16.273438 -9.648438 15.273438 -9.226562 C 14.207031 -8.800781 13.339844 -8.582031 12.664062 -8.636719 C 11.589844 -8.617188 10.980469 -9.007812 10.964844 -9.816406 C 10.949219 -10.554688 11.136719 -11.429688 11.652344 -12.449219 C 12.105469 -13.398438 12.625 -14.28125 13.277344 -15.234375 C 13.867188 -16.183594 14.324219 -16.796875 14.585938 -17.207031 L 27.132812 -35.648438 L 17.664062 -35.46875 L 2.101562 -13.207031 C 0.792969 -11.300781 -0.183594 -9.601562 -0.761719 -8.179688 C -1.335938 -6.691406 -1.648438 -5.476562 -1.628906 -4.46875 C -1.675781 -3.394531 -1.457031 -2.457031 -0.976562 -1.796875 C -0.492188 -1.132812 0.191406 -0.609375 1 -0.355469 Z M 1 -0.355469 "/></g></g></g><g fill="#8d5053" fill-opacity="1"><g transform="translate(142.369016, 221.516846)"><g><path d="M 9.273438 -24.492188 L -6.582031 0.125 L 2.6875 -0.0507812 C 6.464844 -6.304688 9.589844 -11.46875 12.0625 -15.679688 C 14.535156 -19.890625 16.621094 -23.222656 18.386719 -25.742188 C 20.085938 -28.191406 21.597656 -29.96875 22.921875 -31 C 24.246094 -31.964844 25.578125 -32.460938 26.992188 -32.421875 C 27.867188 -32.304688 28.476562 -31.980469 28.757812 -31.3125 C 29.039062 -30.648438 28.921875 -29.90625 28.265625 -29.019531 L 18.710938 -15.738281 C 18.1875 -15.058594 17.664062 -14.242188 17.007812 -13.355469 C 16.355469 -12.402344 15.835938 -11.453125 15.316406 -10.503906 C 14.730469 -9.484375 14.28125 -8.46875 13.964844 -7.453125 C 13.648438 -6.441406 13.53125 -5.496094 13.683594 -4.625 C 13.769531 -3.6875 14.117188 -2.886719 14.804688 -2.230469 C 15.488281 -1.503906 16.574219 -0.988281 18.058594 -0.679688 C 19.003906 -0.429688 20.078125 -0.449219 21.148438 -0.605469 C 22.21875 -0.757812 23.152344 -1.113281 24.082031 -1.734375 C 25.011719 -2.289062 25.9375 -3.113281 26.925781 -4.074219 C 27.847656 -5.03125 28.835938 -6.125 29.820312 -7.285156 C 30.742188 -8.378906 31.59375 -9.46875 32.445312 -10.625 C 33.230469 -11.714844 34.015625 -12.738281 34.671875 -13.691406 C 34.269531 -13.484375 33.808594 -13.136719 33.34375 -12.726562 C 33.082031 -12.453125 32.882812 -12.246094 32.617188 -12.039062 C 32.355469 -11.835938 32.089844 -11.628906 31.890625 -11.421875 C 31.363281 -11.007812 30.832031 -10.597656 30.300781 -10.316406 C 29.769531 -10.039062 29.234375 -9.894531 28.695312 -9.882812 C 27.890625 -9.867188 27.480469 -10.261719 27.53125 -11.136719 C 27.515625 -11.875 27.832031 -12.890625 28.480469 -14.246094 C 29.0625 -15.464844 29.839844 -16.824219 30.75 -18.386719 C 31.664062 -19.882812 32.574219 -21.378906 33.488281 -22.871094 C 34.332031 -24.300781 35.117188 -25.589844 35.765625 -26.8125 C 36.414062 -27.964844 36.800781 -28.847656 36.921875 -29.453125 C 37.035156 -30.664062 37.015625 -31.605469 36.730469 -32.40625 C 36.449219 -33.207031 36.097656 -33.871094 35.550781 -34.398438 C 34.324219 -35.449219 32.96875 -36.027344 31.488281 -36.203125 C 30.007812 -36.375 28.464844 -36.210938 26.996094 -35.644531 C 25.464844 -35.078125 24 -34.246094 22.546875 -33.074219 C 21.089844 -31.839844 19.839844 -30.472656 18.664062 -28.835938 C 19.164062 -30.726562 19.335938 -32.207031 19.113281 -33.347656 C 18.890625 -34.417969 18.207031 -35.144531 17.058594 -35.523438 C 16.25 -35.710938 15.242188 -35.625 14.039062 -35.265625 C 12.769531 -34.90625 11.238281 -34.136719 9.515625 -33.03125 L 9.308594 -33.292969 C 10.414062 -31.703125 10.910156 -30.234375 10.933594 -28.957031 C 10.882812 -28.285156 10.695312 -27.542969 10.4375 -26.867188 C 10.117188 -26.121094 9.730469 -25.308594 9.273438 -24.492188 Z M 9.273438 -24.492188 "/></g></g></g><g fill="#8d5053" fill-opacity="1"><g transform="translate(173.856893, 220.917379)"><g><path d="M -5.402344 30.332031 C -3.664062 29.894531 -1.863281 29.054688 -0.0117188 27.675781 C 1.84375 26.296875 3.695312 24.648438 5.535156 22.597656 C 7.378906 20.617188 9.019531 18.636719 10.59375 16.660156 C 12.167969 14.679688 13.542969 12.773438 14.785156 11.003906 C 15.375 10.1875 15.898438 9.4375 16.355469 8.757812 C 16.8125 8.078125 17.207031 7.53125 17.601562 7.054688 C 18.84375 5.285156 20.152344 3.445312 21.457031 1.539062 C 22.765625 -0.367188 24.074219 -2.273438 25.378906 -4.3125 C 27.988281 -8.257812 30.46875 -12.066406 32.816406 -15.738281 C 35.164062 -19.410156 37.449219 -22.949219 39.535156 -26.210938 C 40.582031 -27.84375 41.558594 -29.339844 42.472656 -30.703125 C 43.390625 -32.0625 44.171875 -33.351562 44.953125 -34.578125 L 35.484375 -34.398438 C 34.4375 -32.898438 33.460938 -31.402344 32.414062 -29.90625 C 31.367188 -28.40625 30.386719 -26.910156 29.40625 -25.480469 C 28.359375 -23.984375 27.378906 -22.554688 26.335938 -21.058594 C 25.289062 -19.558594 24.308594 -18.0625 23.328125 -16.566406 L 21.566406 -13.980469 C 20.78125 -12.890625 19.992188 -11.933594 19.136719 -11.046875 C 18.214844 -10.085938 17.21875 -9.328125 16.289062 -8.773438 C 15.296875 -8.152344 14.359375 -7.929688 13.417969 -8.046875 C 12.945312 -8.039062 12.671875 -8.371094 12.59375 -8.972656 C 12.449219 -9.371094 12.636719 -10.117188 13.15625 -11.199219 C 13.671875 -12.285156 14.453125 -13.644531 15.496094 -15.207031 C 16.472656 -16.769531 17.453125 -18.335938 18.496094 -19.898438 C 19.476562 -21.394531 20.324219 -22.824219 21.101562 -24.179688 C 21.882812 -25.539062 22.332031 -26.554688 22.453125 -27.363281 C 22.628906 -28.710938 22.539062 -29.785156 22.253906 -30.71875 C 21.96875 -31.65625 21.484375 -32.382812 20.871094 -32.910156 C 20.117188 -33.5 19.238281 -33.820312 18.296875 -33.9375 C 17.355469 -34.050781 16.351562 -33.898438 15.347656 -33.609375 C 15.828125 -33.082031 16.171875 -32.617188 16.316406 -32.21875 C 16.457031 -31.75 16.398438 -31.28125 16.273438 -30.808594 C 16.082031 -30.265625 15.757812 -29.65625 15.367188 -29.042969 C 14.910156 -28.363281 14.386719 -27.679688 13.863281 -26.863281 L 13.863281 -26.796875 L 2.34375 -11.0625 C 1.945312 -10.652344 1.621094 -10.105469 1.230469 -9.496094 C 0.839844 -8.882812 0.449219 -8.203125 0.125 -7.527344 C -0.902344 -5.089844 -1.070312 -3.269531 -0.507812 -2.074219 C -0.226562 -1.40625 0.1875 -0.808594 0.730469 -0.417969 C 1.277344 0.0429688 1.886719 0.367188 2.628906 0.554688 C 3.308594 0.808594 4.113281 0.863281 4.984375 0.777344 C 5.792969 0.761719 6.660156 0.546875 7.457031 0.125 C 9.058594 -0.574219 10.652344 -1.546875 12.105469 -2.714844 C 13.5625 -3.886719 14.882812 -5.121094 16.066406 -6.417969 C 17.117188 -7.648438 17.972656 -8.539062 18.636719 -9.085938 L 11.113281 1.535156 C 6.300781 2.835938 2.433594 4.386719 -0.621094 6.257812 C -3.808594 8.199219 -6.1875 10.195312 -7.832031 12.105469 C -9.539062 14.085938 -10.714844 15.921875 -11.421875 17.617188 C -12.191406 19.375 -12.632812 20.996094 -12.738281 22.542969 C -12.84375 24.089844 -12.683594 25.433594 -12.1875 26.632812 C -12.042969 27.300781 -11.695312 27.898438 -11.28125 28.429688 C -10.867188 28.957031 -10.390625 29.417969 -9.84375 29.8125 C -9.300781 30.203125 -8.625 30.394531 -7.882812 30.511719 C -7.140625 30.632812 -6.335938 30.617188 -5.402344 30.332031 Z M -6.328125 20.472656 C -7.273438 20.222656 -7.820312 19.695312 -7.835938 18.890625 C -7.851562 18.085938 -7.667969 17.207031 -7.148438 16.257812 C -6.695312 15.375 -6.105469 14.492188 -5.449219 13.605469 C -4.796875 12.71875 -4.136719 11.96875 -3.542969 11.421875 C -1.695312 9.773438 0.359375 8.390625 2.625 7.273438 C 4.886719 6.152344 7.085938 5.171875 9.285156 4.324219 L 9.355469 4.390625 L 7.71875 6.773438 C 7.328125 7.316406 6.9375 7.929688 6.542969 8.472656 C 6.152344 9.085938 5.691406 9.699219 5.234375 10.3125 C 4.320312 11.605469 3.335938 12.902344 2.285156 14.199219 C 1.238281 15.5625 0.25 16.722656 -0.738281 17.679688 C -1.792969 18.707031 -2.855469 19.46875 -3.785156 20.023438 C -4.714844 20.578125 -5.582031 20.730469 -6.328125 20.472656 Z M -6.328125 20.472656 "/></g></g></g><g fill="#216b39" fill-opacity="1"><g transform="translate(126.04166, 220.932069)"><g><path d="M 23.441406 -38.871094 C 24.121094 -38.546875 25.121094 -38.835938 26.316406 -39.730469 C 26.84375 -40.144531 27.4375 -40.691406 27.964844 -41.375 C 28.488281 -42.054688 29.011719 -42.738281 29.464844 -43.550781 C 29.921875 -44.367188 30.308594 -45.113281 30.628906 -45.925781 C 30.882812 -46.738281 31.136719 -47.480469 31.257812 -48.222656 C 31.433594 -49.636719 31.148438 -50.503906 30.46875 -50.828125 C 29.726562 -51.148438 28.789062 -50.863281 27.597656 -49.964844 C 26.40625 -49.003906 25.355469 -47.707031 24.378906 -46.074219 L 24.378906 -46.144531 C 23.855469 -45.328125 23.46875 -44.511719 23.214844 -43.703125 C 22.894531 -42.890625 22.707031 -42.148438 22.652344 -41.542969 C 22.53125 -40.867188 22.542969 -40.261719 22.6875 -39.796875 C 22.828125 -39.328125 23.039062 -38.996094 23.441406 -38.871094 Z M 1 -0.355469 C 2.082031 0.0273438 3.425781 0.0703125 5.167969 -0.234375 C 6.910156 -0.535156 8.773438 -1.308594 10.835938 -2.488281 C 12.828125 -3.601562 14.949219 -5.121094 17.0625 -7.109375 C 19.175781 -9.03125 21.277344 -11.488281 23.238281 -14.347656 C 22.710938 -13.867188 22.046875 -13.316406 21.1875 -12.628906 C 20.261719 -11.941406 19.332031 -11.316406 18.335938 -10.761719 C 17.273438 -10.136719 16.273438 -9.648438 15.273438 -9.226562 C 14.207031 -8.800781 13.339844 -8.582031 12.664062 -8.636719 C 11.589844 -8.617188 10.980469 -9.007812 10.964844 -9.816406 C 10.949219 -10.554688 11.136719 -11.429688 11.652344 -12.449219 C 12.105469 -13.398438 12.625 -14.28125 13.277344 -15.234375 C 13.867188 -16.183594 14.324219 -16.796875 14.585938 -17.207031 L 27.132812 -35.648438 L 17.664062 -35.46875 L 2.101562 -13.207031 C 0.792969 -11.300781 -0.183594 -9.601562 -0.761719 -8.179688 C -1.335938 -6.691406 -1.648438 -5.476562 -1.628906 -4.46875 C -1.675781 -3.394531 -1.457031 -2.457031 -0.976562 -1.796875 C -0.492188 -1.132812 0.191406 -0.609375 1 -0.355469 Z M 1 -0.355469 "/></g></g></g><g fill="#216b39" fill-opacity="1"><g transform="translate(143.967147, 220.590803)"><g><path d="M 9.273438 -24.492188 L -6.582031 0.125 L 2.6875 -0.0507812 C 6.464844 -6.304688 9.589844 -11.46875 12.0625 -15.679688 C 14.535156 -19.890625 16.621094 -23.222656 18.386719 -25.742188 C 20.085938 -28.191406 21.597656 -29.96875 22.921875 -31 C 24.246094 -31.964844 25.578125 -32.460938 26.992188 -32.421875 C 27.867188 -32.304688 28.476562 -31.980469 28.757812 -31.3125 C 29.039062 -30.648438 28.921875 -29.90625 28.265625 -29.019531 L 18.710938 -15.738281 C 18.1875 -15.058594 17.664062 -14.242188 17.007812 -13.355469 C 16.355469 -12.402344 15.835938 -11.453125 15.316406 -10.503906 C 14.730469 -9.484375 14.28125 -8.46875 13.964844 -7.453125 C 13.648438 -6.441406 13.53125 -5.496094 13.683594 -4.625 C 13.769531 -3.6875 14.117188 -2.886719 14.804688 -2.230469 C 15.488281 -1.503906 16.574219 -0.988281 18.058594 -0.679688 C 19.003906 -0.429688 20.078125 -0.449219 21.148438 -0.605469 C 22.21875 -0.757812 23.152344 -1.113281 24.082031 -1.734375 C 25.011719 -2.289062 25.9375 -3.113281 26.925781 -4.074219 C 27.847656 -5.03125 28.835938 -6.125 29.820312 -7.285156 C 30.742188 -8.378906 31.59375 -9.46875 32.445312 -10.625 C 33.230469 -11.714844 34.015625 -12.738281 34.671875 -13.691406 C 34.269531 -13.484375 33.808594 -13.136719 33.34375 -12.726562 C 33.082031 -12.453125 32.882812 -12.246094 32.617188 -12.039062 C 32.355469 -11.835938 32.089844 -11.628906 31.890625 -11.421875 C 31.363281 -11.007812 30.832031 -10.597656 30.300781 -10.316406 C 29.769531 -10.039062 29.234375 -9.894531 28.695312 -9.882812 C 27.890625 -9.867188 27.480469 -10.261719 27.53125 -11.136719 C 27.515625 -11.875 27.832031 -12.890625 28.480469 -14.246094 C 29.0625 -15.464844 29.839844 -16.824219 30.75 -18.386719 C 31.664062 -19.882812 32.574219 -21.378906 33.488281 -22.871094 C 34.332031 -24.300781 35.117188 -25.589844 35.765625 -26.8125 C 36.414062 -27.964844 36.800781 -28.847656 36.921875 -29.453125 C 37.035156 -30.664062 37.015625 -31.605469 36.730469 -32.40625 C 36.449219 -33.207031 36.097656 -33.871094 35.550781 -34.398438 C 34.324219 -35.449219 32.96875 -36.027344 31.488281 -36.203125 C 30.007812 -36.375 28.464844 -36.210938 26.996094 -35.644531 C 25.464844 -35.078125 24 -34.246094 22.546875 -33.074219 C 21.089844 -31.839844 19.839844 -30.472656 18.664062 -28.835938 C 19.164062 -30.726562 19.335938 -32.207031 19.113281 -33.347656 C 18.890625 -34.417969 18.207031 -35.144531 17.058594 -35.523438 C 16.25 -35.710938 15.242188 -35.625 14.039062 -35.265625 C 12.769531 -34.90625 11.238281 -34.136719 9.515625 -33.03125 L 9.308594 -33.292969 C 10.414062 -31.703125 10.910156 -30.234375 10.933594 -28.957031 C 10.882812 -28.285156 10.695312 -27.542969 10.4375 -26.867188 C 10.117188 -26.121094 9.730469 -25.308594 9.273438 -24.492188 Z M 9.273438 -24.492188 "/></g></g></g><g fill="#216b39" fill-opacity="1"><g transform="translate(175.455023, 219.991337)"><g><path d="M -5.402344 30.332031 C -3.664062 29.894531 -1.863281 29.054688 -0.0117188 27.675781 C 1.84375 26.296875 3.695312 24.648438 5.535156 22.597656 C 7.378906 20.617188 9.019531 18.636719 10.59375 16.660156 C 12.167969 14.679688 13.542969 12.773438 14.785156 11.003906 C 15.375 10.1875 15.898438 9.4375 16.355469 8.757812 C 16.8125 8.078125 17.207031 7.53125 17.601562 7.054688 C 18.84375 5.285156 20.152344 3.445312 21.457031 1.539062 C 22.765625 -0.367188 24.074219 -2.273438 25.378906 -4.3125 C 27.988281 -8.257812 30.46875 -12.066406 32.816406 -15.738281 C 35.164062 -19.410156 37.449219 -22.949219 39.535156 -26.210938 C 40.582031 -27.84375 41.558594 -29.339844 42.472656 -30.703125 C 43.390625 -32.0625 44.171875 -33.351562 44.953125 -34.578125 L 35.484375 -34.398438 C 34.4375 -32.898438 33.460938 -31.402344 32.414062 -29.90625 C 31.367188 -28.40625 30.386719 -26.910156 29.40625 -25.480469 C 28.359375 -23.984375 27.378906 -22.554688 26.335938 -21.058594 C 25.289062 -19.558594 24.308594 -18.0625 23.328125 -16.566406 L 21.566406 -13.980469 C 20.78125 -12.890625 19.992188 -11.933594 19.136719 -11.046875 C 18.214844 -10.085938 17.21875 -9.328125 16.289062 -8.773438 C 15.296875 -8.152344 14.359375 -7.929688 13.417969 -8.046875 C 12.945312 -8.039062 12.671875 -8.371094 12.59375 -8.972656 C 12.449219 -9.371094 12.636719 -10.117188 13.15625 -11.199219 C 13.671875 -12.285156 14.453125 -13.644531 15.496094 -15.207031 C 16.472656 -16.769531 17.453125 -18.335938 18.496094 -19.898438 C 19.476562 -21.394531 20.324219 -22.824219 21.101562 -24.179688 C 21.882812 -25.539062 22.332031 -26.554688 22.453125 -27.363281 C 22.628906 -28.710938 22.539062 -29.785156 22.253906 -30.71875 C 21.96875 -31.65625 21.484375 -32.382812 20.871094 -32.910156 C 20.117188 -33.5 19.238281 -33.820312 18.296875 -33.9375 C 17.355469 -34.050781 16.351562 -33.898438 15.347656 -33.609375 C 15.828125 -33.082031 16.171875 -32.617188 16.316406 -32.21875 C 16.457031 -31.75 16.398438 -31.28125 16.273438 -30.808594 C 16.082031 -30.265625 15.757812 -29.65625 15.367188 -29.042969 C 14.910156 -28.363281 14.386719 -27.679688 13.863281 -26.863281 L 13.863281 -26.796875 L 2.34375 -11.0625 C 1.945312 -10.652344 1.621094 -10.105469 1.230469 -9.496094 C 0.839844 -8.882812 0.449219 -8.203125 0.125 -7.527344 C -0.902344 -5.089844 -1.070312 -3.269531 -0.507812 -2.074219 C -0.226562 -1.40625 0.1875 -0.808594 0.730469 -0.417969 C 1.277344 0.0429688 1.886719 0.367188 2.628906 0.554688 C 3.308594 0.808594 4.113281 0.863281 4.984375 0.777344 C 5.792969 0.761719 6.660156 0.546875 7.457031 0.125 C 9.058594 -0.574219 10.652344 -1.546875 12.105469 -2.714844 C 13.5625 -3.886719 14.882812 -5.121094 16.066406 -6.417969 C 17.117188 -7.648438 17.972656 -8.539062 18.636719 -9.085938 L 11.113281 1.535156 C 6.300781 2.835938 2.433594 4.386719 -0.621094 6.257812 C -3.808594 8.199219 -6.1875 10.195312 -7.832031 12.105469 C -9.539062 14.085938 -10.714844 15.921875 -11.421875 17.617188 C -12.191406 19.375 -12.632812 20.996094 -12.738281 22.542969 C -12.84375 24.089844 -12.683594 25.433594 -12.1875 26.632812 C -12.042969 27.300781 -11.695312 27.898438 -11.28125 28.429688 C -10.867188 28.957031 -10.390625 29.417969 -9.84375 29.8125 C -9.300781 30.203125 -8.625 30.394531 -7.882812 30.511719 C -7.140625 30.632812 -6.335938 30.617188 -5.402344 30.332031 Z M -6.328125 20.472656 C -7.273438 20.222656 -7.820312 19.695312 -7.835938 18.890625 C -7.851562 18.085938 -7.667969 17.207031 -7.148438 16.257812 C -6.695312 15.375 -6.105469 14.492188 -5.449219 13.605469 C -4.796875 12.71875 -4.136719 11.96875 -3.542969 11.421875 C -1.695312 9.773438 0.359375 8.390625 2.625 7.273438 C 4.886719 6.152344 7.085938 5.171875 9.285156 4.324219 L 9.355469 4.390625 L 7.71875 6.773438 C 7.328125 7.316406 6.9375 7.929688 6.542969 8.472656 C 6.152344 9.085938 5.691406 9.699219 5.234375 10.3125 C 4.320312 11.605469 3.335938 12.902344 2.285156 14.199219 C 1.238281 15.5625 0.25 16.722656 -0.738281 17.679688 C -1.792969 18.707031 -2.855469 19.46875 -3.785156 20.023438 C -4.714844 20.578125 -5.582031 20.730469 -6.328125 20.472656 Z M -6.328125 20.472656 "/></g></g></g><g fill="#8d5053" fill-opacity="1"><g transform="translate(202.052802, 220.380585)"><g/></g></g><g fill="#8d5053" fill-opacity="1"><g transform="translate(209.772906, 220.233609)"><g/></g></g><g fill="#8d5053" fill-opacity="1"><g transform="translate(217.49301, 220.086634)"><g/></g></g><g fill="#8d5053" fill-opacity="1"><g transform="translate(225.213114, 219.939658)"><g/></g></g><g fill="#8d5053" fill-opacity="1"><g transform="translate(232.933219, 219.792683)"><g/></g></g><g fill="#216b39" fill-opacity="1"><g transform="translate(203.650932, 219.454542)"><g/></g></g><g fill="#216b39" fill-opacity="1"><g transform="translate(211.371036, 219.307567)"><g/></g></g><g fill="#216b39" fill-opacity="1"><g transform="translate(219.091141, 219.160591)"><g/></g></g><g fill="#216b39" fill-opacity="1"><g transform="translate(226.811244, 219.013616)"><g/></g></g><g fill="#216b39" fill-opacity="1"><g transform="translate(234.531349, 218.86664)"><g/></g></g><g fill="#8d5053" fill-opacity="1"><g transform="translate(240.643793, 219.645889)"><g><path d="M 75.476562 -61.355469 C 72.890625 -63.121094 69.441406 -64.464844 65.257812 -65.460938 C 61.007812 -66.386719 55.828125 -66.757812 49.652344 -66.507812 L 49.585938 -66.4375 C 45.359375 -66.222656 41.875 -65.6875 39.207031 -64.695312 C 36.539062 -63.707031 34.410156 -62.589844 32.890625 -61.21875 C 31.304688 -59.84375 30.328125 -58.28125 29.820312 -56.660156 C 29.316406 -55.035156 29.210938 -53.421875 29.507812 -51.949219 C 29.734375 -50.609375 30.230469 -49.34375 30.921875 -48.214844 C 31.617188 -47.085938 32.507812 -46.164062 33.527344 -45.445312 C 34.484375 -44.65625 35.5 -44.203125 36.644531 -44.09375 C 37.722656 -43.976562 38.859375 -44.203125 39.988281 -44.894531 C 38.464844 -47.285156 37.683594 -49.554688 37.777344 -51.636719 C 37.804688 -53.652344 38.441406 -55.480469 39.621094 -57.113281 C 40.734375 -58.679688 42.25 -60.050781 44.246094 -61.164062 C 46.171875 -62.277344 48.304688 -63.125 50.578125 -63.703125 C 52.851562 -64.285156 55.0625 -64.59375 57.34375 -64.640625 C 59.5625 -64.679688 61.582031 -64.449219 63.40625 -63.949219 C 65.972656 -63.191406 67.875 -61.949219 69.183594 -60.230469 C 70.425781 -58.507812 71.203125 -56.503906 71.445312 -54.359375 C 71.625 -51.945312 71.136719 -49.519531 69.96875 -47.210938 C 68.804688 -44.839844 67.234375 -42.726562 65.253906 -40.808594 C 63.539062 -39.164062 61.753906 -37.71875 59.828125 -36.605469 C 57.832031 -35.496094 55.96875 -34.71875 54.09375 -34.347656 C 52.355469 -33.980469 50.808594 -34.015625 49.390625 -34.394531 C 47.90625 -34.769531 46.8125 -35.621094 46.046875 -37.082031 C 46.832031 -38.242188 47.617188 -39.398438 48.402344 -40.488281 C 49.1875 -41.578125 50.039062 -42.667969 50.824219 -43.757812 C 52.917969 -46.617188 55.085938 -49.144531 57.195312 -51.402344 C 59.300781 -53.660156 61.417969 -55.445312 63.476562 -56.695312 C 61.667969 -56.324219 59.800781 -55.550781 57.945312 -54.304688 C 56.089844 -53.0625 54.167969 -51.613281 52.253906 -49.832031 C 50.273438 -48.046875 48.226562 -46.058594 46.253906 -43.871094 C 44.28125 -41.683594 42.304688 -39.566406 40.332031 -37.378906 C 38.292969 -35.191406 36.316406 -33.070312 34.339844 -31.015625 C 32.363281 -28.964844 30.382812 -27.246094 28.53125 -25.734375 C 26.613281 -24.152344 24.753906 -22.90625 22.957031 -22.066406 C 21.089844 -21.226562 19.351562 -20.855469 17.667969 -21.09375 C 16.1875 -21.199219 15.101562 -21.785156 14.277344 -22.707031 C 13.457031 -23.632812 12.828125 -24.761719 12.46875 -26.097656 C 12.039062 -27.367188 11.8125 -28.773438 11.785156 -30.25 C 11.757812 -31.730469 11.796875 -33.074219 12.039062 -34.421875 C 10.3125 -33.449219 8.71875 -32.410156 7.265625 -31.171875 C 5.8125 -29.9375 4.492188 -28.632812 3.3125 -27.132812 C 2.066406 -25.632812 1.019531 -24 0.25 -22.238281 C -0.589844 -20.476562 -1.164062 -18.71875 -1.394531 -16.835938 C -1.757812 -14.679688 -1.652344 -12.597656 -1.210938 -10.589844 C -0.769531 -8.582031 0.140625 -6.789062 1.375 -5.332031 C 2.546875 -3.808594 4.113281 -2.632812 6.011719 -1.726562 C 7.910156 -0.824219 10.203125 -0.464844 12.886719 -0.515625 C 14.769531 -0.550781 16.703125 -1.257812 18.824219 -2.640625 C 20.816406 -3.957031 22.863281 -5.742188 24.972656 -8 C 27.078125 -10.253906 29.179688 -12.847656 31.335938 -15.84375 C 33.429688 -18.773438 35.589844 -21.835938 37.746094 -24.96875 C 39.902344 -28.101562 42.125 -31.367188 44.347656 -34.632812 C 44.609375 -34.90625 44.804688 -35.3125 45.066406 -35.722656 C 44.890625 -34.242188 45.117188 -32.96875 45.746094 -31.839844 C 46.371094 -30.640625 47.261719 -29.71875 48.351562 -28.933594 C 49.714844 -27.882812 51.273438 -27.175781 53.160156 -26.808594 C 55.050781 -26.441406 56.929688 -26.410156 58.804688 -26.847656 C 61.613281 -27.4375 64.285156 -28.296875 66.679688 -29.484375 C 69.078125 -30.601562 71.269531 -31.988281 73.253906 -33.570312 C 75.769531 -35.5 77.742188 -37.753906 79.238281 -40.199219 C 80.671875 -42.648438 81.5625 -45.214844 81.917969 -47.777344 C 82.203125 -50.332031 81.820312 -52.746094 80.835938 -55.144531 C 79.851562 -57.476562 78.066406 -59.523438 75.476562 -61.355469 Z M 75.476562 -61.355469 "/></g></g></g><g fill="#8d5053" fill-opacity="1"><g transform="translate(296.369432, 218.584983)"><g><path d="M -0.210938 -0.398438 C 1.140625 -0.0234375 2.753906 -0.0507812 4.625 -0.492188 C 6.5 -0.929688 8.429688 -1.773438 10.421875 -3.019531 C 12.414062 -4.265625 14.328125 -5.914062 16.238281 -7.96875 C 18.082031 -10.015625 19.78125 -12.46875 21.203125 -15.316406 C 20.742188 -14.835938 20.28125 -14.359375 19.820312 -13.945312 C 19.355469 -13.535156 18.894531 -13.121094 18.429688 -12.777344 C 17.371094 -11.953125 16.3125 -11.261719 15.246094 -10.703125 C 14.183594 -10.144531 13.25 -9.722656 12.316406 -9.4375 C 11.3125 -9.082031 10.445312 -8.929688 9.703125 -9.050781 C 8.960938 -9.105469 8.554688 -9.433594 8.410156 -9.96875 C 8.195312 -10.5 8.183594 -11.105469 8.4375 -11.917969 C 8.691406 -12.660156 9.078125 -13.539062 9.597656 -14.492188 C 10.121094 -15.375 10.640625 -16.257812 11.160156 -17.140625 C 11.683594 -17.957031 12.269531 -18.773438 12.796875 -19.457031 C 13.320312 -20.136719 13.714844 -20.683594 13.90625 -21.023438 L 13.84375 -20.953125 L 23.445312 -35.242188 C 23.910156 -35.585938 24.4375 -35.933594 25.035156 -36.347656 C 25.632812 -36.761719 26.230469 -37.175781 26.890625 -37.660156 C 27.488281 -38.074219 28.085938 -38.488281 28.746094 -38.972656 C 29.410156 -39.386719 30.074219 -39.871094 30.800781 -40.421875 C 32.128906 -41.386719 33.519531 -42.421875 34.839844 -43.519531 C 36.164062 -44.621094 37.484375 -45.855469 38.734375 -47.15625 C 39.988281 -48.457031 41.105469 -49.753906 42.152344 -51.117188 C 43.132812 -52.476562 43.847656 -53.769531 44.363281 -55.054688 C 44.808594 -56.273438 44.988281 -57.484375 44.898438 -58.558594 C 44.746094 -59.628906 44.253906 -60.628906 43.296875 -61.550781 C 42.617188 -62.074219 41.800781 -62.527344 40.855469 -62.78125 C 39.910156 -63.03125 38.835938 -63.078125 37.695312 -62.921875 C 36.492188 -62.695312 35.355469 -62.273438 34.160156 -61.578125 C 32.964844 -60.882812 31.910156 -59.921875 30.925781 -58.695312 C 26.007812 -52.421875 21.421875 -46.152344 17.109375 -39.890625 C 12.792969 -33.628906 8.414062 -27.230469 3.972656 -20.699219 L 1.746094 -17.566406 C 1.355469 -16.953125 0.964844 -16.339844 0.574219 -15.796875 C 0.179688 -15.253906 -0.144531 -14.640625 -0.46875 -14.097656 C -1.253906 -12.875 -1.902344 -11.71875 -2.417969 -10.5 C -2.996094 -9.28125 -3.378906 -8.0625 -3.558594 -6.917969 C -3.925781 -5.03125 -3.761719 -3.554688 -3.136719 -2.492188 C -2.511719 -1.429688 -1.558594 -0.710938 -0.210938 -0.398438 Z M 23.988281 -38.476562 L 38.539062 -57.496094 C 38.929688 -58.039062 39.460938 -58.386719 39.996094 -58.53125 C 40.53125 -58.609375 40.9375 -58.550781 41.34375 -58.289062 C 41.617188 -58.023438 41.894531 -57.628906 42.039062 -57.09375 C 42.183594 -56.558594 42.128906 -55.886719 41.941406 -55.074219 C 41.691406 -54.265625 41.171875 -53.3125 40.519531 -52.292969 C 39.867188 -51.207031 38.882812 -50.046875 37.628906 -48.8125 C 36.574219 -47.71875 35.386719 -46.6875 34.128906 -45.589844 C 32.808594 -44.488281 31.550781 -43.457031 30.292969 -42.492188 C 28.96875 -41.527344 27.777344 -40.632812 26.648438 -39.9375 C 25.519531 -39.246094 24.652344 -38.757812 23.988281 -38.476562 Z M 23.988281 -38.476562 "/></g></g></g><g fill="#8d5053" fill-opacity="1"><g transform="translate(311.475004, 218.297403)"><g><path d="M 21.410156 -1.011719 L 21.144531 -0.804688 C 23.023438 -0.839844 24.894531 -1.414062 26.820312 -2.59375 C 28.679688 -3.703125 30.535156 -5.148438 32.246094 -6.859375 C 33.894531 -8.503906 35.40625 -10.347656 36.847656 -12.253906 C 38.289062 -14.164062 39.460938 -16 40.371094 -17.628906 C 40.242188 -17.492188 40.105469 -17.421875 39.910156 -17.285156 C 39.710938 -17.148438 39.511719 -16.941406 39.246094 -16.734375 C 38.652344 -16.1875 37.992188 -15.636719 37.261719 -15.085938 C 36.535156 -14.464844 35.742188 -13.847656 34.878906 -13.226562 C 33.027344 -11.78125 31.5 -10.742188 30.167969 -10.179688 C 29.503906 -9.832031 28.96875 -9.753906 28.628906 -9.882812 C 28.292969 -10.011719 28.214844 -10.410156 28.40625 -11.085938 C 28.527344 -11.761719 29.109375 -12.847656 30.023438 -14.207031 L 44.453125 -36.179688 L 34.984375 -36 L 30.804688 -29.738281 C 30.777344 -31.082031 30.558594 -32.152344 30.070312 -33.085938 C 29.582031 -33.949219 28.964844 -34.609375 28.148438 -35.128906 C 27.265625 -35.585938 26.253906 -35.832031 25.179688 -35.949219 C 24.101562 -35.996094 22.894531 -35.835938 21.691406 -35.546875 C 20.757812 -35.257812 19.691406 -34.835938 18.5625 -34.140625 C 17.433594 -33.449219 16.304688 -32.6875 15.113281 -31.726562 C 13.925781 -30.761719 12.667969 -29.664062 11.414062 -28.429688 C 10.164062 -27.199219 8.976562 -25.964844 7.792969 -24.601562 C 6.347656 -22.960938 5.035156 -21.324219 3.859375 -19.621094 C 2.617188 -17.851562 1.574219 -16.152344 0.664062 -14.457031 C 0.015625 -13.234375 -0.5625 -11.8125 -0.933594 -10.191406 C -1.304688 -8.574219 -1.476562 -7.09375 -1.316406 -5.683594 C -1.222656 -4.207031 -0.796875 -3.007812 -0.105469 -2.011719 C 0.585938 -1.019531 1.738281 -0.503906 3.414062 -0.535156 C 5.699219 -0.578125 8.105469 -1.09375 10.503906 -2.214844 C 11.636719 -2.707031 12.699219 -3.332031 13.695312 -4.023438 C 14.6875 -4.714844 15.546875 -5.535156 16.199219 -6.421875 C 16.097656 -4.875 16.523438 -3.605469 17.484375 -2.550781 C 18.378906 -1.492188 19.664062 -0.980469 21.410156 -1.011719 Z M 10.03125 -9.328125 C 9.421875 -9.652344 9.007812 -10.179688 8.792969 -10.984375 C 8.574219 -11.785156 8.691406 -12.792969 9.070312 -14.078125 C 9.382812 -15.292969 10.027344 -16.714844 11.066406 -18.480469 C 12.109375 -20.179688 13.550781 -22.15625 15.386719 -24.410156 C 16.175781 -25.363281 16.964844 -26.320312 17.886719 -27.277344 C 18.742188 -28.234375 19.667969 -29.058594 20.589844 -29.882812 C 21.449219 -30.636719 22.378906 -31.257812 23.378906 -31.679688 C 24.3125 -32.101562 25.316406 -32.253906 26.390625 -32.277344 C 26.996094 -32.21875 27.46875 -32.027344 27.8125 -31.699219 C 28.085938 -31.300781 28.296875 -30.835938 28.445312 -30.234375 C 28.523438 -29.628906 28.535156 -28.957031 28.417969 -28.148438 C 28.296875 -27.339844 28.179688 -26.53125 27.925781 -25.65625 L 27.992188 -25.65625 L 21.195312 -15.855469 C 20.671875 -15.039062 19.949219 -14.152344 19.164062 -13.195312 C 18.308594 -12.238281 17.382812 -11.347656 16.390625 -10.589844 C 15.332031 -9.761719 14.265625 -9.207031 13.199219 -8.917969 C 12.0625 -8.558594 10.984375 -8.671875 10.03125 -9.328125 Z M 10.03125 -9.328125 "/></g></g></g><g fill="#8d5053" fill-opacity="1"><g transform="translate(346.185634, 217.636581)"><g><path d="M 9.273438 -24.492188 L -6.582031 0.125 L 2.6875 -0.0507812 C 6.464844 -6.304688 9.589844 -11.46875 12.0625 -15.679688 C 14.535156 -19.890625 16.621094 -23.222656 18.386719 -25.742188 C 20.085938 -28.191406 21.597656 -29.96875 22.921875 -31 C 24.246094 -31.964844 25.578125 -32.460938 26.992188 -32.421875 C 27.867188 -32.304688 28.476562 -31.980469 28.757812 -31.3125 C 29.039062 -30.648438 28.921875 -29.90625 28.265625 -29.019531 L 18.710938 -15.738281 C 18.1875 -15.058594 17.664062 -14.242188 17.007812 -13.355469 C 16.355469 -12.402344 15.835938 -11.453125 15.316406 -10.503906 C 14.730469 -9.484375 14.28125 -8.46875 13.964844 -7.453125 C 13.648438 -6.441406 13.53125 -5.496094 13.683594 -4.625 C 13.769531 -3.6875 14.117188 -2.886719 14.804688 -2.230469 C 15.488281 -1.503906 16.574219 -0.988281 18.058594 -0.679688 C 19.003906 -0.429688 20.078125 -0.449219 21.148438 -0.605469 C 22.21875 -0.757812 23.152344 -1.113281 24.082031 -1.734375 C 25.011719 -2.289062 25.9375 -3.113281 26.925781 -4.074219 C 27.847656 -5.03125 28.835938 -6.125 29.820312 -7.285156 C 30.742188 -8.378906 31.59375 -9.46875 32.445312 -10.625 C 33.230469 -11.714844 34.015625 -12.738281 34.671875 -13.691406 C 34.269531 -13.484375 33.808594 -13.136719 33.34375 -12.726562 C 33.082031 -12.453125 32.882812 -12.246094 32.617188 -12.039062 C 32.355469 -11.835938 32.089844 -11.628906 31.890625 -11.421875 C 31.363281 -11.007812 30.832031 -10.597656 30.300781 -10.316406 C 29.769531 -10.039062 29.234375 -9.894531 28.695312 -9.882812 C 27.890625 -9.867188 27.480469 -10.261719 27.53125 -11.136719 C 27.515625 -11.875 27.832031 -12.890625 28.480469 -14.246094 C 29.0625 -15.464844 29.839844 -16.824219 30.75 -18.386719 C 31.664062 -19.882812 32.574219 -21.378906 33.488281 -22.871094 C 34.332031 -24.300781 35.117188 -25.589844 35.765625 -26.8125 C 36.414062 -27.964844 36.800781 -28.847656 36.921875 -29.453125 C 37.035156 -30.664062 37.015625 -31.605469 36.730469 -32.40625 C 36.449219 -33.207031 36.097656 -33.871094 35.550781 -34.398438 C 34.324219 -35.449219 32.96875 -36.027344 31.488281 -36.203125 C 30.007812 -36.375 28.464844 -36.210938 26.996094 -35.644531 C 25.464844 -35.078125 24 -34.246094 22.546875 -33.074219 C 21.089844 -31.839844 19.839844 -30.472656 18.664062 -28.835938 C 19.164062 -30.726562 19.335938 -32.207031 19.113281 -33.347656 C 18.890625 -34.417969 18.207031 -35.144531 17.058594 -35.523438 C 16.25 -35.710938 15.242188 -35.625 14.039062 -35.265625 C 12.769531 -34.90625 11.238281 -34.136719 9.515625 -33.03125 L 9.308594 -33.292969 C 10.414062 -31.703125 10.910156 -30.234375 10.933594 -28.957031 C 10.882812 -28.285156 10.695312 -27.542969 10.4375 -26.867188 C 10.117188 -26.121094 9.730469 -25.308594 9.273438 -24.492188 Z M 9.273438 -24.492188 "/></g></g></g><g fill="#8d5053" fill-opacity="1"><g transform="translate(377.673508, 217.037115)"><g><path d="M 1.472656 -0.230469 C 2.824219 0.148438 4.4375 0.183594 6.308594 -0.253906 C 8.183594 -0.691406 10.113281 -1.535156 12.171875 -2.785156 C 14.164062 -4.03125 16.082031 -5.679688 17.988281 -7.730469 C 19.898438 -9.785156 21.597656 -12.300781 23.019531 -15.148438 C 22.558594 -14.671875 22.097656 -14.191406 21.636719 -13.78125 C 21.175781 -13.367188 20.710938 -12.957031 20.25 -12.609375 C 19.1875 -11.785156 18.128906 -11.09375 17.0625 -10.535156 C 16 -9.976562 15.066406 -9.558594 14.132812 -9.269531 C 13.128906 -8.914062 12.261719 -8.765625 11.519531 -8.886719 C 10.777344 -8.9375 10.371094 -9.265625 10.226562 -9.800781 C 10.015625 -10.335938 10.003906 -10.9375 10.253906 -11.75 C 10.511719 -12.492188 10.894531 -13.375 11.414062 -14.324219 C 11.867188 -15.207031 12.390625 -16.089844 12.976562 -16.972656 C 13.5 -17.789062 14.089844 -18.605469 14.613281 -19.355469 C 15.136719 -20.039062 15.527344 -20.582031 15.722656 -20.921875 L 24.082031 -33.507812 L 30.796875 -33.636719 L 32.707031 -35.621094 L 25.457031 -35.484375 L 28.851562 -40.585938 L 38.589844 -54.742188 C 37.78125 -54.863281 37.234375 -55.320312 36.953125 -55.988281 C 36.605469 -56.652344 36.324219 -57.386719 36.171875 -58.257812 C 35.957031 -59.058594 35.738281 -59.859375 35.457031 -60.660156 C 35.171875 -61.460938 34.757812 -62.058594 34.078125 -62.449219 C 33.945312 -62.246094 33.816406 -61.972656 33.621094 -61.703125 C 33.359375 -61.429688 33.097656 -61.019531 32.835938 -60.613281 L 30.550781 -57.210938 C 30.027344 -56.527344 29.570312 -55.78125 29.113281 -55.03125 C 28.589844 -54.285156 28.066406 -53.535156 27.542969 -52.785156 C 26.957031 -51.96875 26.433594 -51.21875 25.910156 -50.402344 C 25.386719 -49.585938 24.800781 -48.769531 24.277344 -47.953125 C 21.664062 -44.144531 18.789062 -39.921875 15.652344 -35.296875 L 10.28125 -35.195312 L 8.371094 -33.210938 L 14.277344 -33.320312 L 5.722656 -20.597656 L 3.496094 -17.464844 C 3.105469 -16.851562 2.714844 -16.242188 2.320312 -15.695312 C 1.929688 -15.152344 1.535156 -14.539062 1.210938 -13.996094 C 0.429688 -12.769531 -0.21875 -11.550781 -0.734375 -10.332031 C -1.316406 -9.109375 -1.695312 -7.960938 -1.875 -6.75 C -2.242188 -4.859375 -2.078125 -3.386719 -1.453125 -2.324219 C -0.832031 -1.261719 0.125 -0.539062 1.472656 -0.230469 Z M 1.472656 -0.230469 "/></g></g></g><g fill="#216b39" fill-opacity="1"><g transform="translate(242.241923, 218.719846)"><g><path d="M 75.476562 -61.355469 C 72.890625 -63.121094 69.441406 -64.464844 65.257812 -65.460938 C 61.007812 -66.386719 55.828125 -66.757812 49.652344 -66.507812 L 49.585938 -66.4375 C 45.359375 -66.222656 41.875 -65.6875 39.207031 -64.695312 C 36.539062 -63.707031 34.410156 -62.589844 32.890625 -61.21875 C 31.304688 -59.84375 30.328125 -58.28125 29.820312 -56.660156 C 29.316406 -55.035156 29.210938 -53.421875 29.507812 -51.949219 C 29.734375 -50.609375 30.230469 -49.34375 30.921875 -48.214844 C 31.617188 -47.085938 32.507812 -46.164062 33.527344 -45.445312 C 34.484375 -44.65625 35.5 -44.203125 36.644531 -44.09375 C 37.722656 -43.976562 38.859375 -44.203125 39.988281 -44.894531 C 38.464844 -47.285156 37.683594 -49.554688 37.777344 -51.636719 C 37.804688 -53.652344 38.441406 -55.480469 39.621094 -57.113281 C 40.734375 -58.679688 42.25 -60.050781 44.246094 -61.164062 C 46.171875 -62.277344 48.304688 -63.125 50.578125 -63.703125 C 52.851562 -64.285156 55.0625 -64.59375 57.34375 -64.640625 C 59.5625 -64.679688 61.582031 -64.449219 63.40625 -63.949219 C 65.972656 -63.191406 67.875 -61.949219 69.183594 -60.230469 C 70.425781 -58.507812 71.203125 -56.503906 71.445312 -54.359375 C 71.625 -51.945312 71.136719 -49.519531 69.96875 -47.210938 C 68.804688 -44.839844 67.234375 -42.726562 65.253906 -40.808594 C 63.539062 -39.164062 61.753906 -37.71875 59.828125 -36.605469 C 57.832031 -35.496094 55.96875 -34.71875 54.09375 -34.347656 C 52.355469 -33.980469 50.808594 -34.015625 49.390625 -34.394531 C 47.90625 -34.769531 46.8125 -35.621094 46.046875 -37.082031 C 46.832031 -38.242188 47.617188 -39.398438 48.402344 -40.488281 C 49.1875 -41.578125 50.039062 -42.667969 50.824219 -43.757812 C 52.917969 -46.617188 55.085938 -49.144531 57.195312 -51.402344 C 59.300781 -53.660156 61.417969 -55.445312 63.476562 -56.695312 C 61.667969 -56.324219 59.800781 -55.550781 57.945312 -54.304688 C 56.089844 -53.0625 54.167969 -51.613281 52.253906 -49.832031 C 50.273438 -48.046875 48.226562 -46.058594 46.253906 -43.871094 C 44.28125 -41.683594 42.304688 -39.566406 40.332031 -37.378906 C 38.292969 -35.191406 36.316406 -33.070312 34.339844 -31.015625 C 32.363281 -28.964844 30.382812 -27.246094 28.53125 -25.734375 C 26.613281 -24.152344 24.753906 -22.90625 22.957031 -22.066406 C 21.089844 -21.226562 19.351562 -20.855469 17.667969 -21.09375 C 16.1875 -21.199219 15.101562 -21.785156 14.277344 -22.707031 C 13.457031 -23.632812 12.828125 -24.761719 12.46875 -26.097656 C 12.039062 -27.367188 11.8125 -28.773438 11.785156 -30.25 C 11.757812 -31.730469 11.796875 -33.074219 12.039062 -34.421875 C 10.3125 -33.449219 8.71875 -32.410156 7.265625 -31.171875 C 5.8125 -29.9375 4.492188 -28.632812 3.3125 -27.132812 C 2.066406 -25.632812 1.019531 -24 0.25 -22.238281 C -0.589844 -20.476562 -1.164062 -18.71875 -1.394531 -16.835938 C -1.757812 -14.679688 -1.652344 -12.597656 -1.210938 -10.589844 C -0.769531 -8.582031 0.140625 -6.789062 1.375 -5.332031 C 2.546875 -3.808594 4.113281 -2.632812 6.011719 -1.726562 C 7.910156 -0.824219 10.203125 -0.464844 12.886719 -0.515625 C 14.769531 -0.550781 16.703125 -1.257812 18.824219 -2.640625 C 20.816406 -3.957031 22.863281 -5.742188 24.972656 -8 C 27.078125 -10.253906 29.179688 -12.847656 31.335938 -15.84375 C 33.429688 -18.773438 35.589844 -21.835938 37.746094 -24.96875 C 39.902344 -28.101562 42.125 -31.367188 44.347656 -34.632812 C 44.609375 -34.90625 44.804688 -35.3125 45.066406 -35.722656 C 44.890625 -34.242188 45.117188 -32.96875 45.746094 -31.839844 C 46.371094 -30.640625 47.261719 -29.71875 48.351562 -28.933594 C 49.714844 -27.882812 51.273438 -27.175781 53.160156 -26.808594 C 55.050781 -26.441406 56.929688 -26.410156 58.804688 -26.847656 C 61.613281 -27.4375 64.285156 -28.296875 66.679688 -29.484375 C 69.078125 -30.601562 71.269531 -31.988281 73.253906 -33.570312 C 75.769531 -35.5 77.742188 -37.753906 79.238281 -40.199219 C 80.671875 -42.648438 81.5625 -45.214844 81.917969 -47.777344 C 82.203125 -50.332031 81.820312 -52.746094 80.835938 -55.144531 C 79.851562 -57.476562 78.066406 -59.523438 75.476562 -61.355469 Z M 75.476562 -61.355469 "/></g></g></g><g fill="#216b39" fill-opacity="1"><g transform="translate(297.967562, 217.658941)"><g><path d="M -0.210938 -0.398438 C 1.140625 -0.0234375 2.753906 -0.0507812 4.625 -0.492188 C 6.5 -0.929688 8.429688 -1.773438 10.421875 -3.019531 C 12.414062 -4.265625 14.328125 -5.914062 16.238281 -7.96875 C 18.082031 -10.015625 19.78125 -12.46875 21.203125 -15.316406 C 20.742188 -14.835938 20.28125 -14.359375 19.820312 -13.945312 C 19.355469 -13.535156 18.894531 -13.121094 18.429688 -12.777344 C 17.371094 -11.953125 16.3125 -11.261719 15.246094 -10.703125 C 14.183594 -10.144531 13.25 -9.722656 12.316406 -9.4375 C 11.3125 -9.082031 10.445312 -8.929688 9.703125 -9.050781 C 8.960938 -9.105469 8.554688 -9.433594 8.410156 -9.96875 C 8.195312 -10.5 8.183594 -11.105469 8.4375 -11.917969 C 8.691406 -12.660156 9.078125 -13.539062 9.597656 -14.492188 C 10.121094 -15.375 10.640625 -16.257812 11.160156 -17.140625 C 11.683594 -17.957031 12.269531 -18.773438 12.796875 -19.457031 C 13.320312 -20.136719 13.714844 -20.683594 13.90625 -21.023438 L 13.84375 -20.953125 L 23.445312 -35.242188 C 23.910156 -35.585938 24.4375 -35.933594 25.035156 -36.347656 C 25.632812 -36.761719 26.230469 -37.175781 26.890625 -37.660156 C 27.488281 -38.074219 28.085938 -38.488281 28.746094 -38.972656 C 29.410156 -39.386719 30.074219 -39.871094 30.800781 -40.421875 C 32.128906 -41.386719 33.519531 -42.421875 34.839844 -43.519531 C 36.164062 -44.621094 37.484375 -45.855469 38.734375 -47.15625 C 39.988281 -48.457031 41.105469 -49.753906 42.152344 -51.117188 C 43.132812 -52.476562 43.847656 -53.769531 44.363281 -55.054688 C 44.808594 -56.273438 44.988281 -57.484375 44.898438 -58.558594 C 44.746094 -59.628906 44.253906 -60.628906 43.296875 -61.550781 C 42.617188 -62.074219 41.800781 -62.527344 40.855469 -62.78125 C 39.910156 -63.03125 38.835938 -63.078125 37.695312 -62.921875 C 36.492188 -62.695312 35.355469 -62.273438 34.160156 -61.578125 C 32.964844 -60.882812 31.910156 -59.921875 30.925781 -58.695312 C 26.007812 -52.421875 21.421875 -46.152344 17.109375 -39.890625 C 12.792969 -33.628906 8.414062 -27.230469 3.972656 -20.699219 L 1.746094 -17.566406 C 1.355469 -16.953125 0.964844 -16.339844 0.574219 -15.796875 C 0.179688 -15.253906 -0.144531 -14.640625 -0.46875 -14.097656 C -1.253906 -12.875 -1.902344 -11.71875 -2.417969 -10.5 C -2.996094 -9.28125 -3.378906 -8.0625 -3.558594 -6.917969 C -3.925781 -5.03125 -3.761719 -3.554688 -3.136719 -2.492188 C -2.511719 -1.429688 -1.558594 -0.710938 -0.210938 -0.398438 Z M 23.988281 -38.476562 L 38.539062 -57.496094 C 38.929688 -58.039062 39.460938 -58.386719 39.996094 -58.53125 C 40.53125 -58.609375 40.9375 -58.550781 41.34375 -58.289062 C 41.617188 -58.023438 41.894531 -57.628906 42.039062 -57.09375 C 42.183594 -56.558594 42.128906 -55.886719 41.941406 -55.074219 C 41.691406 -54.265625 41.171875 -53.3125 40.519531 -52.292969 C 39.867188 -51.207031 38.882812 -50.046875 37.628906 -48.8125 C 36.574219 -47.71875 35.386719 -46.6875 34.128906 -45.589844 C 32.808594 -44.488281 31.550781 -43.457031 30.292969 -42.492188 C 28.96875 -41.527344 27.777344 -40.632812 26.648438 -39.9375 C 25.519531 -39.246094 24.652344 -38.757812 23.988281 -38.476562 Z M 23.988281 -38.476562 "/></g></g></g><g fill="#216b39" fill-opacity="1"><g transform="translate(313.073134, 217.371361)"><g><path d="M 21.410156 -1.011719 L 21.144531 -0.804688 C 23.023438 -0.839844 24.894531 -1.414062 26.820312 -2.59375 C 28.679688 -3.703125 30.535156 -5.148438 32.246094 -6.859375 C 33.894531 -8.503906 35.40625 -10.347656 36.847656 -12.253906 C 38.289062 -14.164062 39.460938 -16 40.371094 -17.628906 C 40.242188 -17.492188 40.105469 -17.421875 39.910156 -17.285156 C 39.710938 -17.148438 39.511719 -16.941406 39.246094 -16.734375 C 38.652344 -16.1875 37.992188 -15.636719 37.261719 -15.085938 C 36.535156 -14.464844 35.742188 -13.847656 34.878906 -13.226562 C 33.027344 -11.78125 31.5 -10.742188 30.167969 -10.179688 C 29.503906 -9.832031 28.96875 -9.753906 28.628906 -9.882812 C 28.292969 -10.011719 28.214844 -10.410156 28.40625 -11.085938 C 28.527344 -11.761719 29.109375 -12.847656 30.023438 -14.207031 L 44.453125 -36.179688 L 34.984375 -36 L 30.804688 -29.738281 C 30.777344 -31.082031 30.558594 -32.152344 30.070312 -33.085938 C 29.582031 -33.949219 28.964844 -34.609375 28.148438 -35.128906 C 27.265625 -35.585938 26.253906 -35.832031 25.179688 -35.949219 C 24.101562 -35.996094 22.894531 -35.835938 21.691406 -35.546875 C 20.757812 -35.257812 19.691406 -34.835938 18.5625 -34.140625 C 17.433594 -33.449219 16.304688 -32.6875 15.113281 -31.726562 C 13.925781 -30.761719 12.667969 -29.664062 11.414062 -28.429688 C 10.164062 -27.199219 8.976562 -25.964844 7.792969 -24.601562 C 6.347656 -22.960938 5.035156 -21.324219 3.859375 -19.621094 C 2.617188 -17.851562 1.574219 -16.152344 0.664062 -14.457031 C 0.015625 -13.234375 -0.5625 -11.8125 -0.933594 -10.191406 C -1.304688 -8.574219 -1.476562 -7.09375 -1.316406 -5.683594 C -1.222656 -4.207031 -0.796875 -3.007812 -0.105469 -2.011719 C 0.585938 -1.019531 1.738281 -0.503906 3.414062 -0.535156 C 5.699219 -0.578125 8.105469 -1.09375 10.503906 -2.214844 C 11.636719 -2.707031 12.699219 -3.332031 13.695312 -4.023438 C 14.6875 -4.714844 15.546875 -5.535156 16.199219 -6.421875 C 16.097656 -4.875 16.523438 -3.605469 17.484375 -2.550781 C 18.378906 -1.492188 19.664062 -0.980469 21.410156 -1.011719 Z M 10.03125 -9.328125 C 9.421875 -9.652344 9.007812 -10.179688 8.792969 -10.984375 C 8.574219 -11.785156 8.691406 -12.792969 9.070312 -14.078125 C 9.382812 -15.292969 10.027344 -16.714844 11.066406 -18.480469 C 12.109375 -20.179688 13.550781 -22.15625 15.386719 -24.410156 C 16.175781 -25.363281 16.964844 -26.320312 17.886719 -27.277344 C 18.742188 -28.234375 19.667969 -29.058594 20.589844 -29.882812 C 21.449219 -30.636719 22.378906 -31.257812 23.378906 -31.679688 C 24.3125 -32.101562 25.316406 -32.253906 26.390625 -32.277344 C 26.996094 -32.21875 27.46875 -32.027344 27.8125 -31.699219 C 28.085938 -31.300781 28.296875 -30.835938 28.445312 -30.234375 C 28.523438 -29.628906 28.535156 -28.957031 28.417969 -28.148438 C 28.296875 -27.339844 28.179688 -26.53125 27.925781 -25.65625 L 27.992188 -25.65625 L 21.195312 -15.855469 C 20.671875 -15.039062 19.949219 -14.152344 19.164062 -13.195312 C 18.308594 -12.238281 17.382812 -11.347656 16.390625 -10.589844 C 15.332031 -9.761719 14.265625 -9.207031 13.199219 -8.917969 C 12.0625 -8.558594 10.984375 -8.671875 10.03125 -9.328125 Z M 10.03125 -9.328125 "/></g></g></g><g fill="#216b39" fill-opacity="1"><g transform="translate(347.783765, 216.710539)"><g><path d="M 9.273438 -24.492188 L -6.582031 0.125 L 2.6875 -0.0507812 C 6.464844 -6.304688 9.589844 -11.46875 12.0625 -15.679688 C 14.535156 -19.890625 16.621094 -23.222656 18.386719 -25.742188 C 20.085938 -28.191406 21.597656 -29.96875 22.921875 -31 C 24.246094 -31.964844 25.578125 -32.460938 26.992188 -32.421875 C 27.867188 -32.304688 28.476562 -31.980469 28.757812 -31.3125 C 29.039062 -30.648438 28.921875 -29.90625 28.265625 -29.019531 L 18.710938 -15.738281 C 18.1875 -15.058594 17.664062 -14.242188 17.007812 -13.355469 C 16.355469 -12.402344 15.835938 -11.453125 15.316406 -10.503906 C 14.730469 -9.484375 14.28125 -8.46875 13.964844 -7.453125 C 13.648438 -6.441406 13.53125 -5.496094 13.683594 -4.625 C 13.769531 -3.6875 14.117188 -2.886719 14.804688 -2.230469 C 15.488281 -1.503906 16.574219 -0.988281 18.058594 -0.679688 C 19.003906 -0.429688 20.078125 -0.449219 21.148438 -0.605469 C 22.21875 -0.757812 23.152344 -1.113281 24.082031 -1.734375 C 25.011719 -2.289062 25.9375 -3.113281 26.925781 -4.074219 C 27.847656 -5.03125 28.835938 -6.125 29.820312 -7.285156 C 30.742188 -8.378906 31.59375 -9.46875 32.445312 -10.625 C 33.230469 -11.714844 34.015625 -12.738281 34.671875 -13.691406 C 34.269531 -13.484375 33.808594 -13.136719 33.34375 -12.726562 C 33.082031 -12.453125 32.882812 -12.246094 32.617188 -12.039062 C 32.355469 -11.835938 32.089844 -11.628906 31.890625 -11.421875 C 31.363281 -11.007812 30.832031 -10.597656 30.300781 -10.316406 C 29.769531 -10.039062 29.234375 -9.894531 28.695312 -9.882812 C 27.890625 -9.867188 27.480469 -10.261719 27.53125 -11.136719 C 27.515625 -11.875 27.832031 -12.890625 28.480469 -14.246094 C 29.0625 -15.464844 29.839844 -16.824219 30.75 -18.386719 C 31.664062 -19.882812 32.574219 -21.378906 33.488281 -22.871094 C 34.332031 -24.300781 35.117188 -25.589844 35.765625 -26.8125 C 36.414062 -27.964844 36.800781 -28.847656 36.921875 -29.453125 C 37.035156 -30.664062 37.015625 -31.605469 36.730469 -32.40625 C 36.449219 -33.207031 36.097656 -33.871094 35.550781 -34.398438 C 34.324219 -35.449219 32.96875 -36.027344 31.488281 -36.203125 C 30.007812 -36.375 28.464844 -36.210938 26.996094 -35.644531 C 25.464844 -35.078125 24 -34.246094 22.546875 -33.074219 C 21.089844 -31.839844 19.839844 -30.472656 18.664062 -28.835938 C 19.164062 -30.726562 19.335938 -32.207031 19.113281 -33.347656 C 18.890625 -34.417969 18.207031 -35.144531 17.058594 -35.523438 C 16.25 -35.710938 15.242188 -35.625 14.039062 -35.265625 C 12.769531 -34.90625 11.238281 -34.136719 9.515625 -33.03125 L 9.308594 -33.292969 C 10.414062 -31.703125 10.910156 -30.234375 10.933594 -28.957031 C 10.882812 -28.285156 10.695312 -27.542969 10.4375 -26.867188 C 10.117188 -26.121094 9.730469 -25.308594 9.273438 -24.492188 Z M 9.273438 -24.492188 "/></g></g></g><g fill="#216b39" fill-opacity="1"><g transform="translate(379.271639, 216.111072)"><g><path d="M 1.472656 -0.230469 C 2.824219 0.148438 4.4375 0.183594 6.308594 -0.253906 C 8.183594 -0.691406 10.113281 -1.535156 12.171875 -2.785156 C 14.164062 -4.03125 16.082031 -5.679688 17.988281 -7.730469 C 19.898438 -9.785156 21.597656 -12.300781 23.019531 -15.148438 C 22.558594 -14.671875 22.097656 -14.191406 21.636719 -13.78125 C 21.175781 -13.367188 20.710938 -12.957031 20.25 -12.609375 C 19.1875 -11.785156 18.128906 -11.09375 17.0625 -10.535156 C 16 -9.976562 15.066406 -9.558594 14.132812 -9.269531 C 13.128906 -8.914062 12.261719 -8.765625 11.519531 -8.886719 C 10.777344 -8.9375 10.371094 -9.265625 10.226562 -9.800781 C 10.015625 -10.335938 10.003906 -10.9375 10.253906 -11.75 C 10.511719 -12.492188 10.894531 -13.375 11.414062 -14.324219 C 11.867188 -15.207031 12.390625 -16.089844 12.976562 -16.972656 C 13.5 -17.789062 14.089844 -18.605469 14.613281 -19.355469 C 15.136719 -20.039062 15.527344 -20.582031 15.722656 -20.921875 L 24.082031 -33.507812 L 30.796875 -33.636719 L 32.707031 -35.621094 L 25.457031 -35.484375 L 28.851562 -40.585938 L 38.589844 -54.742188 C 37.78125 -54.863281 37.234375 -55.320312 36.953125 -55.988281 C 36.605469 -56.652344 36.324219 -57.386719 36.171875 -58.257812 C 35.957031 -59.058594 35.738281 -59.859375 35.457031 -60.660156 C 35.171875 -61.460938 34.757812 -62.058594 34.078125 -62.449219 C 33.945312 -62.246094 33.816406 -61.972656 33.621094 -61.703125 C 33.359375 -61.429688 33.097656 -61.019531 32.835938 -60.613281 L 30.550781 -57.210938 C 30.027344 -56.527344 29.570312 -55.78125 29.113281 -55.03125 C 28.589844 -54.285156 28.066406 -53.535156 27.542969 -52.785156 C 26.957031 -51.96875 26.433594 -51.21875 25.910156 -50.402344 C 25.386719 -49.585938 24.800781 -48.769531 24.277344 -47.953125 C 21.664062 -44.144531 18.789062 -39.921875 15.652344 -35.296875 L 10.28125 -35.195312 L 8.371094 -33.210938 L 14.277344 -33.320312 L 5.722656 -20.597656 L 3.496094 -17.464844 C 3.105469 -16.851562 2.714844 -16.242188 2.320312 -15.695312 C 1.929688 -15.152344 1.535156 -14.539062 1.210938 -13.996094 C 0.429688 -12.769531 -0.21875 -11.550781 -0.734375 -10.332031 C -1.316406 -9.109375 -1.695312 -7.960938 -1.875 -6.75 C -2.242188 -4.859375 -2.078125 -3.386719 -1.453125 -2.324219 C -0.832031 -1.261719 0.125 -0.539062 1.472656 -0.230469 Z M 1.472656 -0.230469 "/></g></g></g></svg>