<svg width="141" height="87" viewBox="0 0 141 87" fill="none" xmlns="http://www.w3.org/2000/svg">
<g id="Grenn Plant">
<g id="Clip path group">
<mask id="mask0_3_398" style="mask-type:luminance" maskUnits="userSpaceOnUse" x="0" y="0" width="141" height="87">
<g id="48f5c0c14a">
<path id="Vector" d="M0.956909 0.886597H140.861V86.9321H0.956909V0.886597Z" fill="white"/>
</g>
</mask>
<g mask="url(#mask0_3_398)">
<g id="Group">
<path id="Vector_2" d="M140.861 42.6648C140.861 42.6648 120.664 51.8977 105.933 45.8204C91.2006 39.7466 81.389 28.7701 77.1698 29.3146C74.7326 29.6305 69.4448 33.7705 68.7847 34.3709C68.1126 34.9888 67.2953 35.7427 66.4032 36.6294C65.5013 37.509 64.5197 38.5231 63.4776 39.6418C62.9674 40.2056 62.4185 40.7868 61.8915 41.4046C61.6231 41.7101 61.3499 42.0242 61.0718 42.3402C60.8058 42.6613 60.535 42.9859 60.2594 43.3175C59.6985 43.9738 59.1714 44.6684 58.6104 45.3701C58.0688 46.0769 57.5224 46.803 56.9856 47.5465C56.4658 48.297 55.9073 49.0493 55.4116 49.8347C55.1553 50.2256 54.899 50.6166 54.6403 51.011C54.3986 51.4107 54.1543 51.8104 53.9101 52.2136C53.4072 53.0147 52.9744 53.8437 52.5126 54.6658C52.2757 55.0759 52.0823 55.4983 51.8695 55.9155L51.2433 57.1704L50.6823 58.4392C50.4986 58.8633 50.2979 59.2822 50.1456 59.7116C49.8288 60.5651 49.471 61.4063 49.2219 62.258C49.0865 62.6822 48.9511 63.1045 48.8157 63.5252C48.6876 63.9458 48.5957 64.3699 48.4845 64.7888C48.3805 65.2077 48.2645 65.6213 48.1726 66.0367C48.0952 66.4521 48.0203 66.864 47.9429 67.2742C47.8752 67.6826 47.7737 68.0857 47.735 68.4889C47.6914 68.8921 47.6455 69.2918 47.602 69.6862C47.4859 70.4734 47.4811 71.2483 47.4545 72.0006C47.4472 72.3758 47.4086 72.7458 47.4327 73.1106C47.4472 73.4736 47.4642 73.8332 47.4811 74.1857C47.498 74.5365 47.5125 74.8839 47.5295 75.2242C47.573 75.5628 47.6165 75.8944 47.66 76.2191C47.7035 76.5437 47.7446 76.8613 47.7857 77.172C47.8075 77.3274 47.822 77.4809 47.851 77.631C47.8825 77.7829 47.9163 77.9295 47.9502 78.0761C48.0807 78.6625 48.204 79.2176 48.3225 79.7394C48.3684 80.0012 48.4724 80.2473 48.5425 80.4882C48.6199 80.7273 48.6924 80.9594 48.765 81.1811C48.9125 81.6261 49.0285 82.0363 49.1639 82.4011C49.778 83.8462 50.1286 84.6718 50.1286 84.6718L50.1746 84.7817C50.5469 85.6596 49.8627 86.5899 48.6417 86.8587C47.4231 87.1275 46.1319 86.6335 45.7596 85.7556C45.7499 85.7329 45.7402 85.705 45.7306 85.6823C45.7306 85.6823 45.4042 84.7678 44.8336 83.1673C44.7127 82.7641 44.6111 82.3121 44.4805 81.8251C44.4177 81.5808 44.3524 81.3259 44.2847 81.0624C44.2267 80.7971 44.1324 80.5266 44.1009 80.2421C44.0091 79.6731 43.9124 79.0657 43.8108 78.4269C43.7842 78.2681 43.76 78.1058 43.7334 77.9435C43.7141 77.7794 43.7068 77.6118 43.6947 77.4443C43.6706 77.1074 43.6464 76.7636 43.6222 76.4128C43.6005 76.062 43.5763 75.7024 43.5521 75.3377C43.5569 74.9729 43.5618 74.6011 43.569 74.2224C43.5763 73.8454 43.5811 73.4597 43.5884 73.0705C43.5884 72.6795 43.6536 72.2851 43.6851 71.8854C43.7649 71.086 43.8253 70.2639 43.9994 69.4332C44.0719 69.016 44.1469 68.5954 44.2218 68.1713C44.2871 67.7454 44.4201 67.3248 44.5192 66.8954C44.6256 66.4678 44.7344 66.0367 44.8432 65.6021C44.9665 65.171 45.114 64.7382 45.2518 64.3036C45.3969 63.869 45.5226 63.4292 45.6822 62.9946C45.849 62.56 46.0183 62.1236 46.1875 61.6856C46.5043 60.8059 46.9298 59.9437 47.3167 59.071C47.5053 58.633 47.735 58.2036 47.955 57.7725L48.6175 56.4809L49.3428 55.2068C49.5895 54.7845 49.8167 54.3569 50.0875 53.9432C50.6122 53.1124 51.1127 52.2782 51.6785 51.4735C51.9541 51.0704 52.2297 50.6672 52.503 50.2675C52.7931 49.8731 53.0808 49.4821 53.3661 49.0912C53.9247 48.3057 54.5412 47.557 55.1191 46.81C55.7139 46.07 56.3183 45.3491 56.9131 44.6475C57.5272 43.9546 58.1075 43.2669 58.7168 42.6194C59.0191 42.293 59.314 41.9719 59.6066 41.656C59.9064 41.3436 60.2038 41.0364 60.4939 40.7344C61.0694 40.1253 61.6593 39.5563 62.213 39.0013C63.3397 37.9052 64.3963 36.9139 65.3635 36.0534C66.3209 35.186 67.1938 34.4529 67.9119 33.849C68.526 33.3411 69.0386 32.931 69.4255 32.6273C69.4255 32.6273 68.1851 27.5291 66.2581 25.8833C62.9215 23.0331 46.6977 26.9235 29.5286 23.8255C12.3619 20.7293 0.956909 1.39783 0.956909 1.39783C0.956909 1.39783 14.2309 1.40132 30.2902 0.90215C50.9048 0.261608 64.1255 18.9857 67.3389 24.5184C69.2586 27.8293 70.1145 30.2676 70.4917 31.6935C71.6354 30.7842 73.7462 29.3321 77.1843 27.7351C82.9267 25.0665 104.117 17.1967 119.18 27.8416C130.914 36.132 140.861 42.6648 140.861 42.6648Z" fill="#216B39"/>
</g>
</g>
</g>
<path id="Vector_3" d="M91.9284 33.638C91.8631 33.542 91.7881 33.4355 91.7084 33.3168C91.6213 33.2017 91.5585 33.0673 91.4787 32.9294C91.3965 32.7915 91.3288 32.6414 91.2635 32.4843C91.1861 32.3307 91.1305 32.1667 91.0749 31.9991C91.0096 31.8351 90.9709 31.6623 90.9226 31.4912C90.8331 31.1491 90.7751 30.8036 90.7388 30.4772C90.705 30.1525 90.6929 29.8471 90.6953 29.587C90.6953 29.0634 90.7557 28.7196 90.7557 28.7196L90.5792 28.7074C90.5792 28.7074 90.5309 29.0617 90.5454 29.587C90.5526 29.8506 90.5744 30.1578 90.6179 30.4859C90.6639 30.8123 90.734 31.1596 90.8355 31.5034C90.8887 31.6745 90.9322 31.8473 91.0048 32.0131C91.0676 32.1789 91.1281 32.3429 91.2079 32.4965C91.2828 32.6536 91.3529 32.8037 91.4424 32.9399C91.5246 33.0777 91.5923 33.2121 91.6842 33.3256C91.7664 33.4425 91.8438 33.549 91.9139 33.645C91.9912 33.734 92.0589 33.8125 92.117 33.8789C92.2306 34.008 92.2959 34.0813 92.2959 34.0813C92.2959 34.0813 92.233 34.0063 92.1242 33.8736C92.0686 33.809 92.0033 33.7305 91.9284 33.638ZM111.358 43.3351L111.479 43.2426C111.482 43.2409 111.433 43.2618 111.392 43.2583C111.375 43.2566 111.361 43.2479 111.349 43.2357C111.363 43.2461 111.375 43.2566 111.38 43.2688C111.382 43.2985 111.356 43.3369 111.358 43.3351ZM133.116 42.2059C131.385 42.1535 128.917 41.9232 126.068 41.3297C125.873 41.2878 125.674 41.2425 125.476 41.1988C125.517 41.1692 125.565 41.1343 125.628 41.0889C125.711 41.0278 125.807 40.951 125.945 40.8829C126.078 40.8131 126.218 40.7241 126.392 40.6456C126.569 40.5723 126.755 40.485 126.963 40.4064C127.176 40.3349 127.396 40.2511 127.633 40.183C127.874 40.1185 128.116 40.0382 128.375 39.9841C128.634 39.9247 128.892 39.8602 129.161 39.8148C129.424 39.7607 129.693 39.7153 129.956 39.6769C130.222 39.6315 130.486 39.6001 130.737 39.5669C131.247 39.5041 131.724 39.4587 132.135 39.4273C132.957 39.3662 133.508 39.3557 133.508 39.3557C133.508 39.3557 132.957 39.3575 132.132 39.4081C131.721 39.4343 131.24 39.4709 130.73 39.5268C130.474 39.5582 130.208 39.5844 129.944 39.6245C129.676 39.6612 129.407 39.7031 129.139 39.7519C128.868 39.7956 128.605 39.8567 128.344 39.9125C128.08 39.9631 127.833 40.0399 127.589 40.101C127.345 40.1673 127.118 40.2494 126.9 40.3192C126.687 40.396 126.494 40.4815 126.313 40.5548C126.131 40.6316 125.984 40.7224 125.846 40.7922C125.701 40.8602 125.599 40.9388 125.51 41.0016C125.408 41.0732 125.333 41.1238 125.287 41.1569C122.637 40.5565 119.726 39.6367 116.832 38.3888C116.68 38.3225 116.53 38.2527 116.378 38.1846C116.465 38.0991 116.728 37.8547 117.161 37.5563C117.292 37.4603 117.441 37.3626 117.603 37.2631C117.761 37.1601 117.944 37.0659 118.126 36.9611C118.319 36.8686 118.51 36.7604 118.721 36.6731C118.931 36.5824 119.144 36.4899 119.371 36.4131C119.48 36.3747 119.591 36.3311 119.702 36.2944C119.818 36.2612 119.934 36.2281 120.046 36.1967C120.27 36.1234 120.505 36.0797 120.727 36.0291C120.95 35.9733 121.172 35.9506 121.383 35.9174C121.487 35.9035 121.588 35.886 121.687 35.8755C121.789 35.8685 121.885 35.8598 121.98 35.8546C122.166 35.8424 122.335 35.8232 122.488 35.8214C122.64 35.8232 122.773 35.8232 122.882 35.8232C123.102 35.8249 123.225 35.8249 123.225 35.8249C123.225 35.8249 123.102 35.8214 122.882 35.8179C122.773 35.8162 122.64 35.8144 122.488 35.8109C122.333 35.8092 122.164 35.8249 121.975 35.8354C121.883 35.8389 121.784 35.8441 121.685 35.8511C121.583 35.8598 121.482 35.8755 121.375 35.8895C121.163 35.9174 120.938 35.9384 120.713 35.9907C120.486 36.0378 120.251 36.078 120.021 36.1478C119.905 36.1792 119.789 36.2106 119.671 36.242C119.557 36.277 119.446 36.3188 119.33 36.3555C119.1 36.4288 118.883 36.5196 118.667 36.6086C118.45 36.6941 118.254 36.7988 118.056 36.8913C117.869 36.9943 117.678 37.0851 117.514 37.188C117.347 37.2875 117.192 37.3835 117.055 37.4778C116.595 37.7832 116.31 38.0398 116.228 38.1183C114.842 37.5004 113.464 36.8145 112.122 36.0658C111.344 35.6416 110.594 35.1756 109.835 34.7114C109.837 34.7044 109.837 34.7009 109.84 34.6922C109.849 34.6503 109.871 34.5892 109.898 34.5107C109.929 34.4321 109.963 34.3379 110.021 34.2314C110.074 34.1249 110.149 34.0098 110.239 33.8841C110.328 33.7619 110.437 33.631 110.565 33.5019C110.633 33.4373 110.703 33.3727 110.775 33.3046C110.85 33.2418 110.935 33.1825 111.02 33.1179C111.177 32.9835 111.392 32.884 111.585 32.7618C111.803 32.6676 112.011 32.5524 112.248 32.4738C112.485 32.3971 112.715 32.3011 112.964 32.2539C113.21 32.1998 113.445 32.1283 113.689 32.1021C113.931 32.0707 114.16 32.0253 114.385 32.0061C114.608 31.9904 114.821 31.9747 115.016 31.9625C115.212 31.9433 115.394 31.945 115.553 31.9468C115.713 31.9468 115.853 31.9468 115.967 31.9468C116.196 31.9468 116.329 31.9468 116.329 31.9468C116.329 31.9468 116.196 31.945 115.967 31.9415C115.853 31.938 115.713 31.9363 115.553 31.9345C115.394 31.931 115.21 31.9276 115.014 31.9433C114.818 31.9537 114.605 31.9642 114.378 31.9764C114.153 31.9921 113.921 32.034 113.677 32.0619C113.43 32.0864 113.191 32.1527 112.942 32.2051C112.686 32.2504 112.453 32.3429 112.209 32.4163C111.965 32.493 111.75 32.6065 111.523 32.7007C111.324 32.8212 111.102 32.9207 110.935 33.055C110.846 33.1196 110.756 33.179 110.676 33.2453C110.601 33.3134 110.526 33.3779 110.456 33.4425C110.319 33.5752 110.202 33.7078 110.106 33.8335C110.009 33.9609 109.929 34.0796 109.874 34.1895C109.808 34.2977 109.77 34.3972 109.733 34.4775C109.712 34.5351 109.697 34.5787 109.685 34.6189C108.986 34.1913 108.278 33.7671 107.528 33.3762C105.05 32.0585 102.315 31.0165 99.5639 30.2328C99.5857 30.1805 99.622 30.0897 99.6872 29.9588C99.7888 29.7546 99.9484 29.4614 100.185 29.1245C100.425 28.7912 100.732 28.4107 101.14 28.0424C101.339 27.8574 101.571 27.6794 101.815 27.5066C102.066 27.339 102.328 27.1732 102.62 27.0354C102.905 26.8922 103.212 26.7718 103.524 26.6706C103.841 26.5746 104.16 26.4908 104.479 26.4419C104.637 26.4123 104.794 26.3878 104.951 26.3756C105.108 26.3564 105.26 26.3424 105.41 26.339C105.71 26.318 105.995 26.3267 106.257 26.3302C106.518 26.3529 106.759 26.3582 106.967 26.3896C107.178 26.4158 107.364 26.4315 107.511 26.4629C107.511 26.4629 107.809 26.5117 107.514 26.4559C107.366 26.4262 107.18 26.407 106.97 26.3774C106.762 26.3424 106.52 26.3355 106.257 26.311C105.995 26.3058 105.71 26.2901 105.408 26.3075C105.256 26.3093 105.101 26.3232 104.944 26.3407C104.786 26.3529 104.627 26.3739 104.465 26.4018C104.141 26.4489 103.817 26.5292 103.495 26.6217C103.176 26.7212 102.864 26.8399 102.569 26.983C102.272 27.1191 102.001 27.2849 101.742 27.4507C101.491 27.6235 101.254 27.8016 101.046 27.9883C100.625 28.3566 100.301 28.7388 100.052 29.0757C99.6607 29.6167 99.4624 30.0373 99.3995 30.1892C98.6403 29.9763 97.8787 29.7773 97.1243 29.6045C94.4236 28.9884 91.7833 28.6149 89.3679 28.3967C89.3969 28.3636 89.4356 28.3182 89.4839 28.2606C89.5371 28.1995 89.6024 28.1227 89.6774 28.0354C89.7547 27.9499 89.8321 27.8487 89.9337 27.7475C90.0352 27.6445 90.144 27.5328 90.2601 27.4158C90.3713 27.2954 90.5019 27.1785 90.6421 27.058C90.7847 26.9394 90.9153 26.805 91.0797 26.6915C91.2441 26.5746 91.3916 26.4454 91.5705 26.3372C91.747 26.2307 91.9115 26.1086 92.1025 26.0178C92.1968 25.9707 92.2862 25.9218 92.3781 25.8747C92.47 25.8293 92.5691 25.7927 92.6634 25.7525C92.8472 25.667 93.0454 25.6146 93.2243 25.5536C93.4154 25.5082 93.5919 25.4576 93.7635 25.4384C93.9328 25.4069 94.0948 25.4 94.235 25.3912C94.3777 25.3895 94.501 25.3912 94.6025 25.4017C94.8056 25.4174 94.9144 25.4471 94.9144 25.4471C94.9144 25.4471 94.808 25.4157 94.6049 25.3947C94.5034 25.3843 94.3777 25.3808 94.235 25.379C94.0924 25.386 93.9304 25.3895 93.7587 25.4192C93.5846 25.4349 93.4033 25.4837 93.2123 25.5256C93.0261 25.585 92.823 25.6338 92.6344 25.7176C92.5401 25.756 92.4386 25.7927 92.3443 25.8363C92.25 25.8834 92.1557 25.9305 92.0614 25.9759C91.8631 26.0649 91.6939 26.1836 91.5125 26.2901C91.3263 26.3966 91.174 26.524 91.0048 26.6392C90.8331 26.7526 90.6977 26.8853 90.5502 27.0022C90.4051 27.1209 90.2673 27.2378 90.1513 27.3582C90.0304 27.4734 89.9167 27.5834 89.8103 27.6864C89.704 27.7858 89.6242 27.8888 89.542 27.9726C89.4646 28.0599 89.3969 28.1349 89.3413 28.1978C89.2543 28.2937 89.1962 28.3566 89.1745 28.381C88.4757 28.3182 87.7939 28.2693 87.141 28.2327C85.6541 28.1454 84.288 28.1262 83.0791 28.1314C81.8701 28.1384 80.816 28.1751 79.9504 28.2222C78.2192 28.3147 77.2424 28.4404 77.2424 28.4404C77.2424 28.4404 78.2216 28.3287 79.9552 28.2606C80.8208 28.2274 81.8726 28.2047 83.0791 28.2169C84.2856 28.2257 85.6468 28.2745 87.1241 28.367C89.8176 28.5416 92.91 28.9116 96.104 29.6045C96.1016 29.615 96.0967 29.6254 96.0919 29.6359C96.0532 29.7302 96.0121 29.868 95.9589 30.0443C95.9202 30.2206 95.855 30.4335 95.8284 30.6831C95.8139 30.8053 95.7873 30.9379 95.7776 31.0776C95.7703 31.2172 95.7631 31.3638 95.7582 31.5174C95.7413 31.671 95.7631 31.8298 95.7679 31.9956C95.7824 32.1597 95.7752 32.3307 95.8139 32.5035C95.8429 32.6798 95.8719 32.8578 95.9033 33.0411C95.9323 33.2243 96 33.4059 96.0484 33.5944C96.133 33.9731 96.3192 34.3449 96.4739 34.7306C96.5465 34.9261 96.6722 35.1076 96.7713 35.2961C96.8801 35.4846 96.9744 35.6766 97.0977 35.8598C97.2283 36.0413 97.3589 36.2211 97.4894 36.4009C97.6224 36.5806 97.736 36.7657 97.898 36.9297C98.0504 37.0973 98.2003 37.2631 98.3478 37.4289C98.5001 37.5912 98.6331 37.7605 98.8072 37.9054C99.1336 38.2038 99.4527 38.4918 99.7549 38.7658C100.089 39.0189 100.405 39.258 100.695 39.4797C100.843 39.5896 100.983 39.6943 101.116 39.7956C101.256 39.8916 101.397 39.9736 101.525 40.0574C101.784 40.2197 102.008 40.3628 102.195 40.478C102.567 40.7136 102.78 40.8463 102.78 40.8463C102.78 40.8463 102.567 40.7119 102.199 40.4745C102.016 40.3558 101.793 40.2127 101.537 40.0486C101.409 39.9649 101.269 39.8793 101.131 39.7834C101 39.6821 100.862 39.5774 100.717 39.4657C100.427 39.2423 100.115 39.0014 99.7864 38.7466C99.489 38.4726 99.1747 38.1811 98.8507 37.8827C98.679 37.7361 98.5509 37.5668 98.401 37.4027C98.2559 37.2386 98.1084 37.0693 97.9585 36.9018C97.8013 36.7377 97.6901 36.5527 97.5595 36.3747C97.4338 36.1932 97.3057 36.0134 97.1799 35.8336C97.059 35.6504 96.9672 35.4584 96.8632 35.2716C96.7665 35.0831 96.6432 34.9016 96.5731 34.7079C96.4256 34.3239 96.2467 33.9522 96.1669 33.5769C96.1209 33.3902 96.0581 33.2086 96.0291 33.0271C96.0025 32.8456 95.9759 32.6676 95.9493 32.4965C95.9154 32.3237 95.9227 32.1544 95.913 31.9904C95.9082 31.8281 95.8888 31.671 95.9057 31.5191C95.9154 31.3673 95.9227 31.2224 95.9323 31.0863C95.9444 30.9484 95.971 30.8175 95.9879 30.6953C96.017 30.451 96.0847 30.2415 96.1258 30.0688C96.179 29.896 96.2225 29.7616 96.2587 29.6726C96.2636 29.6621 96.2684 29.6516 96.2732 29.6412C96.5247 29.697 96.7786 29.7511 97.0325 29.8105C99.6703 30.4248 102.352 31.2783 104.866 32.3813C104.932 32.6379 105.108 33.275 105.398 34.118C105.5 34.3937 105.606 34.6922 105.722 35.0098C105.85 35.324 105.964 35.6591 106.114 35.9994C106.257 36.3398 106.404 36.6923 106.576 37.0467C106.735 37.4045 106.919 37.7605 107.105 38.1165C107.282 38.4743 107.502 38.8217 107.698 39.1672C107.898 39.5128 108.135 39.841 108.343 40.1638C108.568 40.4815 108.807 40.7817 109.025 41.0679C109.259 41.3472 109.501 41.6037 109.712 41.8446C109.936 42.0802 110.171 42.2792 110.364 42.4642C110.551 42.6544 110.756 42.7923 110.916 42.9128C111.075 43.0332 111.203 43.1274 111.288 43.1903C111.295 43.1973 111.3 43.2007 111.307 43.206C111.3 43.2007 111.298 43.1955 111.288 43.1903C111.203 43.1257 111.078 43.0314 110.918 42.911C110.761 42.7888 110.558 42.6492 110.372 42.459C110.181 42.274 109.949 42.0732 109.726 41.8359C109.516 41.595 109.281 41.3385 109.047 41.0592C108.834 40.7695 108.597 40.471 108.377 40.1516C108.174 39.827 107.939 39.5006 107.744 39.1533C107.55 38.806 107.332 38.4604 107.161 38.1008C106.977 37.7448 106.798 37.3887 106.643 37.0309C106.474 36.6766 106.331 36.3241 106.191 35.982C106.046 35.6416 105.933 35.3065 105.814 34.9924C105.71 34.6747 105.609 34.3745 105.517 34.097C105.285 33.3552 105.137 32.7775 105.062 32.4738C105.836 32.8177 106.593 33.1842 107.325 33.5769C108.916 34.4147 110.34 35.4113 111.914 36.2595C112.705 36.6976 113.51 37.113 114.318 37.5074H114.315C114.315 37.5074 114.506 38.0153 114.9 38.7449C114.997 38.9281 115.106 39.1236 115.229 39.3296C115.348 39.5373 115.49 39.7519 115.628 39.9736C115.773 40.1953 115.93 40.4222 116.092 40.649C116.266 40.8742 116.424 41.1081 116.615 41.3315C116.798 41.5549 116.98 41.7818 117.178 41.9947C117.371 42.2111 117.567 42.4188 117.77 42.6161C117.869 42.7138 117.969 42.8115 118.065 42.9058C118.167 42.9983 118.266 43.0873 118.365 43.1746C118.561 43.3474 118.74 43.5149 118.931 43.6563C119.112 43.7994 119.281 43.9303 119.431 44.0472C119.591 44.1572 119.729 44.2532 119.845 44.33C120.075 44.4871 120.205 44.5761 120.205 44.5761C120.205 44.5761 120.075 44.4853 119.85 44.3265C119.738 44.2462 119.601 44.1502 119.443 44.0403C119.296 43.9216 119.132 43.7872 118.95 43.6423C118.764 43.5009 118.588 43.3316 118.397 43.1571C118.3 43.0681 118.203 42.9773 118.102 42.8866C118.01 42.7888 117.913 42.6911 117.816 42.5916C117.616 42.3944 117.427 42.1832 117.241 41.965C117.045 41.7521 116.871 41.5252 116.692 41.3001C116.506 41.0767 116.353 40.841 116.187 40.6159C116.029 40.3872 115.877 40.1586 115.737 39.9369C115.604 39.7135 115.466 39.5006 115.355 39.2929C115.236 39.087 115.132 38.8897 115.038 38.7065C114.777 38.1986 114.613 37.8059 114.538 37.6104C115.246 37.9525 115.957 38.2789 116.673 38.5826C118.278 39.2667 119.888 39.8602 121.465 40.3349C121.535 40.3558 121.603 40.3733 121.67 40.3942L121.607 40.4187C121.607 40.4187 121.687 40.5164 121.827 40.6909C121.864 40.7328 121.902 40.7817 121.946 40.8323C121.994 40.8812 122.047 40.9353 122.106 40.9911C122.222 41.1028 122.34 41.2355 122.497 41.3629C122.652 41.4903 122.807 41.6404 122.995 41.78C123.184 41.9214 123.372 42.075 123.588 42.2216C124.006 42.5218 124.465 42.8307 124.944 43.1239C126.844 44.3143 128.946 45.3144 128.946 45.3144C128.946 45.3144 126.869 44.2863 125.002 43.0768C124.533 42.7784 124.081 42.4642 123.672 42.1605C123.462 42.0122 123.278 41.8568 123.097 41.7137C122.911 41.5741 122.763 41.424 122.613 41.2966C122.461 41.1674 122.347 41.0348 122.236 40.9248C122.183 40.869 122.132 40.8166 122.084 40.7677C122.045 40.7171 122.006 40.67 121.975 40.6281C121.91 40.5478 121.861 40.485 121.827 40.4396C123.273 40.8672 124.683 41.211 126.01 41.4746C127.449 41.7591 128.791 41.9563 129.99 42.0715C131.192 42.1884 132.246 42.2391 133.114 42.253C134.852 42.2775 135.836 42.157 135.836 42.157C135.836 42.157 134.848 42.2617 133.116 42.2059ZM26.5982 18.5477C26.5813 18.5477 26.5619 18.5512 26.5474 18.5512C26.5619 18.5495 26.5813 18.5495 26.5982 18.5477ZM26.4483 18.4849V18.621C26.4483 18.6245 26.4628 18.5809 26.4942 18.56C26.5087 18.553 26.5257 18.5512 26.5474 18.5512C26.5257 18.5512 26.5087 18.5512 26.4942 18.5442C26.4628 18.525 26.4483 18.4832 26.4483 18.4849ZM64.7615 23.5115C66.0961 24.4924 66.7997 25.0928 66.7997 25.0928C66.7997 25.0928 66.0792 24.5011 64.7204 23.5429C64.0385 23.0629 63.1971 22.4905 62.2058 21.8604C61.2121 21.2251 60.0636 20.5357 58.7797 19.8131C56.6012 18.5879 54.0021 17.2771 51.0547 16.092C51.0475 16.099 51.045 16.1025 51.0378 16.1112C50.9967 16.1549 50.9387 16.2142 50.8589 16.2893C50.7815 16.3626 50.6848 16.4498 50.5639 16.5458C50.4502 16.6436 50.3076 16.7465 50.1553 16.8582C49.8458 17.0782 49.4589 17.3173 49.0261 17.5529C48.8061 17.6681 48.5764 17.7833 48.3395 17.8967C48.0953 18.0014 47.8583 18.1201 47.602 18.2161C47.3457 18.3139 47.1015 18.4221 46.8428 18.5058C46.5841 18.5914 46.3399 18.6874 46.0885 18.7589C45.8394 18.8322 45.5976 18.9038 45.3704 18.9736C45.1382 19.0329 44.9182 19.0888 44.7151 19.1412C44.3138 19.2511 43.9608 19.3104 43.7238 19.3663C43.482 19.4169 43.3442 19.4466 43.3442 19.4466C43.3442 19.4466 43.482 19.4134 43.719 19.3558C43.9559 19.293 44.3017 19.2267 44.6982 19.1062C44.8965 19.0486 45.1141 18.9876 45.3438 18.923C45.5662 18.8479 45.8007 18.7711 46.0449 18.6909C46.2916 18.6141 46.5309 18.5111 46.78 18.4203C47.0338 18.3313 47.2708 18.2179 47.5198 18.1149C47.7664 18.0137 47.9961 17.8897 48.2307 17.7798C48.4604 17.6628 48.6804 17.5459 48.8883 17.4255C49.3042 17.1846 49.6693 16.942 49.9594 16.7186C50.1021 16.6069 50.2326 16.5039 50.339 16.4079C50.4502 16.3119 50.5373 16.2264 50.6098 16.1549C50.6775 16.0851 50.7331 16.0257 50.7622 15.9873C50.7694 15.9838 50.7694 15.9821 50.7742 15.9768C50.3366 15.8041 49.8941 15.6348 49.4444 15.4689C46.4922 14.3694 43.1991 13.4269 39.7464 12.8806C39.5047 13.0673 38.922 13.5054 38.0999 14.0587C36.9998 14.7918 35.4862 15.7412 33.8227 16.5441C33.4093 16.7448 32.9886 16.9385 32.563 17.1166C32.1399 17.2981 31.7119 17.4621 31.2912 17.614C30.8705 17.7623 30.4571 17.8932 30.0581 18.0084C29.855 18.0608 29.6592 18.1131 29.4682 18.162C29.2772 18.2056 29.0886 18.2458 28.9097 18.2859C28.5494 18.3557 28.2157 18.4168 27.9135 18.4517C27.6161 18.4971 27.3502 18.5093 27.135 18.5285C26.9174 18.5442 26.7433 18.5425 26.6272 18.5477C26.7433 18.5408 26.9174 18.5425 27.1325 18.525C27.3502 18.5041 27.6137 18.4901 27.9111 18.443C28.2133 18.4081 28.5446 18.3435 28.9048 18.272C29.0838 18.2318 29.2699 18.1899 29.4609 18.1446C29.6495 18.0957 29.8454 18.0416 30.0461 17.9892C30.445 17.8705 30.856 17.7396 31.2743 17.5878C31.6902 17.4342 32.1157 17.2684 32.5364 17.0851C32.9596 16.9054 33.3778 16.7099 33.7889 16.5057C34.6109 16.099 35.3992 15.6592 36.1173 15.2263C36.8354 14.7952 37.4761 14.3659 38.0104 13.9889C38.743 13.474 39.2725 13.0604 39.5361 12.8474C38.8398 12.7427 38.1362 12.6502 37.4277 12.5769C35.2879 12.3308 33.1143 12.3989 30.9624 12.2331C29.9227 12.1615 28.8952 12.0655 27.8869 11.9451C27.8555 11.9643 27.3453 12.2854 26.5112 12.6816C26.2984 12.7863 26.0614 12.8946 25.8076 13.0028C25.5585 13.118 25.2805 13.2209 25.0024 13.3361C24.7147 13.4426 24.4197 13.5543 24.1151 13.6573C23.8032 13.755 23.4961 13.865 23.1721 13.9487C22.853 14.0413 22.5338 14.1303 22.2098 14.2001C22.0478 14.2367 21.8907 14.2734 21.7335 14.31C21.5715 14.3397 21.4143 14.3694 21.2572 14.399C21.1024 14.427 20.9501 14.4549 20.8002 14.4828C20.6455 14.502 20.498 14.523 20.3529 14.5404C20.0628 14.5806 19.7896 14.6172 19.5333 14.6312C19.277 14.6504 19.0424 14.6678 18.8345 14.6835C18.6266 14.687 18.4452 14.6888 18.2929 14.6923C17.9931 14.6975 17.8238 14.6992 17.8238 14.6992C17.8238 14.6992 17.9931 14.694 18.2929 14.6853C18.4428 14.6818 18.6242 14.6766 18.8321 14.6713C19.04 14.6521 19.2721 14.6329 19.5284 14.6102C19.7847 14.5945 20.0555 14.5544 20.3432 14.5107C20.4883 14.4898 20.6358 14.4671 20.7857 14.4462C20.9356 14.4165 21.0879 14.3868 21.2427 14.3572C21.3974 14.3257 21.5546 14.2961 21.7117 14.2647C21.8689 14.2263 22.0261 14.1861 22.1856 14.146C22.5048 14.0727 22.8215 13.9802 23.1383 13.8859C23.4574 13.7969 23.7597 13.6852 24.0667 13.584C24.3665 13.4775 24.6567 13.3641 24.9396 13.2541C25.2128 13.1354 25.486 13.0307 25.7326 12.9138C25.9817 12.8021 26.2114 12.6921 26.4217 12.5874C27.0262 12.2872 27.4517 12.0358 27.6476 11.9154C26.6562 11.795 25.6867 11.6519 24.7365 11.4861C22.8626 11.1579 21.0807 10.7495 19.422 10.2818L19.4559 10.3272C19.4559 10.3272 19.3084 10.3708 19.0497 10.4441C18.924 10.486 18.7644 10.5174 18.5782 10.5488C18.392 10.5837 18.1841 10.6256 17.952 10.6483C17.7199 10.6745 17.4708 10.7094 17.2049 10.7233C16.9389 10.7425 16.6584 10.7635 16.3659 10.7687C16.0757 10.7809 15.7759 10.7862 15.4689 10.7827C15.1642 10.7879 14.8547 10.7792 14.5452 10.7722C12.0621 10.7146 9.6201 10.3987 9.6201 10.3987C9.6201 10.3987 12.0718 10.6815 14.5477 10.7042C14.8547 10.7076 15.1642 10.7111 15.4689 10.7024C15.7735 10.7007 16.0709 10.6902 16.361 10.6745C16.6488 10.6658 16.9268 10.6431 17.188 10.6186C17.4515 10.6012 17.6957 10.5645 17.923 10.5349C18.1527 10.5104 18.3534 10.4668 18.5323 10.4301C18.7112 10.3952 18.8684 10.3621 18.9868 10.3219C19.1077 10.2853 19.1996 10.2573 19.2649 10.2381C19.2165 10.2242 19.1633 10.2102 19.115 10.1963C17.3717 9.69534 15.7711 9.13858 14.3397 8.5661C11.477 7.41941 9.30819 6.20814 7.87683 5.30405C6.44063 4.39822 5.73462 3.79782 5.73462 3.79782C5.73462 3.79782 6.45997 4.386 7.92277 5.26565C9.37589 6.1488 11.5882 7.30073 14.451 8.42124C14.7919 8.55388 15.1449 8.68653 15.5051 8.81569C15.4906 8.76856 15.4737 8.7162 15.4519 8.64988C15.4205 8.54865 15.3867 8.42473 15.3141 8.29034C15.244 8.1542 15.1811 7.99712 15.0844 7.83306C14.978 7.67074 14.8765 7.49271 14.7508 7.30945C14.6129 7.12968 14.48 6.93595 14.3204 6.74222C14.1536 6.55372 13.9964 6.35126 13.8102 6.15752C13.624 5.96379 13.4451 5.76308 13.242 5.57283C12.8528 5.18537 12.4321 4.81361 12.0307 4.46978C11.6269 4.12594 11.2352 3.81702 10.8919 3.55521C10.2076 3.03161 9.71681 2.70523 9.71681 2.70523C9.71681 2.70523 10.2149 3.02637 10.9136 3.53951C11.2618 3.79782 11.6632 4.10325 12.0742 4.44185C12.4877 4.78045 12.918 5.14697 13.317 5.53269C13.5249 5.71944 13.7135 5.92016 13.9045 6.11215C14.0955 6.30413 14.2599 6.50659 14.4316 6.69509C14.596 6.88708 14.7363 7.08081 14.8789 7.26058C15.0119 7.44559 15.1207 7.62536 15.2319 7.78768C15.3359 7.95349 15.4036 8.11406 15.4761 8.25194C15.5559 8.38808 15.5922 8.51374 15.6284 8.61846C15.6744 8.74936 15.7034 8.84012 15.7227 8.89248C18.3388 9.82275 21.4264 10.6658 24.8163 11.2487C25.075 11.2941 25.3409 11.3325 25.6021 11.3744C25.5803 11.2347 25.515 10.87 25.3458 10.3795C25.295 10.2224 25.2273 10.0531 25.1548 9.87511C25.0846 9.69709 24.9903 9.51382 24.9033 9.32184C24.7969 9.13334 24.705 8.93437 24.5793 8.74238C24.4584 8.54865 24.3399 8.34968 24.1949 8.16118L23.9845 7.8732C23.9071 7.78244 23.8322 7.68994 23.7548 7.59918C23.6097 7.41243 23.4405 7.24313 23.2785 7.07732C23.1238 6.90628 22.9473 6.75792 22.7853 6.61306C22.7031 6.5415 22.6257 6.46994 22.5483 6.40362C22.4637 6.33904 22.3839 6.27795 22.3065 6.22036C22.1494 6.10342 22.0116 5.99172 21.8762 5.90096C21.7408 5.81369 21.6199 5.7369 21.5231 5.67406C21.3249 5.5484 21.2112 5.47684 21.2112 5.47684C21.2112 5.47684 21.3273 5.5484 21.528 5.67057C21.6271 5.73166 21.7504 5.80671 21.8882 5.89223C22.0236 5.98124 22.1663 6.08946 22.3283 6.20465C22.4057 6.26225 22.4879 6.32333 22.5749 6.38616C22.6547 6.45249 22.7345 6.5223 22.8191 6.59212C22.9859 6.73523 23.1673 6.88359 23.3269 7.05114C23.4937 7.21695 23.6702 7.3845 23.8225 7.56951C23.8999 7.66027 23.9797 7.75103 24.0595 7.84353L24.2771 8.12802C24.427 8.31826 24.5551 8.51549 24.6809 8.70922C24.8138 8.90121 24.9106 9.10018 25.0242 9.28867C25.1161 9.48066 25.2176 9.66567 25.295 9.84544C25.3724 10.0235 25.4449 10.1928 25.5005 10.3516C25.7109 10.9101 25.7834 11.3185 25.7979 11.404C27.4783 11.6623 29.2191 11.8543 30.9963 11.9695C31.5282 11.9975 32.0577 12.0341 32.5945 12.0533C32.9862 12.0655 33.3754 12.076 33.7671 12.0882C33.772 12.0812 33.7744 12.076 33.7768 12.069C33.801 12.0219 33.8251 11.9486 33.8614 11.8578C33.8856 11.7636 33.9243 11.6501 33.9412 11.5175C33.9726 11.3848 33.9751 11.233 33.9871 11.0689C33.9775 10.9031 33.9823 10.7233 33.9412 10.5366C33.9194 10.3464 33.8542 10.1526 33.7937 9.95016C33.7188 9.74945 33.6317 9.5435 33.5253 9.33929C33.3996 9.14032 33.3005 8.92913 33.1409 8.73889C32.9958 8.54341 32.8556 8.34619 32.6743 8.16816C32.505 7.98665 32.3478 7.80339 32.1544 7.6463C31.9707 7.48573 31.8062 7.32167 31.6249 7.18204C31.4387 7.04416 31.2646 6.91326 31.1051 6.79283C30.9479 6.66717 30.7883 6.56768 30.6481 6.47692C30.5054 6.38791 30.3821 6.30762 30.283 6.24305C30.0799 6.11389 29.9638 6.03884 29.9638 6.03884C29.9638 6.03884 30.0823 6.11215 30.2878 6.23956C30.3894 6.30239 30.5151 6.37918 30.6578 6.4682C30.8028 6.55546 30.9673 6.65495 31.1244 6.77712C31.2888 6.89581 31.4677 7.02496 31.6563 7.1611C31.8401 7.29898 32.0118 7.45955 32.2028 7.61838C32.3986 7.77546 32.563 7.95698 32.7395 8.13849C32.9257 8.31303 33.0732 8.512 33.2255 8.70747C33.3924 8.89772 33.4987 9.11065 33.6293 9.30962C33.7429 9.51557 33.8372 9.72327 33.9194 9.92573C33.9871 10.1317 34.0597 10.3306 34.0839 10.5226C34.1322 10.7146 34.1322 10.8996 34.1467 11.0689C34.1395 11.2382 34.1395 11.3936 34.1129 11.5314C34.0959 11.6693 34.0621 11.788 34.0379 11.8857C34.0065 11.9748 33.9847 12.0428 33.963 12.0952C34.0452 12.0969 34.1298 12.0987 34.2144 12.1022C35.3049 12.1284 36.3977 12.2017 37.4785 12.3151C40.4138 12.6223 43.2572 13.2401 45.9095 14.0273C45.9289 13.961 45.9579 13.858 45.9893 13.7131C46.0449 13.4601 46.1078 13.097 46.1247 12.6572C46.1441 12.2174 46.1175 11.7025 46.0062 11.1579C45.9506 10.8874 45.8733 10.6082 45.7693 10.3289C45.6726 10.0479 45.5348 9.77214 45.3873 9.49812C45.2325 9.22584 45.0585 8.9623 44.8578 8.71097C44.6571 8.46138 44.4395 8.22227 44.2025 8.0041C44.0865 7.89589 43.9728 7.78768 43.8471 7.69168C43.7238 7.5922 43.6077 7.49271 43.4796 7.40545C43.2354 7.22393 42.9815 7.06859 42.7494 6.92548C42.5052 6.79283 42.2876 6.66193 42.0797 6.56419C41.8693 6.4682 41.6952 6.37395 41.5357 6.31461C41.2262 6.18545 41.0472 6.11215 41.0472 6.11215C41.0472 6.11215 41.2262 6.18371 41.5405 6.30762C41.7001 6.36871 41.8766 6.46121 42.0893 6.55546C42.3021 6.64971 42.5221 6.77712 42.7688 6.90802C43.0033 7.05114 43.262 7.20299 43.511 7.38276C43.6392 7.47002 43.7601 7.56776 43.8858 7.66725C44.0139 7.76324 44.13 7.86971 44.2509 7.97792C44.4927 8.19434 44.7151 8.43346 44.9231 8.68304C45.131 8.93262 45.3123 9.19966 45.4743 9.47194C45.6291 9.74596 45.7741 10.0252 45.8781 10.3062C45.9893 10.589 46.0715 10.87 46.1344 11.144C46.2577 11.6938 46.2964 12.2139 46.2843 12.6589C46.2674 13.3867 46.1344 13.9104 46.086 14.0796C47.2974 14.4427 48.47 14.8424 49.5919 15.263C51.9348 16.1496 54.0673 17.1288 55.9726 18.1062C56.0137 17.9613 56.0717 17.7379 56.1225 17.4517C56.1636 17.2003 56.212 16.9071 56.2313 16.5895C56.2579 16.2735 56.2555 15.935 56.241 15.5981C56.2192 15.4288 56.2096 15.2595 56.1805 15.0937C56.1467 14.9296 56.1322 14.7656 56.0814 14.612C56.0355 14.4566 56.0089 14.3031 55.946 14.1634C55.888 14.0255 55.8469 13.8894 55.784 13.7707C55.7212 13.652 55.6631 13.5421 55.6123 13.4461C55.5592 13.3501 55.4963 13.2716 55.4528 13.2052C55.3609 13.0708 55.3077 12.994 55.3077 12.994C55.3077 12.994 55.3657 13.0691 55.4649 13.2C55.5132 13.2663 55.5809 13.3414 55.6414 13.4374C55.697 13.5334 55.7623 13.6416 55.8324 13.7585C55.9025 13.8754 55.9508 14.0098 56.0185 14.1495C56.0887 14.2873 56.1249 14.4409 56.183 14.5963C56.2434 14.7516 56.2676 14.9174 56.3111 15.0832C56.3522 15.249 56.3716 15.4183 56.4006 15.5894C56.4393 15.9297 56.4634 16.2735 56.4538 16.5947C56.4538 16.9158 56.4247 17.216 56.3957 17.4726C56.3498 17.8479 56.2893 18.1289 56.2579 18.2545C57.196 18.7415 58.0834 19.2267 58.9055 19.6979C60.1821 20.4327 61.3088 21.1466 62.288 21.7923C63.2648 22.4399 64.0942 23.0228 64.7615 23.5115Z" fill="#2D9D49"/>
</g>
</svg>
