<svg xmlns="http://www.w3.org/2000/svg" xmlns:xlink="http://www.w3.org/1999/xlink" width="500" zoomAndPan="magnify" viewBox="0 0 375 374.999991" height="500" preserveAspectRatio="xMidYMid meet" version="1.0"><defs><g/><clipPath id="bc5a125b96"><path d="M 12.53125 91.347656 L 223.453125 91.347656 L 223.453125 271.058594 L 12.53125 271.058594 Z M 12.53125 91.347656 " clip-rule="nonzero"/></clipPath></defs><g clip-path="url(#bc5a125b96)"><path fill="#216b39" d="M 223.453125 178.605469 C 223.453125 178.605469 193.003906 197.886719 170.792969 185.199219 C 148.582031 172.511719 133.789062 149.585938 127.433594 150.722656 C 123.757812 151.382812 115.785156 160.027344 114.785156 161.285156 C 113.773438 162.574219 112.542969 164.148438 111.199219 166 C 109.839844 167.839844 108.359375 169.957031 106.789062 172.292969 C 106.019531 173.472656 105.191406 174.683594 104.394531 175.972656 C 103.992188 176.613281 103.582031 177.265625 103.164062 177.925781 C 102.761719 178.597656 102.347656 179.277344 101.933594 179.96875 C 101.089844 181.339844 100.292969 182.789062 99.449219 184.253906 C 98.632812 185.730469 97.808594 187.246094 97 188.800781 C 96.214844 190.371094 95.375 191.941406 94.625 193.582031 C 94.242188 194.394531 93.851562 195.214844 93.464844 196.035156 C 93.101562 196.871094 92.730469 197.707031 92.363281 198.550781 C 91.605469 200.222656 90.953125 201.953125 90.257812 203.671875 C 89.898438 204.527344 89.605469 205.40625 89.285156 206.277344 L 88.34375 208.902344 L 87.5 211.550781 C 87.21875 212.4375 86.917969 213.3125 86.691406 214.207031 C 86.210938 215.988281 85.667969 217.746094 85.296875 219.527344 C 85.089844 220.410156 84.886719 221.292969 84.683594 222.171875 C 84.492188 223.050781 84.351562 223.9375 84.183594 224.808594 C 84.027344 225.683594 83.851562 226.550781 83.714844 227.417969 C 83.597656 228.285156 83.480469 229.144531 83.367188 230 C 83.265625 230.855469 83.109375 231.695312 83.054688 232.542969 C 82.988281 233.382812 82.921875 234.214844 82.855469 235.039062 C 82.679688 236.683594 82.671875 238.300781 82.628906 239.871094 C 82.621094 240.65625 82.558594 241.429688 82.597656 242.191406 C 82.621094 242.953125 82.648438 243.699219 82.671875 244.4375 C 82.695312 245.171875 82.71875 245.894531 82.742188 246.605469 C 82.808594 247.3125 82.875 248.003906 82.941406 248.683594 C 83.003906 249.363281 83.066406 250.027344 83.128906 250.675781 C 83.164062 251 83.183594 251.320312 83.226562 251.632812 C 83.277344 251.949219 83.328125 252.257812 83.378906 252.5625 C 83.578125 253.785156 83.761719 254.945312 83.9375 256.035156 C 84.007812 256.582031 84.164062 257.097656 84.269531 257.601562 C 84.386719 258.101562 84.5 258.585938 84.609375 259.046875 C 84.828125 259.976562 85.003906 260.835938 85.210938 261.597656 C 86.132812 264.613281 86.664062 266.339844 86.664062 266.339844 L 86.730469 266.566406 C 87.292969 268.402344 86.261719 270.34375 84.421875 270.90625 C 82.582031 271.464844 80.636719 270.433594 80.074219 268.597656 C 80.0625 268.554688 80.046875 268.496094 80.035156 268.449219 C 80.035156 268.449219 79.539062 266.539062 78.679688 263.195312 C 78.496094 262.355469 78.34375 261.410156 78.148438 260.390625 C 78.054688 259.882812 77.957031 259.351562 77.855469 258.800781 C 77.765625 258.246094 77.625 257.683594 77.574219 257.085938 C 77.4375 255.894531 77.289062 254.632812 77.136719 253.296875 C 77.097656 252.964844 77.058594 252.625 77.019531 252.285156 C 76.992188 251.941406 76.980469 251.59375 76.960938 251.242188 C 76.929688 250.539062 76.890625 249.824219 76.851562 249.089844 C 76.820312 248.355469 76.78125 247.605469 76.746094 246.84375 C 76.753906 246.082031 76.761719 245.304688 76.773438 244.515625 C 76.78125 243.726562 76.792969 242.921875 76.804688 242.109375 C 76.804688 241.292969 76.902344 240.46875 76.949219 239.632812 C 77.070312 237.964844 77.160156 236.246094 77.421875 234.511719 C 77.53125 233.640625 77.644531 232.761719 77.757812 231.878906 C 77.855469 230.988281 78.058594 230.105469 78.207031 229.210938 C 78.367188 228.320312 78.53125 227.417969 78.695312 226.511719 C 78.882812 225.609375 79.105469 224.707031 79.3125 223.796875 C 79.527344 222.890625 79.71875 221.972656 79.957031 221.0625 C 80.210938 220.15625 80.46875 219.246094 80.722656 218.332031 C 81.199219 216.492188 81.839844 214.691406 82.425781 212.867188 C 82.707031 211.953125 83.054688 211.058594 83.382812 210.160156 L 84.386719 207.460938 L 85.476562 204.800781 C 85.851562 203.917969 86.191406 203.023438 86.597656 202.160156 C 87.394531 200.425781 88.144531 198.683594 89 197.003906 C 89.414062 196.160156 89.832031 195.320312 90.242188 194.484375 C 90.679688 193.660156 91.113281 192.84375 91.542969 192.027344 C 92.386719 190.390625 93.316406 188.824219 94.183594 187.261719 C 95.085938 185.71875 95.992188 184.210938 96.890625 182.746094 C 97.816406 181.300781 98.691406 179.863281 99.609375 178.511719 C 100.066406 177.832031 100.511719 177.160156 100.949219 176.5 C 101.40625 175.847656 101.851562 175.203125 102.289062 174.574219 C 103.15625 173.300781 104.046875 172.113281 104.878906 170.957031 C 106.578125 168.664062 108.171875 166.59375 109.628906 164.796875 C 111.074219 162.988281 112.390625 161.453125 113.472656 160.195312 C 114.398438 159.132812 115.171875 158.277344 115.753906 157.640625 C 115.753906 157.640625 113.886719 146.996094 110.976562 143.554688 C 105.949219 137.605469 81.492188 145.730469 55.605469 139.261719 C 29.722656 132.792969 12.53125 92.417969 12.53125 92.417969 C 12.53125 92.417969 32.542969 92.425781 56.753906 91.382812 C 87.832031 90.046875 107.761719 129.152344 112.609375 140.707031 C 115.503906 147.621094 116.792969 152.714844 117.363281 155.691406 C 119.085938 153.792969 122.265625 150.761719 127.449219 147.425781 C 136.109375 141.851562 168.058594 125.414062 190.765625 147.648438 C 208.453125 164.960938 223.453125 178.605469 223.453125 178.605469 " fill-opacity="1" fill-rule="nonzero"/></g><path fill="#2d9d49" d="M 149.679688 159.753906 C 149.582031 159.554688 149.46875 159.328125 149.347656 159.082031 C 149.21875 158.84375 149.121094 158.558594 149.003906 158.269531 C 148.878906 157.984375 148.777344 157.671875 148.675781 157.34375 C 148.5625 157.023438 148.480469 156.679688 148.390625 156.332031 C 148.292969 155.984375 148.234375 155.625 148.164062 155.269531 C 148.03125 154.554688 147.941406 153.832031 147.886719 153.152344 C 147.835938 152.472656 147.816406 151.835938 147.820312 151.292969 C 147.824219 150.199219 147.914062 149.480469 147.914062 149.480469 L 147.648438 149.457031 C 147.648438 149.457031 147.574219 150.195312 147.597656 151.292969 C 147.605469 151.84375 147.640625 152.484375 147.707031 153.167969 C 147.773438 153.851562 147.878906 154.578125 148.03125 155.296875 C 148.113281 155.652344 148.179688 156.011719 148.285156 156.359375 C 148.382812 156.707031 148.476562 157.046875 148.59375 157.371094 C 148.707031 157.695312 148.8125 158.007812 148.945312 158.292969 C 149.074219 158.582031 149.175781 158.863281 149.308594 159.101562 C 149.4375 159.34375 149.554688 159.566406 149.65625 159.765625 C 149.773438 159.953125 149.878906 160.117188 149.964844 160.253906 C 150.136719 160.523438 150.234375 160.675781 150.234375 160.675781 C 150.234375 160.675781 150.136719 160.523438 149.972656 160.246094 C 149.890625 160.109375 149.792969 159.945312 149.679688 159.753906 Z M 178.972656 180.007812 L 179.15625 179.8125 C 179.160156 179.808594 179.085938 179.851562 179.023438 179.847656 C 179 179.839844 178.976562 179.820312 178.957031 179.796875 C 178.980469 179.820312 179 179.84375 179.003906 179.867188 C 179.011719 179.929688 178.96875 180.011719 178.972656 180.007812 Z M 178.898438 179.734375 C 178.917969 179.757812 178.941406 179.78125 178.957031 179.796875 C 178.941406 179.78125 178.917969 179.757812 178.898438 179.734375 Z M 211.773438 177.648438 C 209.167969 177.535156 205.445312 177.058594 201.148438 175.816406 C 200.855469 175.730469 200.554688 175.636719 200.257812 175.542969 C 200.316406 175.480469 200.394531 175.40625 200.484375 175.3125 C 200.613281 175.1875 200.753906 175.023438 200.960938 174.882812 C 201.164062 174.738281 201.375 174.550781 201.636719 174.390625 C 201.902344 174.234375 202.183594 174.050781 202.496094 173.886719 C 202.820312 173.742188 203.148438 173.566406 203.507812 173.421875 C 203.871094 173.289062 204.238281 173.117188 204.628906 173.003906 C 205.015625 172.882812 205.40625 172.75 205.8125 172.652344 C 206.210938 172.539062 206.613281 172.445312 207.011719 172.363281 C 207.410156 172.269531 207.808594 172.207031 208.191406 172.132812 C 208.957031 172.003906 209.675781 171.910156 210.296875 171.84375 C 211.535156 171.714844 212.367188 171.695312 212.367188 171.695312 C 212.367188 171.695312 211.535156 171.699219 210.292969 171.804688 C 209.671875 171.855469 208.945312 171.9375 208.175781 172.050781 C 207.792969 172.117188 207.390625 172.171875 206.992188 172.257812 C 206.589844 172.332031 206.183594 172.417969 205.777344 172.523438 C 205.371094 172.613281 204.972656 172.738281 204.578125 172.855469 C 204.183594 172.960938 203.8125 173.125 203.441406 173.253906 C 203.074219 173.390625 202.734375 173.5625 202.402344 173.707031 C 202.082031 173.867188 201.792969 174.046875 201.515625 174.199219 C 201.246094 174.359375 201.023438 174.546875 200.8125 174.695312 C 200.597656 174.835938 200.441406 175 200.308594 175.128906 C 200.152344 175.28125 200.042969 175.386719 199.972656 175.457031 C 195.976562 174.203125 191.589844 172.28125 187.226562 169.671875 C 186.996094 169.539062 186.769531 169.390625 186.539062 169.25 C 186.671875 169.070312 187.070312 168.558594 187.71875 167.933594 C 187.917969 167.734375 188.144531 167.535156 188.386719 167.324219 C 188.625 167.109375 188.902344 166.914062 189.175781 166.691406 C 189.46875 166.5 189.753906 166.277344 190.074219 166.09375 C 190.390625 165.902344 190.710938 165.707031 191.050781 165.546875 C 191.21875 165.46875 191.386719 165.378906 191.554688 165.300781 C 191.726562 165.234375 191.902344 165.164062 192.070312 165.09375 C 192.410156 164.945312 192.761719 164.851562 193.097656 164.75 C 193.433594 164.632812 193.769531 164.582031 194.085938 164.515625 C 194.242188 164.484375 194.398438 164.449219 194.546875 164.425781 C 194.699219 164.410156 194.84375 164.394531 194.984375 164.382812 C 195.265625 164.359375 195.523438 164.316406 195.753906 164.3125 C 195.980469 164.316406 196.179688 164.316406 196.347656 164.316406 C 196.675781 164.320312 196.863281 164.320312 196.863281 164.320312 C 196.863281 164.320312 196.675781 164.3125 196.347656 164.304688 C 196.179688 164.300781 195.980469 164.296875 195.75 164.292969 C 195.519531 164.289062 195.261719 164.320312 194.980469 164.339844 C 194.839844 164.351562 194.691406 164.363281 194.539062 164.375 C 194.390625 164.390625 194.234375 164.425781 194.074219 164.453125 C 193.753906 164.511719 193.414062 164.558594 193.074219 164.667969 C 192.734375 164.765625 192.378906 164.851562 192.03125 164.992188 C 191.859375 165.058594 191.683594 165.125 191.503906 165.191406 C 191.332031 165.265625 191.164062 165.351562 190.992188 165.429688 C 190.644531 165.582031 190.316406 165.773438 189.992188 165.957031 C 189.664062 166.136719 189.371094 166.355469 189.070312 166.546875 C 188.789062 166.761719 188.5 166.953125 188.253906 167.167969 C 188.003906 167.375 187.769531 167.574219 187.5625 167.773438 C 186.867188 168.410156 186.4375 168.945312 186.316406 169.109375 C 184.226562 167.820312 182.148438 166.386719 180.125 164.824219 C 178.953125 163.9375 177.820312 162.964844 176.675781 161.996094 C 176.679688 161.980469 176.679688 161.972656 176.683594 161.953125 C 176.699219 161.867188 176.730469 161.738281 176.769531 161.574219 C 176.816406 161.414062 176.871094 161.214844 176.957031 160.992188 C 177.039062 160.769531 177.148438 160.527344 177.285156 160.269531 C 177.417969 160.011719 177.582031 159.738281 177.777344 159.46875 C 177.878906 159.332031 177.984375 159.199219 178.09375 159.058594 C 178.207031 158.925781 178.335938 158.800781 178.460938 158.664062 C 178.699219 158.382812 179.023438 158.175781 179.3125 157.921875 C 179.644531 157.726562 179.957031 157.484375 180.3125 157.320312 C 180.671875 157.160156 181.019531 156.960938 181.394531 156.863281 C 181.761719 156.746094 182.117188 156.601562 182.484375 156.546875 C 182.851562 156.476562 183.199219 156.386719 183.535156 156.34375 C 183.871094 156.3125 184.191406 156.28125 184.488281 156.253906 C 184.78125 156.214844 185.054688 156.21875 185.296875 156.21875 C 185.539062 156.21875 185.75 156.21875 185.921875 156.21875 C 186.269531 156.21875 186.464844 156.21875 186.464844 156.21875 C 186.464844 156.21875 186.269531 156.214844 185.921875 156.207031 C 185.75 156.203125 185.539062 156.199219 185.296875 156.195312 C 185.054688 156.1875 184.78125 156.179688 184.484375 156.210938 C 184.1875 156.234375 183.867188 156.257812 183.527344 156.28125 C 183.1875 156.316406 182.835938 156.402344 182.46875 156.460938 C 182.097656 156.511719 181.734375 156.652344 181.359375 156.757812 C 180.976562 156.855469 180.621094 157.046875 180.253906 157.203125 C 179.890625 157.359375 179.5625 157.597656 179.222656 157.792969 C 178.921875 158.046875 178.585938 158.253906 178.335938 158.535156 C 178.203125 158.667969 178.066406 158.796875 177.945312 158.933594 C 177.832031 159.074219 177.71875 159.210938 177.613281 159.34375 C 177.40625 159.621094 177.230469 159.898438 177.085938 160.164062 C 176.941406 160.425781 176.820312 160.675781 176.734375 160.90625 C 176.636719 161.132812 176.578125 161.339844 176.523438 161.507812 C 176.492188 161.625 176.46875 161.714844 176.449219 161.800781 C 175.398438 160.910156 174.328125 160.019531 173.199219 159.207031 C 169.464844 156.453125 165.339844 154.277344 161.191406 152.640625 C 161.222656 152.535156 161.28125 152.34375 161.378906 152.070312 C 161.53125 151.640625 161.773438 151.03125 162.128906 150.328125 C 162.488281 149.632812 162.953125 148.835938 163.570312 148.066406 C 163.867188 147.679688 164.21875 147.308594 164.585938 146.945312 C 164.960938 146.597656 165.359375 146.25 165.796875 145.960938 C 166.230469 145.664062 166.691406 145.414062 167.164062 145.199219 C 167.640625 145 168.121094 144.828125 168.601562 144.722656 C 168.839844 144.660156 169.078125 144.609375 169.316406 144.585938 C 169.546875 144.546875 169.777344 144.515625 170.003906 144.507812 C 170.457031 144.464844 170.886719 144.484375 171.28125 144.492188 C 171.675781 144.535156 172.039062 144.546875 172.351562 144.613281 C 172.671875 144.671875 172.949219 144.703125 173.171875 144.765625 C 173.621094 144.875 173.878906 144.9375 173.878906 144.9375 C 173.878906 144.9375 173.621094 144.871094 173.175781 144.753906 C 172.953125 144.691406 172.671875 144.652344 172.355469 144.589844 C 172.042969 144.515625 171.679688 144.503906 171.285156 144.449219 C 170.886719 144.4375 170.457031 144.40625 170 144.445312 C 169.773438 144.449219 169.539062 144.476562 169.304688 144.511719 C 169.066406 144.535156 168.824219 144.582031 168.582031 144.640625 C 168.09375 144.738281 167.605469 144.90625 167.121094 145.101562 C 166.636719 145.308594 166.167969 145.554688 165.722656 145.851562 C 165.273438 146.136719 164.867188 146.484375 164.476562 146.832031 C 164.097656 147.191406 163.738281 147.5625 163.425781 147.953125 C 162.789062 148.722656 162.304688 149.523438 161.929688 150.226562 C 161.335938 151.355469 161.039062 152.234375 160.941406 152.546875 C 159.796875 152.105469 158.652344 151.691406 157.511719 151.328125 C 153.441406 150.042969 149.460938 149.261719 145.820312 148.804688 C 145.863281 148.734375 145.921875 148.644531 145.996094 148.523438 C 146.078125 148.394531 146.175781 148.234375 146.289062 148.050781 C 146.402344 147.875 146.519531 147.660156 146.671875 147.449219 C 146.824219 147.234375 146.992188 147.003906 147.164062 146.757812 C 147.332031 146.507812 147.53125 146.261719 147.742188 146.011719 C 147.957031 145.761719 148.15625 145.484375 148.402344 145.246094 C 148.648438 145 148.871094 144.730469 149.140625 144.503906 C 149.410156 144.28125 149.652344 144.027344 149.941406 143.839844 C 150.082031 143.738281 150.222656 143.640625 150.359375 143.539062 C 150.496094 143.445312 150.648438 143.367188 150.785156 143.285156 C 151.066406 143.105469 151.363281 142.996094 151.636719 142.867188 C 151.921875 142.773438 152.1875 142.667969 152.449219 142.625 C 152.703125 142.5625 152.945312 142.546875 153.15625 142.527344 C 153.371094 142.527344 153.558594 142.527344 153.710938 142.550781 C 154.019531 142.585938 154.183594 142.648438 154.183594 142.648438 C 154.183594 142.648438 154.019531 142.582031 153.714844 142.539062 C 153.558594 142.511719 153.371094 142.507812 153.15625 142.503906 C 152.941406 142.519531 152.699219 142.527344 152.441406 142.585938 C 152.175781 142.621094 151.902344 142.722656 151.613281 142.808594 C 151.335938 142.933594 151.03125 143.039062 150.746094 143.210938 C 150.601562 143.292969 150.449219 143.367188 150.304688 143.457031 C 150.164062 143.554688 150.023438 143.652344 149.878906 143.75 C 149.582031 143.9375 149.328125 144.1875 149.050781 144.40625 C 148.773438 144.628906 148.542969 144.894531 148.285156 145.136719 C 148.03125 145.371094 147.824219 145.648438 147.601562 145.894531 C 147.382812 146.140625 147.175781 146.386719 147 146.636719 C 146.820312 146.878906 146.644531 147.109375 146.488281 147.320312 C 146.328125 147.53125 146.203125 147.746094 146.085938 147.921875 C 145.96875 148.101562 145.863281 148.257812 145.78125 148.390625 C 145.648438 148.589844 145.5625 148.722656 145.53125 148.773438 C 144.476562 148.644531 143.449219 148.539062 142.460938 148.460938 C 140.222656 148.28125 138.160156 148.242188 136.339844 148.25 C 134.515625 148.265625 132.929688 148.34375 131.621094 148.441406 C 129.011719 148.636719 127.539062 148.898438 127.539062 148.898438 C 127.539062 148.898438 129.015625 148.664062 131.628906 148.523438 C 132.933594 148.453125 134.519531 148.40625 136.339844 148.429688 C 138.15625 148.449219 140.207031 148.550781 142.4375 148.746094 C 146.496094 149.109375 151.160156 149.882812 155.976562 151.328125 C 155.96875 151.351562 155.964844 151.371094 155.957031 151.394531 C 155.898438 151.589844 155.839844 151.878906 155.757812 152.246094 C 155.699219 152.617188 155.601562 153.0625 155.558594 153.582031 C 155.535156 153.839844 155.5 154.113281 155.484375 154.40625 C 155.472656 154.695312 155.460938 155.003906 155.453125 155.324219 C 155.429688 155.644531 155.460938 155.976562 155.46875 156.320312 C 155.492188 156.664062 155.480469 157.023438 155.535156 157.386719 C 155.582031 157.75 155.625 158.125 155.671875 158.503906 C 155.71875 158.886719 155.820312 159.269531 155.890625 159.660156 C 156.019531 160.453125 156.300781 161.230469 156.53125 162.035156 C 156.640625 162.441406 156.832031 162.820312 156.980469 163.21875 C 157.148438 163.609375 157.289062 164.011719 157.476562 164.390625 C 157.671875 164.769531 157.867188 165.148438 158.0625 165.523438 C 158.265625 165.898438 158.4375 166.285156 158.679688 166.625 C 158.910156 166.976562 159.136719 167.324219 159.359375 167.667969 C 159.589844 168.007812 159.785156 168.363281 160.050781 168.667969 C 160.542969 169.289062 161.023438 169.890625 161.480469 170.464844 C 161.984375 170.992188 162.460938 171.492188 162.898438 171.953125 C 163.121094 172.183594 163.332031 172.402344 163.53125 172.609375 C 163.742188 172.8125 163.957031 172.988281 164.148438 173.160156 C 164.539062 173.5 164.878906 173.796875 165.160156 174.039062 C 165.71875 174.527344 166.039062 174.808594 166.039062 174.808594 C 166.039062 174.808594 165.71875 174.523438 165.167969 174.03125 C 164.886719 173.785156 164.550781 173.484375 164.164062 173.140625 C 163.972656 172.96875 163.761719 172.789062 163.554688 172.589844 C 163.355469 172.378906 163.148438 172.15625 162.929688 171.925781 C 162.492188 171.460938 162.023438 170.957031 161.527344 170.421875 C 161.078125 169.847656 160.605469 169.242188 160.117188 168.617188 C 159.859375 168.3125 159.664062 167.957031 159.441406 167.617188 C 159.21875 167.269531 158.996094 166.921875 158.773438 166.570312 C 158.535156 166.226562 158.367188 165.839844 158.171875 165.46875 C 157.980469 165.089844 157.789062 164.714844 157.597656 164.335938 C 157.414062 163.957031 157.277344 163.554688 157.117188 163.164062 C 156.976562 162.769531 156.785156 162.390625 156.679688 161.988281 C 156.460938 161.183594 156.191406 160.410156 156.070312 159.625 C 156 159.234375 155.90625 158.855469 155.863281 158.476562 C 155.820312 158.097656 155.78125 157.726562 155.742188 157.367188 C 155.691406 157.007812 155.703125 156.652344 155.6875 156.3125 C 155.679688 155.972656 155.652344 155.644531 155.675781 155.328125 C 155.691406 155.011719 155.703125 154.710938 155.71875 154.421875 C 155.734375 154.136719 155.773438 153.863281 155.800781 153.609375 C 155.84375 153.097656 155.945312 152.660156 156.007812 152.296875 C 156.089844 151.9375 156.152344 151.65625 156.210938 151.472656 C 156.21875 151.449219 156.222656 151.429688 156.230469 151.40625 C 156.609375 151.523438 156.992188 151.636719 157.375 151.761719 C 161.351562 153.039062 165.394531 154.824219 169.183594 157.128906 C 169.285156 157.664062 169.550781 158.992188 169.988281 160.757812 C 170.140625 161.332031 170.300781 161.957031 170.472656 162.617188 C 170.667969 163.273438 170.839844 163.972656 171.066406 164.683594 C 171.28125 165.394531 171.503906 166.132812 171.761719 166.875 C 172.003906 167.617188 172.28125 168.363281 172.5625 169.105469 C 172.828125 169.855469 173.15625 170.578125 173.457031 171.300781 C 173.757812 172.023438 174.113281 172.707031 174.429688 173.382812 C 174.765625 174.046875 175.128906 174.671875 175.453125 175.269531 C 175.808594 175.855469 176.171875 176.390625 176.492188 176.890625 C 176.828125 177.382812 177.183594 177.800781 177.476562 178.1875 C 177.757812 178.582031 178.066406 178.871094 178.304688 179.125 C 178.546875 179.375 178.738281 179.570312 178.867188 179.703125 C 178.875 179.714844 178.886719 179.722656 178.898438 179.734375 C 178.886719 179.722656 178.878906 179.714844 178.867188 179.703125 C 178.738281 179.570312 178.550781 179.371094 178.3125 179.117188 C 178.074219 178.867188 177.765625 178.574219 177.488281 178.175781 C 177.199219 177.789062 176.847656 177.371094 176.511719 176.875 C 176.195312 176.371094 175.839844 175.835938 175.488281 175.25 C 175.167969 174.648438 174.8125 174.023438 174.480469 173.359375 C 174.171875 172.679688 173.816406 171.996094 173.523438 171.273438 C 173.230469 170.546875 172.90625 169.824219 172.644531 169.074219 C 172.367188 168.328125 172.097656 167.585938 171.863281 166.839844 C 171.609375 166.101562 171.394531 165.363281 171.183594 164.648438 C 170.964844 163.9375 170.792969 163.238281 170.617188 162.578125 C 170.457031 161.917969 170.304688 161.292969 170.167969 160.710938 C 169.816406 159.164062 169.59375 157.957031 169.480469 157.320312 C 170.648438 158.039062 171.789062 158.804688 172.890625 159.625 C 175.292969 161.375 177.4375 163.457031 179.8125 165.230469 C 181.003906 166.140625 182.214844 167.011719 183.433594 167.832031 L 183.429688 167.835938 C 183.429688 167.835938 183.71875 168.894531 184.3125 170.417969 C 184.457031 170.800781 184.625 171.210938 184.808594 171.640625 C 184.984375 172.074219 185.199219 172.519531 185.410156 172.988281 C 185.628906 173.449219 185.863281 173.921875 186.109375 174.398438 C 186.371094 174.867188 186.609375 175.355469 186.898438 175.820312 C 187.175781 176.289062 187.449219 176.761719 187.75 177.203125 C 188.039062 177.65625 188.332031 178.09375 188.640625 178.503906 C 188.789062 178.707031 188.9375 178.910156 189.082031 179.109375 C 189.234375 179.300781 189.386719 179.488281 189.535156 179.671875 C 189.832031 180.03125 190.101562 180.382812 190.386719 180.675781 C 190.664062 180.976562 190.917969 181.25 191.144531 181.496094 C 191.386719 181.722656 191.59375 181.921875 191.765625 182.082031 C 192.113281 182.410156 192.3125 182.597656 192.3125 182.597656 C 192.3125 182.597656 192.117188 182.40625 191.773438 182.074219 C 191.605469 181.910156 191.398438 181.707031 191.160156 181.476562 C 190.941406 181.230469 190.691406 180.949219 190.417969 180.644531 C 190.140625 180.351562 189.871094 179.996094 189.582031 179.632812 C 189.4375 179.449219 189.292969 179.257812 189.140625 179.066406 C 189 178.867188 188.855469 178.660156 188.707031 178.453125 C 188.40625 178.042969 188.121094 177.601562 187.839844 177.144531 C 187.546875 176.699219 187.28125 176.226562 187.011719 175.753906 C 186.734375 175.289062 186.503906 174.796875 186.25 174.328125 C 186.011719 173.847656 185.789062 173.371094 185.574219 172.910156 C 185.375 172.441406 185.167969 171.996094 185 171.5625 C 184.820312 171.132812 184.660156 170.71875 184.523438 170.339844 C 184.128906 169.277344 183.878906 168.457031 183.765625 168.050781 C 184.832031 168.761719 185.90625 169.445312 186.984375 170.082031 C 189.40625 171.507812 191.832031 172.746094 194.207031 173.738281 C 194.3125 173.78125 194.417969 173.820312 194.519531 173.863281 L 194.421875 173.914062 C 194.421875 173.914062 194.542969 174.121094 194.757812 174.480469 C 194.8125 174.570312 194.871094 174.671875 194.933594 174.78125 C 195.007812 174.882812 195.089844 174.992188 195.175781 175.109375 C 195.347656 175.34375 195.527344 175.621094 195.765625 175.886719 C 196 176.152344 196.230469 176.464844 196.519531 176.757812 C 196.800781 177.050781 197.085938 177.375 197.410156 177.679688 C 198.039062 178.308594 198.734375 178.953125 199.457031 179.566406 C 202.320312 182.050781 205.488281 184.136719 205.488281 184.136719 C 205.488281 184.136719 202.359375 181.992188 199.542969 179.464844 C 198.835938 178.839844 198.152344 178.1875 197.535156 177.554688 C 197.21875 177.242188 196.945312 176.917969 196.671875 176.621094 C 196.390625 176.328125 196.167969 176.015625 195.941406 175.746094 C 195.710938 175.480469 195.542969 175.203125 195.371094 174.972656 C 195.292969 174.855469 195.214844 174.746094 195.144531 174.644531 C 195.082031 174.535156 195.027344 174.4375 194.976562 174.351562 C 194.882812 174.183594 194.808594 174.050781 194.753906 173.957031 C 196.9375 174.851562 199.0625 175.570312 201.0625 176.121094 C 203.230469 176.714844 205.253906 177.125 207.0625 177.367188 C 208.875 177.609375 210.464844 177.714844 211.769531 177.746094 C 214.394531 177.796875 215.875 177.546875 215.875 177.546875 C 215.875 177.546875 214.386719 177.761719 211.773438 177.648438 Z M 51.1875 128.238281 C 51.160156 128.238281 51.132812 128.242188 51.109375 128.242188 C 51.132812 128.242188 51.160156 128.242188 51.1875 128.238281 Z M 50.960938 128.105469 L 50.960938 128.390625 C 50.960938 128.398438 50.984375 128.304688 51.03125 128.261719 C 51.050781 128.246094 51.078125 128.246094 51.109375 128.242188 C 51.078125 128.246094 51.050781 128.246094 51.03125 128.230469 C 50.984375 128.191406 50.960938 128.101562 50.960938 128.105469 Z M 108.722656 138.605469 C 110.738281 140.652344 111.792969 141.90625 111.792969 141.90625 C 111.792969 141.90625 110.710938 140.671875 108.660156 138.667969 C 107.632812 137.664062 106.367188 136.472656 104.867188 135.152344 C 103.375 133.828125 101.640625 132.390625 99.707031 130.878906 C 96.421875 128.320312 92.503906 125.582031 88.058594 123.105469 C 88.046875 123.121094 88.042969 123.128906 88.03125 123.148438 C 87.972656 123.242188 87.882812 123.363281 87.765625 123.519531 C 87.644531 123.671875 87.5 123.855469 87.320312 124.054688 C 87.144531 124.257812 86.933594 124.472656 86.703125 124.707031 C 86.234375 125.167969 85.652344 125.667969 85 126.15625 C 84.667969 126.398438 84.320312 126.640625 83.964844 126.875 C 83.597656 127.097656 83.238281 127.34375 82.855469 127.542969 C 82.46875 127.746094 82.097656 127.972656 81.707031 128.148438 C 81.316406 128.328125 80.949219 128.527344 80.570312 128.675781 C 80.195312 128.832031 79.832031 128.980469 79.488281 129.125 C 79.136719 129.25 78.808594 129.367188 78.5 129.476562 C 77.894531 129.703125 77.363281 129.828125 77.007812 129.945312 C 76.640625 130.054688 76.433594 130.113281 76.433594 130.113281 C 76.433594 130.113281 76.640625 130.046875 77 129.925781 C 77.355469 129.792969 77.878906 129.652344 78.476562 129.402344 C 78.773438 129.285156 79.101562 129.15625 79.445312 129.019531 C 79.78125 128.863281 80.140625 128.703125 80.503906 128.535156 C 80.878906 128.375 81.238281 128.160156 81.613281 127.96875 C 81.996094 127.785156 82.355469 127.546875 82.730469 127.332031 C 83.101562 127.121094 83.449219 126.863281 83.800781 126.632812 C 84.144531 126.390625 84.480469 126.144531 84.792969 125.894531 C 85.417969 125.386719 85.96875 124.882812 86.40625 124.417969 C 86.621094 124.183594 86.820312 123.96875 86.980469 123.765625 C 87.144531 123.566406 87.28125 123.390625 87.386719 123.242188 C 87.492188 123.089844 87.574219 122.96875 87.621094 122.890625 C 87.625 122.882812 87.628906 122.878906 87.632812 122.867188 C 86.976562 122.507812 86.308594 122.152344 85.632812 121.804688 C 81.179688 119.511719 76.214844 117.542969 71.011719 116.398438 C 70.644531 116.789062 69.765625 117.707031 68.527344 118.859375 C 66.867188 120.390625 64.585938 122.375 62.082031 124.050781 C 61.457031 124.472656 60.820312 124.878906 60.179688 125.25 C 59.539062 125.628906 58.898438 125.96875 58.265625 126.285156 C 57.628906 126.597656 57.003906 126.867188 56.402344 127.109375 C 56.097656 127.21875 55.800781 127.328125 55.515625 127.429688 C 55.226562 127.519531 54.945312 127.605469 54.671875 127.691406 C 54.128906 127.835938 53.625 127.964844 53.171875 128.035156 C 52.722656 128.128906 52.320312 128.15625 51.996094 128.195312 C 51.667969 128.230469 51.40625 128.226562 51.234375 128.238281 C 51.214844 128.238281 51.203125 128.238281 51.1875 128.238281 C 51.203125 128.238281 51.214844 128.238281 51.234375 128.238281 C 51.40625 128.222656 51.667969 128.226562 51.992188 128.1875 C 52.320312 128.148438 52.71875 128.117188 53.167969 128.019531 C 53.621094 127.945312 54.121094 127.8125 54.664062 127.664062 C 54.933594 127.578125 55.214844 127.488281 55.503906 127.394531 C 55.789062 127.292969 56.082031 127.179688 56.386719 127.070312 C 56.984375 126.824219 57.605469 126.546875 58.238281 126.230469 C 58.867188 125.910156 59.507812 125.566406 60.140625 125.183594 C 60.777344 124.808594 61.40625 124.398438 62.027344 123.972656 C 63.269531 123.125 64.457031 122.203125 65.539062 121.296875 C 66.621094 120.398438 67.585938 119.503906 68.390625 118.714844 C 69.496094 117.640625 70.296875 116.777344 70.695312 116.332031 C 69.640625 116.109375 68.582031 115.917969 67.511719 115.765625 C 64.289062 115.253906 61.011719 115.394531 57.765625 115.046875 C 56.203125 114.898438 54.652344 114.695312 53.128906 114.449219 C 53.085938 114.488281 52.3125 115.15625 51.054688 115.988281 C 50.734375 116.203125 50.378906 116.429688 49.996094 116.65625 C 49.621094 116.894531 49.203125 117.109375 48.78125 117.351562 C 48.347656 117.574219 47.90625 117.808594 47.441406 118.023438 C 46.976562 118.226562 46.511719 118.457031 46.023438 118.632812 C 45.542969 118.824219 45.058594 119.007812 44.574219 119.15625 C 44.328125 119.234375 44.089844 119.3125 43.851562 119.386719 C 43.609375 119.449219 43.371094 119.511719 43.136719 119.570312 C 42.902344 119.632812 42.671875 119.6875 42.445312 119.746094 C 42.214844 119.789062 41.992188 119.832031 41.773438 119.867188 C 41.335938 119.953125 40.921875 120.03125 40.535156 120.058594 C 40.148438 120.097656 39.796875 120.132812 39.484375 120.164062 C 39.167969 120.171875 38.894531 120.179688 38.667969 120.183594 C 38.214844 120.195312 37.960938 120.199219 37.960938 120.199219 C 37.960938 120.199219 38.214844 120.1875 38.667969 120.171875 C 38.894531 120.164062 39.167969 120.152344 39.480469 120.140625 C 39.792969 120.101562 40.144531 120.058594 40.53125 120.015625 C 40.914062 119.980469 41.324219 119.894531 41.757812 119.804688 C 41.976562 119.761719 42.199219 119.714844 42.425781 119.671875 C 42.648438 119.609375 42.878906 119.546875 43.113281 119.484375 C 43.347656 119.421875 43.582031 119.355469 43.820312 119.289062 C 44.058594 119.210938 44.292969 119.128906 44.535156 119.046875 C 45.015625 118.890625 45.496094 118.699219 45.96875 118.5 C 46.453125 118.316406 46.910156 118.082031 47.371094 117.867188 C 47.824219 117.648438 48.261719 117.410156 48.6875 117.179688 C 49.101562 116.933594 49.511719 116.714844 49.882812 116.472656 C 50.257812 116.238281 50.605469 116.007812 50.921875 115.789062 C 51.832031 115.160156 52.476562 114.636719 52.769531 114.386719 C 51.277344 114.132812 49.8125 113.835938 48.382812 113.488281 C 45.554688 112.800781 42.867188 111.949219 40.371094 110.972656 L 40.417969 111.070312 C 40.417969 111.070312 40.199219 111.15625 39.808594 111.3125 C 39.621094 111.398438 39.375 111.464844 39.097656 111.53125 C 38.816406 111.605469 38.503906 111.691406 38.152344 111.738281 C 37.804688 111.796875 37.429688 111.867188 37.027344 111.894531 C 36.625 111.933594 36.203125 111.980469 35.761719 111.988281 C 35.324219 112.015625 34.871094 112.027344 34.410156 112.019531 C 33.949219 112.027344 33.484375 112.011719 33.015625 112 C 29.273438 111.878906 25.589844 111.21875 25.589844 111.21875 C 25.589844 111.21875 29.285156 111.808594 33.019531 111.855469 C 33.484375 111.863281 33.949219 111.871094 34.410156 111.851562 C 34.867188 111.847656 35.316406 111.828125 35.753906 111.796875 C 36.1875 111.777344 36.605469 111.726562 37 111.675781 C 37.398438 111.640625 37.765625 111.5625 38.109375 111.503906 C 38.453125 111.449219 38.757812 111.359375 39.027344 111.28125 C 39.296875 111.210938 39.53125 111.140625 39.714844 111.054688 C 39.894531 110.980469 40.035156 110.921875 40.132812 110.882812 C 40.058594 110.851562 39.980469 110.824219 39.90625 110.796875 C 37.277344 109.746094 34.863281 108.585938 32.707031 107.390625 C 28.390625 104.996094 25.121094 102.464844 22.960938 100.578125 C 20.796875 98.6875 19.730469 97.433594 19.730469 97.433594 C 19.730469 97.433594 20.828125 98.660156 23.03125 100.5 C 25.222656 102.339844 28.558594 104.746094 32.875 107.089844 C 33.386719 107.367188 33.921875 107.640625 34.464844 107.910156 C 34.441406 107.8125 34.417969 107.703125 34.382812 107.566406 C 34.335938 107.351562 34.285156 107.097656 34.175781 106.8125 C 34.070312 106.53125 33.976562 106.199219 33.828125 105.859375 C 33.671875 105.519531 33.515625 105.148438 33.324219 104.765625 C 33.117188 104.390625 32.917969 103.984375 32.679688 103.582031 C 32.425781 103.1875 32.191406 102.761719 31.910156 102.359375 C 31.628906 101.957031 31.355469 101.535156 31.050781 101.136719 C 30.464844 100.328125 29.832031 99.550781 29.226562 98.835938 C 28.617188 98.117188 28.023438 97.46875 27.507812 96.921875 C 26.476562 95.832031 25.738281 95.152344 25.738281 95.152344 C 25.738281 95.152344 26.488281 95.820312 27.542969 96.894531 C 28.066406 97.429688 28.671875 98.070312 29.292969 98.777344 C 29.914062 99.480469 30.5625 100.25 31.164062 101.054688 C 31.480469 101.445312 31.761719 101.863281 32.050781 102.265625 C 32.339844 102.664062 32.585938 103.089844 32.84375 103.484375 C 33.09375 103.882812 33.304688 104.289062 33.519531 104.664062 C 33.71875 105.046875 33.886719 105.425781 34.050781 105.765625 C 34.207031 106.109375 34.308594 106.445312 34.421875 106.734375 C 34.539062 107.019531 34.597656 107.28125 34.648438 107.5 C 34.71875 107.773438 34.761719 107.964844 34.789062 108.074219 C 38.734375 110.015625 43.390625 111.773438 48.5 112.992188 C 48.890625 113.085938 49.289062 113.167969 49.6875 113.253906 C 49.65625 112.964844 49.554688 112.203125 49.296875 111.175781 C 49.222656 110.851562 49.121094 110.496094 49.011719 110.125 C 48.90625 109.753906 48.761719 109.367188 48.632812 108.96875 C 48.472656 108.574219 48.332031 108.160156 48.144531 107.757812 C 47.960938 107.351562 47.78125 106.9375 47.5625 106.542969 L 47.25 105.945312 C 47.132812 105.753906 47.015625 105.5625 46.902344 105.371094 C 46.683594 104.980469 46.425781 104.628906 46.183594 104.28125 C 45.949219 103.925781 45.683594 103.613281 45.4375 103.3125 C 45.316406 103.160156 45.199219 103.011719 45.082031 102.871094 C 44.957031 102.738281 44.832031 102.613281 44.714844 102.488281 C 44.480469 102.246094 44.273438 102.015625 44.070312 101.824219 C 43.863281 101.640625 43.683594 101.484375 43.535156 101.351562 C 43.238281 101.089844 43.066406 100.9375 43.066406 100.9375 C 43.066406 100.9375 43.242188 101.085938 43.542969 101.34375 C 43.695312 101.472656 43.878906 101.625 44.085938 101.804688 C 44.292969 101.992188 44.503906 102.21875 44.75 102.457031 C 44.867188 102.578125 44.992188 102.707031 45.121094 102.835938 C 45.242188 102.976562 45.363281 103.121094 45.488281 103.269531 C 45.742188 103.566406 46.015625 103.875 46.257812 104.226562 C 46.507812 104.570312 46.773438 104.925781 47 105.308594 C 47.121094 105.496094 47.242188 105.6875 47.359375 105.878906 L 47.691406 106.476562 C 47.917969 106.871094 48.109375 107.285156 48.296875 107.691406 C 48.496094 108.089844 48.644531 108.507812 48.8125 108.898438 C 48.953125 109.300781 49.105469 109.6875 49.222656 110.0625 C 49.339844 110.433594 49.449219 110.785156 49.53125 111.117188 C 49.847656 112.285156 49.960938 113.140625 49.980469 113.316406 C 52.511719 113.855469 55.140625 114.257812 57.816406 114.5 C 58.617188 114.558594 59.417969 114.632812 60.230469 114.675781 C 60.816406 114.699219 61.40625 114.722656 61.996094 114.746094 C 62.003906 114.730469 62.007812 114.722656 62.011719 114.703125 C 62.046875 114.609375 62.085938 114.457031 62.136719 114.265625 C 62.175781 114.066406 62.230469 113.832031 62.257812 113.550781 C 62.304688 113.277344 62.308594 112.960938 62.328125 112.617188 C 62.3125 112.273438 62.320312 111.898438 62.257812 111.503906 C 62.226562 111.109375 62.125 110.703125 62.035156 110.277344 C 61.921875 109.863281 61.792969 109.429688 61.628906 109.007812 C 61.441406 108.589844 61.292969 108.148438 61.054688 107.75 C 60.832031 107.34375 60.621094 106.929688 60.351562 106.558594 C 60.09375 106.179688 59.855469 105.796875 59.566406 105.46875 C 59.289062 105.132812 59.039062 104.792969 58.765625 104.5 C 58.488281 104.210938 58.222656 103.9375 57.980469 103.683594 C 57.746094 103.425781 57.503906 103.214844 57.292969 103.027344 C 57.078125 102.839844 56.894531 102.675781 56.742188 102.539062 C 56.4375 102.265625 56.261719 102.113281 56.261719 102.113281 C 56.261719 102.113281 56.4375 102.261719 56.75 102.53125 C 56.90625 102.660156 57.09375 102.820312 57.308594 103.007812 C 57.527344 103.191406 57.773438 103.398438 58.011719 103.652344 C 58.261719 103.902344 58.527344 104.167969 58.8125 104.453125 C 59.09375 104.742188 59.347656 105.082031 59.636719 105.410156 C 59.933594 105.738281 60.179688 106.117188 60.445312 106.496094 C 60.726562 106.863281 60.949219 107.277344 61.179688 107.683594 C 61.429688 108.082031 61.589844 108.527344 61.789062 108.941406 C 61.960938 109.371094 62.101562 109.804688 62.222656 110.230469 C 62.328125 110.660156 62.433594 111.074219 62.472656 111.476562 C 62.542969 111.878906 62.546875 112.261719 62.566406 112.617188 C 62.554688 112.96875 62.558594 113.296875 62.519531 113.582031 C 62.492188 113.871094 62.4375 114.117188 62.402344 114.324219 C 62.355469 114.507812 62.324219 114.652344 62.289062 114.761719 C 62.417969 114.765625 62.542969 114.769531 62.667969 114.773438 C 64.3125 114.832031 65.960938 114.980469 67.59375 115.222656 C 72.015625 115.863281 76.300781 117.152344 80.300781 118.792969 C 80.332031 118.65625 80.375 118.441406 80.421875 118.140625 C 80.503906 117.613281 80.597656 116.851562 80.625 115.933594 C 80.65625 115.015625 80.613281 113.941406 80.449219 112.804688 C 80.363281 112.238281 80.25 111.652344 80.089844 111.070312 C 79.945312 110.484375 79.738281 109.90625 79.515625 109.335938 C 79.28125 108.769531 79.019531 108.214844 78.714844 107.695312 C 78.410156 107.171875 78.085938 106.671875 77.730469 106.21875 C 77.554688 105.988281 77.378906 105.765625 77.191406 105.5625 C 77.007812 105.355469 76.832031 105.148438 76.636719 104.96875 C 76.269531 104.585938 75.886719 104.261719 75.539062 103.964844 C 75.171875 103.683594 74.84375 103.414062 74.527344 103.210938 C 74.210938 103.011719 73.945312 102.8125 73.707031 102.6875 C 73.238281 102.417969 72.972656 102.265625 72.972656 102.265625 C 72.972656 102.265625 73.242188 102.414062 73.714844 102.675781 C 73.953125 102.800781 74.222656 102.992188 74.542969 103.191406 C 74.863281 103.386719 75.191406 103.65625 75.566406 103.929688 C 75.921875 104.226562 76.3125 104.542969 76.683594 104.921875 C 76.878906 105.101562 77.058594 105.304688 77.25 105.511719 C 77.445312 105.710938 77.621094 105.933594 77.800781 106.164062 C 78.167969 106.613281 78.5 107.113281 78.8125 107.632812 C 79.125 108.15625 79.402344 108.714844 79.644531 109.28125 C 79.878906 109.855469 80.097656 110.4375 80.253906 111.027344 C 80.421875 111.613281 80.546875 112.199219 80.640625 112.773438 C 80.824219 113.921875 80.886719 115.007812 80.867188 115.9375 C 80.84375 117.457031 80.640625 118.550781 80.570312 118.902344 C 82.394531 119.664062 84.164062 120.496094 85.855469 121.375 C 89.386719 123.226562 92.601562 125.273438 95.472656 127.3125 C 95.535156 127.011719 95.621094 126.542969 95.699219 125.949219 C 95.761719 125.421875 95.835938 124.808594 95.863281 124.148438 C 95.90625 123.488281 95.902344 122.78125 95.875 122.074219 C 95.84375 121.722656 95.832031 121.367188 95.789062 121.023438 C 95.734375 120.683594 95.710938 120.335938 95.636719 120.015625 C 95.566406 119.691406 95.527344 119.371094 95.433594 119.082031 C 95.34375 118.789062 95.285156 118.507812 95.1875 118.261719 C 95.09375 118.011719 95.007812 117.785156 94.929688 117.582031 C 94.851562 117.382812 94.757812 117.21875 94.6875 117.078125 C 94.550781 116.796875 94.46875 116.640625 94.46875 116.640625 C 94.46875 116.640625 94.558594 116.792969 94.707031 117.066406 C 94.78125 117.207031 94.882812 117.363281 94.972656 117.5625 C 95.058594 117.761719 95.15625 117.988281 95.261719 118.234375 C 95.367188 118.480469 95.441406 118.761719 95.542969 119.050781 C 95.648438 119.339844 95.703125 119.660156 95.789062 119.984375 C 95.878906 120.308594 95.917969 120.652344 95.984375 121 C 96.042969 121.347656 96.074219 121.703125 96.121094 122.058594 C 96.175781 122.769531 96.210938 123.488281 96.199219 124.15625 C 96.199219 124.828125 96.152344 125.457031 96.113281 125.992188 C 96.042969 126.773438 95.949219 127.363281 95.90625 127.625 C 97.316406 128.640625 98.65625 129.65625 99.894531 130.640625 C 101.820312 132.171875 103.515625 133.664062 104.992188 135.015625 C 106.46875 136.367188 107.714844 137.582031 108.722656 138.605469 " fill-opacity="1" fill-rule="nonzero"/><g fill="#8d5053" fill-opacity="1"><g transform="translate(93.437266, 262.880897)"><g><path d="M 21.875 -36.273438 C 22.507812 -35.972656 23.445312 -36.238281 24.554688 -37.074219 C 25.050781 -37.460938 25.605469 -37.972656 26.09375 -38.609375 C 26.582031 -39.246094 27.074219 -39.882812 27.496094 -40.640625 C 27.921875 -41.402344 28.285156 -42.097656 28.582031 -42.855469 C 28.820312 -43.613281 29.058594 -44.308594 29.167969 -45 C 29.332031 -46.316406 29.066406 -47.128906 28.433594 -47.429688 C 27.738281 -47.730469 26.867188 -47.460938 25.753906 -46.625 C 24.640625 -45.726562 23.664062 -44.519531 22.75 -42.996094 L 22.75 -43.058594 C 22.261719 -42.296875 21.902344 -41.539062 21.664062 -40.78125 C 21.367188 -40.023438 21.191406 -39.332031 21.140625 -38.765625 C 21.027344 -38.136719 21.035156 -37.574219 21.171875 -37.136719 C 21.304688 -36.699219 21.496094 -36.390625 21.875 -36.273438 Z M 0.933594 -0.332031 C 1.945312 0.0273438 3.199219 0.0664062 4.824219 -0.21875 C 6.445312 -0.5 8.1875 -1.222656 10.109375 -2.324219 C 11.972656 -3.363281 13.949219 -4.777344 15.921875 -6.632812 C 17.894531 -8.425781 19.855469 -10.722656 21.683594 -13.386719 C 21.191406 -12.941406 20.574219 -12.425781 19.773438 -11.785156 C 18.90625 -11.140625 18.039062 -10.5625 17.109375 -10.042969 C 16.117188 -9.457031 15.1875 -9.003906 14.253906 -8.609375 C 13.257812 -8.214844 12.445312 -8.011719 11.820312 -8.0625 C 10.816406 -8.042969 10.246094 -8.40625 10.230469 -9.160156 C 10.21875 -9.847656 10.390625 -10.667969 10.875 -11.617188 C 11.296875 -12.5 11.78125 -13.324219 12.390625 -14.214844 C 12.9375 -15.101562 13.367188 -15.675781 13.609375 -16.054688 L 25.316406 -33.265625 L 16.484375 -33.097656 L 1.960938 -12.324219 C 0.738281 -10.546875 -0.171875 -8.960938 -0.710938 -7.632812 C -1.246094 -6.246094 -1.539062 -5.109375 -1.519531 -4.171875 C -1.566406 -3.167969 -1.359375 -2.292969 -0.910156 -1.675781 C -0.457031 -1.058594 0.175781 -0.566406 0.933594 -0.332031 Z M 0.933594 -0.332031 "/></g></g></g><g fill="#8d5053" fill-opacity="1"><g transform="translate(110.164671, 262.562441)"><g><path d="M 8.652344 -22.855469 L -6.140625 0.117188 L 2.507812 -0.046875 C 6.03125 -5.882812 8.949219 -10.703125 11.253906 -14.632812 C 13.5625 -18.5625 15.507812 -21.671875 17.15625 -24.019531 C 18.742188 -26.308594 20.152344 -27.964844 21.390625 -28.929688 C 22.625 -29.828125 23.871094 -30.292969 25.1875 -30.253906 C 26.003906 -30.144531 26.574219 -29.84375 26.835938 -29.21875 C 27.097656 -28.597656 26.988281 -27.90625 26.375 -27.082031 L 17.460938 -14.6875 C 16.972656 -14.050781 16.484375 -13.289062 15.871094 -12.464844 C 15.261719 -11.574219 14.777344 -10.6875 14.292969 -9.800781 C 13.746094 -8.847656 13.328125 -7.902344 13.03125 -6.957031 C 12.734375 -6.007812 12.628906 -5.128906 12.769531 -4.316406 C 12.847656 -3.441406 13.175781 -2.695312 13.8125 -2.082031 C 14.453125 -1.402344 15.464844 -0.921875 16.851562 -0.632812 C 17.730469 -0.398438 18.734375 -0.417969 19.734375 -0.5625 C 20.734375 -0.707031 21.605469 -1.039062 22.472656 -1.617188 C 23.339844 -2.136719 24.203125 -2.90625 25.125 -3.800781 C 25.988281 -4.695312 26.910156 -5.714844 27.828125 -6.796875 C 28.6875 -7.816406 29.480469 -8.835938 30.277344 -9.917969 C 31.007812 -10.933594 31.742188 -11.886719 32.351562 -12.777344 C 31.980469 -12.582031 31.546875 -12.261719 31.117188 -11.875 C 30.871094 -11.621094 30.6875 -11.429688 30.4375 -11.234375 C 30.191406 -11.042969 29.945312 -10.851562 29.761719 -10.660156 C 29.265625 -10.273438 28.773438 -9.886719 28.277344 -9.628906 C 27.777344 -9.367188 27.28125 -9.234375 26.777344 -9.222656 C 26.027344 -9.207031 25.644531 -9.578125 25.691406 -10.394531 C 25.679688 -11.082031 25.972656 -12.027344 26.574219 -13.292969 C 27.117188 -14.433594 27.847656 -15.699219 28.695312 -17.15625 C 29.546875 -18.554688 30.398438 -19.949219 31.25 -21.34375 C 32.039062 -22.675781 32.769531 -23.878906 33.375 -25.019531 C 33.980469 -26.097656 34.339844 -26.917969 34.453125 -27.484375 C 34.558594 -28.617188 34.542969 -29.492188 34.277344 -30.238281 C 34.011719 -30.988281 33.6875 -31.609375 33.175781 -32.097656 C 32.027344 -33.082031 30.765625 -33.621094 29.382812 -33.78125 C 28 -33.945312 26.5625 -33.792969 25.191406 -33.265625 C 23.761719 -32.734375 22.398438 -31.957031 21.039062 -30.867188 C 19.679688 -29.710938 18.515625 -28.433594 17.414062 -26.910156 C 17.882812 -28.675781 18.046875 -30.054688 17.835938 -31.117188 C 17.628906 -32.117188 16.988281 -32.792969 15.917969 -33.148438 C 15.164062 -33.324219 14.222656 -33.242188 13.101562 -32.90625 C 11.917969 -32.570312 10.488281 -31.855469 8.878906 -30.820312 L 8.6875 -31.070312 C 9.71875 -29.585938 10.183594 -28.214844 10.203125 -27.023438 C 10.152344 -26.394531 9.980469 -25.703125 9.742188 -25.070312 C 9.441406 -24.375 9.078125 -23.617188 8.652344 -22.855469 Z M 8.652344 -22.855469 "/></g></g></g><g fill="#8d5053" fill-opacity="1"><g transform="translate(139.548001, 262.00304)"><g><path d="M -5.039062 28.304688 C -3.417969 27.898438 -1.742188 27.113281 -0.0117188 25.828125 C 1.722656 24.539062 3.445312 23.003906 5.164062 21.089844 C 6.886719 19.238281 8.417969 17.390625 9.886719 15.546875 C 11.355469 13.699219 12.636719 11.921875 13.796875 10.269531 C 14.347656 9.503906 14.835938 8.808594 15.261719 8.171875 C 15.6875 7.535156 16.054688 7.027344 16.421875 6.582031 C 17.582031 4.929688 18.804688 3.214844 20.023438 1.4375 C 21.242188 -0.339844 22.464844 -2.121094 23.679688 -4.023438 C 26.117188 -7.707031 28.433594 -11.261719 30.625 -14.6875 C 32.816406 -18.113281 34.945312 -21.414062 36.894531 -24.460938 C 37.867188 -25.984375 38.78125 -27.378906 39.636719 -28.648438 C 40.488281 -29.917969 41.21875 -31.125 41.949219 -32.265625 L 33.113281 -32.097656 C 32.136719 -30.699219 31.222656 -29.304688 30.246094 -27.90625 C 29.269531 -26.507812 28.355469 -25.113281 27.441406 -23.777344 C 26.464844 -22.378906 25.550781 -21.046875 24.574219 -19.648438 C 23.597656 -18.25 22.683594 -16.855469 21.769531 -15.457031 L 20.125 -13.046875 C 19.390625 -12.027344 18.65625 -11.136719 17.855469 -10.308594 C 16.996094 -9.414062 16.070312 -8.707031 15.203125 -8.1875 C 14.273438 -7.605469 13.398438 -7.402344 12.519531 -7.511719 C 12.082031 -7.5 11.824219 -7.808594 11.75 -8.371094 C 11.617188 -8.746094 11.792969 -9.4375 12.273438 -10.453125 C 12.757812 -11.464844 13.484375 -12.730469 14.460938 -14.191406 C 15.375 -15.652344 16.285156 -17.109375 17.261719 -18.570312 C 18.175781 -19.964844 18.964844 -21.296875 19.691406 -22.566406 C 20.421875 -23.832031 20.839844 -24.78125 20.953125 -25.535156 C 21.117188 -26.792969 21.035156 -27.792969 20.765625 -28.667969 C 20.5 -29.539062 20.046875 -30.21875 19.472656 -30.710938 C 18.773438 -31.261719 17.953125 -31.558594 17.074219 -31.667969 C 16.195312 -31.777344 15.257812 -31.632812 14.320312 -31.363281 C 14.769531 -30.871094 15.089844 -30.4375 15.222656 -30.066406 C 15.359375 -29.628906 15.304688 -29.1875 15.1875 -28.746094 C 15.007812 -28.242188 14.707031 -27.671875 14.339844 -27.101562 C 13.914062 -26.46875 13.425781 -25.832031 12.9375 -25.070312 L 12.9375 -25.007812 L 2.183594 -10.320312 C 1.816406 -9.9375 1.511719 -9.429688 1.148438 -8.859375 C 0.78125 -8.289062 0.417969 -7.65625 0.117188 -7.023438 C -0.84375 -4.746094 -1 -3.050781 -0.476562 -1.933594 C -0.214844 -1.3125 0.171875 -0.753906 0.683594 -0.390625 C 1.191406 0.0390625 1.761719 0.34375 2.453125 0.515625 C 3.085938 0.757812 3.839844 0.804688 4.652344 0.726562 C 5.40625 0.710938 6.214844 0.507812 6.960938 0.117188 C 8.453125 -0.535156 9.9375 -1.441406 11.296875 -2.535156 C 12.65625 -3.625 13.886719 -4.777344 14.992188 -5.988281 C 15.972656 -7.136719 16.773438 -7.96875 17.390625 -8.480469 L 10.371094 1.433594 C 5.878906 2.644531 2.273438 4.09375 -0.578125 5.839844 C -3.550781 7.652344 -5.773438 9.511719 -7.308594 11.296875 C -8.902344 13.144531 -9.996094 14.859375 -10.65625 16.4375 C -11.378906 18.082031 -11.789062 19.59375 -11.886719 21.039062 C -11.984375 22.480469 -11.835938 23.730469 -11.375 24.851562 C -11.238281 25.476562 -10.914062 26.035156 -10.527344 26.527344 C -10.140625 27.023438 -9.695312 27.453125 -9.1875 27.820312 C -8.679688 28.183594 -8.046875 28.363281 -7.355469 28.472656 C -6.664062 28.585938 -5.914062 28.570312 -5.039062 28.304688 Z M -5.90625 19.105469 C -6.785156 18.871094 -7.296875 18.378906 -7.3125 17.628906 C -7.328125 16.875 -7.152344 16.058594 -6.667969 15.171875 C -6.246094 14.347656 -5.699219 13.523438 -5.085938 12.695312 C -4.476562 11.871094 -3.863281 11.167969 -3.308594 10.65625 C -1.582031 9.121094 0.335938 7.828125 2.449219 6.785156 C 4.558594 5.742188 6.609375 4.828125 8.664062 4.035156 L 8.726562 4.097656 L 7.203125 6.320312 C 6.835938 6.828125 6.472656 7.398438 6.105469 7.90625 C 5.742188 8.480469 5.3125 9.050781 4.882812 9.625 C 4.03125 10.832031 3.113281 12.039062 2.132812 13.25 C 1.152344 14.519531 0.234375 15.605469 -0.6875 16.5 C -1.671875 17.457031 -2.664062 18.167969 -3.53125 18.683594 C -4.398438 19.203125 -5.210938 19.34375 -5.90625 19.105469 Z M -5.90625 19.105469 "/></g></g></g><g fill="#216b39" fill-opacity="1"><g transform="translate(94.92857, 262.016744)"><g><path d="M 21.875 -36.273438 C 22.507812 -35.972656 23.445312 -36.238281 24.554688 -37.074219 C 25.050781 -37.460938 25.605469 -37.972656 26.09375 -38.609375 C 26.582031 -39.246094 27.074219 -39.882812 27.496094 -40.640625 C 27.921875 -41.402344 28.285156 -42.097656 28.582031 -42.855469 C 28.820312 -43.613281 29.058594 -44.308594 29.167969 -45 C 29.332031 -46.316406 29.066406 -47.128906 28.433594 -47.429688 C 27.738281 -47.730469 26.867188 -47.460938 25.753906 -46.625 C 24.640625 -45.726562 23.664062 -44.519531 22.75 -42.996094 L 22.75 -43.058594 C 22.261719 -42.296875 21.902344 -41.539062 21.664062 -40.78125 C 21.367188 -40.023438 21.191406 -39.332031 21.140625 -38.765625 C 21.027344 -38.136719 21.035156 -37.574219 21.171875 -37.136719 C 21.304688 -36.699219 21.496094 -36.390625 21.875 -36.273438 Z M 0.933594 -0.332031 C 1.945312 0.0273438 3.199219 0.0664062 4.824219 -0.21875 C 6.445312 -0.5 8.1875 -1.222656 10.109375 -2.324219 C 11.972656 -3.363281 13.949219 -4.777344 15.921875 -6.632812 C 17.894531 -8.425781 19.855469 -10.722656 21.683594 -13.386719 C 21.191406 -12.941406 20.574219 -12.425781 19.773438 -11.785156 C 18.90625 -11.140625 18.039062 -10.5625 17.109375 -10.042969 C 16.117188 -9.457031 15.1875 -9.003906 14.253906 -8.609375 C 13.257812 -8.214844 12.445312 -8.011719 11.820312 -8.0625 C 10.816406 -8.042969 10.246094 -8.40625 10.230469 -9.160156 C 10.21875 -9.847656 10.390625 -10.667969 10.875 -11.617188 C 11.296875 -12.5 11.78125 -13.324219 12.390625 -14.214844 C 12.9375 -15.101562 13.367188 -15.675781 13.609375 -16.054688 L 25.316406 -33.265625 L 16.484375 -33.097656 L 1.960938 -12.324219 C 0.738281 -10.546875 -0.171875 -8.960938 -0.710938 -7.632812 C -1.246094 -6.246094 -1.539062 -5.109375 -1.519531 -4.171875 C -1.566406 -3.167969 -1.359375 -2.292969 -0.910156 -1.675781 C -0.457031 -1.058594 0.175781 -0.566406 0.933594 -0.332031 Z M 0.933594 -0.332031 "/></g></g></g><g fill="#216b39" fill-opacity="1"><g transform="translate(111.655975, 261.698287)"><g><path d="M 8.652344 -22.855469 L -6.140625 0.117188 L 2.507812 -0.046875 C 6.03125 -5.882812 8.949219 -10.703125 11.253906 -14.632812 C 13.5625 -18.5625 15.507812 -21.671875 17.15625 -24.019531 C 18.742188 -26.308594 20.152344 -27.964844 21.390625 -28.929688 C 22.625 -29.828125 23.871094 -30.292969 25.1875 -30.253906 C 26.003906 -30.144531 26.574219 -29.84375 26.835938 -29.21875 C 27.097656 -28.597656 26.988281 -27.90625 26.375 -27.082031 L 17.460938 -14.6875 C 16.972656 -14.050781 16.484375 -13.289062 15.871094 -12.464844 C 15.261719 -11.574219 14.777344 -10.6875 14.292969 -9.800781 C 13.746094 -8.847656 13.328125 -7.902344 13.03125 -6.957031 C 12.734375 -6.007812 12.628906 -5.128906 12.769531 -4.316406 C 12.847656 -3.441406 13.175781 -2.695312 13.8125 -2.082031 C 14.453125 -1.402344 15.464844 -0.921875 16.851562 -0.632812 C 17.730469 -0.398438 18.734375 -0.417969 19.734375 -0.5625 C 20.734375 -0.707031 21.605469 -1.039062 22.472656 -1.617188 C 23.339844 -2.136719 24.203125 -2.90625 25.125 -3.800781 C 25.988281 -4.695312 26.910156 -5.714844 27.828125 -6.796875 C 28.6875 -7.816406 29.480469 -8.835938 30.277344 -9.917969 C 31.007812 -10.933594 31.742188 -11.886719 32.351562 -12.777344 C 31.980469 -12.582031 31.546875 -12.261719 31.117188 -11.875 C 30.871094 -11.621094 30.6875 -11.429688 30.4375 -11.234375 C 30.191406 -11.042969 29.945312 -10.851562 29.761719 -10.660156 C 29.265625 -10.273438 28.773438 -9.886719 28.277344 -9.628906 C 27.777344 -9.367188 27.28125 -9.234375 26.777344 -9.222656 C 26.027344 -9.207031 25.644531 -9.578125 25.691406 -10.394531 C 25.679688 -11.082031 25.972656 -12.027344 26.574219 -13.292969 C 27.117188 -14.433594 27.847656 -15.699219 28.695312 -17.15625 C 29.546875 -18.554688 30.398438 -19.949219 31.25 -21.34375 C 32.039062 -22.675781 32.769531 -23.878906 33.375 -25.019531 C 33.980469 -26.097656 34.339844 -26.917969 34.453125 -27.484375 C 34.558594 -28.617188 34.542969 -29.492188 34.277344 -30.238281 C 34.011719 -30.988281 33.6875 -31.609375 33.175781 -32.097656 C 32.027344 -33.082031 30.765625 -33.621094 29.382812 -33.78125 C 28 -33.945312 26.5625 -33.792969 25.191406 -33.265625 C 23.761719 -32.734375 22.398438 -31.957031 21.039062 -30.867188 C 19.679688 -29.710938 18.515625 -28.433594 17.414062 -26.910156 C 17.882812 -28.675781 18.046875 -30.054688 17.835938 -31.117188 C 17.628906 -32.117188 16.988281 -32.792969 15.917969 -33.148438 C 15.164062 -33.324219 14.222656 -33.242188 13.101562 -32.90625 C 11.917969 -32.570312 10.488281 -31.855469 8.878906 -30.820312 L 8.6875 -31.070312 C 9.71875 -29.585938 10.183594 -28.214844 10.203125 -27.023438 C 10.152344 -26.394531 9.980469 -25.703125 9.742188 -25.070312 C 9.441406 -24.375 9.078125 -23.617188 8.652344 -22.855469 Z M 8.652344 -22.855469 "/></g></g></g><g fill="#216b39" fill-opacity="1"><g transform="translate(141.039305, 261.138887)"><g><path d="M -5.039062 28.304688 C -3.417969 27.898438 -1.742188 27.113281 -0.0117188 25.828125 C 1.722656 24.539062 3.445312 23.003906 5.164062 21.089844 C 6.886719 19.238281 8.417969 17.390625 9.886719 15.546875 C 11.355469 13.699219 12.636719 11.921875 13.796875 10.269531 C 14.347656 9.503906 14.835938 8.808594 15.261719 8.171875 C 15.6875 7.535156 16.054688 7.027344 16.421875 6.582031 C 17.582031 4.929688 18.804688 3.214844 20.023438 1.4375 C 21.242188 -0.339844 22.464844 -2.121094 23.679688 -4.023438 C 26.117188 -7.707031 28.433594 -11.261719 30.625 -14.6875 C 32.816406 -18.113281 34.945312 -21.414062 36.894531 -24.460938 C 37.867188 -25.984375 38.78125 -27.378906 39.636719 -28.648438 C 40.488281 -29.917969 41.21875 -31.125 41.949219 -32.265625 L 33.113281 -32.097656 C 32.136719 -30.699219 31.222656 -29.304688 30.246094 -27.90625 C 29.269531 -26.507812 28.355469 -25.113281 27.441406 -23.777344 C 26.464844 -22.378906 25.550781 -21.046875 24.574219 -19.648438 C 23.597656 -18.25 22.683594 -16.855469 21.769531 -15.457031 L 20.125 -13.046875 C 19.390625 -12.027344 18.65625 -11.136719 17.855469 -10.308594 C 16.996094 -9.414062 16.070312 -8.707031 15.203125 -8.1875 C 14.273438 -7.605469 13.398438 -7.402344 12.519531 -7.511719 C 12.082031 -7.5 11.824219 -7.808594 11.75 -8.371094 C 11.617188 -8.746094 11.792969 -9.4375 12.273438 -10.453125 C 12.757812 -11.464844 13.484375 -12.730469 14.460938 -14.191406 C 15.375 -15.652344 16.285156 -17.109375 17.261719 -18.570312 C 18.175781 -19.964844 18.964844 -21.296875 19.691406 -22.566406 C 20.421875 -23.832031 20.839844 -24.78125 20.953125 -25.535156 C 21.117188 -26.792969 21.035156 -27.792969 20.765625 -28.667969 C 20.5 -29.539062 20.046875 -30.21875 19.472656 -30.710938 C 18.773438 -31.261719 17.953125 -31.558594 17.074219 -31.667969 C 16.195312 -31.777344 15.257812 -31.632812 14.320312 -31.363281 C 14.769531 -30.871094 15.089844 -30.4375 15.222656 -30.066406 C 15.359375 -29.628906 15.304688 -29.1875 15.1875 -28.746094 C 15.007812 -28.242188 14.707031 -27.671875 14.339844 -27.101562 C 13.914062 -26.46875 13.425781 -25.832031 12.9375 -25.070312 L 12.9375 -25.007812 L 2.183594 -10.320312 C 1.816406 -9.9375 1.511719 -9.429688 1.148438 -8.859375 C 0.78125 -8.289062 0.417969 -7.65625 0.117188 -7.023438 C -0.84375 -4.746094 -1 -3.050781 -0.476562 -1.933594 C -0.214844 -1.3125 0.171875 -0.753906 0.683594 -0.390625 C 1.191406 0.0390625 1.761719 0.34375 2.453125 0.515625 C 3.085938 0.757812 3.839844 0.804688 4.652344 0.726562 C 5.40625 0.710938 6.214844 0.507812 6.960938 0.117188 C 8.453125 -0.535156 9.9375 -1.441406 11.296875 -2.535156 C 12.65625 -3.625 13.886719 -4.777344 14.992188 -5.988281 C 15.972656 -7.136719 16.773438 -7.96875 17.390625 -8.480469 L 10.371094 1.433594 C 5.878906 2.644531 2.273438 4.09375 -0.578125 5.839844 C -3.550781 7.652344 -5.773438 9.511719 -7.308594 11.296875 C -8.902344 13.144531 -9.996094 14.859375 -10.65625 16.4375 C -11.378906 18.082031 -11.789062 19.59375 -11.886719 21.039062 C -11.984375 22.480469 -11.835938 23.730469 -11.375 24.851562 C -11.238281 25.476562 -10.914062 26.035156 -10.527344 26.527344 C -10.140625 27.023438 -9.695312 27.453125 -9.1875 27.820312 C -8.679688 28.183594 -8.046875 28.363281 -7.355469 28.472656 C -6.664062 28.585938 -5.914062 28.570312 -5.039062 28.304688 Z M -5.90625 19.105469 C -6.785156 18.871094 -7.296875 18.378906 -7.3125 17.628906 C -7.328125 16.875 -7.152344 16.058594 -6.667969 15.171875 C -6.246094 14.347656 -5.699219 13.523438 -5.085938 12.695312 C -4.476562 11.871094 -3.863281 11.167969 -3.308594 10.65625 C -1.582031 9.121094 0.335938 7.828125 2.449219 6.785156 C 4.558594 5.742188 6.609375 4.828125 8.664062 4.035156 L 8.726562 4.097656 L 7.203125 6.320312 C 6.835938 6.828125 6.472656 7.398438 6.105469 7.90625 C 5.742188 8.480469 5.3125 9.050781 4.882812 9.625 C 4.03125 10.832031 3.113281 12.039062 2.132812 13.25 C 1.152344 14.519531 0.234375 15.605469 -0.6875 16.5 C -1.671875 17.457031 -2.664062 18.167969 -3.53125 18.683594 C -4.398438 19.203125 -5.210938 19.34375 -5.90625 19.105469 Z M -5.90625 19.105469 "/></g></g></g><g fill="#8d5053" fill-opacity="1"><g transform="translate(165.859387, 261.502124)"><g/></g></g><g fill="#8d5053" fill-opacity="1"><g transform="translate(173.063505, 261.364972)"><g/></g></g><g fill="#8d5053" fill-opacity="1"><g transform="translate(180.267622, 261.227819)"><g/></g></g><g fill="#8d5053" fill-opacity="1"><g transform="translate(187.47174, 261.090667)"><g/></g></g><g fill="#8d5053" fill-opacity="1"><g transform="translate(194.675858, 260.953515)"><g/></g></g><g fill="#216b39" fill-opacity="1"><g transform="translate(167.350692, 260.63797)"><g/></g></g><g fill="#216b39" fill-opacity="1"><g transform="translate(174.554809, 260.500818)"><g/></g></g><g fill="#216b39" fill-opacity="1"><g transform="translate(181.758927, 260.363666)"><g/></g></g><g fill="#216b39" fill-opacity="1"><g transform="translate(188.963044, 260.226514)"><g/></g></g><g fill="#216b39" fill-opacity="1"><g transform="translate(196.167163, 260.089362)"><g/></g></g><g fill="#8d5053" fill-opacity="1"><g transform="translate(201.871082, 260.816532)"><g><path d="M 70.433594 -57.253906 C 68.019531 -58.902344 64.800781 -60.15625 60.894531 -61.085938 C 56.929688 -61.949219 52.097656 -62.296875 46.332031 -62.0625 L 46.273438 -62 C 42.328125 -61.796875 39.078125 -61.296875 36.585938 -60.371094 C 34.097656 -59.449219 32.109375 -58.40625 30.695312 -57.125 C 29.214844 -55.84375 28.300781 -54.386719 27.828125 -52.871094 C 27.355469 -51.359375 27.257812 -49.851562 27.535156 -48.476562 C 27.746094 -47.226562 28.210938 -46.046875 28.855469 -44.992188 C 29.503906 -43.941406 30.335938 -43.078125 31.289062 -42.40625 C 32.179688 -41.671875 33.128906 -41.25 34.195312 -41.144531 C 35.199219 -41.039062 36.261719 -41.246094 37.316406 -41.894531 C 35.894531 -44.125 35.164062 -46.242188 35.25 -48.1875 C 35.277344 -50.066406 35.871094 -51.769531 36.972656 -53.296875 C 38.011719 -54.757812 39.425781 -56.039062 41.289062 -57.078125 C 43.085938 -58.113281 45.078125 -58.902344 47.199219 -59.445312 C 49.320312 -59.988281 51.382812 -60.277344 53.511719 -60.320312 C 55.582031 -60.359375 57.464844 -60.144531 59.167969 -59.675781 C 61.5625 -58.96875 63.339844 -57.808594 64.5625 -56.203125 C 65.71875 -54.597656 66.445312 -52.730469 66.671875 -50.726562 C 66.839844 -48.472656 66.382812 -46.207031 65.292969 -44.058594 C 64.207031 -41.84375 62.742188 -39.871094 60.894531 -38.082031 C 59.292969 -36.546875 57.625 -35.199219 55.828125 -34.160156 C 53.96875 -33.121094 52.226562 -32.398438 50.476562 -32.050781 C 48.855469 -31.707031 47.414062 -31.742188 46.089844 -32.09375 C 44.703125 -32.445312 43.683594 -33.238281 42.96875 -34.605469 C 43.703125 -35.683594 44.433594 -36.765625 45.164062 -37.78125 C 45.898438 -38.796875 46.695312 -39.816406 47.425781 -40.832031 C 49.382812 -43.503906 51.40625 -45.859375 53.371094 -47.96875 C 55.335938 -50.074219 57.3125 -51.742188 59.234375 -52.90625 C 57.546875 -52.558594 55.804688 -51.835938 54.074219 -50.675781 C 52.339844 -49.515625 50.546875 -48.164062 48.761719 -46.5 C 46.914062 -44.835938 45.003906 -42.980469 43.164062 -40.941406 C 41.320312 -38.898438 39.476562 -36.921875 37.636719 -34.878906 C 35.730469 -32.835938 33.890625 -30.859375 32.046875 -28.945312 C 30.199219 -27.027344 28.351562 -25.425781 26.621094 -24.011719 C 24.832031 -22.539062 23.101562 -21.375 21.421875 -20.59375 C 19.683594 -19.808594 18.058594 -19.460938 16.488281 -19.683594 C 15.105469 -19.78125 14.09375 -20.328125 13.324219 -21.191406 C 12.554688 -22.054688 11.972656 -23.109375 11.632812 -24.355469 C 11.234375 -25.539062 11.023438 -26.851562 10.996094 -28.230469 C 10.96875 -29.609375 11.007812 -30.863281 11.234375 -32.121094 C 9.625 -31.210938 8.136719 -30.242188 6.78125 -29.089844 C 5.421875 -27.933594 4.191406 -26.722656 3.089844 -25.320312 C 1.925781 -23.917969 0.953125 -22.398438 0.230469 -20.753906 C -0.550781 -19.109375 -1.085938 -17.46875 -1.300781 -15.710938 C -1.640625 -13.695312 -1.539062 -11.753906 -1.128906 -9.882812 C -0.714844 -8.011719 0.128906 -6.332031 1.285156 -4.976562 C 2.378906 -3.554688 3.839844 -2.457031 5.609375 -1.609375 C 7.382812 -0.765625 9.519531 -0.433594 12.027344 -0.480469 C 13.78125 -0.511719 15.585938 -1.175781 17.566406 -2.464844 C 19.425781 -3.691406 21.335938 -5.359375 23.300781 -7.464844 C 25.269531 -9.570312 27.226562 -11.988281 29.242188 -14.785156 C 31.195312 -17.519531 33.210938 -20.378906 35.222656 -23.300781 C 37.238281 -26.222656 39.308594 -29.269531 41.382812 -32.316406 C 41.628906 -32.574219 41.808594 -32.953125 42.054688 -33.335938 C 41.890625 -31.953125 42.101562 -30.765625 42.6875 -29.710938 C 43.273438 -28.59375 44.105469 -27.730469 45.121094 -27 C 46.394531 -26.019531 47.847656 -25.359375 49.609375 -25.015625 C 51.371094 -24.671875 53.125 -24.644531 54.875 -25.054688 C 57.496094 -25.605469 59.988281 -26.402344 62.222656 -27.511719 C 64.460938 -28.558594 66.503906 -29.851562 68.355469 -31.328125 C 70.703125 -33.128906 72.546875 -35.230469 73.941406 -37.515625 C 75.277344 -39.796875 76.109375 -42.195312 76.441406 -44.582031 C 76.710938 -46.96875 76.351562 -49.21875 75.433594 -51.457031 C 74.515625 -53.636719 72.847656 -55.546875 70.433594 -57.253906 Z M 70.433594 -57.253906 "/></g></g></g><g fill="#8d5053" fill-opacity="1"><g transform="translate(253.872202, 259.826534)"><g><path d="M -0.195312 -0.371094 C 1.066406 -0.0195312 2.570312 -0.0507812 4.316406 -0.457031 C 6.0625 -0.867188 7.867188 -1.652344 9.726562 -2.816406 C 11.582031 -3.980469 13.371094 -5.519531 15.152344 -7.433594 C 16.871094 -9.347656 18.457031 -11.632812 19.785156 -14.292969 C 19.355469 -13.847656 18.925781 -13.398438 18.496094 -13.015625 C 18.0625 -12.628906 17.632812 -12.246094 17.199219 -11.925781 C 16.210938 -11.152344 15.21875 -10.507812 14.226562 -9.988281 C 13.234375 -9.464844 12.363281 -9.074219 11.492188 -8.804688 C 10.558594 -8.476562 9.746094 -8.335938 9.054688 -8.445312 C 8.363281 -8.496094 7.980469 -8.800781 7.847656 -9.300781 C 7.648438 -9.800781 7.636719 -10.363281 7.875 -11.121094 C 8.113281 -11.8125 8.472656 -12.636719 8.957031 -13.523438 C 9.441406 -14.347656 9.929688 -15.171875 10.414062 -15.996094 C 10.902344 -16.757812 11.453125 -17.519531 11.941406 -18.15625 C 12.429688 -18.792969 12.796875 -19.300781 12.976562 -19.617188 L 12.917969 -19.554688 L 21.878906 -32.886719 C 22.308594 -33.207031 22.804688 -33.53125 23.363281 -33.917969 C 23.917969 -34.304688 24.476562 -34.691406 25.09375 -35.140625 C 25.652344 -35.527344 26.207031 -35.914062 26.828125 -36.367188 C 27.445312 -36.753906 28.0625 -37.203125 28.742188 -37.71875 C 29.980469 -38.621094 31.277344 -39.585938 32.511719 -40.613281 C 33.746094 -41.636719 34.976562 -42.789062 36.144531 -44.003906 C 37.3125 -45.214844 38.355469 -46.425781 39.335938 -47.699219 C 40.25 -48.972656 40.917969 -50.175781 41.398438 -51.375 C 41.8125 -52.511719 41.980469 -53.640625 41.898438 -54.644531 C 41.753906 -55.644531 41.296875 -56.574219 40.402344 -57.4375 C 39.769531 -57.925781 39.007812 -58.351562 38.125 -58.582031 C 37.242188 -58.816406 36.238281 -58.863281 35.175781 -58.714844 C 34.050781 -58.507812 32.996094 -58.109375 31.878906 -57.460938 C 30.761719 -56.8125 29.777344 -55.917969 28.859375 -54.773438 C 24.269531 -48.917969 19.992188 -43.070312 15.964844 -37.226562 C 11.941406 -31.382812 7.851562 -25.410156 3.707031 -19.316406 L 1.632812 -16.390625 C 1.265625 -15.820312 0.902344 -15.25 0.535156 -14.742188 C 0.167969 -14.234375 -0.132812 -13.664062 -0.4375 -13.15625 C -1.167969 -12.011719 -1.773438 -10.9375 -2.253906 -9.796875 C -2.796875 -8.660156 -3.152344 -7.523438 -3.320312 -6.457031 C -3.664062 -4.695312 -3.511719 -3.316406 -2.929688 -2.328125 C -2.34375 -1.335938 -1.453125 -0.660156 -0.195312 -0.371094 Z M 22.382812 -35.90625 L 35.960938 -53.652344 C 36.328125 -54.160156 36.824219 -54.484375 37.324219 -54.621094 C 37.824219 -54.691406 38.199219 -54.636719 38.582031 -54.394531 C 38.835938 -54.148438 39.09375 -53.777344 39.230469 -53.277344 C 39.363281 -52.777344 39.3125 -52.148438 39.140625 -51.394531 C 38.902344 -50.636719 38.417969 -49.75 37.808594 -48.800781 C 37.203125 -47.785156 36.28125 -46.703125 35.113281 -45.550781 C 34.128906 -44.527344 33.019531 -43.566406 31.847656 -42.542969 C 30.613281 -41.515625 29.441406 -40.554688 28.269531 -39.652344 C 27.03125 -38.753906 25.917969 -37.917969 24.867188 -37.269531 C 23.8125 -36.621094 23.007812 -36.167969 22.382812 -35.90625 Z M 22.382812 -35.90625 "/></g></g></g><g fill="#8d5053" fill-opacity="1"><g transform="translate(267.968166, 259.558175)"><g><path d="M 19.976562 -0.945312 L 19.730469 -0.75 C 21.484375 -0.785156 23.230469 -1.320312 25.027344 -2.417969 C 26.761719 -3.457031 28.492188 -4.804688 30.09375 -6.402344 C 31.628906 -7.9375 33.039062 -9.65625 34.382812 -11.4375 C 35.730469 -13.21875 36.824219 -14.929688 37.671875 -16.449219 C 37.550781 -16.324219 37.425781 -16.257812 37.242188 -16.128906 C 37.054688 -16 36.871094 -15.808594 36.625 -15.617188 C 36.070312 -15.105469 35.453125 -14.589844 34.773438 -14.078125 C 34.09375 -13.5 33.351562 -12.921875 32.550781 -12.339844 C 30.820312 -10.992188 29.394531 -10.023438 28.152344 -9.5 C 27.53125 -9.175781 27.03125 -9.101562 26.714844 -9.222656 C 26.402344 -9.339844 26.332031 -9.714844 26.507812 -10.347656 C 26.621094 -10.976562 27.164062 -11.988281 28.019531 -13.257812 L 41.480469 -33.761719 L 32.644531 -33.59375 L 28.746094 -27.753906 C 28.722656 -29.003906 28.515625 -30.003906 28.058594 -30.875 C 27.605469 -31.679688 27.027344 -32.296875 26.269531 -32.78125 C 25.445312 -33.207031 24.5 -33.4375 23.496094 -33.542969 C 22.492188 -33.589844 21.367188 -33.441406 20.242188 -33.167969 C 19.371094 -32.902344 18.375 -32.507812 17.320312 -31.859375 C 16.269531 -31.214844 15.214844 -30.503906 14.105469 -29.605469 C 12.992188 -28.707031 11.820312 -27.679688 10.652344 -26.53125 C 9.484375 -25.378906 8.378906 -24.230469 7.273438 -22.957031 C 5.921875 -21.425781 4.699219 -19.898438 3.601562 -18.308594 C 2.441406 -16.65625 1.46875 -15.074219 0.621094 -13.488281 C 0.015625 -12.347656 -0.523438 -11.023438 -0.871094 -9.511719 C -1.21875 -8 -1.378906 -6.617188 -1.230469 -5.304688 C -1.140625 -3.925781 -0.742188 -2.808594 -0.0976562 -1.878906 C 0.546875 -0.949219 1.621094 -0.46875 3.1875 -0.5 C 5.316406 -0.539062 7.566406 -1.023438 9.800781 -2.066406 C 10.859375 -2.527344 11.851562 -3.109375 12.777344 -3.753906 C 13.707031 -4.398438 14.507812 -5.164062 15.117188 -5.992188 C 15.019531 -4.546875 15.417969 -3.363281 16.316406 -2.378906 C 17.148438 -1.390625 18.347656 -0.914062 19.976562 -0.945312 Z M 9.363281 -8.703125 C 8.792969 -9.007812 8.40625 -9.5 8.203125 -10.25 C 8.003906 -10.996094 8.109375 -11.9375 8.464844 -13.136719 C 8.753906 -14.269531 9.355469 -15.597656 10.328125 -17.246094 C 11.300781 -18.832031 12.644531 -20.675781 14.359375 -22.777344 C 15.09375 -23.667969 15.832031 -24.558594 16.691406 -25.453125 C 17.488281 -26.347656 18.351562 -27.117188 19.214844 -27.882812 C 20.015625 -28.589844 20.882812 -29.167969 21.816406 -29.5625 C 22.6875 -29.957031 23.625 -30.101562 24.625 -30.117188 C 25.191406 -30.066406 25.632812 -29.886719 25.953125 -29.578125 C 26.210938 -29.207031 26.40625 -28.773438 26.542969 -28.210938 C 26.617188 -27.648438 26.628906 -27.023438 26.515625 -26.269531 C 26.40625 -25.515625 26.296875 -24.757812 26.058594 -23.941406 L 26.121094 -23.941406 L 19.777344 -14.792969 C 19.289062 -14.03125 18.617188 -13.203125 17.882812 -12.3125 C 17.082031 -11.421875 16.222656 -10.589844 15.296875 -9.882812 C 14.308594 -9.109375 13.3125 -8.589844 12.316406 -8.320312 C 11.257812 -7.988281 10.25 -8.09375 9.363281 -8.703125 Z M 9.363281 -8.703125 "/></g></g></g><g fill="#8d5053" fill-opacity="1"><g transform="translate(300.358852, 258.94152)"><g><path d="M 8.652344 -22.855469 L -6.140625 0.117188 L 2.507812 -0.046875 C 6.03125 -5.882812 8.949219 -10.703125 11.253906 -14.632812 C 13.5625 -18.5625 15.507812 -21.671875 17.15625 -24.019531 C 18.742188 -26.308594 20.152344 -27.964844 21.390625 -28.929688 C 22.625 -29.828125 23.871094 -30.292969 25.1875 -30.253906 C 26.003906 -30.144531 26.574219 -29.84375 26.835938 -29.21875 C 27.097656 -28.597656 26.988281 -27.90625 26.375 -27.082031 L 17.460938 -14.6875 C 16.972656 -14.050781 16.484375 -13.289062 15.871094 -12.464844 C 15.261719 -11.574219 14.777344 -10.6875 14.292969 -9.800781 C 13.746094 -8.847656 13.328125 -7.902344 13.03125 -6.957031 C 12.734375 -6.007812 12.628906 -5.128906 12.769531 -4.316406 C 12.847656 -3.441406 13.175781 -2.695312 13.8125 -2.082031 C 14.453125 -1.402344 15.464844 -0.921875 16.851562 -0.632812 C 17.730469 -0.398438 18.734375 -0.417969 19.734375 -0.5625 C 20.734375 -0.707031 21.605469 -1.039062 22.472656 -1.617188 C 23.339844 -2.136719 24.203125 -2.90625 25.125 -3.800781 C 25.988281 -4.695312 26.910156 -5.714844 27.828125 -6.796875 C 28.6875 -7.816406 29.480469 -8.835938 30.277344 -9.917969 C 31.007812 -10.933594 31.742188 -11.886719 32.351562 -12.777344 C 31.980469 -12.582031 31.546875 -12.261719 31.117188 -11.875 C 30.871094 -11.621094 30.6875 -11.429688 30.4375 -11.234375 C 30.191406 -11.042969 29.945312 -10.851562 29.761719 -10.660156 C 29.265625 -10.273438 28.773438 -9.886719 28.277344 -9.628906 C 27.777344 -9.367188 27.28125 -9.234375 26.777344 -9.222656 C 26.027344 -9.207031 25.644531 -9.578125 25.691406 -10.394531 C 25.679688 -11.082031 25.972656 -12.027344 26.574219 -13.292969 C 27.117188 -14.433594 27.847656 -15.699219 28.695312 -17.15625 C 29.546875 -18.554688 30.398438 -19.949219 31.25 -21.34375 C 32.039062 -22.675781 32.769531 -23.878906 33.375 -25.019531 C 33.980469 -26.097656 34.339844 -26.917969 34.453125 -27.484375 C 34.558594 -28.617188 34.542969 -29.492188 34.277344 -30.238281 C 34.011719 -30.988281 33.6875 -31.609375 33.175781 -32.097656 C 32.027344 -33.082031 30.765625 -33.621094 29.382812 -33.78125 C 28 -33.945312 26.5625 -33.792969 25.191406 -33.265625 C 23.761719 -32.734375 22.398438 -31.957031 21.039062 -30.867188 C 19.679688 -29.710938 18.515625 -28.433594 17.414062 -26.910156 C 17.882812 -28.675781 18.046875 -30.054688 17.835938 -31.117188 C 17.628906 -32.117188 16.988281 -32.792969 15.917969 -33.148438 C 15.164062 -33.324219 14.222656 -33.242188 13.101562 -32.90625 C 11.917969 -32.570312 10.488281 -31.855469 8.878906 -30.820312 L 8.6875 -31.070312 C 9.71875 -29.585938 10.183594 -28.214844 10.203125 -27.023438 C 10.152344 -26.394531 9.980469 -25.703125 9.742188 -25.070312 C 9.441406 -24.375 9.078125 -23.617188 8.652344 -22.855469 Z M 8.652344 -22.855469 "/></g></g></g><g fill="#8d5053" fill-opacity="1"><g transform="translate(329.742179, 258.38212)"><g><path d="M 1.375 -0.214844 C 2.636719 0.136719 4.140625 0.171875 5.886719 -0.238281 C 7.636719 -0.648438 9.4375 -1.433594 11.359375 -2.597656 C 13.21875 -3.761719 15.007812 -5.300781 16.789062 -7.214844 C 18.570312 -9.128906 20.152344 -11.480469 21.484375 -14.136719 C 21.050781 -13.691406 20.621094 -13.242188 20.191406 -12.859375 C 19.757812 -12.472656 19.328125 -12.089844 18.894531 -11.769531 C 17.90625 -10.996094 16.914062 -10.351562 15.921875 -9.832031 C 14.929688 -9.3125 14.058594 -8.917969 13.1875 -8.652344 C 12.253906 -8.320312 11.441406 -8.179688 10.75 -8.289062 C 10.058594 -8.339844 9.675781 -8.648438 9.542969 -9.144531 C 9.34375 -9.644531 9.332031 -10.207031 9.570312 -10.964844 C 9.808594 -11.65625 10.167969 -12.480469 10.652344 -13.367188 C 11.074219 -14.191406 11.5625 -15.015625 12.109375 -15.839844 C 12.597656 -16.601562 13.148438 -17.363281 13.636719 -18.0625 C 14.125 -18.699219 14.492188 -19.207031 14.671875 -19.523438 L 22.472656 -31.269531 L 28.738281 -31.386719 L 30.523438 -33.238281 L 23.753906 -33.109375 L 26.921875 -37.871094 L 36.011719 -51.085938 C 35.257812 -51.195312 34.746094 -51.625 34.484375 -52.246094 C 34.160156 -52.867188 33.894531 -53.550781 33.753906 -54.363281 C 33.554688 -55.113281 33.351562 -55.859375 33.085938 -56.605469 C 32.820312 -57.355469 32.433594 -57.910156 31.800781 -58.273438 C 31.679688 -58.085938 31.558594 -57.832031 31.375 -57.578125 C 31.128906 -57.324219 30.886719 -56.941406 30.640625 -56.5625 L 28.507812 -53.386719 C 28.019531 -52.75 27.59375 -52.050781 27.167969 -51.355469 C 26.679688 -50.65625 26.191406 -49.957031 25.703125 -49.257812 C 25.152344 -48.496094 24.664062 -47.796875 24.179688 -47.035156 C 23.691406 -46.273438 23.140625 -45.511719 22.65625 -44.75 C 20.214844 -41.191406 17.53125 -37.253906 14.605469 -32.9375 L 9.59375 -32.839844 L 7.808594 -30.988281 L 13.324219 -31.09375 L 5.339844 -19.21875 L 3.261719 -16.296875 C 2.898438 -15.726562 2.53125 -15.15625 2.164062 -14.648438 C 1.800781 -14.136719 1.433594 -13.566406 1.128906 -13.058594 C 0.398438 -11.917969 -0.207031 -10.777344 -0.683594 -9.640625 C -1.226562 -8.5 -1.582031 -7.429688 -1.75 -6.296875 C -2.09375 -4.535156 -1.941406 -3.160156 -1.359375 -2.167969 C -0.773438 -1.175781 0.117188 -0.503906 1.375 -0.214844 Z M 1.375 -0.214844 "/></g></g></g><g fill="#216b39" fill-opacity="1"><g transform="translate(203.362387, 259.952379)"><g><path d="M 70.433594 -57.253906 C 68.019531 -58.902344 64.800781 -60.15625 60.894531 -61.085938 C 56.929688 -61.949219 52.097656 -62.296875 46.332031 -62.0625 L 46.273438 -62 C 42.328125 -61.796875 39.078125 -61.296875 36.585938 -60.371094 C 34.097656 -59.449219 32.109375 -58.40625 30.695312 -57.125 C 29.214844 -55.84375 28.300781 -54.386719 27.828125 -52.871094 C 27.355469 -51.359375 27.257812 -49.851562 27.535156 -48.476562 C 27.746094 -47.226562 28.210938 -46.046875 28.855469 -44.992188 C 29.503906 -43.941406 30.335938 -43.078125 31.289062 -42.40625 C 32.179688 -41.671875 33.128906 -41.25 34.195312 -41.144531 C 35.199219 -41.039062 36.261719 -41.246094 37.316406 -41.894531 C 35.894531 -44.125 35.164062 -46.242188 35.25 -48.1875 C 35.277344 -50.066406 35.871094 -51.769531 36.972656 -53.296875 C 38.011719 -54.757812 39.425781 -56.039062 41.289062 -57.078125 C 43.085938 -58.113281 45.078125 -58.902344 47.199219 -59.445312 C 49.320312 -59.988281 51.382812 -60.277344 53.511719 -60.320312 C 55.582031 -60.359375 57.464844 -60.144531 59.167969 -59.675781 C 61.5625 -58.96875 63.339844 -57.808594 64.5625 -56.203125 C 65.71875 -54.597656 66.445312 -52.730469 66.671875 -50.726562 C 66.839844 -48.472656 66.382812 -46.207031 65.292969 -44.058594 C 64.207031 -41.84375 62.742188 -39.871094 60.894531 -38.082031 C 59.292969 -36.546875 57.625 -35.199219 55.828125 -34.160156 C 53.96875 -33.121094 52.226562 -32.398438 50.476562 -32.050781 C 48.855469 -31.707031 47.414062 -31.742188 46.089844 -32.09375 C 44.703125 -32.445312 43.683594 -33.238281 42.96875 -34.605469 C 43.703125 -35.683594 44.433594 -36.765625 45.164062 -37.78125 C 45.898438 -38.796875 46.695312 -39.816406 47.425781 -40.832031 C 49.382812 -43.503906 51.40625 -45.859375 53.371094 -47.96875 C 55.335938 -50.074219 57.3125 -51.742188 59.234375 -52.90625 C 57.546875 -52.558594 55.804688 -51.835938 54.074219 -50.675781 C 52.339844 -49.515625 50.546875 -48.164062 48.761719 -46.5 C 46.914062 -44.835938 45.003906 -42.980469 43.164062 -40.941406 C 41.320312 -38.898438 39.476562 -36.921875 37.636719 -34.878906 C 35.730469 -32.835938 33.890625 -30.859375 32.046875 -28.945312 C 30.199219 -27.027344 28.351562 -25.425781 26.621094 -24.011719 C 24.832031 -22.539062 23.101562 -21.375 21.421875 -20.59375 C 19.683594 -19.808594 18.058594 -19.460938 16.488281 -19.683594 C 15.105469 -19.78125 14.09375 -20.328125 13.324219 -21.191406 C 12.554688 -22.054688 11.972656 -23.109375 11.632812 -24.355469 C 11.234375 -25.539062 11.023438 -26.851562 10.996094 -28.230469 C 10.96875 -29.609375 11.007812 -30.863281 11.234375 -32.121094 C 9.625 -31.210938 8.136719 -30.242188 6.78125 -29.089844 C 5.421875 -27.933594 4.191406 -26.722656 3.089844 -25.320312 C 1.925781 -23.917969 0.953125 -22.398438 0.230469 -20.753906 C -0.550781 -19.109375 -1.085938 -17.46875 -1.300781 -15.710938 C -1.640625 -13.695312 -1.539062 -11.753906 -1.128906 -9.882812 C -0.714844 -8.011719 0.128906 -6.332031 1.285156 -4.976562 C 2.378906 -3.554688 3.839844 -2.457031 5.609375 -1.609375 C 7.382812 -0.765625 9.519531 -0.433594 12.027344 -0.480469 C 13.78125 -0.511719 15.585938 -1.175781 17.566406 -2.464844 C 19.425781 -3.691406 21.335938 -5.359375 23.300781 -7.464844 C 25.269531 -9.570312 27.226562 -11.988281 29.242188 -14.785156 C 31.195312 -17.519531 33.210938 -20.378906 35.222656 -23.300781 C 37.238281 -26.222656 39.308594 -29.269531 41.382812 -32.316406 C 41.628906 -32.574219 41.808594 -32.953125 42.054688 -33.335938 C 41.890625 -31.953125 42.101562 -30.765625 42.6875 -29.710938 C 43.273438 -28.59375 44.105469 -27.730469 45.121094 -27 C 46.394531 -26.019531 47.847656 -25.359375 49.609375 -25.015625 C 51.371094 -24.671875 53.125 -24.644531 54.875 -25.054688 C 57.496094 -25.605469 59.988281 -26.402344 62.222656 -27.511719 C 64.460938 -28.558594 66.503906 -29.851562 68.355469 -31.328125 C 70.703125 -33.128906 72.546875 -35.230469 73.941406 -37.515625 C 75.277344 -39.796875 76.109375 -42.195312 76.441406 -44.582031 C 76.710938 -46.96875 76.351562 -49.21875 75.433594 -51.457031 C 74.515625 -53.636719 72.847656 -55.546875 70.433594 -57.253906 Z M 70.433594 -57.253906 "/></g></g></g><g fill="#216b39" fill-opacity="1"><g transform="translate(255.363506, 258.96238)"><g><path d="M -0.195312 -0.371094 C 1.066406 -0.0195312 2.570312 -0.0507812 4.316406 -0.457031 C 6.0625 -0.867188 7.867188 -1.652344 9.726562 -2.816406 C 11.582031 -3.980469 13.371094 -5.519531 15.152344 -7.433594 C 16.871094 -9.347656 18.457031 -11.632812 19.785156 -14.292969 C 19.355469 -13.847656 18.925781 -13.398438 18.496094 -13.015625 C 18.0625 -12.628906 17.632812 -12.246094 17.199219 -11.925781 C 16.210938 -11.152344 15.21875 -10.507812 14.226562 -9.988281 C 13.234375 -9.464844 12.363281 -9.074219 11.492188 -8.804688 C 10.558594 -8.476562 9.746094 -8.335938 9.054688 -8.445312 C 8.363281 -8.496094 7.980469 -8.800781 7.847656 -9.300781 C 7.648438 -9.800781 7.636719 -10.363281 7.875 -11.121094 C 8.113281 -11.8125 8.472656 -12.636719 8.957031 -13.523438 C 9.441406 -14.347656 9.929688 -15.171875 10.414062 -15.996094 C 10.902344 -16.757812 11.453125 -17.519531 11.941406 -18.15625 C 12.429688 -18.792969 12.796875 -19.300781 12.976562 -19.617188 L 12.917969 -19.554688 L 21.878906 -32.886719 C 22.308594 -33.207031 22.804688 -33.53125 23.363281 -33.917969 C 23.917969 -34.304688 24.476562 -34.691406 25.09375 -35.140625 C 25.652344 -35.527344 26.207031 -35.914062 26.828125 -36.367188 C 27.445312 -36.753906 28.0625 -37.203125 28.742188 -37.71875 C 29.980469 -38.621094 31.277344 -39.585938 32.511719 -40.613281 C 33.746094 -41.636719 34.976562 -42.789062 36.144531 -44.003906 C 37.3125 -45.214844 38.355469 -46.425781 39.335938 -47.699219 C 40.25 -48.972656 40.917969 -50.175781 41.398438 -51.375 C 41.8125 -52.511719 41.980469 -53.640625 41.898438 -54.644531 C 41.753906 -55.644531 41.296875 -56.574219 40.402344 -57.4375 C 39.769531 -57.925781 39.007812 -58.351562 38.125 -58.582031 C 37.242188 -58.816406 36.238281 -58.863281 35.175781 -58.714844 C 34.050781 -58.507812 32.996094 -58.109375 31.878906 -57.460938 C 30.761719 -56.8125 29.777344 -55.917969 28.859375 -54.773438 C 24.269531 -48.917969 19.992188 -43.070312 15.964844 -37.226562 C 11.941406 -31.382812 7.851562 -25.410156 3.707031 -19.316406 L 1.632812 -16.390625 C 1.265625 -15.820312 0.902344 -15.25 0.535156 -14.742188 C 0.167969 -14.234375 -0.132812 -13.664062 -0.4375 -13.15625 C -1.167969 -12.011719 -1.773438 -10.9375 -2.253906 -9.796875 C -2.796875 -8.660156 -3.152344 -7.523438 -3.320312 -6.457031 C -3.664062 -4.695312 -3.511719 -3.316406 -2.929688 -2.328125 C -2.34375 -1.335938 -1.453125 -0.660156 -0.195312 -0.371094 Z M 22.382812 -35.90625 L 35.960938 -53.652344 C 36.328125 -54.160156 36.824219 -54.484375 37.324219 -54.621094 C 37.824219 -54.691406 38.199219 -54.636719 38.582031 -54.394531 C 38.835938 -54.148438 39.09375 -53.777344 39.230469 -53.277344 C 39.363281 -52.777344 39.3125 -52.148438 39.140625 -51.394531 C 38.902344 -50.636719 38.417969 -49.75 37.808594 -48.800781 C 37.203125 -47.785156 36.28125 -46.703125 35.113281 -45.550781 C 34.128906 -44.527344 33.019531 -43.566406 31.847656 -42.542969 C 30.613281 -41.515625 29.441406 -40.554688 28.269531 -39.652344 C 27.03125 -38.753906 25.917969 -37.917969 24.867188 -37.269531 C 23.8125 -36.621094 23.007812 -36.167969 22.382812 -35.90625 Z M 22.382812 -35.90625 "/></g></g></g><g fill="#216b39" fill-opacity="1"><g transform="translate(269.459471, 258.694021)"><g><path d="M 19.976562 -0.945312 L 19.730469 -0.75 C 21.484375 -0.785156 23.230469 -1.320312 25.027344 -2.417969 C 26.761719 -3.457031 28.492188 -4.804688 30.09375 -6.402344 C 31.628906 -7.9375 33.039062 -9.65625 34.382812 -11.4375 C 35.730469 -13.21875 36.824219 -14.929688 37.671875 -16.449219 C 37.550781 -16.324219 37.425781 -16.257812 37.242188 -16.128906 C 37.054688 -16 36.871094 -15.808594 36.625 -15.617188 C 36.070312 -15.105469 35.453125 -14.589844 34.773438 -14.078125 C 34.09375 -13.5 33.351562 -12.921875 32.550781 -12.339844 C 30.820312 -10.992188 29.394531 -10.023438 28.152344 -9.5 C 27.53125 -9.175781 27.03125 -9.101562 26.714844 -9.222656 C 26.402344 -9.339844 26.332031 -9.714844 26.507812 -10.347656 C 26.621094 -10.976562 27.164062 -11.988281 28.019531 -13.257812 L 41.480469 -33.761719 L 32.644531 -33.59375 L 28.746094 -27.753906 C 28.722656 -29.003906 28.515625 -30.003906 28.058594 -30.875 C 27.605469 -31.679688 27.027344 -32.296875 26.269531 -32.78125 C 25.445312 -33.207031 24.5 -33.4375 23.496094 -33.542969 C 22.492188 -33.589844 21.367188 -33.441406 20.242188 -33.167969 C 19.371094 -32.902344 18.375 -32.507812 17.320312 -31.859375 C 16.269531 -31.214844 15.214844 -30.503906 14.105469 -29.605469 C 12.992188 -28.707031 11.820312 -27.679688 10.652344 -26.53125 C 9.484375 -25.378906 8.378906 -24.230469 7.273438 -22.957031 C 5.921875 -21.425781 4.699219 -19.898438 3.601562 -18.308594 C 2.441406 -16.65625 1.46875 -15.074219 0.621094 -13.488281 C 0.015625 -12.347656 -0.523438 -11.023438 -0.871094 -9.511719 C -1.21875 -8 -1.378906 -6.617188 -1.230469 -5.304688 C -1.140625 -3.925781 -0.742188 -2.808594 -0.0976562 -1.878906 C 0.546875 -0.949219 1.621094 -0.46875 3.1875 -0.5 C 5.316406 -0.539062 7.566406 -1.023438 9.800781 -2.066406 C 10.859375 -2.527344 11.851562 -3.109375 12.777344 -3.753906 C 13.707031 -4.398438 14.507812 -5.164062 15.117188 -5.992188 C 15.019531 -4.546875 15.417969 -3.363281 16.316406 -2.378906 C 17.148438 -1.390625 18.347656 -0.914062 19.976562 -0.945312 Z M 9.363281 -8.703125 C 8.792969 -9.007812 8.40625 -9.5 8.203125 -10.25 C 8.003906 -10.996094 8.109375 -11.9375 8.464844 -13.136719 C 8.753906 -14.269531 9.355469 -15.597656 10.328125 -17.246094 C 11.300781 -18.832031 12.644531 -20.675781 14.359375 -22.777344 C 15.09375 -23.667969 15.832031 -24.558594 16.691406 -25.453125 C 17.488281 -26.347656 18.351562 -27.117188 19.214844 -27.882812 C 20.015625 -28.589844 20.882812 -29.167969 21.816406 -29.5625 C 22.6875 -29.957031 23.625 -30.101562 24.625 -30.117188 C 25.191406 -30.066406 25.632812 -29.886719 25.953125 -29.578125 C 26.210938 -29.207031 26.40625 -28.773438 26.542969 -28.210938 C 26.617188 -27.648438 26.628906 -27.023438 26.515625 -26.269531 C 26.40625 -25.515625 26.296875 -24.757812 26.058594 -23.941406 L 26.121094 -23.941406 L 19.777344 -14.792969 C 19.289062 -14.03125 18.617188 -13.203125 17.882812 -12.3125 C 17.082031 -11.421875 16.222656 -10.589844 15.296875 -9.882812 C 14.308594 -9.109375 13.3125 -8.589844 12.316406 -8.320312 C 11.257812 -7.988281 10.25 -8.09375 9.363281 -8.703125 Z M 9.363281 -8.703125 "/></g></g></g><g fill="#216b39" fill-opacity="1"><g transform="translate(301.850157, 258.077367)"><g><path d="M 8.652344 -22.855469 L -6.140625 0.117188 L 2.507812 -0.046875 C 6.03125 -5.882812 8.949219 -10.703125 11.253906 -14.632812 C 13.5625 -18.5625 15.507812 -21.671875 17.15625 -24.019531 C 18.742188 -26.308594 20.152344 -27.964844 21.390625 -28.929688 C 22.625 -29.828125 23.871094 -30.292969 25.1875 -30.253906 C 26.003906 -30.144531 26.574219 -29.84375 26.835938 -29.21875 C 27.097656 -28.597656 26.988281 -27.90625 26.375 -27.082031 L 17.460938 -14.6875 C 16.972656 -14.050781 16.484375 -13.289062 15.871094 -12.464844 C 15.261719 -11.574219 14.777344 -10.6875 14.292969 -9.800781 C 13.746094 -8.847656 13.328125 -7.902344 13.03125 -6.957031 C 12.734375 -6.007812 12.628906 -5.128906 12.769531 -4.316406 C 12.847656 -3.441406 13.175781 -2.695312 13.8125 -2.082031 C 14.453125 -1.402344 15.464844 -0.921875 16.851562 -0.632812 C 17.730469 -0.398438 18.734375 -0.417969 19.734375 -0.5625 C 20.734375 -0.707031 21.605469 -1.039062 22.472656 -1.617188 C 23.339844 -2.136719 24.203125 -2.90625 25.125 -3.800781 C 25.988281 -4.695312 26.910156 -5.714844 27.828125 -6.796875 C 28.6875 -7.816406 29.480469 -8.835938 30.277344 -9.917969 C 31.007812 -10.933594 31.742188 -11.886719 32.351562 -12.777344 C 31.980469 -12.582031 31.546875 -12.261719 31.117188 -11.875 C 30.871094 -11.621094 30.6875 -11.429688 30.4375 -11.234375 C 30.191406 -11.042969 29.945312 -10.851562 29.761719 -10.660156 C 29.265625 -10.273438 28.773438 -9.886719 28.277344 -9.628906 C 27.777344 -9.367188 27.28125 -9.234375 26.777344 -9.222656 C 26.027344 -9.207031 25.644531 -9.578125 25.691406 -10.394531 C 25.679688 -11.082031 25.972656 -12.027344 26.574219 -13.292969 C 27.117188 -14.433594 27.847656 -15.699219 28.695312 -17.15625 C 29.546875 -18.554688 30.398438 -19.949219 31.25 -21.34375 C 32.039062 -22.675781 32.769531 -23.878906 33.375 -25.019531 C 33.980469 -26.097656 34.339844 -26.917969 34.453125 -27.484375 C 34.558594 -28.617188 34.542969 -29.492188 34.277344 -30.238281 C 34.011719 -30.988281 33.6875 -31.609375 33.175781 -32.097656 C 32.027344 -33.082031 30.765625 -33.621094 29.382812 -33.78125 C 28 -33.945312 26.5625 -33.792969 25.191406 -33.265625 C 23.761719 -32.734375 22.398438 -31.957031 21.039062 -30.867188 C 19.679688 -29.710938 18.515625 -28.433594 17.414062 -26.910156 C 17.882812 -28.675781 18.046875 -30.054688 17.835938 -31.117188 C 17.628906 -32.117188 16.988281 -32.792969 15.917969 -33.148438 C 15.164062 -33.324219 14.222656 -33.242188 13.101562 -32.90625 C 11.917969 -32.570312 10.488281 -31.855469 8.878906 -30.820312 L 8.6875 -31.070312 C 9.71875 -29.585938 10.183594 -28.214844 10.203125 -27.023438 C 10.152344 -26.394531 9.980469 -25.703125 9.742188 -25.070312 C 9.441406 -24.375 9.078125 -23.617188 8.652344 -22.855469 Z M 8.652344 -22.855469 "/></g></g></g><g fill="#216b39" fill-opacity="1"><g transform="translate(331.233484, 257.517966)"><g><path d="M 1.375 -0.214844 C 2.636719 0.136719 4.140625 0.171875 5.886719 -0.238281 C 7.636719 -0.648438 9.4375 -1.433594 11.359375 -2.597656 C 13.21875 -3.761719 15.007812 -5.300781 16.789062 -7.214844 C 18.570312 -9.128906 20.152344 -11.480469 21.484375 -14.136719 C 21.050781 -13.691406 20.621094 -13.242188 20.191406 -12.859375 C 19.757812 -12.472656 19.328125 -12.089844 18.894531 -11.769531 C 17.90625 -10.996094 16.914062 -10.351562 15.921875 -9.832031 C 14.929688 -9.3125 14.058594 -8.917969 13.1875 -8.652344 C 12.253906 -8.320312 11.441406 -8.179688 10.75 -8.289062 C 10.058594 -8.339844 9.675781 -8.648438 9.542969 -9.144531 C 9.34375 -9.644531 9.332031 -10.207031 9.570312 -10.964844 C 9.808594 -11.65625 10.167969 -12.480469 10.652344 -13.367188 C 11.074219 -14.191406 11.5625 -15.015625 12.109375 -15.839844 C 12.597656 -16.601562 13.148438 -17.363281 13.636719 -18.0625 C 14.125 -18.699219 14.492188 -19.207031 14.671875 -19.523438 L 22.472656 -31.269531 L 28.738281 -31.386719 L 30.523438 -33.238281 L 23.753906 -33.109375 L 26.921875 -37.871094 L 36.011719 -51.085938 C 35.257812 -51.195312 34.746094 -51.625 34.484375 -52.246094 C 34.160156 -52.867188 33.894531 -53.550781 33.753906 -54.363281 C 33.554688 -55.113281 33.351562 -55.859375 33.085938 -56.605469 C 32.820312 -57.355469 32.433594 -57.910156 31.800781 -58.273438 C 31.679688 -58.085938 31.558594 -57.832031 31.375 -57.578125 C 31.128906 -57.324219 30.886719 -56.941406 30.640625 -56.5625 L 28.507812 -53.386719 C 28.019531 -52.75 27.59375 -52.050781 27.167969 -51.355469 C 26.679688 -50.65625 26.191406 -49.957031 25.703125 -49.257812 C 25.152344 -48.496094 24.664062 -47.796875 24.179688 -47.035156 C 23.691406 -46.273438 23.140625 -45.511719 22.65625 -44.75 C 20.214844 -41.191406 17.53125 -37.253906 14.605469 -32.9375 L 9.59375 -32.839844 L 7.808594 -30.988281 L 13.324219 -31.09375 L 5.339844 -19.21875 L 3.261719 -16.296875 C 2.898438 -15.726562 2.53125 -15.15625 2.164062 -14.648438 C 1.800781 -14.136719 1.433594 -13.566406 1.128906 -13.058594 C 0.398438 -11.917969 -0.207031 -10.777344 -0.683594 -9.640625 C -1.226562 -8.5 -1.582031 -7.429688 -1.75 -6.296875 C -2.09375 -4.535156 -1.941406 -3.160156 -1.359375 -2.167969 C -0.773438 -1.175781 0.117188 -0.503906 1.375 -0.214844 Z M 1.375 -0.214844 "/></g></g></g></svg>