<svg width="61" height="37" viewBox="0 0 61 37" fill="none" xmlns="http://www.w3.org/2000/svg">
<g id="Iny">
<g id="Iny_2">
<g id="Group">
<g id="Group_2">
<g id="Group_3">
<path id="Vector" d="M15.9821 6.19872C16.4029 6.34359 17.0218 6.21443 17.7617 5.81475C18.0881 5.62974 18.4556 5.38539 18.782 5.07996C19.106 4.77627 19.43 4.47083 19.7105 4.1078C19.9934 3.74302 20.2327 3.40966 20.431 3.04663C20.5881 2.6836 20.7453 2.35198 20.8203 2.02037C20.9291 1.38855 20.7526 1.00108 20.3319 0.856221C19.8725 0.713102 19.2922 0.840513 18.5547 1.24194C17.8173 1.6713 17.1669 2.25075 16.5624 2.98031V2.94889C16.2384 3.31367 15.9991 3.67844 15.8419 4.03973C15.6436 4.40276 15.5276 4.73438 15.4937 5.00491C15.4188 5.30685 15.426 5.57738 15.5155 5.78508C15.6025 5.99452 15.7331 6.14287 15.9821 6.19872ZM2.09162 23.4078C2.76137 23.5789 3.59311 23.5981 4.67146 23.4619C5.74982 23.3275 6.90314 22.982 8.17976 22.4549C9.41286 21.9575 10.7258 21.2785 12.0338 20.3901C13.3419 19.5314 14.6427 18.4336 15.8564 17.156C15.53 17.3707 15.119 17.6168 14.587 17.924C14.014 18.2311 13.4386 18.5104 12.822 18.7582C12.1644 19.0375 11.5454 19.2557 10.9264 19.4442C10.2664 19.6344 9.7296 19.7321 9.31131 19.7077C8.6464 19.7164 8.26922 19.5419 8.25955 19.1806C8.24988 18.8507 8.36593 18.4598 8.68509 18.0042C8.96556 17.5801 9.28713 17.1857 9.69091 16.7598C10.056 16.3357 10.3389 16.0617 10.5009 15.8784L18.267 7.63863L12.4062 7.71892L2.77346 17.6656C1.96348 18.5174 1.35902 19.2766 1.00117 19.9119C0.645751 20.5769 0.452323 21.1197 0.464413 21.57C0.435399 22.05 0.570798 22.4688 0.868193 22.7638C1.16801 23.0605 1.59113 23.2944 2.09162 23.4078Z" fill="#8D5053"/>
</g>
</g>
</g>
<g id="Group_4">
<g id="Group_5">
<g id="Group_6">
<path id="Vector_2" d="M18.3079 12.4709L8.4939 23.47L14.2314 23.3915C16.5695 20.5972 18.5038 18.2898 20.0343 16.4084C21.5648 14.5269 22.8559 13.0381 23.9488 11.9123C25.0005 10.818 25.9362 10.0239 26.7559 9.56311C27.5755 9.13201 28.4 8.91035 29.2753 8.9278C29.8169 8.98016 30.1941 9.12503 30.3681 9.42348C30.5422 9.72019 30.4697 10.0518 30.0635 10.448L24.1494 16.3822C23.8255 16.6859 23.5015 17.0506 23.0953 17.4468C22.6915 17.8727 22.3699 18.2968 22.0483 18.7209C21.6857 19.1765 21.4076 19.6303 21.2118 20.0841C21.0159 20.5361 20.9434 20.9585 21.0377 21.3477C21.0909 21.7666 21.3061 22.1244 21.7316 22.4176C22.1547 22.7422 22.8269 22.9726 23.7457 23.1105C24.3308 23.2222 24.9957 23.2135 25.6582 23.1436C26.3207 23.0756 26.8985 22.9168 27.474 22.6392C28.0494 22.3914 28.6225 22.0231 29.2342 21.5938C29.8048 21.1662 30.4165 20.6775 31.0258 20.1591C31.5964 19.6704 32.1235 19.1835 32.6506 18.6668C33.1366 18.1799 33.6226 17.7226 34.0288 17.2967C33.7797 17.3892 33.4944 17.5446 33.2067 17.7278C33.0447 17.85 32.9214 17.9425 32.757 18.035C32.595 18.1258 32.4306 18.2183 32.3073 18.3108C31.9808 18.4958 31.652 18.6791 31.3232 18.8047C30.9944 18.9286 30.6631 18.9932 30.3295 18.9985C29.8314 19.0054 29.5775 18.8292 29.6089 18.4382C29.5993 18.1083 29.7951 17.6545 30.1965 17.0489C30.5567 16.5044 31.0379 15.897 31.6012 15.1988C32.167 14.5304 32.7304 13.8619 33.2962 13.1952C33.8184 12.5564 34.3044 11.9804 34.7058 11.4341C35.1071 10.9192 35.3465 10.5248 35.4214 10.2543C35.4916 9.71321 35.4795 9.29258 35.303 8.93479C35.1289 8.57699 34.9113 8.28028 34.5728 8.04466C33.8136 7.57516 32.9746 7.31685 32.0582 7.23831C31.1419 7.16151 30.1868 7.23482 29.2777 7.48789C28.3299 7.74097 27.4232 8.11273 26.5238 8.63633C25.6219 9.18786 24.8482 9.79873 24.1204 10.53C24.4299 9.68528 24.5363 9.0238 24.3985 8.51416C24.2607 8.03593 23.8375 7.7113 23.1267 7.542C22.6262 7.45822 22.0024 7.49662 21.2577 7.65719C20.4719 7.81776 19.5241 8.1616 18.4578 8.65553L18.3297 8.53859C19.0139 9.24895 19.321 9.9052 19.3355 10.4759C19.3041 10.7761 19.188 11.1077 19.0284 11.4097C18.8302 11.743 18.5908 12.1061 18.3079 12.4709Z" fill="#8D5053"/>
</g>
</g>
</g>
<g id="Group_7">
<g id="Group_8">
<g id="Group_9">
<path id="Vector_3" d="M28.7141 36.6989C29.7901 36.5035 30.9047 36.1282 32.0507 35.5121C33.1992 34.896 34.3453 34.1595 35.4841 33.2432C36.6253 32.3583 37.6408 31.4734 38.6152 30.5902C39.5896 29.7053 40.4407 28.8536 41.2095 28.063C41.5746 27.6982 41.8986 27.3631 42.1815 27.0594C42.4644 26.7557 42.7086 26.5114 42.9528 26.2984C43.7217 25.5078 44.5317 24.6857 45.3392 23.834C46.1492 22.9823 46.9592 22.1305 47.7667 21.2195C49.3819 19.4567 50.9172 17.755 52.3703 16.1143C53.8234 14.4737 55.2379 12.8924 56.529 11.4351C57.177 10.7055 57.7815 10.037 58.3472 9.42792C58.9154 8.82054 59.399 8.24457 59.8826 7.69653L54.0217 7.77682C53.3737 8.44703 52.7693 9.1155 52.1213 9.78397C51.4733 10.4542 50.8664 11.1226 50.2595 11.7614C49.6116 12.4299 49.0047 13.0687 48.3591 13.7372C47.7111 14.4074 47.1043 15.0759 46.4974 15.7443L45.4069 16.8997C44.9209 17.3867 44.4325 17.8143 43.903 18.2105C43.3324 18.6399 42.7159 18.9784 42.1404 19.2263C41.5263 19.5038 40.946 19.6033 40.3633 19.5509C40.0707 19.5544 39.9015 19.4061 39.8531 19.1373C39.7637 18.9592 39.8797 18.6259 40.2013 18.1424C40.5205 17.6572 41.004 17.0498 41.6496 16.3517C42.2541 15.6536 42.8609 14.9537 43.5065 14.2555C44.1134 13.5871 44.6381 12.9483 45.1192 12.3426C45.6028 11.7353 45.8808 11.2815 45.9558 10.9202C46.0646 10.318 46.009 9.83807 45.8325 9.42093C45.656 9.00205 45.3562 8.67742 44.9766 8.4418C44.5099 8.17825 43.9659 8.03513 43.3832 7.98277C42.8005 7.93215 42.1791 8.00022 41.5577 8.12938C41.8551 8.365 42.0679 8.5727 42.1573 8.75072C42.2444 8.96016 42.2081 9.16961 42.1307 9.38079C42.0123 9.6234 41.8116 9.89567 41.5698 10.1697C41.2869 10.4734 40.9629 10.7788 40.6389 11.1436V11.1733L33.5087 18.2035C33.2621 18.3868 33.0614 18.6311 32.8196 18.9034C32.5778 19.1774 32.3361 19.4811 32.1354 19.7831C31.4995 20.8721 31.3955 21.6855 31.7437 22.2196C31.9178 22.518 32.1741 22.785 32.5101 22.9596C32.8486 23.1655 33.2258 23.3104 33.6852 23.3942C34.1059 23.5076 34.604 23.5321 35.1432 23.4937C35.6437 23.4867 36.1804 23.3907 36.6737 23.2022C37.665 22.8898 38.6515 22.4552 39.5509 21.9333C40.4528 21.4097 41.27 20.8582 42.0026 20.2787C42.653 19.7289 43.1825 19.331 43.5935 19.0867L38.9368 23.8323C35.958 24.4135 33.5643 25.1064 31.6736 25.9424C29.7006 26.8098 28.2281 27.7017 27.2102 28.5552C26.1536 29.4401 25.4259 30.2604 24.9882 31.0178C24.5119 31.8032 24.2387 32.5276 24.1734 33.2187C24.1081 33.9099 24.2073 34.5103 24.5143 35.0461C24.6038 35.3446 24.819 35.6116 25.0753 35.849C25.3316 36.0846 25.6265 36.2905 25.965 36.4668C26.3011 36.6413 26.7194 36.7269 27.1788 36.7792C27.6382 36.8333 28.1363 36.8264 28.7141 36.6989ZM28.1411 32.2937C27.556 32.182 27.2175 31.9464 27.2078 31.5868C27.1981 31.2273 27.3118 30.8346 27.6333 30.4105C27.9138 30.016 28.2789 29.6216 28.6851 29.2254C29.0889 28.8292 29.4975 28.4941 29.865 28.2497C31.0087 27.5132 32.2804 26.8953 33.6828 26.3962C35.0827 25.8953 36.444 25.4572 37.8052 25.0784L37.8487 25.1081L36.8357 26.1728C36.5939 26.4154 36.3521 26.6894 36.1079 26.932C35.8661 27.206 35.5808 27.48 35.2979 27.754C34.7321 28.3318 34.1228 28.9112 33.4724 29.4907C32.8245 30.0998 32.2127 30.6182 31.601 31.0458C30.9482 31.5048 30.2906 31.8451 29.7151 32.093C29.1397 32.3408 28.6029 32.4089 28.1411 32.2937Z" fill="#8D5053"/>
</g>
</g>
</g>
</g>
<g id="Iny_3">
<g id="Group_10">
<g id="Group_11">
<g id="Group_12">
<path id="Vector_4" d="M16.9713 5.78497C17.392 5.92983 18.011 5.80067 18.7509 5.40099C19.0773 5.21598 19.4448 4.97164 19.7712 4.6662C20.0952 4.36251 20.4192 4.05707 20.6997 3.69404C20.9825 3.32927 21.2219 2.9959 21.4202 2.63287C21.5773 2.26984 21.7345 1.93822 21.8095 1.60661C21.9183 0.974794 21.7418 0.587327 21.321 0.442463C20.8617 0.299345 20.2814 0.426756 19.5439 0.828185C18.8065 1.25754 18.1561 1.837 17.5516 2.56655V2.53513C17.2276 2.89991 16.9883 3.26469 16.8311 3.62597C16.6328 3.98901 16.5168 4.32062 16.4829 4.59115C16.408 4.89309 16.4152 5.16362 16.5047 5.37132C16.5917 5.58076 16.7223 5.72912 16.9713 5.78497ZM3.08082 22.9941C3.75056 23.1651 4.5823 23.1843 5.66066 23.0482C6.73902 22.9138 7.89233 22.5682 9.16896 22.0411C10.4021 21.5437 11.7149 20.8648 13.023 19.9764C14.3311 19.1177 15.6319 18.0198 16.8456 16.7422C16.5192 16.9569 16.1082 17.203 15.5762 17.5102C15.0032 17.8174 14.4278 18.0966 13.8112 18.3445C13.1536 18.6237 12.5346 18.8419 11.9156 19.0304C11.2556 19.2206 10.7188 19.3184 10.3005 19.2939C9.6356 19.3027 9.25842 19.1281 9.24874 18.7668C9.23907 18.437 9.35513 18.046 9.67428 17.5905C9.95476 17.1664 10.2763 16.7719 10.6801 16.3461C11.0452 15.9219 11.3281 15.6479 11.4901 15.4647L19.2562 7.22488L13.3953 7.30516L3.76265 17.2519C2.95267 18.1036 2.34821 18.8628 1.99037 19.4981C1.63495 20.1631 1.44152 20.7059 1.45361 21.1562C1.4246 21.6362 1.56 22.0551 1.85739 22.35C2.1572 22.6468 2.58033 22.8806 3.08082 22.9941Z" fill="#216B39"/>
</g>
</g>
</g>
<g id="Group_13">
<g id="Group_14">
<g id="Group_15">
<path id="Vector_5" d="M19.2971 12.0571L9.48309 23.0563L15.2206 22.9778C17.5587 20.1835 19.493 17.8761 21.0235 15.9946C22.554 14.1131 23.8451 12.6244 24.938 11.4986C25.9897 10.4043 26.9254 9.61015 27.7451 9.14938C28.5647 8.71828 29.3892 8.49662 30.2645 8.51408C30.8061 8.56644 31.1833 8.7113 31.3573 9.00976C31.5314 9.30646 31.4589 9.63808 31.0527 10.0343L25.1386 15.9684C24.8147 16.2721 24.4907 16.6369 24.0845 17.0331C23.6807 17.459 23.3591 17.8831 23.0375 18.3072C22.6749 18.7627 22.3968 19.2165 22.201 19.6703C22.0051 20.1224 21.9326 20.5447 22.0269 20.934C22.0801 21.3528 22.2953 21.7106 22.7208 22.0039C23.1439 22.3285 23.8161 22.5589 24.7349 22.6968C25.32 22.8085 25.9849 22.7997 26.6474 22.7299C27.3099 22.6619 27.8877 22.503 28.4632 22.2255C29.0386 21.9777 29.6117 21.6094 30.2234 21.1801C30.794 20.7524 31.4057 20.2637 32.015 19.7454C32.5856 19.2567 33.1127 18.7697 33.6398 18.2531C34.1258 17.7662 34.6118 17.3089 35.018 16.883C34.7689 16.9755 34.4836 17.1309 34.1959 17.3141C34.0339 17.4363 33.9106 17.5288 33.7462 17.6213C33.5842 17.7121 33.4198 17.8046 33.2965 17.8971C32.97 18.0821 32.6412 18.2653 32.3124 18.391C31.9836 18.5149 31.6523 18.5795 31.3187 18.5847C30.8206 18.5917 30.5667 18.4154 30.5981 18.0245C30.5885 17.6946 30.7843 17.2408 31.1857 16.6352C31.5459 16.0906 32.0271 15.4832 32.5904 14.7851C33.1562 14.1166 33.7196 13.4482 34.2854 12.7814C34.8076 12.1427 35.2936 11.5667 35.695 11.0204C36.0963 10.5055 36.3357 10.1111 36.4106 9.84054C36.4808 9.29948 36.4687 8.87885 36.2922 8.52106C36.1181 8.16326 35.9005 7.86655 35.562 7.63093C34.8028 7.16143 33.9638 6.90312 33.0474 6.82458C32.1311 6.74779 31.176 6.82109 30.2669 7.07417C29.3191 7.32724 28.4124 7.699 27.513 8.2226C26.6111 8.77413 25.8374 9.38501 25.1096 10.1163C25.4191 9.27156 25.5255 8.61007 25.3877 8.10043C25.2499 7.62221 24.8267 7.29757 24.1159 7.12827C23.6154 7.0445 22.9916 7.08289 22.2469 7.24347C21.4611 7.40404 20.5133 7.74787 19.447 8.2418L19.3189 8.12487C20.0031 8.83522 20.3102 9.49147 20.3247 10.0622C20.2933 10.3624 20.1772 10.694 20.0176 10.996C19.8194 11.3293 19.58 11.6924 19.2971 12.0571Z" fill="#216B39"/>
</g>
</g>
</g>
<g id="Group_16">
<g id="Group_17">
<g id="Group_18">
<path id="Vector_6" d="M29.7033 36.2852C30.7792 36.0897 31.8938 35.7145 33.0399 35.0984C34.1884 34.4822 35.3344 33.7457 36.4732 32.8294C37.6145 31.9445 38.6299 31.0596 39.6043 30.1765C40.5787 29.2916 41.4298 28.4399 42.1987 27.6492C42.5638 27.2844 42.8878 26.9493 43.1707 26.6456C43.4535 26.342 43.6978 26.0976 43.942 25.8847C44.7108 25.094 45.5208 24.272 46.3284 23.4202C47.1383 22.5685 47.9483 21.7168 48.7559 20.8057C50.371 19.0429 51.9063 17.3412 53.3595 15.7006C54.8126 14.06 56.227 12.4787 57.5182 11.0213C58.1661 10.2918 58.7706 9.62328 59.3364 9.01416C59.9046 8.40678 60.3881 7.83081 60.8717 7.28278L55.0109 7.36306C54.3629 8.03327 53.7584 8.70174 53.1104 9.37021C52.4624 10.0404 51.8556 10.7089 51.2487 11.3477C50.6007 12.0162 49.9938 12.655 49.3483 13.3234C48.7003 13.9936 48.0934 14.6621 47.4865 15.3306L46.3961 16.486C45.9101 16.9729 45.4217 17.4005 44.8922 17.7967C44.3216 18.2261 43.705 18.5647 43.1296 18.8125C42.5154 19.09 41.9351 19.1895 41.3524 19.1372C41.0599 19.1407 40.8906 18.9923 40.8423 18.7235C40.7528 18.5455 40.8689 18.2121 41.1904 17.7287C41.5096 17.2435 41.9932 16.6361 42.6387 15.9379C43.2432 15.2398 43.8501 14.5399 44.4956 13.8418C45.1025 13.1733 45.6272 12.5345 46.1083 11.9289C46.5919 11.3215 46.87 10.8677 46.9449 10.5064C47.0537 9.90428 46.9981 9.42432 46.8216 9.00718C46.6451 8.58829 46.3453 8.26366 45.9657 8.02804C45.499 7.76449 44.955 7.62137 44.3723 7.56901C43.7896 7.5184 43.1682 7.58647 42.5469 7.71562C42.8443 7.95124 43.057 8.15894 43.1465 8.33696C43.2335 8.54641 43.1973 8.75585 43.1199 8.96703C43.0014 9.20964 42.8007 9.48191 42.5589 9.75593C42.2761 10.0596 41.9521 10.3651 41.6281 10.7298V10.7595L34.4978 17.7898C34.2512 17.973 34.0505 18.2174 33.8088 18.4896C33.567 18.7637 33.3252 19.0674 33.1245 19.3693C32.4886 20.4584 32.3847 21.2717 32.7328 21.8058C32.9069 22.1043 33.1632 22.3713 33.4993 22.5458C33.8378 22.7518 34.215 22.8966 34.6743 22.9804C35.0951 23.0939 35.5931 23.1183 36.1323 23.0799C36.6328 23.0729 37.1696 22.9769 37.6628 22.7884C38.6541 22.476 39.6406 22.0414 40.54 21.5196C41.4419 20.996 42.2591 20.4444 42.9917 19.865C43.6421 19.3152 44.1716 18.9173 44.5827 18.6729L39.9259 23.4185C36.9471 23.9997 34.5535 24.6926 32.6627 25.5286C30.6897 26.3961 29.2173 27.2879 28.1994 28.1414C27.1428 29.0263 26.415 29.8466 25.9774 30.6041C25.501 31.3895 25.2278 32.1138 25.1625 32.805C25.0973 33.4961 25.1964 34.0965 25.5035 34.6323C25.5929 34.9308 25.8081 35.1978 26.0644 35.4352C26.3207 35.6708 26.6157 35.8768 26.9542 36.0531C27.2902 36.2276 27.7085 36.3131 28.1679 36.3655C28.6273 36.4196 29.1254 36.4126 29.7033 36.2852ZM29.1302 31.8799C28.5451 31.7682 28.2066 31.5326 28.1969 31.1731C28.1873 30.8135 28.3009 30.4208 28.6225 29.9967C28.903 29.6023 29.268 29.2078 29.6742 28.8116C30.078 28.4154 30.4866 28.0803 30.8542 27.836C31.9978 27.0994 33.2696 26.4816 34.6719 25.9824C36.0719 25.4815 37.4331 25.0434 38.7944 24.6647L38.8379 24.6943L37.8248 25.759C37.583 26.0016 37.3412 26.2756 37.097 26.5182C36.8552 26.7923 36.5699 27.0663 36.2871 27.3403C35.7213 27.918 35.112 28.4975 34.4616 29.0769C33.8136 29.686 33.2019 30.2044 32.5902 30.632C31.9373 31.091 31.2797 31.4314 30.7042 31.6792C30.1288 31.9271 29.592 31.9951 29.1302 31.8799Z" fill="#216B39"/>
</g>
</g>
</g>
</g>
</g>
</svg>
