<svg xmlns="http://www.w3.org/2000/svg" xmlns:xlink="http://www.w3.org/1999/xlink" width="500" zoomAndPan="magnify" viewBox="0 0 375 374.999991" height="500" preserveAspectRatio="xMidYMid meet" version="1.0"><defs><g/><clipPath id="d002ef8e27"><path d="M 51.480469 67.949219 L 208.976562 67.949219 L 208.976562 202.140625 L 51.480469 202.140625 Z M 51.480469 67.949219 " clip-rule="nonzero"/></clipPath></defs><g clip-path="url(#d002ef8e27)"><path fill="#216b39" d="M 208.976562 133.105469 C 208.976562 133.105469 186.238281 147.503906 169.65625 138.027344 C 153.070312 128.554688 142.023438 111.4375 137.277344 112.285156 C 134.53125 112.777344 128.578125 119.234375 127.835938 120.171875 C 127.078125 121.136719 126.160156 122.308594 125.15625 123.691406 C 124.140625 125.066406 123.035156 126.648438 121.863281 128.390625 C 121.289062 129.269531 120.671875 130.175781 120.074219 131.140625 C 119.773438 131.617188 119.464844 132.105469 119.15625 132.597656 C 118.855469 133.101562 118.546875 133.605469 118.238281 134.125 C 117.605469 135.144531 117.011719 136.230469 116.382812 137.324219 C 115.773438 138.425781 115.15625 139.558594 114.550781 140.71875 C 113.96875 141.890625 113.339844 143.0625 112.78125 144.289062 C 112.492188 144.894531 112.203125 145.507812 111.914062 146.121094 C 111.640625 146.746094 111.367188 147.367188 111.089844 147.996094 C 110.523438 149.246094 110.039062 150.539062 109.519531 151.820312 C 109.25 152.460938 109.03125 153.117188 108.792969 153.769531 L 108.089844 155.726562 L 107.457031 157.707031 C 107.25 158.367188 107.027344 159.019531 106.855469 159.6875 C 106.496094 161.019531 106.09375 162.332031 105.8125 163.660156 C 105.660156 164.324219 105.507812 164.980469 105.355469 165.636719 C 105.210938 166.292969 105.109375 166.953125 104.984375 167.605469 C 104.867188 168.261719 104.734375 168.90625 104.632812 169.554688 C 104.546875 170.199219 104.460938 170.84375 104.375 171.484375 C 104.296875 172.121094 104.183594 172.75 104.140625 173.378906 C 104.089844 174.007812 104.039062 174.628906 103.988281 175.246094 C 103.859375 176.472656 103.855469 177.679688 103.824219 178.851562 C 103.816406 179.4375 103.769531 180.015625 103.796875 180.585938 C 103.816406 181.152344 103.835938 181.710938 103.855469 182.261719 C 103.871094 182.8125 103.890625 183.351562 103.90625 183.882812 C 103.957031 184.410156 104.007812 184.925781 104.054688 185.433594 C 104.101562 185.9375 104.148438 186.433594 104.195312 186.917969 C 104.222656 187.160156 104.238281 187.402344 104.269531 187.636719 C 104.304688 187.871094 104.34375 188.101562 104.382812 188.332031 C 104.53125 189.242188 104.667969 190.109375 104.800781 190.921875 C 104.851562 191.332031 104.96875 191.714844 105.046875 192.09375 C 105.136719 192.464844 105.21875 192.828125 105.300781 193.171875 C 105.464844 193.867188 105.597656 194.507812 105.75 195.074219 C 106.4375 197.328125 106.835938 198.617188 106.835938 198.617188 L 106.886719 198.785156 C 107.304688 200.15625 106.535156 201.605469 105.160156 202.027344 C 103.789062 202.445312 102.335938 201.671875 101.914062 200.304688 C 101.90625 200.269531 101.894531 200.226562 101.882812 200.191406 C 101.882812 200.191406 101.515625 198.765625 100.875 196.269531 C 100.734375 195.640625 100.621094 194.9375 100.476562 194.175781 C 100.40625 193.792969 100.332031 193.398438 100.257812 192.988281 C 100.1875 192.574219 100.085938 192.152344 100.046875 191.707031 C 99.945312 190.820312 99.835938 189.875 99.722656 188.878906 C 99.691406 188.628906 99.664062 188.375 99.632812 188.121094 C 99.613281 187.867188 99.605469 187.605469 99.589844 187.34375 C 99.566406 186.820312 99.539062 186.285156 99.507812 185.734375 C 99.484375 185.1875 99.457031 184.628906 99.429688 184.058594 C 99.433594 183.488281 99.441406 182.910156 99.449219 182.320312 C 99.457031 181.730469 99.464844 181.132812 99.472656 180.523438 C 99.472656 179.914062 99.546875 179.300781 99.582031 178.675781 C 99.671875 177.429688 99.738281 176.144531 99.933594 174.851562 C 100.015625 174.199219 100.097656 173.546875 100.183594 172.882812 C 100.257812 172.21875 100.410156 171.5625 100.519531 170.890625 C 100.640625 170.226562 100.761719 169.554688 100.882812 168.875 C 101.023438 168.203125 101.191406 167.53125 101.34375 166.851562 C 101.507812 166.171875 101.648438 165.488281 101.828125 164.808594 C 102.015625 164.132812 102.207031 163.453125 102.398438 162.769531 C 102.753906 161.398438 103.234375 160.050781 103.667969 158.691406 C 103.878906 158.007812 104.140625 157.339844 104.386719 156.667969 L 105.132812 154.652344 L 105.949219 152.664062 C 106.226562 152.003906 106.480469 151.339844 106.785156 150.691406 C 107.378906 149.398438 107.941406 148.097656 108.578125 146.84375 C 108.890625 146.210938 109.199219 145.585938 109.507812 144.960938 C 109.832031 144.347656 110.15625 143.734375 110.480469 143.128906 C 111.105469 141.902344 111.800781 140.734375 112.449219 139.570312 C 113.121094 138.417969 113.800781 137.292969 114.472656 136.199219 C 115.164062 135.117188 115.816406 134.042969 116.503906 133.035156 C 116.839844 132.527344 117.175781 132.023438 117.503906 131.53125 C 117.84375 131.042969 118.175781 130.566406 118.503906 130.09375 C 119.148438 129.144531 119.816406 128.257812 120.4375 127.394531 C 121.707031 125.683594 122.894531 124.136719 123.984375 122.792969 C 125.0625 121.441406 126.046875 120.296875 126.855469 119.359375 C 127.542969 118.566406 128.121094 117.925781 128.558594 117.453125 C 128.558594 117.453125 127.164062 109.503906 124.992188 106.933594 C 121.234375 102.492188 102.972656 108.558594 83.644531 103.726562 C 64.316406 98.894531 51.480469 68.75 51.480469 68.75 C 51.480469 68.75 66.421875 68.753906 84.5 67.976562 C 107.707031 66.980469 122.589844 96.175781 126.207031 104.808594 C 128.371094 109.96875 129.332031 113.773438 129.757812 115.996094 C 131.042969 114.578125 133.421875 112.3125 137.289062 109.824219 C 143.757812 105.660156 167.613281 93.386719 184.570312 109.988281 C 197.777344 122.917969 208.976562 133.105469 208.976562 133.105469 " fill-opacity="1" fill-rule="nonzero"/></g><path fill="#2d9d49" d="M 153.886719 119.027344 C 153.816406 118.878906 153.734375 118.710938 153.640625 118.527344 C 153.546875 118.347656 153.472656 118.136719 153.382812 117.921875 C 153.292969 117.707031 153.214844 117.472656 153.140625 117.226562 C 153.054688 116.988281 152.992188 116.730469 152.929688 116.472656 C 152.855469 116.214844 152.8125 115.945312 152.757812 115.679688 C 152.65625 115.144531 152.589844 114.605469 152.550781 114.097656 C 152.511719 113.589844 152.5 113.117188 152.5 112.710938 C 152.503906 111.894531 152.570312 111.359375 152.570312 111.359375 L 152.371094 111.339844 C 152.371094 111.339844 152.316406 111.890625 152.335938 112.710938 C 152.339844 113.121094 152.367188 113.597656 152.414062 114.109375 C 152.46875 114.621094 152.546875 115.164062 152.660156 115.699219 C 152.71875 115.964844 152.769531 116.234375 152.847656 116.492188 C 152.921875 116.753906 152.988281 117.007812 153.078125 117.25 C 153.164062 117.492188 153.242188 117.726562 153.339844 117.9375 C 153.4375 118.15625 153.511719 118.363281 153.613281 118.542969 C 153.707031 118.722656 153.796875 118.890625 153.871094 119.039062 C 153.960938 119.179688 154.039062 119.300781 154.101562 119.402344 C 154.230469 119.605469 154.300781 119.71875 154.300781 119.71875 C 154.300781 119.71875 154.230469 119.601562 154.109375 119.394531 C 154.046875 119.296875 153.972656 119.171875 153.886719 119.027344 Z M 175.765625 134.152344 L 175.898438 134.007812 C 175.902344 134.003906 175.847656 134.035156 175.800781 134.03125 C 175.78125 134.027344 175.765625 134.011719 175.75 133.996094 C 175.769531 134.011719 175.78125 134.027344 175.785156 134.046875 C 175.792969 134.09375 175.761719 134.15625 175.765625 134.152344 Z M 175.707031 133.949219 C 175.722656 133.964844 175.738281 133.980469 175.75 133.996094 C 175.738281 133.980469 175.722656 133.964844 175.707031 133.949219 Z M 200.257812 132.390625 C 198.308594 132.304688 195.527344 131.949219 192.320312 131.023438 C 192.101562 130.957031 191.878906 130.886719 191.65625 130.820312 C 191.703125 130.773438 191.757812 130.71875 191.824219 130.648438 C 191.921875 130.554688 192.027344 130.429688 192.183594 130.324219 C 192.335938 130.21875 192.492188 130.078125 192.6875 129.957031 C 192.886719 129.839844 193.097656 129.707031 193.328125 129.582031 C 193.570312 129.472656 193.816406 129.339844 194.082031 129.234375 C 194.355469 129.136719 194.628906 129.007812 194.917969 128.921875 C 195.210938 128.832031 195.503906 128.730469 195.804688 128.660156 C 196.101562 128.578125 196.402344 128.503906 196.699219 128.445312 C 196.996094 128.375 197.292969 128.328125 197.578125 128.273438 C 198.152344 128.175781 198.691406 128.105469 199.152344 128.054688 C 200.078125 127.960938 200.699219 127.945312 200.699219 127.945312 C 200.699219 127.945312 200.078125 127.949219 199.148438 128.027344 C 198.6875 128.066406 198.144531 128.125 197.570312 128.210938 C 197.28125 128.257812 196.984375 128.300781 196.683594 128.363281 C 196.382812 128.421875 196.082031 128.484375 195.777344 128.5625 C 195.476562 128.628906 195.175781 128.726562 194.882812 128.8125 C 194.585938 128.890625 194.308594 129.011719 194.035156 129.109375 C 193.757812 129.210938 193.503906 129.339844 193.257812 129.445312 C 193.019531 129.566406 192.800781 129.699219 192.597656 129.816406 C 192.394531 129.933594 192.226562 130.074219 192.070312 130.1875 C 191.910156 130.289062 191.792969 130.414062 191.695312 130.511719 C 191.578125 130.621094 191.496094 130.703125 191.441406 130.753906 C 188.460938 129.816406 185.183594 128.382812 181.925781 126.433594 C 181.753906 126.332031 181.585938 126.222656 181.414062 126.121094 C 181.511719 125.984375 181.808594 125.605469 182.292969 125.136719 C 182.441406 124.988281 182.609375 124.835938 182.792969 124.683594 C 182.96875 124.519531 183.175781 124.375 183.382812 124.210938 C 183.601562 124.066406 183.8125 123.898438 184.050781 123.761719 C 184.289062 123.621094 184.527344 123.472656 184.78125 123.355469 C 184.90625 123.296875 185.03125 123.226562 185.15625 123.171875 C 185.289062 123.121094 185.417969 123.066406 185.542969 123.015625 C 185.796875 122.902344 186.058594 122.835938 186.3125 122.757812 C 186.558594 122.671875 186.8125 122.632812 187.046875 122.582031 C 187.164062 122.5625 187.28125 122.535156 187.390625 122.515625 C 187.503906 122.503906 187.613281 122.492188 187.71875 122.484375 C 187.929688 122.464844 188.121094 122.433594 188.292969 122.433594 C 188.460938 122.433594 188.613281 122.433594 188.734375 122.4375 C 188.980469 122.4375 189.121094 122.4375 189.121094 122.4375 C 189.121094 122.4375 188.980469 122.433594 188.734375 122.429688 C 188.613281 122.425781 188.460938 122.421875 188.289062 122.417969 C 188.117188 122.414062 187.925781 122.4375 187.714844 122.453125 C 187.609375 122.460938 187.5 122.46875 187.386719 122.476562 C 187.273438 122.492188 187.15625 122.519531 187.039062 122.539062 C 186.800781 122.582031 186.546875 122.613281 186.292969 122.695312 C 186.039062 122.769531 185.773438 122.832031 185.515625 122.941406 C 185.382812 122.988281 185.253906 123.039062 185.121094 123.089844 C 184.992188 123.144531 184.867188 123.207031 184.738281 123.265625 C 184.480469 123.378906 184.234375 123.523438 183.992188 123.660156 C 183.746094 123.792969 183.527344 123.957031 183.300781 124.101562 C 183.089844 124.261719 182.878906 124.40625 182.695312 124.566406 C 182.507812 124.71875 182.332031 124.867188 182.175781 125.015625 C 181.65625 125.492188 181.339844 125.890625 181.246094 126.015625 C 179.683594 125.050781 178.132812 123.980469 176.625 122.8125 C 175.746094 122.152344 174.902344 121.425781 174.050781 120.703125 C 174.050781 120.691406 174.050781 120.683594 174.054688 120.671875 C 174.066406 120.605469 174.085938 120.511719 174.117188 120.386719 C 174.152344 120.265625 174.191406 120.117188 174.257812 119.953125 C 174.316406 119.789062 174.402344 119.605469 174.5 119.414062 C 174.601562 119.21875 174.726562 119.015625 174.871094 118.816406 C 174.945312 118.714844 175.023438 118.613281 175.105469 118.507812 C 175.191406 118.410156 175.289062 118.316406 175.382812 118.214844 C 175.558594 118.003906 175.800781 117.851562 176.015625 117.660156 C 176.261719 117.515625 176.5 117.335938 176.765625 117.210938 C 177.03125 117.09375 177.289062 116.945312 177.570312 116.871094 C 177.847656 116.785156 178.113281 116.671875 178.386719 116.632812 C 178.660156 116.582031 178.917969 116.515625 179.167969 116.480469 C 179.421875 116.457031 179.660156 116.433594 179.878906 116.414062 C 180.101562 116.386719 180.304688 116.386719 180.484375 116.390625 C 180.664062 116.390625 180.824219 116.390625 180.953125 116.390625 C 181.210938 116.390625 181.359375 116.390625 181.359375 116.390625 C 181.359375 116.390625 181.210938 116.386719 180.953125 116.378906 C 180.824219 116.378906 180.664062 116.375 180.484375 116.371094 C 180.304688 116.363281 180.101562 116.359375 179.878906 116.382812 C 179.65625 116.402344 179.417969 116.417969 179.164062 116.4375 C 178.910156 116.460938 178.648438 116.527344 178.375 116.570312 C 178.097656 116.605469 177.824219 116.710938 177.542969 116.792969 C 177.257812 116.863281 176.996094 117.007812 176.71875 117.121094 C 176.445312 117.242188 176.203125 117.417969 175.949219 117.566406 C 175.722656 117.753906 175.472656 117.910156 175.285156 118.117188 C 175.1875 118.21875 175.085938 118.3125 174.996094 118.414062 C 174.910156 118.519531 174.828125 118.625 174.746094 118.722656 C 174.59375 118.929688 174.460938 119.136719 174.351562 119.332031 C 174.246094 119.53125 174.15625 119.714844 174.089844 119.886719 C 174.015625 120.058594 173.972656 120.210938 173.933594 120.339844 C 173.910156 120.425781 173.894531 120.492188 173.878906 120.558594 C 173.09375 119.890625 172.296875 119.226562 171.449219 118.621094 C 168.664062 116.566406 165.582031 114.941406 162.484375 113.71875 C 162.507812 113.636719 162.550781 113.496094 162.625 113.289062 C 162.738281 112.972656 162.917969 112.515625 163.183594 111.992188 C 163.453125 111.46875 163.800781 110.875 164.261719 110.300781 C 164.484375 110.011719 164.746094 109.734375 165.019531 109.464844 C 165.300781 109.203125 165.597656 108.945312 165.925781 108.730469 C 166.246094 108.507812 166.59375 108.320312 166.945312 108.160156 C 167.300781 108.011719 167.660156 107.882812 168.019531 107.804688 C 168.199219 107.757812 168.375 107.722656 168.550781 107.703125 C 168.726562 107.671875 168.898438 107.648438 169.066406 107.644531 C 169.402344 107.609375 169.726562 107.625 170.019531 107.632812 C 170.3125 107.664062 170.585938 107.675781 170.820312 107.722656 C 171.058594 107.765625 171.265625 107.789062 171.429688 107.835938 C 171.765625 107.917969 171.960938 107.964844 171.960938 107.964844 C 171.960938 107.964844 171.765625 107.914062 171.433594 107.828125 C 171.269531 107.78125 171.058594 107.75 170.824219 107.703125 C 170.585938 107.652344 170.316406 107.640625 170.019531 107.601562 C 169.726562 107.59375 169.402344 107.570312 169.0625 107.597656 C 168.894531 107.601562 168.71875 107.621094 168.542969 107.648438 C 168.363281 107.664062 168.1875 107.699219 168.003906 107.742188 C 167.640625 107.816406 167.273438 107.941406 166.910156 108.085938 C 166.550781 108.242188 166.199219 108.425781 165.871094 108.648438 C 165.535156 108.863281 165.230469 109.117188 164.9375 109.378906 C 164.65625 109.648438 164.386719 109.925781 164.15625 110.21875 C 163.679688 110.792969 163.316406 111.386719 163.035156 111.914062 C 162.59375 112.757812 162.371094 113.414062 162.300781 113.648438 C 161.445312 113.316406 160.589844 113.007812 159.738281 112.738281 C 156.699219 111.777344 153.726562 111.195312 151.007812 110.851562 C 151.039062 110.800781 151.082031 110.734375 151.140625 110.640625 C 151.199219 110.546875 151.273438 110.425781 151.355469 110.289062 C 151.441406 110.15625 151.53125 110 151.644531 109.839844 C 151.757812 109.679688 151.882812 109.507812 152.011719 109.324219 C 152.136719 109.136719 152.285156 108.953125 152.441406 108.765625 C 152.601562 108.582031 152.75 108.371094 152.933594 108.195312 C 153.117188 108.011719 153.285156 107.808594 153.488281 107.644531 C 153.6875 107.476562 153.871094 107.285156 154.085938 107.144531 C 154.191406 107.070312 154.292969 106.996094 154.398438 106.921875 C 154.5 106.851562 154.613281 106.792969 154.714844 106.730469 C 154.921875 106.597656 155.148438 106.515625 155.351562 106.417969 C 155.5625 106.347656 155.761719 106.269531 155.957031 106.238281 C 156.148438 106.191406 156.328125 106.179688 156.488281 106.167969 C 156.648438 106.164062 156.785156 106.167969 156.898438 106.183594 C 157.128906 106.207031 157.253906 106.253906 157.253906 106.253906 C 157.253906 106.253906 157.128906 106.203125 156.902344 106.171875 C 156.789062 106.15625 156.648438 106.152344 156.488281 106.148438 C 156.328125 106.160156 156.144531 106.164062 155.953125 106.210938 C 155.753906 106.234375 155.550781 106.3125 155.335938 106.375 C 155.125 106.46875 154.898438 106.546875 154.6875 106.675781 C 154.578125 106.738281 154.464844 106.792969 154.355469 106.859375 C 154.253906 106.933594 154.144531 107.007812 154.039062 107.078125 C 153.816406 107.21875 153.625 107.402344 153.421875 107.566406 C 153.214844 107.734375 153.039062 107.933594 152.847656 108.113281 C 152.65625 108.289062 152.503906 108.496094 152.339844 108.679688 C 152.171875 108.863281 152.019531 109.046875 151.890625 109.234375 C 151.753906 109.414062 151.625 109.585938 151.507812 109.746094 C 151.386719 109.902344 151.292969 110.0625 151.203125 110.195312 C 151.117188 110.328125 151.039062 110.445312 150.976562 110.542969 C 150.878906 110.691406 150.8125 110.792969 150.789062 110.828125 C 150.003906 110.734375 149.238281 110.652344 148.5 110.597656 C 146.828125 110.460938 145.289062 110.433594 143.925781 110.441406 C 142.566406 110.449219 141.378906 110.507812 140.40625 110.582031 C 138.457031 110.726562 137.355469 110.921875 137.355469 110.921875 C 137.355469 110.921875 138.460938 110.75 140.410156 110.640625 C 141.386719 110.589844 142.570312 110.554688 143.925781 110.574219 C 145.285156 110.585938 146.816406 110.664062 148.480469 110.808594 C 151.511719 111.078125 154.996094 111.65625 158.589844 112.738281 C 158.585938 112.753906 158.582031 112.769531 158.578125 112.789062 C 158.535156 112.933594 158.488281 113.148438 158.425781 113.421875 C 158.382812 113.699219 158.308594 114.03125 158.28125 114.417969 C 158.261719 114.613281 158.234375 114.816406 158.222656 115.035156 C 158.214844 115.25 158.207031 115.480469 158.199219 115.71875 C 158.183594 115.960938 158.207031 116.207031 158.214844 116.464844 C 158.230469 116.722656 158.222656 116.988281 158.261719 117.261719 C 158.296875 117.53125 158.328125 117.8125 158.363281 118.097656 C 158.398438 118.382812 158.472656 118.667969 158.527344 118.960938 C 158.625 119.550781 158.832031 120.132812 159.007812 120.734375 C 159.085938 121.035156 159.230469 121.320312 159.34375 121.613281 C 159.464844 121.90625 159.570312 122.207031 159.710938 122.492188 C 159.855469 122.773438 160.003906 123.058594 160.148438 123.335938 C 160.300781 123.617188 160.429688 123.902344 160.609375 124.160156 C 160.78125 124.421875 160.949219 124.683594 161.117188 124.9375 C 161.289062 125.191406 161.4375 125.457031 161.632812 125.683594 C 162.003906 126.148438 162.359375 126.597656 162.699219 127.027344 C 163.078125 127.421875 163.433594 127.792969 163.761719 128.136719 C 163.925781 128.308594 164.082031 128.472656 164.234375 128.628906 C 164.390625 128.777344 164.550781 128.910156 164.691406 129.039062 C 164.984375 129.292969 165.238281 129.515625 165.449219 129.695312 C 165.867188 130.0625 166.105469 130.269531 166.105469 130.269531 C 166.105469 130.269531 165.867188 130.058594 165.453125 129.691406 C 165.246094 129.503906 164.996094 129.28125 164.707031 129.023438 C 164.5625 128.894531 164.40625 128.761719 164.25 128.613281 C 164.101562 128.453125 163.945312 128.289062 163.78125 128.117188 C 163.457031 127.769531 163.105469 127.394531 162.734375 126.996094 C 162.398438 126.566406 162.046875 126.113281 161.683594 125.644531 C 161.488281 125.417969 161.34375 125.152344 161.175781 124.898438 C 161.011719 124.640625 160.847656 124.378906 160.679688 124.117188 C 160.5 123.863281 160.375 123.574219 160.230469 123.296875 C 160.085938 123.015625 159.945312 122.730469 159.800781 122.449219 C 159.664062 122.167969 159.5625 121.867188 159.445312 121.574219 C 159.335938 121.28125 159.195312 120.996094 159.117188 120.695312 C 158.953125 120.097656 158.75 119.519531 158.660156 118.933594 C 158.609375 118.640625 158.539062 118.355469 158.507812 118.074219 C 158.476562 117.792969 158.445312 117.515625 158.417969 117.246094 C 158.378906 116.976562 158.386719 116.714844 158.375 116.460938 C 158.371094 116.203125 158.347656 115.960938 158.367188 115.722656 C 158.378906 115.488281 158.386719 115.261719 158.398438 115.046875 C 158.410156 114.832031 158.441406 114.628906 158.460938 114.441406 C 158.492188 114.058594 158.570312 113.730469 158.613281 113.460938 C 158.675781 113.191406 158.722656 112.980469 158.765625 112.84375 C 158.769531 112.828125 158.777344 112.8125 158.78125 112.792969 C 159.066406 112.882812 159.347656 112.964844 159.636719 113.058594 C 162.605469 114.015625 165.625 115.347656 168.453125 117.066406 C 168.53125 117.46875 168.726562 118.460938 169.054688 119.777344 C 169.167969 120.207031 169.289062 120.671875 169.417969 121.167969 C 169.5625 121.65625 169.691406 122.179688 169.859375 122.710938 C 170.019531 123.242188 170.1875 123.792969 170.378906 124.34375 C 170.558594 124.898438 170.765625 125.457031 170.976562 126.011719 C 171.175781 126.570312 171.421875 127.113281 171.644531 127.652344 C 171.867188 128.191406 172.136719 128.699219 172.371094 129.207031 C 172.621094 129.699219 172.890625 130.167969 173.136719 130.613281 C 173.402344 131.050781 173.671875 131.449219 173.910156 131.824219 C 174.164062 132.191406 174.425781 132.503906 174.644531 132.792969 C 174.855469 133.089844 175.085938 133.304688 175.265625 133.492188 C 175.445312 133.679688 175.585938 133.824219 175.683594 133.925781 C 175.691406 133.933594 175.699219 133.941406 175.707031 133.949219 C 175.699219 133.941406 175.695312 133.933594 175.683594 133.925781 C 175.585938 133.824219 175.449219 133.675781 175.269531 133.488281 C 175.089844 133.300781 174.863281 133.082031 174.652344 132.785156 C 174.4375 132.496094 174.175781 132.183594 173.925781 131.8125 C 173.691406 131.4375 173.421875 131.035156 173.160156 130.601562 C 172.921875 130.148438 172.65625 129.683594 172.40625 129.1875 C 172.175781 128.679688 171.914062 128.171875 171.691406 127.628906 C 171.476562 127.089844 171.230469 126.546875 171.039062 125.988281 C 170.832031 125.433594 170.628906 124.875 170.453125 124.320312 C 170.265625 123.765625 170.105469 123.214844 169.945312 122.683594 C 169.785156 122.152344 169.65625 121.628906 169.523438 121.136719 C 169.402344 120.644531 169.289062 120.175781 169.1875 119.742188 C 168.925781 118.585938 168.757812 117.6875 168.675781 117.210938 C 169.546875 117.75 170.398438 118.320312 171.222656 118.933594 C 173.015625 120.238281 174.617188 121.792969 176.390625 123.117188 C 177.28125 123.796875 178.183594 124.449219 179.09375 125.0625 L 179.089844 125.0625 C 179.089844 125.0625 179.304688 125.855469 179.75 126.992188 C 179.859375 127.277344 179.980469 127.582031 180.121094 127.90625 C 180.253906 128.230469 180.414062 128.5625 180.570312 128.910156 C 180.734375 129.253906 180.910156 129.605469 181.089844 129.960938 C 181.289062 130.3125 181.464844 130.679688 181.679688 131.023438 C 181.886719 131.375 182.089844 131.726562 182.316406 132.058594 C 182.53125 132.398438 182.753906 132.722656 182.980469 133.027344 C 183.09375 133.179688 183.203125 133.332031 183.3125 133.480469 C 183.425781 133.625 183.539062 133.765625 183.648438 133.898438 C 183.871094 134.171875 184.074219 134.433594 184.285156 134.652344 C 184.492188 134.875 184.683594 135.078125 184.851562 135.261719 C 185.03125 135.433594 185.1875 135.582031 185.316406 135.703125 C 185.574219 135.945312 185.722656 136.085938 185.722656 136.085938 C 185.722656 136.085938 185.578125 135.945312 185.320312 135.695312 C 185.195312 135.574219 185.042969 135.421875 184.863281 135.25 C 184.699219 135.066406 184.511719 134.855469 184.308594 134.628906 C 184.101562 134.410156 183.902344 134.144531 183.683594 133.871094 C 183.578125 133.734375 183.46875 133.59375 183.355469 133.449219 C 183.25 133.300781 183.140625 133.148438 183.03125 132.992188 C 182.808594 132.683594 182.59375 132.355469 182.382812 132.015625 C 182.164062 131.683594 181.96875 131.328125 181.765625 130.976562 C 181.558594 130.628906 181.386719 130.261719 181.199219 129.910156 C 181.019531 129.550781 180.851562 129.195312 180.691406 128.851562 C 180.542969 128.503906 180.386719 128.171875 180.261719 127.847656 C 180.128906 127.523438 180.011719 127.21875 179.90625 126.933594 C 179.613281 126.140625 179.425781 125.527344 179.339844 125.222656 C 180.136719 125.753906 180.941406 126.265625 181.746094 126.738281 C 183.550781 127.804688 185.363281 128.730469 187.140625 129.472656 C 187.21875 129.503906 187.296875 129.53125 187.371094 129.5625 L 187.300781 129.601562 C 187.300781 129.601562 187.390625 129.753906 187.550781 130.027344 C 187.589844 130.09375 187.632812 130.167969 187.683594 130.25 C 187.738281 130.324219 187.796875 130.40625 187.859375 130.496094 C 187.992188 130.667969 188.125 130.875 188.300781 131.074219 C 188.476562 131.273438 188.648438 131.507812 188.863281 131.726562 C 189.074219 131.945312 189.285156 132.1875 189.527344 132.414062 C 190 132.882812 190.519531 133.363281 191.058594 133.820312 C 193.199219 135.675781 195.5625 137.234375 195.5625 137.234375 C 195.5625 137.234375 193.226562 135.632812 191.125 133.746094 C 190.59375 133.28125 190.085938 132.792969 189.625 132.320312 C 189.386719 132.085938 189.183594 131.84375 188.976562 131.621094 C 188.769531 131.402344 188.601562 131.171875 188.433594 130.96875 C 188.261719 130.769531 188.132812 130.5625 188.007812 130.390625 C 187.949219 130.304688 187.890625 130.222656 187.839844 130.148438 C 187.792969 130.066406 187.75 129.992188 187.714844 129.929688 C 187.640625 129.800781 187.585938 129.707031 187.546875 129.632812 C 189.175781 130.300781 190.765625 130.839844 192.257812 131.25 C 193.875 131.695312 195.386719 132 196.738281 132.179688 C 198.089844 132.363281 199.277344 132.441406 200.253906 132.460938 C 202.210938 132.503906 203.316406 132.3125 203.316406 132.3125 C 203.316406 132.3125 202.207031 132.476562 200.257812 132.390625 Z M 80.34375 95.496094 C 80.324219 95.496094 80.304688 95.5 80.285156 95.5 C 80.304688 95.496094 80.324219 95.496094 80.34375 95.496094 Z M 80.175781 95.398438 L 80.175781 95.609375 C 80.175781 95.613281 80.195312 95.546875 80.226562 95.511719 C 80.242188 95.5 80.265625 95.5 80.285156 95.5 C 80.265625 95.5 80.242188 95.5 80.226562 95.488281 C 80.191406 95.460938 80.175781 95.394531 80.175781 95.398438 Z M 123.304688 103.238281 C 124.808594 104.765625 125.601562 105.699219 125.601562 105.699219 C 125.601562 105.699219 124.792969 104.78125 123.261719 103.285156 C 122.496094 102.535156 121.546875 101.644531 120.429688 100.660156 C 119.3125 99.671875 118.019531 98.59375 116.574219 97.464844 C 114.121094 95.554688 111.195312 93.511719 107.875 91.664062 C 107.867188 91.675781 107.863281 91.679688 107.855469 91.695312 C 107.8125 91.765625 107.746094 91.855469 107.65625 91.972656 C 107.570312 92.085938 107.460938 92.222656 107.324219 92.371094 C 107.195312 92.523438 107.035156 92.683594 106.863281 92.859375 C 106.515625 93.203125 106.078125 93.578125 105.589844 93.941406 C 105.34375 94.121094 105.085938 94.300781 104.820312 94.476562 C 104.546875 94.640625 104.277344 94.828125 103.988281 94.976562 C 103.703125 95.128906 103.425781 95.296875 103.132812 95.429688 C 102.84375 95.5625 102.570312 95.710938 102.285156 95.824219 C 102.003906 95.9375 101.734375 96.050781 101.476562 96.15625 C 101.214844 96.25 100.96875 96.335938 100.738281 96.417969 C 100.285156 96.589844 99.890625 96.683594 99.625 96.769531 C 99.351562 96.851562 99.199219 96.894531 99.199219 96.894531 C 99.199219 96.894531 99.351562 96.84375 99.617188 96.753906 C 99.882812 96.65625 100.273438 96.550781 100.71875 96.363281 C 100.945312 96.277344 101.1875 96.179688 101.445312 96.078125 C 101.695312 95.964844 101.964844 95.839844 102.238281 95.71875 C 102.515625 95.597656 102.78125 95.4375 103.066406 95.296875 C 103.351562 95.15625 103.617188 94.980469 103.898438 94.820312 C 104.175781 94.660156 104.433594 94.46875 104.699219 94.296875 C 104.953125 94.113281 105.203125 93.929688 105.4375 93.746094 C 105.90625 93.367188 106.316406 92.992188 106.640625 92.644531 C 106.804688 92.46875 106.953125 92.308594 107.070312 92.15625 C 107.195312 92.007812 107.296875 91.875 107.375 91.765625 C 107.453125 91.652344 107.515625 91.5625 107.546875 91.503906 C 107.554688 91.496094 107.554688 91.492188 107.558594 91.484375 C 107.070312 91.214844 106.570312 90.949219 106.0625 90.691406 C 102.742188 88.976562 99.03125 87.507812 95.144531 86.65625 C 94.871094 86.949219 94.21875 87.632812 93.292969 88.492188 C 92.054688 89.636719 90.351562 91.117188 88.480469 92.367188 C 88.011719 92.683594 87.539062 92.984375 87.058594 93.261719 C 86.582031 93.546875 86.101562 93.800781 85.628906 94.039062 C 85.15625 94.269531 84.6875 94.472656 84.238281 94.652344 C 84.011719 94.734375 83.789062 94.816406 83.574219 94.894531 C 83.359375 94.960938 83.148438 95.023438 82.949219 95.085938 C 82.542969 95.195312 82.164062 95.289062 81.828125 95.34375 C 81.492188 95.414062 81.191406 95.433594 80.949219 95.464844 C 80.703125 95.488281 80.507812 95.488281 80.378906 95.496094 C 80.367188 95.496094 80.355469 95.496094 80.34375 95.496094 C 80.355469 95.496094 80.367188 95.496094 80.378906 95.496094 C 80.507812 95.484375 80.703125 95.488281 80.945312 95.457031 C 81.191406 95.425781 81.488281 95.402344 81.824219 95.332031 C 82.160156 95.277344 82.535156 95.175781 82.941406 95.066406 C 83.140625 95 83.351562 94.933594 83.566406 94.867188 C 83.78125 94.789062 84 94.707031 84.226562 94.621094 C 84.675781 94.441406 85.136719 94.234375 85.609375 93.996094 C 86.078125 93.757812 86.554688 93.5 87.027344 93.214844 C 87.503906 92.933594 87.976562 92.628906 88.4375 92.308594 C 89.367188 91.675781 90.253906 90.988281 91.0625 90.3125 C 91.871094 89.640625 92.589844 88.972656 93.191406 88.386719 C 94.015625 87.582031 94.613281 86.9375 94.910156 86.605469 C 94.125 86.441406 93.335938 86.296875 92.535156 86.183594 C 90.128906 85.800781 87.679688 85.902344 85.257812 85.644531 C 84.089844 85.535156 82.933594 85.382812 81.796875 85.199219 C 81.761719 85.226562 81.1875 85.726562 80.246094 86.347656 C 80.007812 86.507812 79.738281 86.675781 79.453125 86.847656 C 79.175781 87.027344 78.863281 87.1875 78.546875 87.367188 C 78.226562 87.53125 77.894531 87.707031 77.546875 87.867188 C 77.199219 88.019531 76.851562 88.191406 76.488281 88.324219 C 76.128906 88.46875 75.769531 88.605469 75.40625 88.714844 C 75.222656 88.773438 75.042969 88.828125 74.867188 88.886719 C 74.6875 88.933594 74.507812 88.976562 74.332031 89.023438 C 74.15625 89.070312 73.984375 89.113281 73.816406 89.15625 C 73.644531 89.1875 73.476562 89.21875 73.3125 89.246094 C 72.988281 89.308594 72.679688 89.367188 72.390625 89.386719 C 72.101562 89.417969 71.839844 89.445312 71.605469 89.46875 C 71.371094 89.472656 71.164062 89.476562 70.996094 89.480469 C 70.660156 89.488281 70.46875 89.492188 70.46875 89.492188 C 70.46875 89.492188 70.660156 89.484375 70.996094 89.472656 C 71.164062 89.464844 71.367188 89.457031 71.601562 89.449219 C 71.835938 89.421875 72.097656 89.390625 72.386719 89.355469 C 72.675781 89.328125 72.980469 89.265625 73.304688 89.199219 C 73.464844 89.164062 73.632812 89.132812 73.800781 89.097656 C 73.96875 89.054688 74.140625 89.003906 74.316406 88.957031 C 74.488281 88.910156 74.667969 88.863281 74.84375 88.8125 C 75.019531 88.753906 75.199219 88.691406 75.375 88.632812 C 75.738281 88.515625 76.09375 88.371094 76.449219 88.222656 C 76.808594 88.085938 77.148438 87.910156 77.492188 87.753906 C 77.832031 87.585938 78.160156 87.410156 78.476562 87.238281 C 78.785156 87.054688 79.09375 86.890625 79.367188 86.707031 C 79.648438 86.535156 79.910156 86.363281 80.144531 86.199219 C 80.828125 85.730469 81.304688 85.339844 81.523438 85.152344 C 80.410156 84.964844 79.316406 84.742188 78.25 84.480469 C 76.140625 83.96875 74.132812 83.332031 72.269531 82.601562 L 72.304688 82.675781 C 72.304688 82.675781 72.140625 82.742188 71.847656 82.855469 C 71.707031 82.921875 71.523438 82.96875 71.316406 83.019531 C 71.105469 83.074219 70.875 83.140625 70.613281 83.175781 C 70.351562 83.21875 70.070312 83.269531 69.769531 83.292969 C 69.46875 83.320312 69.15625 83.355469 68.828125 83.363281 C 68.5 83.382812 68.160156 83.390625 67.816406 83.386719 C 67.472656 83.390625 67.125 83.378906 66.773438 83.367188 C 63.980469 83.277344 61.230469 82.789062 61.230469 82.789062 C 61.230469 82.789062 63.992188 83.226562 66.777344 83.261719 C 67.125 83.265625 67.472656 83.273438 67.816406 83.261719 C 68.15625 83.257812 68.496094 83.242188 68.820312 83.21875 C 69.144531 83.203125 69.457031 83.164062 69.75 83.128906 C 70.050781 83.101562 70.324219 83.042969 70.578125 83 C 70.835938 82.960938 71.0625 82.890625 71.265625 82.835938 C 71.464844 82.78125 71.640625 82.730469 71.777344 82.664062 C 71.910156 82.609375 72.015625 82.566406 72.089844 82.535156 C 72.035156 82.515625 71.976562 82.492188 71.921875 82.472656 C 69.957031 81.6875 68.15625 80.820312 66.546875 79.925781 C 63.320312 78.140625 60.878906 76.25 59.269531 74.84375 C 57.652344 73.429688 56.855469 72.492188 56.855469 72.492188 C 56.855469 72.492188 57.675781 73.410156 59.320312 74.78125 C 60.957031 76.15625 63.445312 77.953125 66.667969 79.703125 C 67.054688 79.910156 67.449219 80.113281 67.855469 80.316406 C 67.839844 80.246094 67.820312 80.160156 67.796875 80.058594 C 67.761719 79.898438 67.722656 79.707031 67.640625 79.496094 C 67.5625 79.285156 67.492188 79.039062 67.382812 78.785156 C 67.265625 78.53125 67.148438 78.253906 67.007812 77.96875 C 66.851562 77.6875 66.703125 77.382812 66.523438 77.085938 C 66.335938 76.789062 66.160156 76.472656 65.949219 76.171875 C 65.742188 75.871094 65.535156 75.558594 65.308594 75.257812 C 64.871094 74.65625 64.398438 74.074219 63.945312 73.539062 C 63.492188 73.003906 63.050781 72.519531 62.664062 72.113281 C 61.894531 71.296875 61.339844 70.789062 61.339844 70.789062 C 61.339844 70.789062 61.902344 71.289062 62.6875 72.089844 C 63.082031 72.492188 63.53125 72.96875 63.996094 73.496094 C 64.460938 74.023438 64.945312 74.597656 65.394531 75.195312 C 65.628906 75.488281 65.839844 75.800781 66.054688 76.101562 C 66.269531 76.398438 66.453125 76.714844 66.648438 77.011719 C 66.832031 77.308594 66.992188 77.613281 67.152344 77.890625 C 67.300781 78.179688 67.425781 78.460938 67.546875 78.714844 C 67.664062 78.972656 67.742188 79.222656 67.824219 79.4375 C 67.914062 79.648438 67.957031 79.847656 67.996094 80.007812 C 68.046875 80.214844 68.082031 80.355469 68.101562 80.4375 C 71.046875 81.886719 74.523438 83.203125 78.339844 84.113281 C 78.628906 84.183594 78.929688 84.242188 79.222656 84.304688 C 79.199219 84.089844 79.125 83.523438 78.933594 82.753906 C 78.875 82.511719 78.800781 82.246094 78.71875 81.96875 C 78.640625 81.691406 78.535156 81.40625 78.4375 81.105469 C 78.316406 80.8125 78.214844 80.503906 78.070312 80.203125 C 77.9375 79.898438 77.800781 79.589844 77.636719 79.296875 L 77.402344 78.847656 C 77.316406 78.707031 77.230469 78.5625 77.144531 78.417969 C 76.980469 78.128906 76.789062 77.863281 76.609375 77.605469 C 76.433594 77.339844 76.234375 77.109375 76.050781 76.882812 C 75.960938 76.769531 75.871094 76.660156 75.785156 76.554688 C 75.691406 76.457031 75.601562 76.359375 75.511719 76.269531 C 75.335938 76.085938 75.179688 75.914062 75.03125 75.773438 C 74.875 75.636719 74.742188 75.515625 74.632812 75.417969 C 74.410156 75.222656 74.28125 75.109375 74.28125 75.109375 C 74.28125 75.109375 74.410156 75.222656 74.636719 75.414062 C 74.75 75.507812 74.886719 75.625 75.042969 75.757812 C 75.195312 75.898438 75.355469 76.066406 75.535156 76.246094 C 75.625 76.335938 75.71875 76.429688 75.816406 76.527344 C 75.90625 76.632812 75.996094 76.738281 76.089844 76.851562 C 76.277344 77.074219 76.484375 77.304688 76.664062 77.566406 C 76.851562 77.824219 77.046875 78.085938 77.21875 78.375 C 77.308594 78.515625 77.398438 78.65625 77.488281 78.800781 L 77.734375 79.246094 C 77.902344 79.542969 78.046875 79.847656 78.1875 80.152344 C 78.335938 80.453125 78.445312 80.761719 78.570312 81.054688 C 78.675781 81.355469 78.789062 81.640625 78.875 81.921875 C 78.964844 82.199219 79.046875 82.464844 79.109375 82.710938 C 79.34375 83.585938 79.429688 84.21875 79.445312 84.355469 C 81.335938 84.757812 83.296875 85.058594 85.296875 85.238281 C 85.894531 85.28125 86.492188 85.335938 87.097656 85.367188 C 87.535156 85.386719 87.976562 85.402344 88.414062 85.421875 C 88.421875 85.410156 88.421875 85.402344 88.425781 85.390625 C 88.453125 85.316406 88.480469 85.203125 88.519531 85.0625 C 88.550781 84.914062 88.59375 84.738281 88.613281 84.53125 C 88.644531 84.324219 88.648438 84.085938 88.660156 83.832031 C 88.652344 83.574219 88.65625 83.292969 88.609375 83 C 88.585938 82.703125 88.511719 82.402344 88.445312 82.085938 C 88.363281 81.773438 88.261719 81.453125 88.140625 81.136719 C 88.003906 80.824219 87.890625 80.496094 87.710938 80.199219 C 87.546875 79.894531 87.386719 79.585938 87.1875 79.308594 C 86.996094 79.027344 86.816406 78.738281 86.601562 78.492188 C 86.394531 78.242188 86.207031 77.988281 86.003906 77.769531 C 85.792969 77.554688 85.597656 77.351562 85.417969 77.160156 C 85.242188 76.96875 85.0625 76.808594 84.902344 76.671875 C 84.746094 76.53125 84.605469 76.40625 84.492188 76.304688 C 84.265625 76.101562 84.132812 75.988281 84.132812 75.988281 C 84.132812 75.988281 84.265625 76.101562 84.496094 76.296875 C 84.613281 76.398438 84.753906 76.515625 84.914062 76.65625 C 85.078125 76.792969 85.261719 76.949219 85.441406 77.136719 C 85.625 77.324219 85.828125 77.523438 86.039062 77.734375 C 86.246094 77.949219 86.4375 78.203125 86.652344 78.449219 C 86.875 78.695312 87.058594 78.976562 87.257812 79.261719 C 87.464844 79.535156 87.632812 79.84375 87.804688 80.148438 C 87.992188 80.445312 88.113281 80.777344 88.261719 81.085938 C 88.386719 81.40625 88.496094 81.730469 88.585938 82.046875 C 88.660156 82.367188 88.742188 82.679688 88.773438 82.980469 C 88.824219 83.277344 88.828125 83.566406 88.84375 83.832031 C 88.832031 84.09375 88.835938 84.335938 88.804688 84.550781 C 88.785156 84.769531 88.746094 84.953125 88.71875 85.105469 C 88.683594 85.242188 88.660156 85.351562 88.636719 85.429688 C 88.730469 85.433594 88.824219 85.4375 88.917969 85.441406 C 90.144531 85.484375 91.375 85.597656 92.59375 85.777344 C 95.898438 86.253906 99.097656 87.214844 102.085938 88.445312 C 102.105469 88.339844 102.140625 88.179688 102.175781 87.957031 C 102.238281 87.5625 102.304688 86.992188 102.328125 86.308594 C 102.347656 85.621094 102.316406 84.820312 102.195312 83.96875 C 102.128906 83.546875 102.042969 83.113281 101.925781 82.675781 C 101.820312 82.238281 101.664062 81.808594 101.496094 81.382812 C 101.324219 80.957031 101.125 80.542969 100.898438 80.15625 C 100.671875 79.765625 100.429688 79.390625 100.164062 79.050781 C 100.035156 78.882812 99.902344 78.714844 99.761719 78.5625 C 99.625 78.410156 99.492188 78.253906 99.347656 78.121094 C 99.074219 77.835938 98.789062 77.59375 98.527344 77.367188 C 98.253906 77.160156 98.007812 76.957031 97.773438 76.808594 C 97.535156 76.65625 97.339844 76.511719 97.160156 76.414062 C 96.8125 76.214844 96.609375 76.101562 96.609375 76.101562 C 96.609375 76.101562 96.8125 76.210938 97.164062 76.40625 C 97.34375 76.5 97.542969 76.644531 97.78125 76.792969 C 98.023438 76.9375 98.269531 77.140625 98.546875 77.34375 C 98.8125 77.566406 99.105469 77.800781 99.382812 78.082031 C 99.53125 78.21875 99.664062 78.371094 99.804688 78.523438 C 99.949219 78.675781 100.082031 78.839844 100.214844 79.011719 C 100.488281 79.347656 100.742188 79.71875 100.972656 80.109375 C 101.207031 80.5 101.414062 80.917969 101.59375 81.339844 C 101.769531 81.769531 101.933594 82.203125 102.050781 82.644531 C 102.175781 83.082031 102.269531 83.519531 102.339844 83.949219 C 102.476562 84.804688 102.519531 85.617188 102.503906 86.3125 C 102.488281 87.445312 102.339844 88.261719 102.285156 88.527344 C 103.648438 89.09375 104.96875 89.714844 106.230469 90.371094 C 108.867188 91.753906 111.265625 93.28125 113.414062 94.804688 C 113.457031 94.582031 113.523438 94.230469 113.582031 93.785156 C 113.628906 93.394531 113.683594 92.933594 113.707031 92.441406 C 113.734375 91.949219 113.730469 91.421875 113.714844 90.894531 C 113.691406 90.628906 113.679688 90.367188 113.648438 90.109375 C 113.609375 89.851562 113.59375 89.597656 113.535156 89.355469 C 113.484375 89.113281 113.453125 88.875 113.382812 88.660156 C 113.316406 88.441406 113.269531 88.230469 113.199219 88.046875 C 113.128906 87.859375 113.066406 87.6875 113.007812 87.539062 C 112.949219 87.390625 112.878906 87.265625 112.828125 87.160156 C 112.722656 86.953125 112.664062 86.835938 112.664062 86.835938 C 112.664062 86.835938 112.730469 86.949219 112.84375 87.15625 C 112.894531 87.257812 112.972656 87.375 113.039062 87.523438 C 113.105469 87.671875 113.175781 87.84375 113.253906 88.023438 C 113.335938 88.207031 113.390625 88.417969 113.464844 88.636719 C 113.542969 88.851562 113.585938 89.089844 113.648438 89.332031 C 113.714844 89.574219 113.746094 89.832031 113.796875 90.089844 C 113.839844 90.347656 113.859375 90.613281 113.894531 90.878906 C 113.9375 91.414062 113.964844 91.949219 113.957031 92.449219 C 113.957031 92.949219 113.921875 93.417969 113.890625 93.816406 C 113.839844 94.402344 113.769531 94.839844 113.734375 95.035156 C 114.789062 95.796875 115.789062 96.554688 116.714844 97.289062 C 118.152344 98.433594 119.417969 99.546875 120.523438 100.554688 C 121.621094 101.5625 122.554688 102.472656 123.304688 103.238281 " fill-opacity="1" fill-rule="nonzero"/><g fill="#8d5053" fill-opacity="1"><g transform="translate(111.892839, 196.034055)"><g><path d="M 16.335938 -27.085938 C 16.808594 -26.859375 17.503906 -27.058594 18.335938 -27.683594 C 18.707031 -27.972656 19.121094 -28.355469 19.484375 -28.828125 C 19.851562 -29.304688 20.214844 -29.78125 20.53125 -30.347656 C 20.847656 -30.914062 21.121094 -31.433594 21.34375 -32 C 21.519531 -32.566406 21.695312 -33.085938 21.78125 -33.601562 C 21.902344 -34.585938 21.703125 -35.191406 21.230469 -35.414062 C 20.710938 -35.640625 20.0625 -35.441406 19.230469 -34.816406 C 18.402344 -34.144531 17.667969 -33.242188 16.988281 -32.105469 L 16.988281 -32.152344 C 16.625 -31.582031 16.355469 -31.015625 16.175781 -30.453125 C 15.953125 -29.886719 15.824219 -29.367188 15.785156 -28.945312 C 15.699219 -28.476562 15.707031 -28.054688 15.808594 -27.730469 C 15.90625 -27.402344 16.050781 -27.171875 16.335938 -27.085938 Z M 0.699219 -0.246094 C 1.453125 0.0195312 2.386719 0.046875 3.601562 -0.164062 C 4.8125 -0.371094 6.113281 -0.914062 7.550781 -1.734375 C 8.9375 -2.511719 10.417969 -3.570312 11.886719 -4.953125 C 13.359375 -6.292969 14.824219 -8.003906 16.191406 -9.996094 C 15.824219 -9.664062 15.363281 -9.28125 14.765625 -8.800781 C 14.117188 -8.320312 13.472656 -7.886719 12.777344 -7.5 C 12.035156 -7.0625 11.339844 -6.722656 10.644531 -6.429688 C 9.898438 -6.132812 9.292969 -5.980469 8.824219 -6.019531 C 8.078125 -6.003906 7.652344 -6.277344 7.640625 -6.839844 C 7.628906 -7.355469 7.757812 -7.964844 8.121094 -8.671875 C 8.433594 -9.335938 8.796875 -9.949219 9.253906 -10.613281 C 9.660156 -11.277344 9.980469 -11.703125 10.164062 -11.988281 L 18.90625 -24.839844 L 12.308594 -24.714844 L 1.464844 -9.203125 C 0.550781 -7.875 -0.128906 -6.691406 -0.53125 -5.699219 C -0.929688 -4.664062 -1.148438 -3.816406 -1.136719 -3.113281 C -1.167969 -2.363281 -1.015625 -1.710938 -0.679688 -1.25 C -0.34375 -0.789062 0.132812 -0.421875 0.699219 -0.246094 Z M 0.699219 -0.246094 "/></g></g></g><g fill="#8d5053" fill-opacity="1"><g transform="translate(124.383302, 195.796262)"><g><path d="M 6.460938 -17.066406 L -4.585938 0.0859375 L 1.871094 -0.0351562 C 4.503906 -4.390625 6.683594 -7.992188 8.40625 -10.925781 C 10.128906 -13.859375 11.582031 -16.183594 12.8125 -17.9375 C 13.996094 -19.644531 15.046875 -20.882812 15.972656 -21.601562 C 16.894531 -22.273438 17.824219 -22.621094 18.808594 -22.589844 C 19.417969 -22.507812 19.84375 -22.285156 20.039062 -21.820312 C 20.234375 -21.355469 20.152344 -20.839844 19.695312 -20.222656 L 13.039062 -10.96875 C 12.671875 -10.492188 12.308594 -9.921875 11.851562 -9.304688 C 11.398438 -8.640625 11.035156 -7.980469 10.671875 -7.316406 C 10.265625 -6.609375 9.953125 -5.898438 9.730469 -5.195312 C 9.511719 -4.488281 9.429688 -3.832031 9.535156 -3.222656 C 9.59375 -2.570312 9.839844 -2.011719 10.316406 -1.554688 C 10.792969 -1.046875 11.546875 -0.6875 12.582031 -0.472656 C 13.242188 -0.300781 13.988281 -0.3125 14.734375 -0.421875 C 15.484375 -0.527344 16.132812 -0.773438 16.78125 -1.207031 C 17.429688 -1.59375 18.074219 -2.167969 18.761719 -2.839844 C 19.40625 -3.503906 20.09375 -4.265625 20.78125 -5.078125 C 21.421875 -5.835938 22.015625 -6.597656 22.605469 -7.40625 C 23.15625 -8.164062 23.703125 -8.875 24.15625 -9.539062 C 23.878906 -9.394531 23.558594 -9.15625 23.234375 -8.867188 C 23.050781 -8.675781 22.914062 -8.535156 22.730469 -8.390625 C 22.542969 -8.246094 22.359375 -8.101562 22.222656 -7.960938 C 21.851562 -7.671875 21.484375 -7.382812 21.113281 -7.1875 C 20.742188 -6.996094 20.371094 -6.894531 19.996094 -6.886719 C 19.433594 -6.875 19.148438 -7.152344 19.183594 -7.761719 C 19.171875 -8.277344 19.394531 -8.980469 19.84375 -9.925781 C 20.25 -10.777344 20.792969 -11.722656 21.429688 -12.8125 C 22.0625 -13.855469 22.699219 -14.894531 23.335938 -15.9375 C 23.921875 -16.929688 24.46875 -17.832031 24.921875 -18.683594 C 25.371094 -19.488281 25.640625 -20.101562 25.726562 -20.523438 C 25.804688 -21.367188 25.792969 -22.023438 25.59375 -22.582031 C 25.398438 -23.136719 25.152344 -23.601562 24.773438 -23.96875 C 23.917969 -24.703125 22.972656 -25.105469 21.941406 -25.226562 C 20.910156 -25.347656 19.832031 -25.230469 18.8125 -24.839844 C 17.742188 -24.445312 16.722656 -23.863281 15.710938 -23.046875 C 14.695312 -22.183594 13.824219 -21.234375 13.003906 -20.09375 C 13.355469 -21.410156 13.472656 -22.441406 13.320312 -23.234375 C 13.164062 -23.980469 12.6875 -24.488281 11.886719 -24.753906 C 11.320312 -24.882812 10.621094 -24.824219 9.78125 -24.574219 C 8.898438 -24.320312 7.832031 -23.785156 6.628906 -23.015625 L 6.484375 -23.199219 C 7.253906 -22.089844 7.601562 -21.066406 7.621094 -20.179688 C 7.582031 -19.710938 7.453125 -19.191406 7.273438 -18.722656 C 7.050781 -18.203125 6.777344 -17.636719 6.460938 -17.066406 Z M 6.460938 -17.066406 "/></g></g></g><g fill="#8d5053" fill-opacity="1"><g transform="translate(146.324026, 195.378554)"><g><path d="M -3.761719 21.136719 C -2.550781 20.832031 -1.300781 20.246094 -0.0078125 19.285156 C 1.285156 18.324219 2.574219 17.175781 3.855469 15.746094 C 5.140625 14.367188 6.285156 12.988281 7.382812 11.609375 C 8.480469 10.230469 9.4375 8.902344 10.304688 7.667969 C 10.714844 7.097656 11.078125 6.574219 11.398438 6.101562 C 11.714844 5.628906 11.988281 5.25 12.261719 4.914062 C 13.128906 3.683594 14.042969 2.402344 14.953125 1.074219 C 15.863281 -0.253906 16.773438 -1.582031 17.683594 -3.003906 C 19.503906 -5.753906 21.230469 -8.410156 22.867188 -10.96875 C 24.503906 -13.527344 26.09375 -15.988281 27.550781 -18.265625 C 28.277344 -19.402344 28.957031 -20.445312 29.597656 -21.394531 C 30.234375 -22.339844 30.777344 -23.242188 31.324219 -24.09375 L 24.726562 -23.96875 C 23.996094 -22.925781 23.316406 -21.882812 22.585938 -20.835938 C 21.855469 -19.792969 21.175781 -18.75 20.492188 -17.753906 C 19.761719 -16.710938 19.078125 -15.714844 18.351562 -14.671875 C 17.621094 -13.628906 16.9375 -12.585938 16.257812 -11.542969 L 15.027344 -9.742188 C 14.480469 -8.980469 13.929688 -8.316406 13.332031 -7.695312 C 12.691406 -7.027344 12 -6.5 11.351562 -6.113281 C 10.65625 -5.679688 10.003906 -5.527344 9.347656 -5.609375 C 9.019531 -5.601562 8.828125 -5.832031 8.773438 -6.253906 C 8.675781 -6.53125 8.804688 -7.046875 9.167969 -7.804688 C 9.527344 -8.558594 10.070312 -9.507812 10.796875 -10.597656 C 11.480469 -11.6875 12.160156 -12.777344 12.890625 -13.867188 C 13.570312 -14.910156 14.160156 -15.902344 14.703125 -16.851562 C 15.246094 -17.796875 15.5625 -18.503906 15.644531 -19.066406 C 15.765625 -20.007812 15.707031 -20.753906 15.507812 -21.40625 C 15.308594 -22.058594 14.96875 -22.566406 14.542969 -22.929688 C 14.019531 -23.34375 13.40625 -23.566406 12.75 -23.644531 C 12.09375 -23.726562 11.390625 -23.621094 10.695312 -23.417969 C 11.027344 -23.050781 11.269531 -22.730469 11.367188 -22.449219 C 11.46875 -22.125 11.425781 -21.796875 11.339844 -21.464844 C 11.207031 -21.089844 10.980469 -20.664062 10.707031 -20.238281 C 10.390625 -19.761719 10.023438 -19.289062 9.660156 -18.71875 L 9.660156 -18.671875 L 1.632812 -7.707031 C 1.355469 -7.421875 1.128906 -7.042969 0.855469 -6.617188 C 0.585938 -6.191406 0.3125 -5.714844 0.0859375 -5.242188 C -0.628906 -3.546875 -0.746094 -2.28125 -0.355469 -1.445312 C -0.160156 -0.980469 0.128906 -0.5625 0.507812 -0.289062 C 0.890625 0.03125 1.316406 0.253906 1.832031 0.386719 C 2.304688 0.566406 2.867188 0.601562 3.472656 0.542969 C 4.035156 0.53125 4.640625 0.378906 5.199219 0.0898438 C 6.3125 -0.402344 7.421875 -1.078125 8.4375 -1.890625 C 9.449219 -2.707031 10.371094 -3.566406 11.195312 -4.472656 C 11.929688 -5.328125 12.523438 -5.949219 12.984375 -6.332031 L 7.742188 1.070312 C 4.390625 1.976562 1.695312 3.058594 -0.433594 4.359375 C -2.652344 5.714844 -4.3125 7.101562 -5.457031 8.433594 C -6.648438 9.816406 -7.464844 11.09375 -7.957031 12.273438 C -8.496094 13.5 -8.800781 14.632812 -8.875 15.707031 C -8.949219 16.785156 -8.835938 17.722656 -8.492188 18.558594 C -8.390625 19.023438 -8.148438 19.441406 -7.859375 19.808594 C -7.574219 20.175781 -7.238281 20.5 -6.859375 20.773438 C -6.480469 21.046875 -6.007812 21.175781 -5.492188 21.261719 C -4.976562 21.34375 -4.414062 21.335938 -3.761719 21.136719 Z M -4.410156 14.265625 C -5.066406 14.09375 -5.449219 13.726562 -5.460938 13.164062 C -5.46875 12.601562 -5.339844 11.992188 -4.980469 11.328125 C -4.664062 10.714844 -4.253906 10.097656 -3.796875 9.480469 C -3.339844 8.863281 -2.882812 8.339844 -2.46875 7.957031 C -1.179688 6.808594 0.25 5.847656 1.828125 5.066406 C 3.40625 4.289062 4.9375 3.605469 6.46875 3.011719 L 6.519531 3.058594 L 5.378906 4.71875 C 5.105469 5.097656 4.832031 5.523438 4.558594 5.90625 C 4.285156 6.332031 3.96875 6.757812 3.648438 7.1875 C 3.007812 8.085938 2.324219 8.988281 1.59375 9.894531 C 0.863281 10.84375 0.175781 11.652344 -0.515625 12.320312 C -1.25 13.035156 -1.988281 13.566406 -2.636719 13.953125 C -3.285156 14.339844 -3.890625 14.445312 -4.410156 14.265625 Z M -4.410156 14.265625 "/></g></g></g><g fill="#216b39" fill-opacity="1"><g transform="translate(113.006405, 195.388777)"><g><path d="M 16.335938 -27.085938 C 16.808594 -26.859375 17.503906 -27.058594 18.335938 -27.683594 C 18.707031 -27.972656 19.121094 -28.355469 19.484375 -28.828125 C 19.851562 -29.304688 20.214844 -29.78125 20.53125 -30.347656 C 20.847656 -30.914062 21.121094 -31.433594 21.34375 -32 C 21.519531 -32.566406 21.695312 -33.085938 21.78125 -33.601562 C 21.902344 -34.585938 21.703125 -35.191406 21.230469 -35.414062 C 20.710938 -35.640625 20.0625 -35.441406 19.230469 -34.816406 C 18.402344 -34.144531 17.667969 -33.242188 16.988281 -32.105469 L 16.988281 -32.152344 C 16.625 -31.582031 16.355469 -31.015625 16.175781 -30.453125 C 15.953125 -29.886719 15.824219 -29.367188 15.785156 -28.945312 C 15.699219 -28.476562 15.707031 -28.054688 15.808594 -27.730469 C 15.90625 -27.402344 16.050781 -27.171875 16.335938 -27.085938 Z M 0.699219 -0.246094 C 1.453125 0.0195312 2.386719 0.046875 3.601562 -0.164062 C 4.8125 -0.371094 6.113281 -0.914062 7.550781 -1.734375 C 8.9375 -2.511719 10.417969 -3.570312 11.886719 -4.953125 C 13.359375 -6.292969 14.824219 -8.003906 16.191406 -9.996094 C 15.824219 -9.664062 15.363281 -9.28125 14.765625 -8.800781 C 14.117188 -8.320312 13.472656 -7.886719 12.777344 -7.5 C 12.035156 -7.0625 11.339844 -6.722656 10.644531 -6.429688 C 9.898438 -6.132812 9.292969 -5.980469 8.824219 -6.019531 C 8.078125 -6.003906 7.652344 -6.277344 7.640625 -6.839844 C 7.628906 -7.355469 7.757812 -7.964844 8.121094 -8.671875 C 8.433594 -9.335938 8.796875 -9.949219 9.253906 -10.613281 C 9.660156 -11.277344 9.980469 -11.703125 10.164062 -11.988281 L 18.90625 -24.839844 L 12.308594 -24.714844 L 1.464844 -9.203125 C 0.550781 -7.875 -0.128906 -6.691406 -0.53125 -5.699219 C -0.929688 -4.664062 -1.148438 -3.816406 -1.136719 -3.113281 C -1.167969 -2.363281 -1.015625 -1.710938 -0.679688 -1.25 C -0.34375 -0.789062 0.132812 -0.421875 0.699219 -0.246094 Z M 0.699219 -0.246094 "/></g></g></g><g fill="#216b39" fill-opacity="1"><g transform="translate(125.496868, 195.150983)"><g><path d="M 6.460938 -17.066406 L -4.585938 0.0859375 L 1.871094 -0.0351562 C 4.503906 -4.390625 6.683594 -7.992188 8.40625 -10.925781 C 10.128906 -13.859375 11.582031 -16.183594 12.8125 -17.9375 C 13.996094 -19.644531 15.046875 -20.882812 15.972656 -21.601562 C 16.894531 -22.273438 17.824219 -22.621094 18.808594 -22.589844 C 19.417969 -22.507812 19.84375 -22.285156 20.039062 -21.820312 C 20.234375 -21.355469 20.152344 -20.839844 19.695312 -20.222656 L 13.039062 -10.96875 C 12.671875 -10.492188 12.308594 -9.921875 11.851562 -9.304688 C 11.398438 -8.640625 11.035156 -7.980469 10.671875 -7.316406 C 10.265625 -6.609375 9.953125 -5.898438 9.730469 -5.195312 C 9.511719 -4.488281 9.429688 -3.832031 9.535156 -3.222656 C 9.59375 -2.570312 9.839844 -2.011719 10.316406 -1.554688 C 10.792969 -1.046875 11.546875 -0.6875 12.582031 -0.472656 C 13.242188 -0.300781 13.988281 -0.3125 14.734375 -0.421875 C 15.484375 -0.527344 16.132812 -0.773438 16.78125 -1.207031 C 17.429688 -1.59375 18.074219 -2.167969 18.761719 -2.839844 C 19.40625 -3.503906 20.09375 -4.265625 20.78125 -5.078125 C 21.421875 -5.835938 22.015625 -6.597656 22.605469 -7.40625 C 23.15625 -8.164062 23.703125 -8.875 24.15625 -9.539062 C 23.878906 -9.394531 23.558594 -9.15625 23.234375 -8.867188 C 23.050781 -8.675781 22.914062 -8.535156 22.730469 -8.390625 C 22.542969 -8.246094 22.359375 -8.101562 22.222656 -7.960938 C 21.851562 -7.671875 21.484375 -7.382812 21.113281 -7.1875 C 20.742188 -6.996094 20.371094 -6.894531 19.996094 -6.886719 C 19.433594 -6.875 19.148438 -7.152344 19.183594 -7.761719 C 19.171875 -8.277344 19.394531 -8.980469 19.84375 -9.925781 C 20.25 -10.777344 20.792969 -11.722656 21.429688 -12.8125 C 22.0625 -13.855469 22.699219 -14.894531 23.335938 -15.9375 C 23.921875 -16.929688 24.46875 -17.832031 24.921875 -18.683594 C 25.371094 -19.488281 25.640625 -20.101562 25.726562 -20.523438 C 25.804688 -21.367188 25.792969 -22.023438 25.59375 -22.582031 C 25.398438 -23.136719 25.152344 -23.601562 24.773438 -23.96875 C 23.917969 -24.703125 22.972656 -25.105469 21.941406 -25.226562 C 20.910156 -25.347656 19.832031 -25.230469 18.8125 -24.839844 C 17.742188 -24.445312 16.722656 -23.863281 15.710938 -23.046875 C 14.695312 -22.183594 13.824219 -21.234375 13.003906 -20.09375 C 13.355469 -21.410156 13.472656 -22.441406 13.320312 -23.234375 C 13.164062 -23.980469 12.6875 -24.488281 11.886719 -24.753906 C 11.320312 -24.882812 10.621094 -24.824219 9.78125 -24.574219 C 8.898438 -24.320312 7.832031 -23.785156 6.628906 -23.015625 L 6.484375 -23.199219 C 7.253906 -22.089844 7.601562 -21.066406 7.621094 -20.179688 C 7.582031 -19.710938 7.453125 -19.191406 7.273438 -18.722656 C 7.050781 -18.203125 6.777344 -17.636719 6.460938 -17.066406 Z M 6.460938 -17.066406 "/></g></g></g><g fill="#216b39" fill-opacity="1"><g transform="translate(147.437592, 194.733275)"><g><path d="M -3.761719 21.136719 C -2.550781 20.832031 -1.300781 20.246094 -0.0078125 19.285156 C 1.285156 18.324219 2.574219 17.175781 3.855469 15.746094 C 5.140625 14.367188 6.285156 12.988281 7.382812 11.609375 C 8.480469 10.230469 9.4375 8.902344 10.304688 7.667969 C 10.714844 7.097656 11.078125 6.574219 11.398438 6.101562 C 11.714844 5.628906 11.988281 5.25 12.261719 4.914062 C 13.128906 3.683594 14.042969 2.402344 14.953125 1.074219 C 15.863281 -0.253906 16.773438 -1.582031 17.683594 -3.003906 C 19.503906 -5.753906 21.230469 -8.410156 22.867188 -10.96875 C 24.503906 -13.527344 26.09375 -15.988281 27.550781 -18.265625 C 28.277344 -19.402344 28.957031 -20.445312 29.597656 -21.394531 C 30.234375 -22.339844 30.777344 -23.242188 31.324219 -24.09375 L 24.726562 -23.96875 C 23.996094 -22.925781 23.316406 -21.882812 22.585938 -20.835938 C 21.855469 -19.792969 21.175781 -18.75 20.492188 -17.753906 C 19.761719 -16.710938 19.078125 -15.714844 18.351562 -14.671875 C 17.621094 -13.628906 16.9375 -12.585938 16.257812 -11.542969 L 15.027344 -9.742188 C 14.480469 -8.980469 13.929688 -8.316406 13.332031 -7.695312 C 12.691406 -7.027344 12 -6.5 11.351562 -6.113281 C 10.65625 -5.679688 10.003906 -5.527344 9.347656 -5.609375 C 9.019531 -5.601562 8.828125 -5.832031 8.773438 -6.253906 C 8.675781 -6.53125 8.804688 -7.046875 9.167969 -7.804688 C 9.527344 -8.558594 10.070312 -9.507812 10.796875 -10.597656 C 11.480469 -11.6875 12.160156 -12.777344 12.890625 -13.867188 C 13.570312 -14.910156 14.160156 -15.902344 14.703125 -16.851562 C 15.246094 -17.796875 15.5625 -18.503906 15.644531 -19.066406 C 15.765625 -20.007812 15.707031 -20.753906 15.507812 -21.40625 C 15.308594 -22.058594 14.96875 -22.566406 14.542969 -22.929688 C 14.019531 -23.34375 13.40625 -23.566406 12.75 -23.644531 C 12.09375 -23.726562 11.390625 -23.621094 10.695312 -23.417969 C 11.027344 -23.050781 11.269531 -22.730469 11.367188 -22.449219 C 11.46875 -22.125 11.425781 -21.796875 11.339844 -21.464844 C 11.207031 -21.089844 10.980469 -20.664062 10.707031 -20.238281 C 10.390625 -19.761719 10.023438 -19.289062 9.660156 -18.71875 L 9.660156 -18.671875 L 1.632812 -7.707031 C 1.355469 -7.421875 1.128906 -7.042969 0.855469 -6.617188 C 0.585938 -6.191406 0.3125 -5.714844 0.0859375 -5.242188 C -0.628906 -3.546875 -0.746094 -2.28125 -0.355469 -1.445312 C -0.160156 -0.980469 0.128906 -0.5625 0.507812 -0.289062 C 0.890625 0.03125 1.316406 0.253906 1.832031 0.386719 C 2.304688 0.566406 2.867188 0.601562 3.472656 0.542969 C 4.035156 0.53125 4.640625 0.378906 5.199219 0.0898438 C 6.3125 -0.402344 7.421875 -1.078125 8.4375 -1.890625 C 9.449219 -2.707031 10.371094 -3.566406 11.195312 -4.472656 C 11.929688 -5.328125 12.523438 -5.949219 12.984375 -6.332031 L 7.742188 1.070312 C 4.390625 1.976562 1.695312 3.058594 -0.433594 4.359375 C -2.652344 5.714844 -4.3125 7.101562 -5.457031 8.433594 C -6.648438 9.816406 -7.464844 11.09375 -7.957031 12.273438 C -8.496094 13.5 -8.800781 14.632812 -8.875 15.707031 C -8.949219 16.785156 -8.835938 17.722656 -8.492188 18.558594 C -8.390625 19.023438 -8.148438 19.441406 -7.859375 19.808594 C -7.574219 20.175781 -7.238281 20.5 -6.859375 20.773438 C -6.480469 21.046875 -6.007812 21.175781 -5.492188 21.261719 C -4.976562 21.34375 -4.414062 21.335938 -3.761719 21.136719 Z M -4.410156 14.265625 C -5.066406 14.09375 -5.449219 13.726562 -5.460938 13.164062 C -5.46875 12.601562 -5.339844 11.992188 -4.980469 11.328125 C -4.664062 10.714844 -4.253906 10.097656 -3.796875 9.480469 C -3.339844 8.863281 -2.882812 8.339844 -2.46875 7.957031 C -1.179688 6.808594 0.25 5.847656 1.828125 5.066406 C 3.40625 4.289062 4.9375 3.605469 6.46875 3.011719 L 6.519531 3.058594 L 5.378906 4.71875 C 5.105469 5.097656 4.832031 5.523438 4.558594 5.90625 C 4.285156 6.332031 3.96875 6.757812 3.648438 7.1875 C 3.007812 8.085938 2.324219 8.988281 1.59375 9.894531 C 0.863281 10.84375 0.175781 11.652344 -0.515625 12.320312 C -1.25 13.035156 -1.988281 13.566406 -2.636719 13.953125 C -3.285156 14.339844 -3.890625 14.445312 -4.410156 14.265625 Z M -4.410156 14.265625 "/></g></g></g><g fill="#8d5053" fill-opacity="1"><g transform="translate(165.97091, 195.004516)"><g/></g></g><g fill="#8d5053" fill-opacity="1"><g transform="translate(171.350272, 194.902104)"><g/></g></g><g fill="#8d5053" fill-opacity="1"><g transform="translate(176.729634, 194.799691)"><g/></g></g><g fill="#8d5053" fill-opacity="1"><g transform="translate(182.108995, 194.697279)"><g/></g></g><g fill="#8d5053" fill-opacity="1"><g transform="translate(187.488358, 194.594866)"><g/></g></g><g fill="#216b39" fill-opacity="1"><g transform="translate(167.084477, 194.359238)"><g/></g></g><g fill="#216b39" fill-opacity="1"><g transform="translate(172.463838, 194.256825)"><g/></g></g><g fill="#216b39" fill-opacity="1"><g transform="translate(177.8432, 194.154413)"><g/></g></g><g fill="#216b39" fill-opacity="1"><g transform="translate(183.222562, 194.052)"><g/></g></g><g fill="#216b39" fill-opacity="1"><g transform="translate(188.601924, 193.949588)"><g/></g></g><g fill="#8d5053" fill-opacity="1"><g transform="translate(192.861078, 194.49258)"><g><path d="M 52.59375 -42.753906 C 50.789062 -43.984375 48.386719 -44.917969 45.46875 -45.613281 C 42.507812 -46.257812 38.902344 -46.519531 34.597656 -46.34375 L 34.550781 -46.292969 C 31.605469 -46.144531 29.179688 -45.769531 27.320312 -45.082031 C 25.460938 -44.390625 23.976562 -43.613281 22.917969 -42.65625 C 21.8125 -41.699219 21.132812 -40.609375 20.78125 -39.480469 C 20.425781 -38.347656 20.355469 -37.226562 20.5625 -36.199219 C 20.71875 -35.265625 21.0625 -34.382812 21.546875 -33.597656 C 22.03125 -32.808594 22.652344 -32.167969 23.363281 -31.664062 C 24.027344 -31.117188 24.734375 -30.800781 25.535156 -30.722656 C 26.285156 -30.644531 27.078125 -30.800781 27.863281 -31.28125 C 26.800781 -32.949219 26.257812 -34.527344 26.324219 -35.980469 C 26.34375 -37.386719 26.785156 -38.65625 27.609375 -39.796875 C 28.382812 -40.886719 29.441406 -41.84375 30.832031 -42.621094 C 32.171875 -43.394531 33.660156 -43.984375 35.242188 -44.390625 C 36.828125 -44.792969 38.367188 -45.011719 39.957031 -45.039062 C 41.503906 -45.070312 42.910156 -44.910156 44.179688 -44.558594 C 45.96875 -44.03125 47.296875 -43.167969 48.207031 -41.96875 C 49.074219 -40.765625 49.613281 -39.375 49.785156 -37.878906 C 49.910156 -36.195312 49.566406 -34.503906 48.753906 -32.898438 C 47.945312 -31.242188 46.847656 -29.773438 45.46875 -28.433594 C 44.273438 -27.289062 43.03125 -26.28125 41.6875 -25.507812 C 40.296875 -24.734375 38.996094 -24.191406 37.691406 -23.933594 C 36.480469 -23.675781 35.402344 -23.703125 34.414062 -23.964844 C 33.378906 -24.226562 32.621094 -24.820312 32.085938 -25.839844 C 32.632812 -26.644531 33.179688 -27.453125 33.726562 -28.210938 C 34.273438 -28.972656 34.867188 -29.730469 35.414062 -30.492188 C 36.875 -32.484375 38.386719 -34.246094 39.851562 -35.816406 C 41.320312 -37.390625 42.796875 -38.636719 44.230469 -39.503906 C 42.96875 -39.246094 41.671875 -38.707031 40.375 -37.839844 C 39.082031 -36.972656 37.742188 -35.964844 36.410156 -34.722656 C 35.03125 -33.480469 33.605469 -32.09375 32.230469 -30.570312 C 30.855469 -29.046875 29.476562 -27.570312 28.101562 -26.042969 C 26.679688 -24.519531 25.304688 -23.042969 23.929688 -21.613281 C 22.550781 -20.183594 21.167969 -18.984375 19.878906 -17.929688 C 18.542969 -16.828125 17.25 -15.960938 15.996094 -15.375 C 14.695312 -14.789062 13.484375 -14.53125 12.3125 -14.699219 C 11.28125 -14.773438 10.523438 -15.179688 9.949219 -15.824219 C 9.375 -16.46875 8.9375 -17.253906 8.6875 -18.1875 C 8.390625 -19.070312 8.230469 -20.050781 8.210938 -21.078125 C 8.191406 -22.109375 8.21875 -23.046875 8.390625 -23.984375 C 7.1875 -23.304688 6.078125 -22.582031 5.0625 -21.722656 C 4.050781 -20.859375 3.128906 -19.953125 2.308594 -18.90625 C 1.4375 -17.859375 0.710938 -16.722656 0.171875 -15.496094 C -0.410156 -14.269531 -0.808594 -13.042969 -0.972656 -11.730469 C -1.222656 -10.226562 -1.148438 -8.777344 -0.84375 -7.378906 C -0.535156 -5.980469 0.0976562 -4.730469 0.960938 -3.714844 C 1.773438 -2.65625 2.867188 -1.832031 4.191406 -1.203125 C 5.511719 -0.574219 7.109375 -0.324219 8.980469 -0.359375 C 10.289062 -0.382812 11.636719 -0.875 13.117188 -1.839844 C 14.503906 -2.757812 15.933594 -4 17.398438 -5.574219 C 18.867188 -7.144531 20.332031 -8.953125 21.835938 -11.039062 C 23.296875 -13.082031 24.800781 -15.214844 26.300781 -17.398438 C 27.804688 -19.578125 29.351562 -21.855469 30.902344 -24.132812 C 31.085938 -24.324219 31.21875 -24.605469 31.402344 -24.890625 C 31.28125 -23.859375 31.4375 -22.972656 31.875 -22.183594 C 32.3125 -21.351562 32.933594 -20.707031 33.691406 -20.160156 C 34.640625 -19.429688 35.726562 -18.933594 37.042969 -18.679688 C 38.359375 -18.421875 39.667969 -18.402344 40.972656 -18.707031 C 42.933594 -19.117188 44.792969 -19.714844 46.460938 -20.542969 C 48.132812 -21.324219 49.660156 -22.289062 51.042969 -23.390625 C 52.796875 -24.734375 54.167969 -26.308594 55.214844 -28.011719 C 56.210938 -29.714844 56.832031 -31.507812 57.078125 -33.289062 C 57.28125 -35.074219 57.011719 -36.753906 56.328125 -38.425781 C 55.640625 -40.050781 54.394531 -41.476562 52.59375 -42.753906 Z M 52.59375 -42.753906 "/></g></g></g><g fill="#8d5053" fill-opacity="1"><g transform="translate(231.690654, 193.753342)"><g><path d="M -0.144531 -0.277344 C 0.796875 -0.015625 1.917969 -0.0351562 3.222656 -0.34375 C 4.527344 -0.648438 5.875 -1.234375 7.261719 -2.105469 C 8.648438 -2.972656 9.984375 -4.121094 11.316406 -5.550781 C 12.597656 -6.980469 13.78125 -8.6875 14.773438 -10.671875 C 14.453125 -10.339844 14.132812 -10.003906 13.808594 -9.71875 C 13.488281 -9.429688 13.164062 -9.144531 12.84375 -8.902344 C 12.105469 -8.328125 11.363281 -7.847656 10.625 -7.457031 C 9.882812 -7.070312 9.234375 -6.777344 8.582031 -6.574219 C 7.882812 -6.328125 7.277344 -6.222656 6.761719 -6.308594 C 6.246094 -6.34375 5.960938 -6.574219 5.859375 -6.945312 C 5.710938 -7.316406 5.703125 -7.738281 5.878906 -8.304688 C 6.058594 -8.820312 6.328125 -9.433594 6.6875 -10.097656 C 7.050781 -10.710938 7.414062 -11.328125 7.777344 -11.945312 C 8.140625 -12.511719 8.550781 -13.082031 8.917969 -13.554688 C 9.28125 -14.03125 9.554688 -14.410156 9.691406 -14.648438 L 9.644531 -14.601562 L 16.335938 -24.558594 C 16.660156 -24.796875 17.027344 -25.039062 17.445312 -25.328125 C 17.859375 -25.617188 18.277344 -25.90625 18.738281 -26.242188 C 19.152344 -26.53125 19.570312 -26.820312 20.03125 -27.15625 C 20.492188 -27.445312 20.957031 -27.78125 21.464844 -28.164062 C 22.386719 -28.839844 23.355469 -29.558594 24.277344 -30.324219 C 25.199219 -31.089844 26.117188 -31.953125 26.992188 -32.859375 C 27.863281 -33.761719 28.640625 -34.667969 29.371094 -35.617188 C 30.054688 -36.566406 30.554688 -37.464844 30.910156 -38.363281 C 31.222656 -39.210938 31.347656 -40.054688 31.285156 -40.804688 C 31.179688 -41.550781 30.835938 -42.246094 30.167969 -42.886719 C 29.695312 -43.253906 29.128906 -43.570312 28.46875 -43.746094 C 27.808594 -43.917969 27.058594 -43.953125 26.265625 -43.84375 C 25.425781 -43.6875 24.636719 -43.390625 23.804688 -42.90625 C 22.96875 -42.421875 22.234375 -41.753906 21.546875 -40.898438 C 18.121094 -36.527344 14.925781 -32.160156 11.921875 -27.796875 C 8.914062 -23.433594 5.863281 -18.976562 2.769531 -14.421875 L 1.21875 -12.238281 C 0.945312 -11.8125 0.671875 -11.386719 0.398438 -11.007812 C 0.125 -10.628906 -0.101562 -10.203125 -0.328125 -9.824219 C -0.871094 -8.96875 -1.324219 -8.164062 -1.683594 -7.316406 C -2.089844 -6.464844 -2.355469 -5.617188 -2.480469 -4.820312 C -2.734375 -3.503906 -2.621094 -2.476562 -2.1875 -1.738281 C -1.75 -0.996094 -1.085938 -0.496094 -0.144531 -0.277344 Z M 16.714844 -26.8125 L 26.851562 -40.0625 C 27.128906 -40.441406 27.496094 -40.683594 27.871094 -40.785156 C 28.242188 -40.839844 28.523438 -40.796875 28.808594 -40.617188 C 29 -40.433594 29.191406 -40.15625 29.292969 -39.78125 C 29.394531 -39.410156 29.355469 -38.941406 29.226562 -38.375 C 29.050781 -37.8125 28.6875 -37.148438 28.234375 -36.4375 C 27.78125 -35.679688 27.09375 -34.871094 26.21875 -34.011719 C 25.484375 -33.25 24.65625 -32.53125 23.78125 -31.765625 C 22.859375 -31 21.984375 -30.28125 21.109375 -29.609375 C 20.183594 -28.9375 19.355469 -28.3125 18.566406 -27.828125 C 17.78125 -27.347656 17.179688 -27.007812 16.714844 -26.8125 Z M 16.714844 -26.8125 "/></g></g></g><g fill="#8d5053" fill-opacity="1"><g transform="translate(242.216203, 193.552957)"><g><path d="M 14.917969 -0.707031 L 14.734375 -0.5625 C 16.042969 -0.585938 17.347656 -0.984375 18.6875 -1.808594 C 19.984375 -2.582031 21.277344 -3.589844 22.46875 -4.78125 C 23.617188 -5.925781 24.671875 -7.210938 25.675781 -8.539062 C 26.679688 -9.871094 27.496094 -11.148438 28.132812 -12.285156 C 28.039062 -12.1875 27.945312 -12.140625 27.808594 -12.042969 C 27.667969 -11.949219 27.53125 -11.804688 27.347656 -11.660156 C 26.933594 -11.277344 26.472656 -10.894531 25.964844 -10.511719 C 25.457031 -10.082031 24.90625 -9.648438 24.304688 -9.214844 C 23.011719 -8.207031 21.949219 -7.484375 21.023438 -7.09375 C 20.558594 -6.851562 20.183594 -6.796875 19.949219 -6.886719 C 19.714844 -6.976562 19.660156 -7.253906 19.792969 -7.726562 C 19.878906 -8.195312 20.285156 -8.953125 20.921875 -9.898438 L 30.972656 -25.210938 L 24.378906 -25.085938 L 21.464844 -20.722656 C 21.445312 -21.660156 21.292969 -22.40625 20.953125 -23.054688 C 20.613281 -23.65625 20.183594 -24.117188 19.613281 -24.480469 C 19 -24.796875 18.292969 -24.96875 17.542969 -25.046875 C 16.792969 -25.082031 15.953125 -24.972656 15.117188 -24.769531 C 14.464844 -24.566406 13.71875 -24.273438 12.933594 -23.789062 C 12.148438 -23.308594 11.363281 -22.777344 10.53125 -22.105469 C 9.703125 -21.433594 8.828125 -20.667969 7.953125 -19.808594 C 7.082031 -18.953125 6.253906 -18.09375 5.429688 -17.140625 C 4.421875 -16 3.507812 -14.859375 2.6875 -13.671875 C 1.824219 -12.4375 1.097656 -11.253906 0.464844 -10.074219 C 0.0117188 -9.222656 -0.390625 -8.230469 -0.648438 -7.101562 C -0.910156 -5.972656 -1.03125 -4.941406 -0.917969 -3.960938 C -0.851562 -2.933594 -0.554688 -2.097656 -0.0742188 -1.402344 C 0.40625 -0.710938 1.210938 -0.351562 2.378906 -0.371094 C 3.972656 -0.402344 5.648438 -0.761719 7.320312 -1.542969 C 8.109375 -1.886719 8.847656 -2.320312 9.542969 -2.804688 C 10.234375 -3.285156 10.832031 -3.855469 11.289062 -4.472656 C 11.214844 -3.394531 11.511719 -2.511719 12.183594 -1.777344 C 12.804688 -1.039062 13.703125 -0.683594 14.917969 -0.707031 Z M 6.992188 -6.5 C 6.566406 -6.726562 6.277344 -7.09375 6.125 -7.652344 C 5.976562 -8.210938 6.054688 -8.914062 6.320312 -9.808594 C 6.539062 -10.65625 6.988281 -11.648438 7.710938 -12.878906 C 8.4375 -14.0625 9.441406 -15.4375 10.722656 -17.007812 C 11.273438 -17.671875 11.820312 -18.339844 12.464844 -19.007812 C 13.058594 -19.671875 13.703125 -20.246094 14.347656 -20.820312 C 14.945312 -21.347656 15.59375 -21.78125 16.289062 -22.074219 C 16.941406 -22.367188 17.640625 -22.476562 18.386719 -22.488281 C 18.808594 -22.449219 19.140625 -22.316406 19.378906 -22.085938 C 19.570312 -21.808594 19.71875 -21.484375 19.820312 -21.066406 C 19.875 -20.644531 19.882812 -20.179688 19.800781 -19.613281 C 19.71875 -19.050781 19.632812 -18.488281 19.460938 -17.875 L 19.507812 -17.878906 L 14.769531 -11.046875 C 14.40625 -10.476562 13.902344 -9.859375 13.351562 -9.195312 C 12.757812 -8.527344 12.113281 -7.90625 11.421875 -7.378906 C 10.683594 -6.804688 9.941406 -6.414062 9.195312 -6.214844 C 8.40625 -5.964844 7.65625 -6.042969 6.992188 -6.5 Z M 6.992188 -6.5 "/></g></g></g><g fill="#8d5053" fill-opacity="1"><g transform="translate(266.40254, 193.092497)"><g><path d="M 6.460938 -17.066406 L -4.585938 0.0859375 L 1.871094 -0.0351562 C 4.503906 -4.390625 6.683594 -7.992188 8.40625 -10.925781 C 10.128906 -13.859375 11.582031 -16.183594 12.8125 -17.9375 C 13.996094 -19.644531 15.046875 -20.882812 15.972656 -21.601562 C 16.894531 -22.273438 17.824219 -22.621094 18.808594 -22.589844 C 19.417969 -22.507812 19.84375 -22.285156 20.039062 -21.820312 C 20.234375 -21.355469 20.152344 -20.839844 19.695312 -20.222656 L 13.039062 -10.96875 C 12.671875 -10.492188 12.308594 -9.921875 11.851562 -9.304688 C 11.398438 -8.640625 11.035156 -7.980469 10.671875 -7.316406 C 10.265625 -6.609375 9.953125 -5.898438 9.730469 -5.195312 C 9.511719 -4.488281 9.429688 -3.832031 9.535156 -3.222656 C 9.59375 -2.570312 9.839844 -2.011719 10.316406 -1.554688 C 10.792969 -1.046875 11.546875 -0.6875 12.582031 -0.472656 C 13.242188 -0.300781 13.988281 -0.3125 14.734375 -0.421875 C 15.484375 -0.527344 16.132812 -0.773438 16.78125 -1.207031 C 17.429688 -1.59375 18.074219 -2.167969 18.761719 -2.839844 C 19.40625 -3.503906 20.09375 -4.265625 20.78125 -5.078125 C 21.421875 -5.835938 22.015625 -6.597656 22.605469 -7.40625 C 23.15625 -8.164062 23.703125 -8.875 24.15625 -9.539062 C 23.878906 -9.394531 23.558594 -9.15625 23.234375 -8.867188 C 23.050781 -8.675781 22.914062 -8.535156 22.730469 -8.390625 C 22.542969 -8.246094 22.359375 -8.101562 22.222656 -7.960938 C 21.851562 -7.671875 21.484375 -7.382812 21.113281 -7.1875 C 20.742188 -6.996094 20.371094 -6.894531 19.996094 -6.886719 C 19.433594 -6.875 19.148438 -7.152344 19.183594 -7.761719 C 19.171875 -8.277344 19.394531 -8.980469 19.84375 -9.925781 C 20.25 -10.777344 20.792969 -11.722656 21.429688 -12.8125 C 22.0625 -13.855469 22.699219 -14.894531 23.335938 -15.9375 C 23.921875 -16.929688 24.46875 -17.832031 24.921875 -18.683594 C 25.371094 -19.488281 25.640625 -20.101562 25.726562 -20.523438 C 25.804688 -21.367188 25.792969 -22.023438 25.59375 -22.582031 C 25.398438 -23.136719 25.152344 -23.601562 24.773438 -23.96875 C 23.917969 -24.703125 22.972656 -25.105469 21.941406 -25.226562 C 20.910156 -25.347656 19.832031 -25.230469 18.8125 -24.839844 C 17.742188 -24.445312 16.722656 -23.863281 15.710938 -23.046875 C 14.695312 -22.183594 13.824219 -21.234375 13.003906 -20.09375 C 13.355469 -21.410156 13.472656 -22.441406 13.320312 -23.234375 C 13.164062 -23.980469 12.6875 -24.488281 11.886719 -24.753906 C 11.320312 -24.882812 10.621094 -24.824219 9.78125 -24.574219 C 8.898438 -24.320312 7.832031 -23.785156 6.628906 -23.015625 L 6.484375 -23.199219 C 7.253906 -22.089844 7.601562 -21.066406 7.621094 -20.179688 C 7.582031 -19.710938 7.453125 -19.191406 7.273438 -18.722656 C 7.050781 -18.203125 6.777344 -17.636719 6.460938 -17.066406 Z M 6.460938 -17.066406 "/></g></g></g><g fill="#8d5053" fill-opacity="1"><g transform="translate(288.343263, 192.674789)"><g><path d="M 1.027344 -0.160156 C 1.96875 0.101562 3.089844 0.128906 4.398438 -0.175781 C 5.703125 -0.484375 7.046875 -1.070312 8.480469 -1.941406 C 9.871094 -2.808594 11.207031 -3.957031 12.535156 -5.386719 C 13.867188 -6.816406 15.050781 -8.570312 16.042969 -10.554688 C 15.71875 -10.222656 15.398438 -9.886719 15.078125 -9.601562 C 14.753906 -9.316406 14.433594 -9.027344 14.109375 -8.789062 C 13.371094 -8.210938 12.632812 -7.730469 11.890625 -7.339844 C 11.148438 -6.953125 10.5 -6.660156 9.847656 -6.460938 C 9.148438 -6.210938 8.542969 -6.105469 8.027344 -6.191406 C 7.511719 -6.226562 7.226562 -6.457031 7.125 -6.828125 C 6.976562 -7.199219 6.96875 -7.621094 7.144531 -8.1875 C 7.324219 -8.707031 7.59375 -9.320312 7.953125 -9.980469 C 8.269531 -10.59375 8.632812 -11.210938 9.042969 -11.828125 C 9.40625 -12.394531 9.816406 -12.964844 10.179688 -13.488281 C 10.546875 -13.960938 10.820312 -14.339844 10.957031 -14.578125 L 16.78125 -23.347656 L 21.460938 -23.4375 L 22.789062 -24.820312 L 17.738281 -24.722656 L 20.105469 -28.28125 L 26.890625 -38.144531 C 26.328125 -38.226562 25.945312 -38.546875 25.75 -39.011719 C 25.507812 -39.476562 25.308594 -39.988281 25.207031 -40.59375 C 25.054688 -41.152344 24.902344 -41.710938 24.707031 -42.269531 C 24.507812 -42.828125 24.21875 -43.242188 23.746094 -43.515625 C 23.65625 -43.371094 23.5625 -43.183594 23.425781 -42.992188 C 23.242188 -42.804688 23.0625 -42.519531 22.878906 -42.234375 L 21.289062 -39.863281 C 20.921875 -39.386719 20.605469 -38.867188 20.285156 -38.347656 C 19.921875 -37.824219 19.558594 -37.304688 19.191406 -36.78125 C 18.78125 -36.210938 18.417969 -35.691406 18.054688 -35.121094 C 17.691406 -34.554688 17.28125 -33.984375 16.917969 -33.414062 C 15.09375 -30.757812 13.089844 -27.820312 10.90625 -24.59375 L 7.164062 -24.523438 L 5.832031 -23.140625 L 9.949219 -23.21875 L 3.984375 -14.351562 L 2.4375 -12.167969 C 2.164062 -11.742188 1.890625 -11.316406 1.617188 -10.9375 C 1.34375 -10.558594 1.070312 -10.128906 0.84375 -9.75 C 0.296875 -8.898438 -0.152344 -8.046875 -0.511719 -7.199219 C -0.917969 -6.347656 -1.183594 -5.546875 -1.304688 -4.703125 C -1.5625 -3.386719 -1.449219 -2.359375 -1.015625 -1.617188 C -0.578125 -0.878906 0.0859375 -0.375 1.027344 -0.160156 Z M 1.027344 -0.160156 "/></g></g></g><g fill="#216b39" fill-opacity="1"><g transform="translate(193.974645, 193.847302)"><g><path d="M 52.59375 -42.753906 C 50.789062 -43.984375 48.386719 -44.917969 45.46875 -45.613281 C 42.507812 -46.257812 38.902344 -46.519531 34.597656 -46.34375 L 34.550781 -46.292969 C 31.605469 -46.144531 29.179688 -45.769531 27.320312 -45.082031 C 25.460938 -44.390625 23.976562 -43.613281 22.917969 -42.65625 C 21.8125 -41.699219 21.132812 -40.609375 20.78125 -39.480469 C 20.425781 -38.347656 20.355469 -37.226562 20.5625 -36.199219 C 20.71875 -35.265625 21.0625 -34.382812 21.546875 -33.597656 C 22.03125 -32.808594 22.652344 -32.167969 23.363281 -31.664062 C 24.027344 -31.117188 24.734375 -30.800781 25.535156 -30.722656 C 26.285156 -30.644531 27.078125 -30.800781 27.863281 -31.28125 C 26.800781 -32.949219 26.257812 -34.527344 26.324219 -35.980469 C 26.34375 -37.386719 26.785156 -38.65625 27.609375 -39.796875 C 28.382812 -40.886719 29.441406 -41.84375 30.832031 -42.621094 C 32.171875 -43.394531 33.660156 -43.984375 35.242188 -44.390625 C 36.828125 -44.792969 38.367188 -45.011719 39.957031 -45.039062 C 41.503906 -45.070312 42.910156 -44.910156 44.179688 -44.558594 C 45.96875 -44.03125 47.296875 -43.167969 48.207031 -41.96875 C 49.074219 -40.765625 49.613281 -39.375 49.785156 -37.878906 C 49.910156 -36.195312 49.566406 -34.503906 48.753906 -32.898438 C 47.945312 -31.242188 46.847656 -29.773438 45.46875 -28.433594 C 44.273438 -27.289062 43.03125 -26.28125 41.6875 -25.507812 C 40.296875 -24.734375 38.996094 -24.191406 37.691406 -23.933594 C 36.480469 -23.675781 35.402344 -23.703125 34.414062 -23.964844 C 33.378906 -24.226562 32.621094 -24.820312 32.085938 -25.839844 C 32.632812 -26.644531 33.179688 -27.453125 33.726562 -28.210938 C 34.273438 -28.972656 34.867188 -29.730469 35.414062 -30.492188 C 36.875 -32.484375 38.386719 -34.246094 39.851562 -35.816406 C 41.320312 -37.390625 42.796875 -38.636719 44.230469 -39.503906 C 42.96875 -39.246094 41.671875 -38.707031 40.375 -37.839844 C 39.082031 -36.972656 37.742188 -35.964844 36.410156 -34.722656 C 35.03125 -33.480469 33.605469 -32.09375 32.230469 -30.570312 C 30.855469 -29.046875 29.476562 -27.570312 28.101562 -26.042969 C 26.679688 -24.519531 25.304688 -23.042969 23.929688 -21.613281 C 22.550781 -20.183594 21.167969 -18.984375 19.878906 -17.929688 C 18.542969 -16.828125 17.25 -15.960938 15.996094 -15.375 C 14.695312 -14.789062 13.484375 -14.53125 12.3125 -14.699219 C 11.28125 -14.773438 10.523438 -15.179688 9.949219 -15.824219 C 9.375 -16.46875 8.9375 -17.253906 8.6875 -18.1875 C 8.390625 -19.070312 8.230469 -20.050781 8.210938 -21.078125 C 8.191406 -22.109375 8.21875 -23.046875 8.390625 -23.984375 C 7.1875 -23.304688 6.078125 -22.582031 5.0625 -21.722656 C 4.050781 -20.859375 3.128906 -19.953125 2.308594 -18.90625 C 1.4375 -17.859375 0.710938 -16.722656 0.171875 -15.496094 C -0.410156 -14.269531 -0.808594 -13.042969 -0.972656 -11.730469 C -1.222656 -10.226562 -1.148438 -8.777344 -0.84375 -7.378906 C -0.535156 -5.980469 0.0976562 -4.730469 0.960938 -3.714844 C 1.773438 -2.65625 2.867188 -1.832031 4.191406 -1.203125 C 5.511719 -0.574219 7.109375 -0.324219 8.980469 -0.359375 C 10.289062 -0.382812 11.636719 -0.875 13.117188 -1.839844 C 14.503906 -2.757812 15.933594 -4 17.398438 -5.574219 C 18.867188 -7.144531 20.332031 -8.953125 21.835938 -11.039062 C 23.296875 -13.082031 24.800781 -15.214844 26.300781 -17.398438 C 27.804688 -19.578125 29.351562 -21.855469 30.902344 -24.132812 C 31.085938 -24.324219 31.21875 -24.605469 31.402344 -24.890625 C 31.28125 -23.859375 31.4375 -22.972656 31.875 -22.183594 C 32.3125 -21.351562 32.933594 -20.707031 33.691406 -20.160156 C 34.640625 -19.429688 35.726562 -18.933594 37.042969 -18.679688 C 38.359375 -18.421875 39.667969 -18.402344 40.972656 -18.707031 C 42.933594 -19.117188 44.792969 -19.714844 46.460938 -20.542969 C 48.132812 -21.324219 49.660156 -22.289062 51.042969 -23.390625 C 52.796875 -24.734375 54.167969 -26.308594 55.214844 -28.011719 C 56.210938 -29.714844 56.832031 -31.507812 57.078125 -33.289062 C 57.28125 -35.074219 57.011719 -36.753906 56.328125 -38.425781 C 55.640625 -40.050781 54.394531 -41.476562 52.59375 -42.753906 Z M 52.59375 -42.753906 "/></g></g></g><g fill="#216b39" fill-opacity="1"><g transform="translate(232.804221, 193.108064)"><g><path d="M -0.144531 -0.277344 C 0.796875 -0.015625 1.917969 -0.0351562 3.222656 -0.34375 C 4.527344 -0.648438 5.875 -1.234375 7.261719 -2.105469 C 8.648438 -2.972656 9.984375 -4.121094 11.316406 -5.550781 C 12.597656 -6.980469 13.78125 -8.6875 14.773438 -10.671875 C 14.453125 -10.339844 14.132812 -10.003906 13.808594 -9.71875 C 13.488281 -9.429688 13.164062 -9.144531 12.84375 -8.902344 C 12.105469 -8.328125 11.363281 -7.847656 10.625 -7.457031 C 9.882812 -7.070312 9.234375 -6.777344 8.582031 -6.574219 C 7.882812 -6.328125 7.277344 -6.222656 6.761719 -6.308594 C 6.246094 -6.34375 5.960938 -6.574219 5.859375 -6.945312 C 5.710938 -7.316406 5.703125 -7.738281 5.878906 -8.304688 C 6.058594 -8.820312 6.328125 -9.433594 6.6875 -10.097656 C 7.050781 -10.710938 7.414062 -11.328125 7.777344 -11.945312 C 8.140625 -12.511719 8.550781 -13.082031 8.917969 -13.554688 C 9.28125 -14.03125 9.554688 -14.410156 9.691406 -14.648438 L 9.644531 -14.601562 L 16.335938 -24.558594 C 16.660156 -24.796875 17.027344 -25.039062 17.445312 -25.328125 C 17.859375 -25.617188 18.277344 -25.90625 18.738281 -26.242188 C 19.152344 -26.53125 19.570312 -26.820312 20.03125 -27.15625 C 20.492188 -27.445312 20.957031 -27.78125 21.464844 -28.164062 C 22.386719 -28.839844 23.355469 -29.558594 24.277344 -30.324219 C 25.199219 -31.089844 26.117188 -31.953125 26.992188 -32.859375 C 27.863281 -33.761719 28.640625 -34.667969 29.371094 -35.617188 C 30.054688 -36.566406 30.554688 -37.464844 30.910156 -38.363281 C 31.222656 -39.210938 31.347656 -40.054688 31.285156 -40.804688 C 31.179688 -41.550781 30.835938 -42.246094 30.167969 -42.886719 C 29.695312 -43.253906 29.128906 -43.570312 28.46875 -43.746094 C 27.808594 -43.917969 27.058594 -43.953125 26.265625 -43.84375 C 25.425781 -43.6875 24.636719 -43.390625 23.804688 -42.90625 C 22.96875 -42.421875 22.234375 -41.753906 21.546875 -40.898438 C 18.121094 -36.527344 14.925781 -32.160156 11.921875 -27.796875 C 8.914062 -23.433594 5.863281 -18.976562 2.769531 -14.421875 L 1.21875 -12.238281 C 0.945312 -11.8125 0.671875 -11.386719 0.398438 -11.007812 C 0.125 -10.628906 -0.101562 -10.203125 -0.328125 -9.824219 C -0.871094 -8.96875 -1.324219 -8.164062 -1.683594 -7.316406 C -2.089844 -6.464844 -2.355469 -5.617188 -2.480469 -4.820312 C -2.734375 -3.503906 -2.621094 -2.476562 -2.1875 -1.738281 C -1.75 -0.996094 -1.085938 -0.496094 -0.144531 -0.277344 Z M 16.714844 -26.8125 L 26.851562 -40.0625 C 27.128906 -40.441406 27.496094 -40.683594 27.871094 -40.785156 C 28.242188 -40.839844 28.523438 -40.796875 28.808594 -40.617188 C 29 -40.433594 29.191406 -40.15625 29.292969 -39.78125 C 29.394531 -39.410156 29.355469 -38.941406 29.226562 -38.375 C 29.050781 -37.8125 28.6875 -37.148438 28.234375 -36.4375 C 27.78125 -35.679688 27.09375 -34.871094 26.21875 -34.011719 C 25.484375 -33.25 24.65625 -32.53125 23.78125 -31.765625 C 22.859375 -31 21.984375 -30.28125 21.109375 -29.609375 C 20.183594 -28.9375 19.355469 -28.3125 18.566406 -27.828125 C 17.78125 -27.347656 17.179688 -27.007812 16.714844 -26.8125 Z M 16.714844 -26.8125 "/></g></g></g><g fill="#216b39" fill-opacity="1"><g transform="translate(243.32977, 192.907678)"><g><path d="M 14.917969 -0.707031 L 14.734375 -0.5625 C 16.042969 -0.585938 17.347656 -0.984375 18.6875 -1.808594 C 19.984375 -2.582031 21.277344 -3.589844 22.46875 -4.78125 C 23.617188 -5.925781 24.671875 -7.210938 25.675781 -8.539062 C 26.679688 -9.871094 27.496094 -11.148438 28.132812 -12.285156 C 28.039062 -12.1875 27.945312 -12.140625 27.808594 -12.042969 C 27.667969 -11.949219 27.53125 -11.804688 27.347656 -11.660156 C 26.933594 -11.277344 26.472656 -10.894531 25.964844 -10.511719 C 25.457031 -10.082031 24.90625 -9.648438 24.304688 -9.214844 C 23.011719 -8.207031 21.949219 -7.484375 21.023438 -7.09375 C 20.558594 -6.851562 20.183594 -6.796875 19.949219 -6.886719 C 19.714844 -6.976562 19.660156 -7.253906 19.792969 -7.726562 C 19.878906 -8.195312 20.285156 -8.953125 20.921875 -9.898438 L 30.972656 -25.210938 L 24.378906 -25.085938 L 21.464844 -20.722656 C 21.445312 -21.660156 21.292969 -22.40625 20.953125 -23.054688 C 20.613281 -23.65625 20.183594 -24.117188 19.613281 -24.480469 C 19 -24.796875 18.292969 -24.96875 17.542969 -25.046875 C 16.792969 -25.082031 15.953125 -24.972656 15.117188 -24.769531 C 14.464844 -24.566406 13.71875 -24.273438 12.933594 -23.789062 C 12.148438 -23.308594 11.363281 -22.777344 10.53125 -22.105469 C 9.703125 -21.433594 8.828125 -20.667969 7.953125 -19.808594 C 7.082031 -18.953125 6.253906 -18.09375 5.429688 -17.140625 C 4.421875 -16 3.507812 -14.859375 2.6875 -13.671875 C 1.824219 -12.4375 1.097656 -11.253906 0.464844 -10.074219 C 0.0117188 -9.222656 -0.390625 -8.230469 -0.648438 -7.101562 C -0.910156 -5.972656 -1.03125 -4.941406 -0.917969 -3.960938 C -0.851562 -2.933594 -0.554688 -2.097656 -0.0742188 -1.402344 C 0.40625 -0.710938 1.210938 -0.351562 2.378906 -0.371094 C 3.972656 -0.402344 5.648438 -0.761719 7.320312 -1.542969 C 8.109375 -1.886719 8.847656 -2.320312 9.542969 -2.804688 C 10.234375 -3.285156 10.832031 -3.855469 11.289062 -4.472656 C 11.214844 -3.394531 11.511719 -2.511719 12.183594 -1.777344 C 12.804688 -1.039062 13.703125 -0.683594 14.917969 -0.707031 Z M 6.992188 -6.5 C 6.566406 -6.726562 6.277344 -7.09375 6.125 -7.652344 C 5.976562 -8.210938 6.054688 -8.914062 6.320312 -9.808594 C 6.539062 -10.65625 6.988281 -11.648438 7.710938 -12.878906 C 8.4375 -14.0625 9.441406 -15.4375 10.722656 -17.007812 C 11.273438 -17.671875 11.820312 -18.339844 12.464844 -19.007812 C 13.058594 -19.671875 13.703125 -20.246094 14.347656 -20.820312 C 14.945312 -21.347656 15.59375 -21.78125 16.289062 -22.074219 C 16.941406 -22.367188 17.640625 -22.476562 18.386719 -22.488281 C 18.808594 -22.449219 19.140625 -22.316406 19.378906 -22.085938 C 19.570312 -21.808594 19.71875 -21.484375 19.820312 -21.066406 C 19.875 -20.644531 19.882812 -20.179688 19.800781 -19.613281 C 19.71875 -19.050781 19.632812 -18.488281 19.460938 -17.875 L 19.507812 -17.878906 L 14.769531 -11.046875 C 14.40625 -10.476562 13.902344 -9.859375 13.351562 -9.195312 C 12.757812 -8.527344 12.113281 -7.90625 11.421875 -7.378906 C 10.683594 -6.804688 9.941406 -6.414062 9.195312 -6.214844 C 8.40625 -5.964844 7.65625 -6.042969 6.992188 -6.5 Z M 6.992188 -6.5 "/></g></g></g><g fill="#216b39" fill-opacity="1"><g transform="translate(267.516106, 192.447218)"><g><path d="M 6.460938 -17.066406 L -4.585938 0.0859375 L 1.871094 -0.0351562 C 4.503906 -4.390625 6.683594 -7.992188 8.40625 -10.925781 C 10.128906 -13.859375 11.582031 -16.183594 12.8125 -17.9375 C 13.996094 -19.644531 15.046875 -20.882812 15.972656 -21.601562 C 16.894531 -22.273438 17.824219 -22.621094 18.808594 -22.589844 C 19.417969 -22.507812 19.84375 -22.285156 20.039062 -21.820312 C 20.234375 -21.355469 20.152344 -20.839844 19.695312 -20.222656 L 13.039062 -10.96875 C 12.671875 -10.492188 12.308594 -9.921875 11.851562 -9.304688 C 11.398438 -8.640625 11.035156 -7.980469 10.671875 -7.316406 C 10.265625 -6.609375 9.953125 -5.898438 9.730469 -5.195312 C 9.511719 -4.488281 9.429688 -3.832031 9.535156 -3.222656 C 9.59375 -2.570312 9.839844 -2.011719 10.316406 -1.554688 C 10.792969 -1.046875 11.546875 -0.6875 12.582031 -0.472656 C 13.242188 -0.300781 13.988281 -0.3125 14.734375 -0.421875 C 15.484375 -0.527344 16.132812 -0.773438 16.78125 -1.207031 C 17.429688 -1.59375 18.074219 -2.167969 18.761719 -2.839844 C 19.40625 -3.503906 20.09375 -4.265625 20.78125 -5.078125 C 21.421875 -5.835938 22.015625 -6.597656 22.605469 -7.40625 C 23.15625 -8.164062 23.703125 -8.875 24.15625 -9.539062 C 23.878906 -9.394531 23.558594 -9.15625 23.234375 -8.867188 C 23.050781 -8.675781 22.914062 -8.535156 22.730469 -8.390625 C 22.542969 -8.246094 22.359375 -8.101562 22.222656 -7.960938 C 21.851562 -7.671875 21.484375 -7.382812 21.113281 -7.1875 C 20.742188 -6.996094 20.371094 -6.894531 19.996094 -6.886719 C 19.433594 -6.875 19.148438 -7.152344 19.183594 -7.761719 C 19.171875 -8.277344 19.394531 -8.980469 19.84375 -9.925781 C 20.25 -10.777344 20.792969 -11.722656 21.429688 -12.8125 C 22.0625 -13.855469 22.699219 -14.894531 23.335938 -15.9375 C 23.921875 -16.929688 24.46875 -17.832031 24.921875 -18.683594 C 25.371094 -19.488281 25.640625 -20.101562 25.726562 -20.523438 C 25.804688 -21.367188 25.792969 -22.023438 25.59375 -22.582031 C 25.398438 -23.136719 25.152344 -23.601562 24.773438 -23.96875 C 23.917969 -24.703125 22.972656 -25.105469 21.941406 -25.226562 C 20.910156 -25.347656 19.832031 -25.230469 18.8125 -24.839844 C 17.742188 -24.445312 16.722656 -23.863281 15.710938 -23.046875 C 14.695312 -22.183594 13.824219 -21.234375 13.003906 -20.09375 C 13.355469 -21.410156 13.472656 -22.441406 13.320312 -23.234375 C 13.164062 -23.980469 12.6875 -24.488281 11.886719 -24.753906 C 11.320312 -24.882812 10.621094 -24.824219 9.78125 -24.574219 C 8.898438 -24.320312 7.832031 -23.785156 6.628906 -23.015625 L 6.484375 -23.199219 C 7.253906 -22.089844 7.601562 -21.066406 7.621094 -20.179688 C 7.582031 -19.710938 7.453125 -19.191406 7.273438 -18.722656 C 7.050781 -18.203125 6.777344 -17.636719 6.460938 -17.066406 Z M 6.460938 -17.066406 "/></g></g></g><g fill="#216b39" fill-opacity="1"><g transform="translate(289.456829, 192.02951)"><g><path d="M 1.027344 -0.160156 C 1.96875 0.101562 3.089844 0.128906 4.398438 -0.175781 C 5.703125 -0.484375 7.046875 -1.070312 8.480469 -1.941406 C 9.871094 -2.808594 11.207031 -3.957031 12.535156 -5.386719 C 13.867188 -6.816406 15.050781 -8.570312 16.042969 -10.554688 C 15.71875 -10.222656 15.398438 -9.886719 15.078125 -9.601562 C 14.753906 -9.316406 14.433594 -9.027344 14.109375 -8.789062 C 13.371094 -8.210938 12.632812 -7.730469 11.890625 -7.339844 C 11.148438 -6.953125 10.5 -6.660156 9.847656 -6.460938 C 9.148438 -6.210938 8.542969 -6.105469 8.027344 -6.191406 C 7.511719 -6.226562 7.226562 -6.457031 7.125 -6.828125 C 6.976562 -7.199219 6.96875 -7.621094 7.144531 -8.1875 C 7.324219 -8.707031 7.59375 -9.320312 7.953125 -9.980469 C 8.269531 -10.59375 8.632812 -11.210938 9.042969 -11.828125 C 9.40625 -12.394531 9.816406 -12.964844 10.179688 -13.488281 C 10.546875 -13.960938 10.820312 -14.339844 10.957031 -14.578125 L 16.78125 -23.347656 L 21.460938 -23.4375 L 22.789062 -24.820312 L 17.738281 -24.722656 L 20.105469 -28.28125 L 26.890625 -38.144531 C 26.328125 -38.226562 25.945312 -38.546875 25.75 -39.011719 C 25.507812 -39.476562 25.308594 -39.988281 25.207031 -40.59375 C 25.054688 -41.152344 24.902344 -41.710938 24.707031 -42.269531 C 24.507812 -42.828125 24.21875 -43.242188 23.746094 -43.515625 C 23.65625 -43.371094 23.5625 -43.183594 23.425781 -42.992188 C 23.242188 -42.804688 23.0625 -42.519531 22.878906 -42.234375 L 21.289062 -39.863281 C 20.921875 -39.386719 20.605469 -38.867188 20.285156 -38.347656 C 19.921875 -37.824219 19.558594 -37.304688 19.191406 -36.78125 C 18.78125 -36.210938 18.417969 -35.691406 18.054688 -35.121094 C 17.691406 -34.554688 17.28125 -33.984375 16.917969 -33.414062 C 15.09375 -30.757812 13.089844 -27.820312 10.90625 -24.59375 L 7.164062 -24.523438 L 5.832031 -23.140625 L 9.949219 -23.21875 L 3.984375 -14.351562 L 2.4375 -12.167969 C 2.164062 -11.742188 1.890625 -11.316406 1.617188 -10.9375 C 1.34375 -10.558594 1.070312 -10.128906 0.84375 -9.75 C 0.296875 -8.898438 -0.152344 -8.046875 -0.511719 -7.199219 C -0.917969 -6.347656 -1.183594 -5.546875 -1.304688 -4.703125 C -1.5625 -3.386719 -1.449219 -2.359375 -1.015625 -1.617188 C -0.578125 -0.878906 0.0859375 -0.375 1.027344 -0.160156 Z M 1.027344 -0.160156 "/></g></g></g></svg>