<svg width="112" height="31" viewBox="0 0 112 31" fill="none" xmlns="http://www.w3.org/2000/svg">
<g id="Plant">
<g id="Plant_2">
<g id="Group">
<g id="Group_2">
<g id="Group_3">
<path id="Vector" d="M48.1076 3.27834C46.507 2.48944 44.372 1.88904 41.7825 1.44398C39.1519 1.03033 35.9458 0.864526 32.1232 0.976228L32.0821 1.00764C29.466 1.10364 27.3093 1.34275 25.6579 1.78607C24.0065 2.22764 22.6888 2.72681 21.7482 3.33943C20.7666 3.95379 20.1621 4.65193 19.8478 5.37625C19.5359 6.10231 19.4706 6.82314 19.6544 7.48113C19.7946 8.07979 20.1017 8.64528 20.5296 9.14968C20.96 9.65409 21.5113 10.066 22.1423 10.3871C22.7347 10.7397 23.3633 10.9422 24.0718 10.991C24.7391 11.0434 25.4427 10.9422 26.1414 10.6332C25.1985 9.56507 24.7149 8.55103 24.7729 7.62076C24.7899 6.72016 25.184 5.90334 25.9142 5.17378C26.6033 4.4739 27.5414 3.86128 28.7769 3.36386C29.9689 2.86644 31.289 2.4877 32.6962 2.22939C34.1034 1.96933 35.4719 1.83145 36.8839 1.8105C38.2573 1.79305 39.5073 1.89603 40.6364 2.11943C42.225 2.45803 43.4024 3.01305 44.2124 3.781C44.9813 4.5507 45.4625 5.44606 45.6124 6.40425C45.7236 7.48288 45.4213 8.56674 44.6984 9.59824C43.9779 10.6577 43.0059 11.6019 41.7801 12.4589C40.7186 13.1936 39.6137 13.8394 38.4217 14.3369C37.1862 14.8325 36.0329 15.1799 34.8723 15.3457C33.7963 15.5097 32.8389 15.494 31.9612 15.3247C31.0424 15.1572 30.3654 14.7767 29.8915 14.1239C30.3775 13.6056 30.8635 13.0889 31.3495 12.602C31.8355 12.115 32.3626 11.6281 32.8485 11.1411C34.1445 9.86353 35.4864 8.73429 36.7921 7.72548C38.0953 6.71667 39.4057 5.91905 40.68 5.36054C39.5605 5.52634 38.4048 5.87192 37.2563 6.42869C36.1078 6.98371 34.9182 7.63123 33.7335 8.42711C32.5076 9.22473 31.2407 10.1131 30.0197 11.0905C28.7987 12.0679 27.5752 13.0139 26.3542 13.9913C25.0921 14.9687 23.8687 15.9164 22.6452 16.8344C21.4218 17.7507 20.196 18.5187 19.0499 19.1941C17.8627 19.901 16.7119 20.4578 15.5996 20.833C14.4439 21.2083 13.368 21.3741 12.3259 21.2676C11.4095 21.2205 10.7374 20.9587 10.2272 20.5468C9.71944 20.1331 9.33017 19.6287 9.10773 19.0318C8.84176 18.4646 8.70153 17.8363 8.68461 17.1765C8.66768 16.515 8.69186 15.9146 8.84176 15.3125C7.77308 15.7471 6.7866 16.2114 5.88716 16.7646C4.98772 17.3162 4.17049 17.8991 3.4403 18.5693C2.66901 19.2395 2.02102 19.9691 1.54471 20.7562C1.02487 21.5434 0.669449 22.3288 0.526796 23.17C0.301936 24.1335 0.367218 25.0637 0.640434 25.9609C0.913651 26.858 1.47701 27.6591 2.24105 28.3101C2.9664 28.9908 3.93596 29.5161 5.11103 29.921C6.2861 30.3242 7.70538 30.4848 9.36644 30.4621C10.5318 30.4464 11.7287 30.1305 13.0416 29.5126C14.2747 28.9245 15.5416 28.1268 16.8473 27.118C18.1505 26.111 19.4513 24.952 20.7859 23.6134C22.0819 22.3044 23.419 20.936 24.7536 19.5362C26.0883 18.1365 27.464 16.6774 28.8398 15.2183C29.0018 15.0961 29.1227 14.9146 29.2846 14.7313C29.1758 15.3928 29.3161 15.9618 29.7054 16.4662C30.0922 17.002 30.6435 17.4139 31.3181 17.7647C32.1619 18.2342 33.1266 18.5501 34.2944 18.7142C35.4647 18.8782 36.6276 18.8922 37.7882 18.6967C39.5266 18.4332 41.1804 18.0492 42.6626 17.5186C44.1471 17.0194 45.5036 16.3999 46.7318 15.693C48.2889 14.8308 49.5099 13.8237 50.436 12.7311C51.3233 11.6368 51.8746 10.4901 52.0946 9.34516C52.2711 8.20371 52.0342 7.12508 51.4249 6.05344C50.8156 5.01147 49.7106 4.09691 48.1076 3.27834Z" fill="#8D5053"/>
</g>
</g>
</g>
<g id="Group_4">
<g id="Group_5">
<g id="Group_6">
<path id="Vector_2" d="M35.7518 30.0404C36.5884 30.208 37.587 30.1958 38.7451 29.9985C39.9057 29.8031 41.1001 29.4261 42.3332 28.8693C43.5663 28.3125 44.7511 27.576 45.9334 26.658C47.0746 25.7434 48.1264 24.6473 49.0065 23.375C48.7212 23.5896 48.4358 23.8026 48.1505 23.9876C47.8628 24.1708 47.5775 24.3558 47.2898 24.5094C46.6346 24.8777 45.9793 25.1866 45.3192 25.4362C44.6616 25.6858 44.0837 25.8743 43.5059 26.0017C42.8845 26.1605 42.3477 26.2286 41.8883 26.1745C41.4289 26.1501 41.1775 26.0034 41.088 25.7643C40.955 25.527 40.9478 25.2564 41.1049 24.8934C41.2621 24.5618 41.5015 24.1691 41.823 23.7432C42.147 23.3488 42.4686 22.9543 42.7902 22.5599C43.1142 22.1951 43.4768 21.8303 43.8033 21.5249C44.1272 21.2212 44.3714 20.9769 44.4899 20.825L44.4512 20.8564L50.3943 14.4719C50.682 14.3184 51.0084 14.163 51.3784 13.978C51.7483 13.793 52.1182 13.608 52.5268 13.3916C52.8968 13.2066 53.2667 13.0216 53.6753 12.8051C54.0864 12.6201 54.4974 12.4037 54.9471 12.1576C55.7692 11.7265 56.6299 11.264 57.4472 10.7736C58.2668 10.2814 59.084 9.72984 59.8578 9.14864C60.6339 8.56744 61.3254 7.98799 61.9734 7.37886C62.5802 6.77148 63.0227 6.19377 63.3419 5.61955C63.6175 5.075 63.7287 4.53395 63.6731 4.05398C63.5788 3.57575 63.2742 3.12894 62.6818 2.71704C62.2611 2.48317 61.7558 2.28071 61.1706 2.16726C60.5855 2.05556 59.9206 2.03461 59.2146 2.10443C58.4699 2.20566 57.7663 2.39415 57.0265 2.70482C56.2866 3.0155 55.6338 3.44485 55.0245 3.99289C51.9804 6.79591 49.1419 9.5972 46.4726 12.395C43.8008 15.1928 41.0904 18.0517 38.3413 20.9699L36.9632 22.3696C36.7214 22.6437 36.4796 22.9177 36.2378 23.1603C35.9936 23.4029 35.7929 23.6769 35.5923 23.9195C35.1063 24.4658 34.7049 24.9824 34.3857 25.527C34.0279 26.0715 33.791 26.6161 33.6797 27.1275C33.4525 27.9705 33.554 28.6302 33.9409 29.1049C34.3277 29.5797 34.9177 29.9008 35.7518 30.0404ZM50.7304 13.0268L59.7369 4.52871C59.9786 4.28611 60.3075 4.13077 60.6387 4.06619C60.97 4.03129 61.2214 4.05747 61.4729 4.17441C61.6421 4.29309 61.8138 4.46937 61.9032 4.70848C61.9927 4.94759 61.9589 5.24779 61.8428 5.61083C61.6881 5.97211 61.3665 6.39798 60.9627 6.85351C60.5589 7.33872 59.9496 7.85709 59.1735 8.40861C58.5207 8.89731 57.7857 9.35808 57.0071 9.84853C56.1899 10.3407 55.4113 10.8015 54.6328 11.2326C53.8131 11.6637 53.0757 12.0634 52.3769 12.374C51.6782 12.683 51.1414 12.9011 50.7304 13.0268Z" fill="#8D5053"/>
</g>
</g>
</g>
<g id="Group_7">
<g id="Group_8">
<g id="Group_9">
<path id="Vector_3" d="M58.4845 29.6379L58.3201 29.7304C59.483 29.7147 60.6412 29.4582 61.8332 28.9311C62.9841 28.4354 64.1326 27.7896 65.1916 27.0252C66.2119 26.2904 67.1476 25.4666 68.0398 24.6148C68.932 23.7614 69.6573 22.941 70.2207 22.2132C70.1409 22.2743 70.0563 22.3057 69.9354 22.3668C69.8121 22.4279 69.6888 22.5204 69.5244 22.6129C69.1568 22.8573 68.7482 23.1034 68.2961 23.3495C67.8464 23.627 67.3555 23.9027 66.8212 24.1802C65.6751 24.826 64.7298 25.2903 63.9053 25.5416C63.4942 25.6969 63.163 25.7319 62.9527 25.6743C62.7447 25.6167 62.6964 25.4386 62.8148 25.1367C62.8898 24.8347 63.25 24.3495 63.8158 23.7422L72.7473 13.9246L66.8865 14.0049L64.2994 16.8027C64.2825 16.2023 64.1471 15.724 63.8448 15.3069C63.5426 14.9212 63.1606 14.6262 62.6553 14.3941C62.1088 14.1899 61.4826 14.0799 60.8177 14.0276C60.1504 14.0066 59.4033 14.0782 58.6586 14.2073C58.0807 14.3365 57.4206 14.525 56.7219 14.8357C56.0231 15.1446 55.3243 15.4849 54.5869 15.9143C53.8519 16.3454 53.0733 16.8358 52.2972 17.3874C51.5235 17.9371 50.7885 18.4887 50.0559 19.0978C49.1613 19.8308 48.3489 20.5621 47.6211 21.3231C46.8522 22.1138 46.2067 22.873 45.6433 23.6305C45.2419 24.1768 44.8841 24.8121 44.6544 25.5364C44.4247 26.259 44.3183 26.9204 44.4174 27.5505C44.4755 28.2102 44.739 28.7461 45.167 29.1911C45.5949 29.6344 46.3082 29.8648 47.3455 29.8509C48.7599 29.8317 50.2493 29.6013 51.7338 29.1004C52.435 28.8805 53.0927 28.6012 53.7092 28.2923C54.3234 27.9834 54.8553 27.6168 55.2591 27.2206C55.1962 27.9118 55.4597 28.479 56.0545 28.9503C56.6082 29.4233 57.4037 29.6519 58.4845 29.6379ZM51.4413 25.9221C51.0641 25.7772 50.8078 25.5416 50.6748 25.1821C50.5394 24.8243 50.612 24.374 50.8465 23.7998C51.0399 23.257 51.4389 22.6216 52.082 21.8328C52.7276 21.0735 53.6198 20.1904 54.7562 19.1833C55.2446 18.7575 55.733 18.3298 56.3036 17.9022C56.8331 17.4746 57.4061 17.1064 57.9767 16.7381C58.5087 16.4012 59.0841 16.1237 59.7031 15.9352C60.2809 15.7467 60.9023 15.6787 61.5672 15.6682C61.942 15.6944 62.2346 15.7799 62.4473 15.9265C62.6166 16.1045 62.7471 16.3122 62.839 16.581C62.8874 16.8515 62.8946 17.1517 62.8221 17.513C62.7471 17.8743 62.6746 18.2356 62.5174 18.6266H62.5585L58.3515 23.0056C58.0275 23.3704 57.5802 23.7666 57.0942 24.1942C56.5647 24.6218 55.9917 25.0198 55.3775 25.3584C54.7223 25.7284 54.0622 25.9762 53.4022 26.1054C52.6986 26.2659 52.0312 26.2153 51.4413 25.9221Z" fill="#8D5053"/>
</g>
</g>
</g>
<g id="Group_10">
<g id="Group_11">
<g id="Group_12">
<path id="Vector_4" d="M72.457 18.8514L62.6429 29.8505L68.3805 29.772C70.7185 26.9777 72.6528 24.6704 74.1833 22.7889C75.7138 20.9074 77.0049 19.4186 78.0978 18.2929C79.1496 17.1985 80.0853 16.4044 80.9049 15.9436C81.7246 15.5125 82.5491 15.2909 83.4243 15.3083C83.9659 15.3607 84.3431 15.5056 84.5172 15.804C84.6913 16.1007 84.6187 16.4323 84.2125 16.8285L78.2985 22.7627C77.9745 23.0664 77.6505 23.4312 77.2443 23.8274C76.8405 24.2532 76.519 24.6773 76.1974 25.1015C75.8347 25.557 75.5567 26.0108 75.3608 26.4646C75.165 26.9166 75.0924 27.339 75.1867 27.7282C75.2399 28.1471 75.4551 28.5049 75.8806 28.7981C76.3038 29.1227 76.9759 29.3531 77.8947 29.491C78.4798 29.6027 79.1447 29.594 79.8072 29.5242C80.4697 29.4561 81.0476 29.2973 81.623 29.0198C82.1985 28.7719 82.7715 28.4037 83.3832 27.9743C83.9538 27.5467 84.5655 27.058 85.1748 26.5396C85.7455 26.0509 86.2725 25.564 86.7996 25.0474C87.2856 24.5604 87.7716 24.1031 88.1778 23.6773C87.9288 23.7698 87.6435 23.9251 87.3557 24.1084C87.1937 24.2305 87.0704 24.323 86.906 24.4155C86.744 24.5063 86.5796 24.5988 86.4563 24.6913C86.1299 24.8763 85.8011 25.0596 85.4722 25.1852C85.1434 25.3092 84.8122 25.3737 84.4785 25.379C83.9804 25.386 83.7266 25.2097 83.758 24.8187C83.7483 24.4888 83.9442 24.0351 84.3455 23.4294C84.7058 22.8849 85.1869 22.2775 85.7503 21.5794C86.3161 20.9109 86.8794 20.2424 87.4452 19.5757C87.9675 18.9369 88.4534 18.3609 88.8548 17.8146C89.2562 17.2998 89.4955 16.9053 89.5705 16.6348C89.6406 16.0937 89.6285 15.6731 89.452 15.3153C89.2779 14.9575 89.0603 14.6608 88.7218 14.4252C87.9626 13.9557 87.1236 13.6974 86.2073 13.6188C85.2909 13.542 84.3359 13.6153 83.4267 13.8684C82.4789 14.1215 81.5723 14.4933 80.6728 15.0169C79.771 15.5684 78.9973 16.1793 78.2695 16.9106C78.579 16.0658 78.6853 15.4043 78.5475 14.8947C78.4097 14.4165 77.9866 14.0918 77.2757 13.9225C76.7753 13.8387 76.1514 13.8771 75.4067 14.0377C74.6209 14.1983 73.6732 14.5421 72.6069 15.0361L72.4787 14.9191C73.163 15.6295 73.4701 16.2857 73.4846 16.8564C73.4531 17.1566 73.3371 17.4883 73.1775 17.7902C72.9792 18.1236 72.7399 18.4866 72.457 18.8514Z" fill="#8D5053"/>
</g>
</g>
</g>
<g id="Group_13">
<g id="Group_14">
<g id="Group_15">
<path id="Vector_5" d="M87.1186 29.4239C87.9551 29.5932 88.9537 29.6089 90.1119 29.4134C91.2724 29.2179 92.4668 28.8409 93.741 28.2824C94.9741 27.7256 96.1613 26.9891 97.3412 26.0728C98.5235 25.1547 99.5753 24.0307 100.455 22.7584C100.17 22.9713 99.8848 23.186 99.5995 23.3693C99.3142 23.5543 99.0264 23.7375 98.7411 23.8929C98.0835 24.2611 97.4283 24.5701 96.7682 24.8196C96.1105 25.0692 95.5327 25.256 94.9548 25.3851C94.3334 25.544 93.7966 25.6103 93.3373 25.5562C92.8779 25.5335 92.6264 25.3869 92.537 25.1478C92.4064 24.9087 92.3991 24.6399 92.5539 24.2768C92.7135 23.9452 92.9504 23.5508 93.272 23.1267C93.5524 22.7322 93.8764 22.3378 94.2391 21.9433C94.5631 21.5785 94.9282 21.2138 95.2522 20.8786C95.5762 20.5732 95.818 20.3306 95.9389 20.1788L101.113 14.5553L105.269 14.4977L106.452 13.611L101.964 13.6721L104.065 11.3927L110.093 5.06756C109.592 5.01345 109.254 4.80925 109.08 4.51079C108.865 4.21409 108.691 3.88596 108.596 3.49675C108.463 3.13895 108.328 2.78116 108.154 2.42336C107.977 2.06557 107.721 1.79853 107.3 1.62399C107.218 1.71475 107.138 1.83693 107.017 1.95735C106.855 2.07953 106.693 2.26279 106.531 2.44431L105.117 3.9645C104.793 4.26994 104.51 4.6033 104.227 4.9384C103.903 5.27177 103.579 5.60687 103.255 5.94198C102.893 6.30676 102.569 6.64186 102.245 7.00664C101.921 7.37142 101.558 7.73619 101.234 8.10097C99.6164 9.80268 97.8369 11.6894 95.8953 13.7559L92.5708 13.8013L91.3885 14.6879L95.0443 14.639L89.7492 20.3236L88.371 21.7234C88.1292 21.9974 87.8874 22.2697 87.6432 22.514C87.4014 22.7566 87.1572 23.0307 86.9566 23.2733C86.473 23.8213 86.0716 24.3658 85.7525 24.9104C85.3922 25.4567 85.1577 25.9698 85.0465 26.5109C84.8192 27.3556 84.9207 28.0136 85.3076 28.4884C85.692 28.9631 86.2844 29.286 87.1186 29.4239Z" fill="#8D5053"/>
</g>
</g>
</g>
</g>
<g id="Plant_3">
<g id="Group_16">
<g id="Group_17">
<g id="Group_18">
<path id="Vector_6" d="M49.0968 2.86458C47.4962 2.07569 45.3613 1.47529 42.7717 1.03022C40.1411 0.616576 36.9351 0.450769 33.1125 0.562471L33.0714 0.593887C30.4552 0.689881 28.2985 0.928993 26.6471 1.37231C24.9957 1.81388 23.678 2.31305 22.7375 2.92567C21.7558 3.54003 21.1514 4.23817 20.8371 4.96249C20.5252 5.68855 20.4599 6.40938 20.6436 7.06737C20.7839 7.66603 21.0909 8.23152 21.5189 8.73593C21.9493 9.24033 22.5005 9.65223 23.1316 9.97338C23.724 10.3259 24.3526 10.5284 25.061 10.5773C25.7284 10.6296 26.4319 10.5284 27.1307 10.2195C26.1877 9.15132 25.7042 8.13727 25.7622 7.207C25.7791 6.3064 26.1732 5.48958 26.9034 4.76003C27.5925 4.06014 28.5306 3.44753 29.7662 2.9501C30.9582 2.45268 32.2783 2.07394 33.6855 1.81563C35.0927 1.55557 36.4612 1.41769 37.8732 1.39675C39.2465 1.37929 40.4966 1.48227 41.6257 1.70567C43.2142 2.04427 44.3917 2.59929 45.2017 3.36724C45.9706 4.13694 46.4517 5.0323 46.6016 5.9905C46.7128 7.06912 46.4106 8.15298 45.6877 9.18448C44.9672 10.2439 43.9952 11.1881 42.7693 12.0451C41.7079 12.7799 40.6029 13.4257 39.4109 13.9231C38.1754 14.4188 37.0221 14.7661 35.8615 14.9319C34.7856 15.096 33.8281 15.0803 32.9505 14.911C32.0317 14.7434 31.3547 14.3629 30.8808 13.7102C31.3668 13.1918 31.8528 12.6752 32.3387 12.1882C32.8247 11.7013 33.3518 11.2143 33.8378 10.7274C35.1338 9.44977 36.4757 8.32053 37.7813 7.31172C39.0845 6.30291 40.395 5.50529 41.6692 4.94678C40.5497 5.11259 39.394 5.45817 38.2455 6.01493C37.0971 6.56995 35.9075 7.21747 34.7227 8.01335C33.4969 8.81097 32.2299 9.69936 31.0089 10.6767C29.7879 11.6541 28.5645 12.6001 27.3435 13.5775C26.0814 14.5549 24.8579 15.5026 23.6345 16.4207C22.4111 17.337 21.1852 18.1049 20.0392 18.7804C18.852 19.4873 17.7011 20.044 16.5889 20.4193C15.4332 20.7945 14.3572 20.9603 13.3151 20.8539C12.3988 20.8067 11.7266 20.5449 11.2164 20.133C10.7087 19.7194 10.3194 19.215 10.097 18.6181C9.83102 18.0508 9.69079 17.4225 9.67386 16.7628C9.65694 16.1013 9.68112 15.5009 9.83102 14.8987C8.76234 15.3333 7.77585 15.7976 6.87642 16.3509C5.97698 16.9024 5.15975 17.4853 4.42956 18.1556C3.65826 18.8258 3.01028 19.5553 2.53397 20.3425C2.01413 21.1296 1.65871 21.915 1.51605 22.7563C1.29119 23.7197 1.35648 24.65 1.62969 25.5471C1.90291 26.4442 2.46627 27.2453 3.23031 27.8963C3.95566 28.577 4.92522 29.1024 6.10029 29.5073C7.27536 29.9105 8.69464 30.071 10.3557 30.0483C11.5211 30.0326 12.7179 29.7167 14.0308 29.0989C15.2639 28.5107 16.5309 27.7131 17.8365 26.7043C19.1397 25.6972 20.4405 24.5383 21.7752 23.1996C23.0711 21.8906 24.4082 20.5222 25.7429 19.1225C27.0775 17.7227 28.4533 16.2636 29.829 14.8045C29.991 14.6823 30.1119 14.5008 30.2739 14.3175C30.1651 14.979 30.3053 15.548 30.6946 16.0524C31.0815 16.5882 31.6327 17.0001 32.3073 17.351C33.1511 17.8205 34.1159 18.1364 35.2837 18.3004C36.4539 18.4645 37.6169 18.4784 38.7775 18.283C40.5159 18.0194 42.1697 17.6354 43.6518 17.1049C45.1364 16.6057 46.4928 15.9861 47.7211 15.2792C49.2782 14.417 50.4992 13.41 51.4252 12.3174C52.3126 11.223 52.8638 10.0764 53.0839 8.9314C53.2604 7.78995 53.0234 6.71132 52.4141 5.63968C51.8048 4.59771 50.6999 3.68315 49.0968 2.86458Z" fill="#216B39"/>
</g>
</g>
</g>
<g id="Group_19">
<g id="Group_20">
<g id="Group_21">
<path id="Vector_7" d="M36.741 29.6267C37.5776 29.7943 38.5762 29.782 39.7343 29.5848C40.8949 29.3893 42.0893 29.0123 43.3224 28.4556C44.5555 27.8988 45.7402 27.1623 46.9226 26.2442C48.0638 25.3297 49.1156 24.2336 49.9957 22.9612C49.7104 23.1759 49.425 23.3888 49.1397 23.5738C48.852 23.7571 48.5667 23.9421 48.279 24.0957C47.6237 24.464 46.9685 24.7729 46.3084 25.0225C45.6508 25.2721 45.0729 25.4606 44.4951 25.588C43.8737 25.7468 43.3369 25.8149 42.8775 25.7608C42.4181 25.7363 42.1667 25.5897 42.0772 25.3506C41.9442 25.1132 41.937 24.8427 42.0941 24.4797C42.2513 24.1481 42.4907 23.7554 42.8122 23.3295C43.1362 22.9351 43.4578 22.5406 43.7794 22.1462C44.1034 21.7814 44.466 21.4166 44.7925 21.1112C45.1164 20.8075 45.3606 20.5631 45.4791 20.4113L45.4404 20.4427L51.3835 14.0582C51.6712 13.9046 51.9976 13.7493 52.3676 13.5643C52.7375 13.3793 53.1074 13.1943 53.516 12.9779C53.886 12.7928 54.2559 12.6078 54.6645 12.3914C55.0756 12.2064 55.4866 11.99 55.9363 11.7439C56.7584 11.3128 57.6191 10.8503 58.4364 10.3598C59.256 9.86764 60.0732 9.31611 60.8469 8.73491C61.6231 8.15371 62.3146 7.57426 62.9626 6.96513C63.5694 6.35775 64.0119 5.78004 64.3311 5.20583C64.6067 4.66128 64.7179 4.12022 64.6623 3.64025C64.568 3.16203 64.2634 2.71522 63.671 2.30331C63.2503 2.06944 62.745 1.86698 62.1598 1.75353C61.5747 1.64183 60.9098 1.62088 60.2038 1.6907C59.4591 1.79193 58.7555 1.98043 58.0157 2.2911C57.2758 2.60177 56.623 3.03112 56.0137 3.57916C52.9696 6.38219 50.1311 9.18347 47.4618 11.9813C44.79 14.779 42.0796 17.6379 39.3305 20.5561L37.9524 21.9559C37.7106 22.2299 37.4688 22.5039 37.227 22.7466C36.9828 22.9892 36.7821 23.2632 36.5814 23.5058C36.0955 24.0521 35.6941 24.5687 35.3749 25.1132C35.0171 25.6578 34.7802 26.2023 34.6689 26.7137C34.4417 27.5567 34.5432 28.2165 34.9301 28.6912C35.3169 29.1659 35.9069 29.4871 36.741 29.6267ZM51.7196 12.6131L60.7261 4.11498C60.9678 3.87238 61.2967 3.71704 61.6279 3.65247C61.9592 3.61756 62.2106 3.64374 62.4621 3.76068C62.6313 3.87936 62.803 4.05564 62.8924 4.29475C62.9819 4.53387 62.9481 4.83407 62.832 5.1971C62.6773 5.55839 62.3557 5.98425 61.9519 6.43978C61.5481 6.92499 60.9388 7.44336 60.1627 7.99489C59.5099 8.48358 58.7749 8.94436 57.9963 9.4348C57.1791 9.92699 56.4005 10.3878 55.622 10.8189C54.8023 11.25 54.0649 11.6496 53.3661 11.9603C52.6674 12.2692 52.1306 12.4874 51.7196 12.6131Z" fill="#216B39"/>
</g>
</g>
</g>
<g id="Group_22">
<g id="Group_23">
<g id="Group_24">
<path id="Vector_8" d="M59.4737 29.2242L59.3093 29.3167C60.4723 29.301 61.6304 29.0444 62.8224 28.5173C63.9733 28.0216 65.1218 27.3759 66.1808 26.6114C67.2011 25.8766 68.1368 25.0528 69.029 24.2011C69.9212 23.3476 70.6466 22.5273 71.2099 21.7995C71.1301 21.8606 71.0455 21.892 70.9246 21.9531C70.8013 22.0142 70.678 22.1067 70.5136 22.1992C70.1461 22.4435 69.7375 22.6896 69.2853 22.9357C68.8356 23.2132 68.3448 23.489 67.8104 23.7665C66.6644 24.4123 65.719 24.8765 64.8945 25.1279C64.4835 25.2832 64.1522 25.3181 63.9419 25.2605C63.7339 25.2029 63.6856 25.0249 63.8041 24.7229C63.879 24.421 64.2393 23.9358 64.805 23.3284L73.7366 13.5108L67.8757 13.5911L65.2886 16.3889C65.2717 15.7885 65.1363 15.3103 64.8341 14.8931C64.5318 14.5074 64.1498 14.2125 63.6445 13.9803C63.098 13.7761 62.4718 13.6662 61.8069 13.6138C61.1396 13.5929 60.3925 13.6644 59.6478 13.7936C59.0699 13.9227 58.4098 14.1112 57.7111 14.4219C57.0123 14.7308 56.3136 15.0712 55.5761 15.5005C54.8411 15.9316 54.0626 16.4221 53.2864 16.9736C52.5127 17.5234 51.7777 18.0749 51.0451 18.684C50.1505 19.4171 49.3381 20.1484 48.6103 20.9094C47.8414 21.7 47.1959 22.4592 46.6325 23.2167C46.2312 23.763 45.8733 24.3983 45.6436 25.1226C45.4139 25.8452 45.3075 26.5067 45.4067 27.1367C45.4647 27.7965 45.7282 28.3323 46.1562 28.7774C46.5842 29.2207 47.2974 29.4511 48.3347 29.4371C49.7491 29.4179 51.2385 29.1875 52.7231 28.6866C53.4243 28.4667 54.0819 28.1874 54.6985 27.8785C55.3126 27.5696 55.8445 27.2031 56.2483 26.8069C56.1854 27.498 56.449 28.0653 57.0438 28.5365C57.5975 29.0095 58.3929 29.2381 59.4737 29.2242ZM52.4305 25.5083C52.0533 25.3635 51.797 25.1279 51.6641 24.7683C51.5287 24.4105 51.6012 23.9602 51.8357 23.386C52.0292 22.8432 52.4281 22.2079 53.0712 21.419C53.7168 20.6598 54.609 19.7766 55.7454 18.7696C56.2338 18.3437 56.7222 17.9161 57.2928 17.4885C57.8223 17.0609 58.3953 16.6926 58.966 16.3243C59.4979 15.9875 60.0733 15.71 60.6923 15.5215C61.2702 15.333 61.8915 15.2649 62.5565 15.2544C62.9312 15.2806 63.2238 15.3661 63.4365 15.5127C63.6058 15.6908 63.7364 15.8985 63.8282 16.1673C63.8766 16.4378 63.8838 16.738 63.8113 17.0993C63.7364 17.4606 63.6638 17.8218 63.5067 18.2128H63.5478L59.3407 22.5919C59.0167 22.9566 58.5694 23.3528 58.0834 23.7804C57.5539 24.2081 56.9809 24.606 56.3668 24.9446C55.7115 25.3146 55.0515 25.5624 54.3914 25.6916C53.6878 25.8522 53.0205 25.8016 52.4305 25.5083Z" fill="#216B39"/>
</g>
</g>
</g>
<g id="Group_25">
<g id="Group_26">
<g id="Group_27">
<path id="Vector_9" d="M73.4462 18.4376L63.6322 29.4368L69.3697 29.3583C71.7078 26.564 73.6421 24.2566 75.1726 22.3751C76.7031 20.4936 77.9942 19.0049 79.0871 17.8791C80.1388 16.7848 81.0745 15.9906 81.8942 15.5299C82.7138 15.0988 83.5383 14.8771 84.4136 14.8946C84.9552 14.9469 85.3324 15.0918 85.5064 15.3902C85.6805 15.687 85.608 16.0186 85.2018 16.4148L79.2878 22.3489C78.9638 22.6526 78.6398 23.0174 78.2336 23.4136C77.8298 23.8395 77.5082 24.2636 77.1866 24.6877C76.824 25.1432 76.5459 25.597 76.3501 26.0508C76.1542 26.5029 76.0817 26.9252 76.176 27.3145C76.2292 27.7333 76.4444 28.0911 76.8699 28.3843C77.293 28.709 77.9652 28.9394 78.884 29.0773C79.4691 29.189 80.134 29.1802 80.7965 29.1104C81.459 29.0423 82.0368 28.8835 82.6123 28.606C83.1877 28.3582 83.7608 27.9899 84.3725 27.5605C84.9431 27.1329 85.5548 26.6442 86.1641 26.1259C86.7347 25.6372 87.2618 25.1502 87.7889 24.6336C88.2749 24.1466 88.7609 23.6894 89.1671 23.2635C88.918 23.356 88.6327 23.5113 88.345 23.6946C88.183 23.8168 88.0597 23.9093 87.8953 24.0018C87.7333 24.0925 87.5689 24.185 87.4456 24.2775C87.1192 24.4626 86.7903 24.6458 86.4615 24.7715C86.1327 24.8954 85.8014 24.96 85.4678 24.9652C84.9697 24.9722 84.7158 24.7959 84.7472 24.405C84.7376 24.0751 84.9334 23.6213 85.3348 23.0157C85.695 22.4711 86.1762 21.8637 86.7396 21.1656C87.3053 20.4971 87.8687 19.8287 88.4345 19.1619C88.9567 18.5231 89.4427 17.9472 89.8441 17.4009C90.2454 16.886 90.4848 16.4916 90.5597 16.221C90.6299 15.68 90.6178 15.2593 90.4413 14.9016C90.2672 14.5438 90.0496 14.247 89.7111 14.0114C88.9519 13.5419 88.1129 13.2836 87.1965 13.2051C86.2802 13.1283 85.3251 13.2016 84.416 13.4547C83.4682 13.7077 82.5615 14.0795 81.6621 14.6031C80.7602 15.1546 79.9865 15.7655 79.2587 16.4968C79.5682 15.6521 79.6746 14.9906 79.5368 14.4809C79.399 14.0027 78.9758 13.6781 78.265 13.5088C77.7645 13.425 77.1407 13.4634 76.396 13.624C75.6102 13.7845 74.6624 14.1284 73.5961 14.6223L73.468 14.5054C74.1522 15.2157 74.4593 15.872 74.4738 16.4427C74.4424 16.7429 74.3263 17.0745 74.1668 17.3765C73.9685 17.7098 73.7291 18.0728 73.4462 18.4376Z" fill="#216B39"/>
</g>
</g>
</g>
<g id="Group_28">
<g id="Group_29">
<g id="Group_30">
<path id="Vector_10" d="M88.1078 29.0101C88.9444 29.1794 89.9429 29.1951 91.1011 28.9997C92.2616 28.8042 93.4561 28.4272 94.7303 27.8687C95.9634 27.3119 97.1505 26.5754 98.3304 25.6591C99.5128 24.741 100.565 23.617 101.445 22.3447C101.159 22.5576 100.874 22.7723 100.589 22.9555C100.303 23.1405 100.016 23.3238 99.7304 23.4791C99.0727 23.8474 98.4175 24.1563 97.7574 24.4059C97.0998 24.6555 96.5219 24.8422 95.944 24.9714C95.3226 25.1302 94.7859 25.1966 94.3265 25.1424C93.8671 25.1198 93.6156 24.9731 93.5262 24.734C93.3956 24.4949 93.3884 24.2261 93.5431 23.8631C93.7027 23.5315 93.9396 23.137 94.2612 22.7129C94.5417 22.3185 94.8657 21.924 95.2283 21.5296C95.5523 21.1648 95.9174 20.8 96.2414 20.4649C96.5654 20.1595 96.8072 19.9169 96.9281 19.765L102.102 14.1415L106.259 14.0839L107.441 13.1973L102.953 13.2584L105.054 10.979L111.082 4.65383C110.582 4.59973 110.243 4.39552 110.069 4.09707C109.854 3.80036 109.68 3.47223 109.586 3.08302C109.453 2.72523 109.317 2.36743 109.143 2.00963C108.967 1.65184 108.71 1.3848 108.29 1.21027C108.207 1.30102 108.128 1.4232 108.007 1.54363C107.845 1.6658 107.683 1.84906 107.521 2.03058L106.106 3.55077C105.782 3.85621 105.499 4.18957 105.216 4.52468C104.892 4.85804 104.568 5.19315 104.244 5.52825C103.882 5.89303 103.558 6.22814 103.234 6.59291C102.91 6.95769 102.547 7.32247 102.223 7.68724C100.606 9.38896 98.8261 11.2757 96.8846 13.3422L93.56 13.3875L92.3777 14.2742L96.0335 14.2253L90.7384 19.9099L89.3602 21.3097C89.1184 21.5837 88.8767 21.856 88.6325 22.1003C88.3907 22.3429 88.1465 22.6169 87.9458 22.8595C87.4622 23.4076 87.0609 23.9521 86.7417 24.4967C86.3814 25.043 86.1469 25.5561 86.0357 26.0972C85.8084 26.9419 85.91 27.5999 86.2968 28.0746C86.6813 28.5494 87.2736 28.8723 88.1078 29.0101Z" fill="#216B39"/>
</g>
</g>
</g>
</g>
</g>
</svg>
